<?xml version="1.0" encoding="UTF-8"?><svg id="Layer_2" xmlns="http://www.w3.org/2000/svg" viewBox="0 0 151.64 135.13"><g id="valve_group_002_closed"><g id="body_group"><rect id="L_mount" x=".5" y="37.64" width="6.52" height="87.18" style="fill:#999; stroke:#000; stroke-miterlimit:10;"/><rect id="R_mount" x="144.62" y="37.64" width="6.52" height="87.18" style="fill:#999; stroke:#000; stroke-miterlimit:10;"/><rect id="neckMount" x="69.63" y="3.9" width="11.48" height="50.03" transform="translate(46.46 104.29) rotate(-90)" style="fill:#999; stroke:#000; stroke-miterlimit:10;"/><path id="body" d="M144.63,49.22v63.89s.2-4.16-12.97-4.16c-11.01,0-13.43,4.16-13.43,4.16-9.74,13.06-25.3,21.53-42.85,21.53s-33.1-8.46-42.85-21.53c0,0-2.27-4.16-12.7-4.16-11.76,0-12.81,4.16-12.81,4.16V49.22s.49,4.39,12.81,4.16c10.08-.19,12.81-4.16,12.81-4.16,4.7-6.26,10.74-11.46,17.71-15.16h50.05c6.96,3.7,13,8.9,17.71,15.16,0,0,3.32,4.16,13.55,4.16,12.39,0,12.97-4.16,12.97-4.16Z" style="fill:#999; stroke:#000; stroke-miterlimit:10;"/><path d="M33.13,113.1s11.15-12.26,11.15-31.87c0-19.61-11.15-32.02-11.15-32.02" style="fill:none; stroke:#000; stroke-miterlimit:10;"/><path d="M118.84,113.1s-11.15-12.26-11.15-31.87,11.15-32.02,11.15-32.02" style="fill:none; stroke:#000; stroke-miterlimit:10;"/></g><g id="solenoid_group"><polygon id="sol_neck" points="79.46 17.66 80.8 23.17 69.81 23.17 71.16 17.66 79.46 17.66" style="fill:#999; stroke:#000; stroke-miterlimit:10;"/><path id="sol_body" d="M68.06,.5h34.88c.56,0,1.01,.45,1.01,1.01v15.14c0,.56-.45,1.01-1.01,1.01h-34.88V.5h0Z" transform="translate(172.01 18.16) rotate(180)" style="fill:#999; stroke:#000; stroke-miterlimit:10;"/><path id="sol_end" d="M108.18,14.57h-4.23V3.58h4.23l1.61,1.61v7.78l-1.61,1.61Z" style="fill:#999; stroke:#000; stroke-miterlimit:10;"/></g><g id="valve_cutaway"><circle cx="75.3" cy="81.23" r="43.59" style="fill:#ccc;"/><path d="M31.71,81.23c0-24.08,19.52-43.59,43.59-43.59,57.82,2.3,57.81,84.9,0,87.18-24.07,0-43.59-19.52-43.59-43.59h0Z" style="fill:none; stroke:#000; stroke-dasharray:0 0 6.85 6.85; stroke-miterlimit:10; stroke-width:1px;"/></g><path id="valve_mechanism" d="M73.72,123.78h3.11c.61,0,1.1-.54,1.1-1.2l3.92-39.81c.1-1.03,.1-2.06,0-3.09l-3.92-39.61c0-.66-.5-1.2-1.1-1.2h-3.11c-.61,0-1.1,.54-1.1,1.2l-3.87,39.62c-.1,1.02-.1,2.05,0,3.07l3.87,39.82c0,.66,.5,1.2,1.1,1.2Z" style="fill:#666; stroke:#000; stroke-miterlimit:10;"/><g id="valve_screw_group"><circle id="valve_screw_01" cx="75.3" cy="81.23" r="3.12" style="fill:#333; stroke:#000; stroke-miterlimit:10; stroke-width:.5px;"/><circle id="valve_screw_02" cx="75.3" cy="81.23" r="1.74" style="fill:#666; stroke:#000; stroke-miterlimit:10; stroke-width:.25px;"/><line id="valve_screw_03" x1="74.07" y1="82.38" x2="76.53" y2="79.93" style="fill:#666; stroke:#000; stroke-miterlimit:10; stroke-width:.25px;"/></g></g><g id="expanded"><g id="valve_group_002_closed-2"><g id="body_group-2"><rect id="L_mount-2" x=".5" y="37.64" width="6.52" height="87.18" style="fill:#999; stroke:#000; stroke-miterlimit:10;"/><rect id="R_mount-2" x="144.62" y="37.64" width="6.52" height="87.18" style="fill:#999; stroke:#000; stroke-miterlimit:10;"/><rect id="neckMount-2" x="69.63" y="3.9" width="11.48" height="50.03" transform="translate(46.46 104.29) rotate(-90)" style="fill:#999; stroke:#000; stroke-miterlimit:10;"/><path id="body-2" d="M144.63,49.22v63.89s.2-4.16-12.97-4.16c-11.01,0-13.43,4.16-13.43,4.16-9.74,13.06-25.3,21.53-42.85,21.53s-33.1-8.46-42.85-21.53c0,0-2.27-4.16-12.7-4.16-11.76,0-12.81,4.16-12.81,4.16V49.22s.49,4.39,12.81,4.16c10.08-.19,12.81-4.16,12.81-4.16,4.7-6.26,10.74-11.46,17.71-15.16h50.05c6.96,3.7,13,8.9,17.71,15.16,0,0,3.32,4.16,13.55,4.16,12.39,0,12.97-4.16,12.97-4.16Z" style="fill:#999; stroke:#000; stroke-miterlimit:10;"/><path d="M33.13,113.1s11.15-12.26,11.15-31.87c0-19.61-11.15-32.02-11.15-32.02" style="fill:none; stroke:#000; stroke-miterlimit:10;"/><path d="M118.84,113.1s-11.15-12.26-11.15-31.87,11.15-32.02,11.15-32.02" style="fill:none; stroke:#000; stroke-miterlimit:10;"/></g><g id="solenoid_group-2"><polygon id="sol_neck-2" points="79.46 17.66 80.8 23.17 69.81 23.17 71.16 17.66 79.46 17.66" style="fill:#999; stroke:#000; stroke-miterlimit:10;"/><path id="sol_body-2" d="M68.06,.5h34.88c.56,0,1.01,.45,1.01,1.01v15.14c0,.56-.45,1.01-1.01,1.01h-34.88V.5h0Z" transform="translate(172.01 18.16) rotate(180)" style="fill:#999; stroke:#000; stroke-miterlimit:10;"/><path id="sol_end-2" d="M108.18,14.57h-4.23V3.58h4.23l1.61,1.61v7.78l-1.61,1.61Z" style="fill:#999; stroke:#000; stroke-miterlimit:10;"/></g><g id="valve_cutaway-2"><circle cx="75.3" cy="81.23" r="43.59" style="fill:#ccc;"/><path d="M75.31,125.32c-2.28,0-4.55-.17-6.77-.51l.15-.99c2.17,.33,4.39,.5,6.6,.5h.12l.04,.99h-.15Zm7.01-.7l-.16-.99c2.26-.37,4.48-.89,6.59-1.55l.3,.96c-2.15,.67-4.41,1.2-6.72,1.58Zm-20.51-1.4c-2.19-.7-4.34-1.59-6.4-2.63l.45-.89c2.01,1.02,4.11,1.88,6.25,2.57l-.3,.95Zm33.66-2.72l-.44-.9c2.04-1,3.99-2.16,5.8-3.45l.58,.81c-1.86,1.33-3.86,2.51-5.95,3.53Zm-45.96-3.5c-1.87-1.35-3.64-2.85-5.27-4.47l.71-.71c1.6,1.58,3.33,3.06,5.15,4.37l-.59,.81Zm57.18-4.51l-.71-.71c1.58-1.59,3.04-3.33,4.34-5.17l.82,.58c-1.33,1.89-2.83,3.67-4.45,5.3Zm-66.97-5.21c-1.37-1.86-2.59-3.84-3.64-5.88l.89-.46c1.03,1.99,2.22,3.93,3.56,5.74l-.81,.59Zm74.92-6.05l-.9-.44c.97-2.01,1.8-4.13,2.46-6.29l.96,.29c-.67,2.22-1.52,4.38-2.52,6.44Zm-81.23-6.2c-.72-2.19-1.27-4.45-1.64-6.72l.99-.16c.36,2.22,.9,4.43,1.6,6.57l-.95,.31Zm85.26-6.99l-.99-.14c.32-2.2,.48-4.44,.48-6.66l1-.09v.09c0,2.27-.17,4.56-.49,6.8Zm-86.46-6.63h-1v-.18c0-2.31,.18-4.63,.54-6.89l.99,.16c-.35,2.21-.52,4.48-.52,6.74v.18Zm85.44-7.01c-.33-2.23-.84-4.45-1.5-6.6l.96-.29c.68,2.19,1.19,4.46,1.53,6.74l-.99,.15Zm-83.35-6.48l-.95-.31c.71-2.19,1.6-4.34,2.65-6.39l.89,.45c-1.02,2.01-1.89,4.11-2.59,6.25Zm79.36-6.4c-1-2.04-2.16-3.99-3.45-5.81l.81-.58c1.33,1.86,2.51,3.86,3.54,5.95l-.9,.44Zm-73.24-5.6l-.81-.59c1.35-1.86,2.87-3.63,4.49-5.26l.71,.71c-1.59,1.59-3.07,3.32-4.39,5.14Zm65.43-5.36c-1.59-1.59-3.33-3.05-5.17-4.34l.58-.82c1.88,1.33,3.67,2.83,5.29,4.45l-.71,.71Zm-55.9-4.17l-.59-.81c1.86-1.35,3.84-2.57,5.89-3.62l.46,.89c-2,1.02-3.94,2.21-5.75,3.54Zm44.92-3.6c-1.99-.96-4.11-1.79-6.29-2.46l.29-.96c2.23,.68,4.4,1.53,6.44,2.52l-.44,.9Zm-32.92-2.54l-.31-.95c2.19-.71,4.45-1.26,6.72-1.61l.16,.99c-2.22,.35-4.43,.88-6.57,1.58Zm20.03-1.45c-2.16-.35-4.41-.57-6.7-.66l-.03-1h.04c2.35,.09,4.64,.32,6.84,.67l-.16,.99Z"/></g><path id="valve_mechanism-2" d="M73.72,123.78h3.11c.61,0,1.1-.54,1.1-1.2l3.92-39.81c.1-1.03,.1-2.06,0-3.09l-3.92-39.61c0-.66-.5-1.2-1.1-1.2h-3.11c-.61,0-1.1,.54-1.1,1.2l-3.87,39.62c-.1,1.02-.1,2.05,0,3.07l3.87,39.82c0,.66,.5,1.2,1.1,1.2Z" style="fill:#666; stroke:#000; stroke-miterlimit:10;"/><g id="valve_screw_group-2"><circle id="valve_screw_01-2" cx="75.3" cy="81.23" r="3.12" style="fill:#333; stroke:#000; stroke-miterlimit:10; stroke-width:.5px;"/><circle id="valve_screw_02-2" cx="75.3" cy="81.23" r="1.74" style="fill:#666; stroke:#000; stroke-miterlimit:10; stroke-width:.25px;"/><line id="valve_screw_03-2" x1="74.07" y1="82.38" x2="76.53" y2="79.93" style="fill:#666; stroke:#000; stroke-miterlimit:10; stroke-width:.25px;"/></g></g></g></svg>