<?xml version="1.0" encoding="UTF-8"?><svg id="Layer_2" xmlns="http://www.w3.org/2000/svg" viewBox="0 0 151.64 145.77"><g id="valve_group001"><g id="body_group"><g id="L_mount"><rect x=".5" y="48.28" width="6.52" height="87.18" style="fill:#999;"/><path d="M7.52,135.97H0V47.78H7.52v88.18Zm-6.52-1H6.52V48.78H1v86.18Z"/></g><g id="R_mount"><rect x="144.62" y="48.28" width="6.52" height="87.18" style="fill:#999;"/><path d="M151.64,135.97h-7.52V47.78h7.52v88.18Zm-6.52-1h5.52V48.78h-5.52v86.18Z"/></g><g id="neckMount"><rect x="69.63" y="14.54" width="11.48" height="50.03" transform="translate(35.82 114.93) rotate(-90)" style="fill:#999;"/><path d="M100.89,45.8H49.86v-12.48h51.03v12.48Zm-50.03-1h49.03v-10.48H50.86v10.48Z"/></g><g id="body"><path d="M144.63,59.86v63.89h-26.4c-9.74,13.06-25.3,21.53-42.85,21.53s-33.1-8.46-42.85-21.53H7.02V59.86h25.63c4.7-6.26,10.74-11.46,17.71-15.16h50.05c6.96,3.7,13,8.9,17.71,15.16h26.52Z" style="fill:#999;"/><path d="M75.38,145.77c-17.1,0-32.8-7.84-43.1-21.53H6.52V59.36h25.88c4.73-6.23,10.85-11.45,17.72-15.1l.11-.06h50.29l.11,.06c6.87,3.65,12.99,8.87,17.72,15.1h26.77V124.24h-26.65c-10.3,13.68-25.99,21.53-43.1,21.53ZM7.52,123.24h25.26l.15,.2c10.11,13.55,25.58,21.32,42.44,21.32s32.34-7.77,42.45-21.32l.15-.2h26.15V60.36h-26.27l-.15-.2c-4.64-6.17-10.66-11.34-17.43-14.96H50.48c-6.77,3.62-12.79,8.79-17.43,14.96l-.15,.2H7.52v62.89Z"/></g><path d="M33.5,124.08l-.74-.67c.11-.12,11.02-12.36,11.02-31.53s-10.91-31.56-11.02-31.69l.74-.67c.11,.13,11.28,12.78,11.28,32.36s-11.17,32.08-11.28,32.2Z"/><path d="M118.47,124.08c-.11-.12-11.28-12.63-11.28-32.2s11.17-32.23,11.28-32.36l.74,.67c-.11,.12-11.02,12.51-11.02,31.69s10.91,31.41,11.02,31.53l-.74,.67Z"/></g><g id="solenoid_group"><g id="sol_neck"><polygon points="81.93 25.71 83.89 33.81 67.75 33.81 69.74 25.71 81.93 25.71" style="fill:#999;"/><path d="M84.53,34.31h-17.42l2.24-9.1h12.97l2.21,9.1Zm-16.14-1h14.87l-1.72-7.1h-11.4l-1.75,7.1Z"/></g><g id="sol_body"><path d="M65.18,.5h51.26c.82,0,1.48,.66,1.48,1.48V24.22c0,.82-.66,1.48-1.48,1.48h-51.26V.5h0Z" transform="translate(183.09 26.21) rotate(180)" style="fill:#999;"/><path d="M118.42,26.21h-51.76c-1.09,0-1.98-.89-1.98-1.98V1.98c0-1.09,.89-1.98,1.98-1.98h51.76V26.21ZM66.66,1c-.54,0-.98,.44-.98,.98V24.22c0,.54,.44,.98,.98,.98h50.76V1h-50.76Z"/></g><g id="sol_end"><path d="M124.14,21.18h-6.22V5.03h6.22l2.36,2.36v11.42l-2.36,2.36Z" style="fill:#999;"/><path d="M124.34,21.68h-6.93V4.53h6.93l2.65,2.65v11.84l-2.65,2.65Zm-5.93-1h5.51l2.07-2.07V7.6l-2.07-2.07h-5.51v15.15Z"/></g></g></g><g id="expanded"><g id="valve_group001-2"><g id="body_group-2"><g id="L_mount-2"><rect x=".5" y="48.28" width="6.52" height="87.18" style="fill:#999;"/><path d="M7.52,135.97H0V47.78H7.52v88.18Zm-6.52-1H6.52V48.78H1v86.18Z"/></g><g id="R_mount-2"><rect x="144.62" y="48.28" width="6.52" height="87.18" style="fill:#999;"/><path d="M151.64,135.97h-7.52V47.78h7.52v88.18Zm-6.52-1h5.52V48.78h-5.52v86.18Z"/></g><g id="neckMount-2"><rect x="69.63" y="14.54" width="11.48" height="50.03" transform="translate(35.82 114.93) rotate(-90)" style="fill:#999;"/><path d="M100.89,45.8H49.86v-12.48h51.03v12.48Zm-50.03-1h49.03v-10.48H50.86v10.48Z"/></g><g id="body-2"><path d="M144.63,59.86v63.89h-26.4c-9.74,13.06-25.3,21.53-42.85,21.53s-33.1-8.46-42.85-21.53H7.02V59.86h25.63c4.7-6.26,10.74-11.46,17.71-15.16h50.05c6.96,3.7,13,8.9,17.71,15.16h26.52Z" style="fill:#999;"/><path d="M75.38,145.77c-17.1,0-32.8-7.84-43.1-21.53H6.52V59.36h25.88c4.73-6.23,10.85-11.45,17.72-15.1l.11-.06h50.29l.11,.06c6.87,3.65,12.99,8.87,17.72,15.1h26.77V124.24h-26.65c-10.3,13.68-25.99,21.53-43.1,21.53ZM7.52,123.24h25.26l.15,.2c10.11,13.55,25.58,21.32,42.44,21.32s32.34-7.77,42.45-21.32l.15-.2h26.15V60.36h-26.27l-.15-.2c-4.64-6.17-10.66-11.34-17.43-14.96H50.48c-6.77,3.62-12.79,8.79-17.43,14.96l-.15,.2H7.52v62.89Z"/></g><path d="M33.5,124.08l-.74-.67c.11-.12,11.02-12.36,11.02-31.53s-10.91-31.56-11.02-31.69l.74-.67c.11,.13,11.28,12.78,11.28,32.36s-11.17,32.08-11.28,32.2Z"/><path d="M118.47,124.08c-.11-.12-11.28-12.63-11.28-32.2s11.17-32.23,11.28-32.36l.74,.67c-.11,.12-11.02,12.51-11.02,31.69s10.91,31.41,11.02,31.53l-.74,.67Z"/></g><g id="solenoid_group-2"><g id="sol_neck-2"><polygon points="81.93 25.71 83.89 33.81 67.75 33.81 69.74 25.71 81.93 25.71" style="fill:#999;"/><path d="M84.53,34.31h-17.42l2.24-9.1h12.97l2.21,9.1Zm-16.14-1h14.87l-1.72-7.1h-11.4l-1.75,7.1Z"/></g><g id="sol_body-2"><path d="M65.18,.5h51.26c.82,0,1.48,.66,1.48,1.48V24.22c0,.82-.66,1.48-1.48,1.48h-51.26V.5h0Z" transform="translate(183.09 26.21) rotate(180)" style="fill:#999;"/><path d="M118.42,26.21h-51.76c-1.09,0-1.98-.89-1.98-1.98V1.98c0-1.09,.89-1.98,1.98-1.98h51.76V26.21ZM66.66,1c-.54,0-.98,.44-.98,.98V24.22c0,.54,.44,.98,.98,.98h50.76V1h-50.76Z"/></g><g id="sol_end-2"><path d="M124.14,21.18h-6.22V5.03h6.22l2.36,2.36v11.42l-2.36,2.36Z" style="fill:#999;"/><path d="M124.34,21.68h-6.93V4.53h6.93l2.65,2.65v11.84l-2.65,2.65Zm-5.93-1h5.51l2.07-2.07V7.6l-2.07-2.07h-5.51v15.15Z"/></g></g></g></g></svg>