<?xml version="1.0" encoding="UTF-8"?><svg id="Layer_2" xmlns="http://www.w3.org/2000/svg" viewBox="0 0 151.64 145.77"><g id="valve_group003"><g id="body_group"><g id="L_mount"><rect x=".5" y="48.28" width="6.52" height="87.18" style="fill:#999;"/><path d="M7.52,135.97H0V47.78H7.52v88.18Zm-6.52-1H6.52V48.78H1v86.18Z"/></g><g id="R_mount"><rect x="144.62" y="48.28" width="6.52" height="87.18" style="fill:#999;"/><path d="M151.64,135.97h-7.52V47.78h7.52v88.18Zm-6.52-1h5.52V48.78h-5.52v86.18Z"/></g><g id="neckMount"><rect x="69.63" y="14.54" width="11.48" height="50.03" transform="translate(35.82 114.93) rotate(-90)" style="fill:#999;"/><path d="M100.89,45.8H49.86v-12.48h51.03v12.48Zm-50.03-1h49.03v-10.48H50.86v10.48Z"/></g><g id="body"><path d="M144.63,59.86v63.89s.2-4.16-12.97-4.16c-11.01,0-13.43,4.16-13.43,4.16-9.74,13.06-25.3,21.53-42.85,21.53s-33.1-8.46-42.85-21.53c0,0-2.27-4.16-12.7-4.16-11.76,0-12.81,4.16-12.81,4.16V59.86s.49,4.39,12.81,4.16c10.08-.19,12.81-4.16,12.81-4.16,4.7-6.26,10.74-11.46,17.71-15.16h50.05c6.96,3.7,13,8.9,17.71,15.16,0,0,3.32,4.16,13.55,4.16,12.39,0,12.97-4.16,12.97-4.16Z" style="fill:#999;"/><path d="M75.38,145.77c-17.19,0-32.95-7.92-43.25-21.73-.06-.1-2.37-3.96-12.29-3.96-11.09,0-12.32,3.76-12.33,3.79l-.98,3.35V59.86l.99-.06s.76,3.93,12.31,3.71c9.64-.18,12.39-3.91,12.41-3.94,4.76-6.34,10.94-11.63,17.88-15.32l.11-.06h50.3l.11,.06c6.94,3.69,13.12,8.98,17.87,15.3,.02,.03,3.34,3.96,13.15,3.96,11.64,0,12.47-3.7,12.48-3.74l.99,.08v63.87s0,.04,0,.04l-1-.05c-.02-.19-.48-3.63-12.47-3.63-10.5,0-12.98,3.88-13,3.92-10.33,13.85-26.09,21.77-43.28,21.77Zm-55.54-26.69c10.6,0,13.04,4.24,13.13,4.42,10.07,13.49,25.54,21.27,42.41,21.27s32.34-7.77,42.45-21.32c.07-.13,2.67-4.36,13.83-4.36,7.81,0,11.09,1.47,12.47,2.77V61.53c-1.38,1.33-4.67,2.99-12.47,2.99-10.35,0-13.8-4.17-13.94-4.35-4.65-6.18-10.67-11.36-17.44-14.98H50.48c-6.77,3.62-12.79,8.79-17.43,14.96-.11,.15-2.98,4.16-13.2,4.36-7.71,.14-10.95-1.52-12.32-2.89v60.55c1.39-1.33,4.67-3.09,12.31-3.09Z"/></g><path d="M33.5,124.08l-.74-.67c.11-.12,11.02-12.36,11.02-31.53s-10.91-31.56-11.02-31.69l.74-.67c.11,.13,11.28,12.78,11.28,32.36s-11.17,32.08-11.28,32.2Z"/><path d="M118.47,124.08c-.11-.12-11.28-12.63-11.28-32.2s11.17-32.23,11.28-32.36l.74,.67c-.11,.12-11.02,12.51-11.02,31.69s10.91,31.41,11.02,31.53l-.74,.67Z"/></g><g id="solenoid_group"><g id="sol_neck"><polygon points="81.93 25.71 83.89 33.81 67.75 33.81 69.74 25.71 81.93 25.71" style="fill:#999;"/><path d="M84.53,34.31h-17.42l2.24-9.1h12.97l2.21,9.1Zm-16.14-1h14.87l-1.72-7.1h-11.4l-1.75,7.1Z"/></g><g id="sol_body"><path d="M65.18,.5h51.26c.82,0,1.48,.66,1.48,1.48V24.22c0,.82-.66,1.48-1.48,1.48h-51.26V.5h0Z" transform="translate(183.09 26.21) rotate(180)" style="fill:#999;"/><path d="M118.42,26.21h-51.75c-1.09,0-1.98-.89-1.98-1.98V1.98c0-1.09,.89-1.98,1.98-1.98h51.75V26.21ZM66.66,1c-.54,0-.98,.44-.98,.98V24.22c0,.54,.44,.98,.98,.98h50.75V1h-50.75Z"/></g><g id="sol_end"><path d="M124.14,21.18h-6.22V5.03h6.22l2.36,2.36v11.42l-2.36,2.36Z" style="fill:#999;"/><path d="M124.34,21.68h-6.93V4.53h6.93l2.65,2.65v11.84l-2.65,2.65Zm-5.93-1h5.51l2.07-2.07V7.6l-2.07-2.07h-5.51v15.15Z"/></g></g></g><g id="expanded"><g id="valve_group003-2"><g id="body_group-2"><g id="L_mount-2"><rect x=".5" y="48.28" width="6.52" height="87.18" style="fill:#999;"/><path d="M7.52,135.97H0V47.78H7.52v88.18Zm-6.52-1H6.52V48.78H1v86.18Z"/></g><g id="R_mount-2"><rect x="144.62" y="48.28" width="6.52" height="87.18" style="fill:#999;"/><path d="M151.64,135.97h-7.52V47.78h7.52v88.18Zm-6.52-1h5.52V48.78h-5.52v86.18Z"/></g><g id="neckMount-2"><rect x="69.63" y="14.54" width="11.48" height="50.03" transform="translate(35.82 114.93) rotate(-90)" style="fill:#999;"/><path d="M100.89,45.8H49.86v-12.48h51.03v12.48Zm-50.03-1h49.03v-10.48H50.86v10.48Z"/></g><g id="body-2"><path d="M144.63,59.86v63.89s.2-4.16-12.97-4.16c-11.01,0-13.43,4.16-13.43,4.16-9.74,13.06-25.3,21.53-42.85,21.53s-33.1-8.46-42.85-21.53c0,0-2.27-4.16-12.7-4.16-11.76,0-12.81,4.16-12.81,4.16V59.86s.49,4.39,12.81,4.16c10.08-.19,12.81-4.16,12.81-4.16,4.7-6.26,10.74-11.46,17.71-15.16h50.05c6.96,3.7,13,8.9,17.71,15.16,0,0,3.32,4.16,13.55,4.16,12.39,0,12.97-4.16,12.97-4.16Z" style="fill:#999;"/><path d="M75.38,145.77c-17.19,0-32.95-7.92-43.25-21.73-.06-.1-2.37-3.96-12.29-3.96-11.09,0-12.32,3.76-12.33,3.79l-.98,3.35V59.86l.99-.06s.76,3.93,12.31,3.71c9.64-.18,12.39-3.91,12.41-3.94,4.76-6.34,10.94-11.63,17.88-15.32l.11-.06h50.3l.11,.06c6.94,3.69,13.12,8.98,17.87,15.3,.02,.03,3.34,3.96,13.15,3.96,11.64,0,12.47-3.7,12.48-3.74l.99,.08v63.87s0,.04,0,.04l-1-.05c-.02-.19-.48-3.63-12.47-3.63-10.5,0-12.98,3.88-13,3.92-10.33,13.85-26.09,21.77-43.28,21.77Zm-55.54-26.69c10.6,0,13.04,4.24,13.13,4.42,10.07,13.49,25.54,21.27,42.41,21.27s32.34-7.77,42.45-21.32c.07-.13,2.67-4.36,13.83-4.36,7.81,0,11.09,1.47,12.47,2.77V61.53c-1.38,1.33-4.67,2.99-12.47,2.99-10.35,0-13.8-4.17-13.94-4.35-4.65-6.18-10.67-11.36-17.44-14.98H50.48c-6.77,3.62-12.79,8.79-17.43,14.96-.11,.15-2.98,4.16-13.2,4.36-7.71,.14-10.95-1.52-12.32-2.89v60.55c1.39-1.33,4.67-3.09,12.31-3.09Z"/></g><path d="M33.5,124.08l-.74-.67c.11-.12,11.02-12.36,11.02-31.53s-10.91-31.56-11.02-31.69l.74-.67c.11,.13,11.28,12.78,11.28,32.36s-11.17,32.08-11.28,32.2Z"/><path d="M118.47,124.08c-.11-.12-11.28-12.63-11.28-32.2s11.17-32.23,11.28-32.36l.74,.67c-.11,.12-11.02,12.51-11.02,31.69s10.91,31.41,11.02,31.53l-.74,.67Z"/></g><g id="solenoid_group-2"><g id="sol_neck-2"><polygon points="81.93 25.71 83.89 33.81 67.75 33.81 69.74 25.71 81.93 25.71" style="fill:#999;"/><path d="M84.53,34.31h-17.42l2.24-9.1h12.97l2.21,9.1Zm-16.14-1h14.87l-1.72-7.1h-11.4l-1.75,7.1Z"/></g><g id="sol_body-2"><path d="M65.18,.5h51.26c.82,0,1.48,.66,1.48,1.48V24.22c0,.82-.66,1.48-1.48,1.48h-51.26V.5h0Z" transform="translate(183.09 26.21) rotate(180)" style="fill:#999;"/><path d="M118.42,26.21h-51.75c-1.09,0-1.98-.89-1.98-1.98V1.98c0-1.09,.89-1.98,1.98-1.98h51.75V26.21ZM66.66,1c-.54,0-.98,.44-.98,.98V24.22c0,.54,.44,.98,.98,.98h50.75V1h-50.75Z"/></g><g id="sol_end-2"><path d="M124.14,21.18h-6.22V5.03h6.22l2.36,2.36v11.42l-2.36,2.36Z" style="fill:#999;"/><path d="M124.34,21.68h-6.93V4.53h6.93l2.65,2.65v11.84l-2.65,2.65Zm-5.93-1h5.51l2.07-2.07V7.6l-2.07-2.07h-5.51v15.15Z"/></g></g></g></g></svg>