<?xml version="1.0" encoding="UTF-8"?><svg xmlns="http://www.w3.org/2000/svg" viewBox="0 0 158.77 158.78"><g id="a"/><g id="b"><g id="c"><g id="d"><g id="e"><path d="M79.39,.5C35.82,.5,.5,35.82,.5,79.39s35.32,78.89,78.89,78.89,78.89-35.32,78.89-78.89S122.96,.5,79.39,.5Zm0,145.56c-36.82,0-66.67-29.85-66.67-66.67S42.56,12.71,79.39,12.71s66.67,29.85,66.67,66.67-29.85,66.67-66.67,66.67Z" style="fill:#999;"/><path d="M79.39,158.78C35.61,158.78,0,123.16,0,79.39S35.61,0,79.39,0s79.39,35.61,79.39,79.39-35.61,79.39-79.39,79.39ZM79.39,1C36.16,1,1,36.16,1,79.39s35.16,78.39,78.39,78.39,78.39-35.17,78.39-78.39S122.61,1,79.39,1Zm0,145.56c-37.04,0-67.17-30.13-67.17-67.17S42.35,12.21,79.39,12.21s67.17,30.13,67.17,67.17-30.13,67.17-67.17,67.17Zm0-133.35C42.9,13.21,13.21,42.9,13.21,79.39s29.69,66.17,66.17,66.17,66.17-29.68,66.17-66.17S115.88,13.21,79.39,13.21Z"/></g></g><g id="f"><g id="g"><path d="M135.41,102.38c-8.39,2.61-10.69,.12-13.75-3.55-9.71,10.94-20.97,.31-20.97,.31,0,0-10.99,10.86-21.18-.32-9.7,13-20.82-.28-20.82-.28,0,0-12.27,11.39-20.22-.61-5.59,7.91-13.94,4.95-15.06,4.5-2.93-7.1-4.54-14.88-4.54-23.04,0-7.17,1.25-14.05,3.54-20.44,.3-.86,.63-1.72,.99-2.56,.36,.31,9.19,7.76,15.07-.56,7.95,12,20.22,.6,20.22,.6,0,0,11.12,13.28,20.82,.29,10.19,11.17,21.18,.32,21.18,.32,0,0,11.26,10.63,20.97-.32,3.06,3.68,6.35,7.56,14.74,1.63,.55,1.49,1.04,3.01,1.48,4.55,1.48,5.24,2.27,10.78,2.27,16.49,0,13.4-4.33,22-4.74,22.99Z" style="fill:#eaeaea;"/><g><path d="M133.6,103.4l-.24-.97c.53-.13,1.09-.28,1.68-.46,.02-.04,.04-.08,.06-.12,.14-.32,.37-.82,.64-1.49l.93,.38c-.28,.68-.51,1.19-.66,1.52-.06,.14-.11,.25-.14,.32l-.09,.22-.22,.07c-.69,.21-1.34,.4-1.96,.54Z" style="fill:#777;"/><path d="M129.52,103.96c-1.43,0-2.66-.26-3.77-.8l.43-.9c.97,.47,2.07,.7,3.34,.7h.16l.02,1h-.18Z" style="fill:#777;"/><path d="M122.6,100.68c-.32-.35-.63-.71-.96-1.09-.34,.37-.7,.71-1.05,1.04l-.67-.74c.46-.42,.92-.89,1.37-1.39l.39-.43,.37,.45c.44,.53,.86,1.03,1.29,1.49l-.74,.68Z" style="fill:#777;"/><path d="M113.37,104.16l-.13-.99c1.23-.17,2.43-.54,3.58-1.12l.45,.89c-1.24,.63-2.55,1.03-3.89,1.21Zm-4.07-.12c-1.27-.23-2.56-.65-3.85-1.23l.41-.91c1.21,.55,2.43,.94,3.62,1.16l-.18,.98Z" style="fill:#777;"/><path d="M99.45,100.81l-.6-.8c.93-.69,1.48-1.22,1.48-1.23l.34-.34,.35,.33s.56,.53,1.51,1.2l-.58,.81c-.56-.4-.99-.75-1.26-.98-.27,.24-.69,.59-1.25,1Z" style="fill:#777;"/><path d="M87.91,104.24c-1.35-.2-2.67-.63-3.93-1.27l.46-.89c1.17,.6,2.38,.99,3.62,1.17l-.15,.99Zm4.13-.08l-.18-.98c1.21-.22,2.44-.61,3.66-1.18l.42,.91c-1.3,.6-2.62,1.03-3.91,1.26Z" style="fill:#777;"/><path d="M78.61,100.7l-.74-.67c.42-.46,.84-.97,1.24-1.51l.36-.49,.41,.45c.45,.5,.92,.96,1.38,1.38l-.67,.74c-.35-.31-.7-.65-1.05-1.01-.31,.39-.62,.77-.94,1.11Z" style="fill:#777;"/><path d="M71.3,104.93l-.14-.99c1.26-.17,2.49-.62,3.66-1.34l.52,.85c-1.29,.79-2.65,1.28-4.05,1.47Zm-4.29-.31c-1.29-.35-2.6-.93-3.9-1.72l.52-.85c1.22,.74,2.44,1.29,3.64,1.61l-.26,.96Z" style="fill:#777;"/><path d="M59.75,100.33c-.48-.45-.85-.83-1.1-1.09-.27,.23-.69,.56-1.22,.95l-.59-.81c.94-.69,1.51-1.21,1.51-1.21l.39-.36,.34,.4s.5,.59,1.35,1.38l-.68,.73Z" style="fill:#777;"/><path d="M46.21,103.84c-1.36-.18-2.66-.62-3.85-1.33l.51-.86c1.07,.64,2.24,1.04,3.46,1.2l-.13,.99Zm4.05-.22l-.22-.98c1.15-.26,2.34-.69,3.55-1.28l.44,.9c-1.28,.63-2.55,1.08-3.77,1.36Z" style="fill:#777;"/><path d="M39.29,99.86c-.29-.33-.56-.69-.83-1.07-.28,.37-.58,.71-.88,1.04l-.73-.68c.42-.46,.83-.96,1.22-1.51l.42-.6,.4,.61c.37,.56,.76,1.08,1.17,1.56l-.76,.65Z" style="fill:#777;"/><path d="M29.68,103.78l-.09-1c1.41-.13,2.75-.51,3.97-1.13l.45,.89c-1.33,.67-2.78,1.09-4.32,1.23Z" style="fill:#777;"/><path d="M25.22,103.49c-1.01-.22-1.73-.49-1.99-.6l-.2-.08-.08-.2c-.26-.62-.5-1.25-.74-1.88l.94-.35c.21,.55,.42,1.1,.64,1.65,.32,.12,.89,.31,1.64,.47l-.22,.98Z" style="fill:#777;"/><path d="M20.95,96.99c-.38-1.26-.72-2.55-1.02-3.83l.97-.22c.29,1.26,.63,2.52,1,3.76l-.96,.29Zm-1.78-7.71c-.21-1.3-.38-2.62-.51-3.93l1-.1c.12,1.28,.29,2.58,.5,3.86l-.99,.16Zm-.76-7.88c-.02-.67-.03-1.34-.03-2.01s.01-1.3,.03-1.95l1,.03c-.02,.64-.03,1.28-.03,1.92s.01,1.32,.03,1.98l-1,.03Zm1.24-7.82l-1-.1c.13-1.31,.3-2.63,.51-3.93l.99,.16c-.21,1.28-.37,2.58-.5,3.86Zm1.25-7.69l-.97-.22c.29-1.28,.64-2.57,1.01-3.83l.96,.29c-.37,1.24-.71,2.5-1,3.77Z" style="fill:#777;"/><path d="M23.13,58.42l-.94-.35c.23-.63,.48-1.26,.75-1.88l.27-.63,.52,.45c.06,.05,.64,.55,1.56,1.13l-.54,.84c-.47-.3-.86-.58-1.14-.79-.17,.41-.32,.82-.48,1.23Z" style="fill:#777;"/><path d="M31.59,60.25c-.87,0-1.78-.13-2.7-.38l.26-.96c1.46,.4,2.86,.45,4.12,.15l.23,.97c-.62,.15-1.26,.22-1.92,.22Z" style="fill:#777;"/><path d="M39.29,57.76c-.29-.34-.57-.69-.84-1.07-.3,.37-.6,.72-.92,1.03l-.71-.71c.43-.43,.84-.92,1.23-1.47l.42-.6,.4,.61c.37,.56,.76,1.08,1.17,1.56l-.76,.65Z" style="fill:#777;"/><path d="M46.21,61.74c-1.36-.17-2.66-.62-3.85-1.34l.51-.86c1.07,.64,2.24,1.04,3.46,1.2l-.13,.99Zm4.05-.23l-.22-.98c1.15-.26,2.34-.69,3.55-1.28l.44,.9c-1.28,.63-2.55,1.09-3.77,1.36Z" style="fill:#777;"/><path d="M59.75,58.22c-.48-.45-.85-.83-1.1-1.09-.27,.23-.69,.56-1.22,.95l-.59-.81c.94-.69,1.5-1.21,1.51-1.21l.38-.36,.34,.4s.5,.59,1.35,1.38l-.68,.73Z" style="fill:#777;"/><path d="M71.29,62.83l-.13-.99c1.26-.17,2.49-.62,3.66-1.33l.52,.85c-1.29,.78-2.65,1.28-4.05,1.47Zm-4.29-.32c-1.29-.35-2.6-.93-3.89-1.73l.52-.85c1.22,.74,2.44,1.29,3.64,1.61l-.26,.96Z" style="fill:#777;"/><path d="M78.61,58.6l-.74-.67c.42-.46,.84-.97,1.24-1.51l.36-.48,.41,.45c.45,.5,.92,.96,1.38,1.38l-.67,.74c-.35-.32-.7-.65-1.05-1.01-.31,.39-.62,.77-.94,1.11Z" style="fill:#777;"/><path d="M87.9,62.13c-1.35-.2-2.67-.63-3.93-1.28l.46-.89c1.16,.6,2.38,.99,3.62,1.18l-.15,.99Zm4.13-.07l-.17-.98c1.21-.21,2.44-.61,3.67-1.17l.42,.91c-1.3,.6-2.62,1.02-3.91,1.25Z" style="fill:#777;"/><path d="M99.45,58.71l-.59-.8c.93-.69,1.48-1.22,1.48-1.23l.34-.34,.35,.33s.56,.53,1.51,1.2l-.58,.81c-.56-.4-.99-.75-1.26-.98-.27,.24-.69,.59-1.25,1Z" style="fill:#777;"/><path d="M113.36,62.06l-.13-.99c1.23-.16,2.43-.54,3.58-1.12l.45,.89c-1.24,.63-2.55,1.03-3.89,1.21Zm-4.07-.12c-1.27-.23-2.56-.65-3.85-1.23l.41-.91c1.21,.55,2.43,.94,3.62,1.16l-.18,.98Z" style="fill:#777;"/><path d="M122.59,58.57c-.32-.36-.64-.72-.95-1.09-.35,.37-.7,.72-1.05,1.04l-.67-.74c.46-.42,.92-.88,1.37-1.39l.39-.44,.37,.45c.42,.5,.84,1.01,1.29,1.5l-.74,.67Z" style="fill:#777;"/><path d="M128.88,61.91c-.93,0-1.83-.18-2.68-.54l.39-.92c1.22,.52,2.52,.6,3.99,.25l.23,.97c-.67,.16-1.32,.24-1.94,.24Z" style="fill:#777;"/><path d="M136.59,60.39c-.14-.42-.28-.84-.43-1.26-.4,.27-.79,.52-1.17,.74l-.51-.86c.53-.32,1.08-.68,1.64-1.08l.53-.38,.23,.61c.23,.63,.45,1.26,.67,1.9l-.95,.32Z" style="fill:#777;"/><path d="M137.96,97.17l-.95-.3c.37-1.15,.7-2.35,1-3.57l.97,.24c-.3,1.24-.65,2.46-1.02,3.63Zm1.79-7.33l-.98-.17c.21-1.2,.38-2.43,.52-3.67l.99,.11c-.14,1.26-.32,2.52-.53,3.73Zm.83-7.49l-1-.05c.04-.97,.07-1.95,.07-2.92v-.79h1v.79c0,.98-.02,1.98-.07,2.96Zm-1.1-7.46c-.09-1.23-.22-2.48-.39-3.69l.99-.13c.17,1.23,.3,2.49,.39,3.75l-1,.07Zm-1-7.34c-.24-1.21-.52-2.42-.84-3.61l.97-.26c.32,1.21,.61,2.44,.85,3.67l-.98,.2Z" style="fill:#777;"/></g></g><g id="h"><path d="M23.28,102.38s9.19,4.04,15.19-4.45c7.96,12,20.22,.61,20.22,.61,0,0,11.12,13.28,20.82,.29,10.19,11.17,21.18,.31,21.18,.31,0,0,11.26,10.63,20.97-.31,3.06,3.67,5.37,6.16,13.75,3.55-20.85,51.26-91.65,48.58-112.13,0Z" style="fill:#999;"/><path d="M80.12,140.32c-25.15,0-47.61-14.78-57.3-37.75l-.49-1.16,1.15,.5c.36,.16,8.89,3.77,14.58-4.28l.42-.6,.4,.61c2.06,3.1,4.59,4.85,7.53,5.21,6.02,.72,11.88-4.63,11.93-4.69l.39-.36,.34,.4c.05,.06,5.09,6,11.13,5.81,3.26-.09,6.26-1.94,8.91-5.5l.36-.49,.41,.45c2.87,3.15,6.07,4.79,9.52,4.88,6.08,.13,10.89-4.54,10.94-4.59l.34-.34,.35,.33c.05,.05,5.08,4.77,11.21,4.49,3.33-.15,6.37-1.75,9.04-4.77l.39-.43,.37,.45c2.89,3.46,4.97,5.96,13.22,3.39l1.01-.31-.4,.98c-9.41,23.13-30.62,37.6-55.35,37.76-.13,0-.27,0-.4,0ZM24.19,103.21c9.76,22.01,31.56,36.11,55.93,36.11,.13,0,.26,0,.4,0,23.97-.15,44.58-13.98,54.03-36.17-7.71,2.13-10.26-.42-12.9-3.57-2.77,2.95-5.92,4.52-9.36,4.67-5.62,.25-10.29-3.34-11.58-4.45-1.23,1.09-5.54,4.56-10.98,4.56-.11,0-.22,0-.33,0-3.57-.09-6.88-1.7-9.84-4.77-2.76,3.5-5.89,5.33-9.33,5.42-5.65,.19-10.3-4.4-11.58-5.78-1.45,1.23-6.71,5.29-12.35,4.61-3.06-.36-5.69-2.07-7.85-5.06-4.89,6.33-11.64,5.19-14.27,4.43Z" style="fill:#231f20;"/></g></g></g></g></svg>