<?xml version="1.0" encoding="UTF-8"?><svg id="a" xmlns="http://www.w3.org/2000/svg" viewBox="0 0 181.89 181.48"><defs><style>.h{fill:#999;}.i{fill:#231f20;}</style></defs><g id="b"><g id="c"><path class="h" d="M90.94,11.85C47.38,11.85,12.06,47.17,12.06,90.74s35.32,78.89,78.89,78.89,78.89-35.32,78.89-78.89S134.51,11.85,90.94,11.85Zm0,145.56c-36.82,0-66.67-29.85-66.67-66.67S54.12,24.07,90.94,24.07s66.67,29.85,66.67,66.67-29.85,66.67-66.67,66.67Z"/><path d="M90.94,170.13c-43.77,0-79.39-35.61-79.39-79.39S47.17,11.35,90.94,11.35s79.39,35.61,79.39,79.39-35.61,79.39-79.39,79.39Zm0-157.78C47.72,12.35,12.56,47.52,12.56,90.74s35.16,78.39,78.39,78.39,78.39-35.17,78.39-78.39S134.17,12.35,90.94,12.35Zm0,145.56c-37.04,0-67.17-30.13-67.17-67.17S53.9,23.57,90.94,23.57s67.17,30.13,67.17,67.17-30.13,67.17-67.17,67.17Zm0-133.35c-36.49,0-66.17,29.69-66.17,66.17s29.69,66.17,66.17,66.17,66.17-29.68,66.17-66.17S127.43,24.57,90.94,24.57Z"/></g></g><g id="d"><g id="e"><path d="M145.64,114.59l-.23-.88c.39-.1,.8-.22,1.23-.35,.02-.04,.04-.1,.07-.15,.11-.24,.26-.58,.45-1.02l.84,.36c-.19,.45-.35,.79-.46,1.04-.07,.15-.12,.26-.14,.33l-.08,.2-.2,.06c-.51,.16-1,.3-1.46,.42Z"/><path d="M141.07,115.27c-.18,0-.35,0-.52-.01l.04-.91c.72,.03,1.53-.01,2.41-.14l.13,.9c-.73,.11-1.42,.16-2.06,.16Zm-3.1-.51c-.8-.3-1.55-.73-2.28-1.32l.57-.71c.65,.53,1.32,.91,2.03,1.17l-.31,.85Z"/><path d="M133.85,111.62c-.21-.24-.43-.49-.65-.75-.24,.25-.47,.49-.71,.72l-.63-.65c.34-.33,.68-.68,1.01-1.06l.35-.39,.34,.4c.33,.39,.64,.77,.96,1.13l-.68,.6Z"/><path d="M123.32,115.58c-.63-.01-1.3-.05-1.95-.14l.13-.9c.61,.09,1.2,.13,1.81,.13,.34,0,.68-.01,1.02-.05l.08,.9c-.37,.03-.74,.05-1.1,.05Zm4.09-.72l-.31-.85c.87-.31,1.72-.74,2.54-1.28l.5,.76c-.88,.57-1.79,1.03-2.72,1.37Zm-8.98-.17c-.91-.33-1.84-.75-2.75-1.25l.44-.8c.87,.48,1.75,.88,2.62,1.19l-.3,.86Z"/><path d="M111.39,111.82l-.56-.72c.7-.54,1.09-.93,1.1-.94l.31-.31,.32,.3s.41,.38,1.12,.92l-.54,.73c-.38-.29-.67-.53-.88-.7-.2,.18-.49,.43-.86,.72Z"/><path d="M101.27,115.68c-.43,0-.86-.02-1.29-.07l.1-.9c.97,.1,1.91,.08,2.87-.06l.13,.9c-.61,.08-1.21,.13-1.81,.13Zm-4.3-.78c-.94-.35-1.86-.82-2.75-1.4l.5-.76c.83,.54,1.69,.99,2.57,1.31l-.32,.85Zm9.1-.1l-.31-.85c.88-.32,1.77-.73,2.64-1.22l.45,.79c-.92,.52-1.85,.95-2.78,1.28Z"/><path d="M90.47,111.64l-.69-.59c.31-.36,.61-.74,.92-1.15l.33-.44,.37,.41c.34,.38,.68,.72,1.03,1.05l-.62,.66c-.23-.22-.47-.46-.7-.7-.21,.27-.42,.52-.63,.77Z"/><path d="M81.49,116.33c-.78,0-1.58-.09-2.38-.27l.2-.89c.99,.22,1.96,.3,2.94,.22l.08,.9c-.28,.02-.56,.04-.83,.04Zm3.96-.82l-.36-.83c.86-.37,1.72-.89,2.54-1.54l.56,.71c-.88,.7-1.8,1.26-2.74,1.66Zm-9.35-.53c-.9-.44-1.82-1-2.71-1.64l.53-.73c.85,.62,1.72,1.14,2.58,1.56l-.4,.82Z"/><path d="M70.96,111.3c-.32-.31-.58-.58-.76-.77-.2,.17-.48,.4-.84,.67l-.55-.72c.71-.54,1.12-.92,1.12-.92l.35-.32,.31,.36s.37,.43,1,1.05l-.63,.65Z"/><path d="M59.12,115.23c-.28,0-.56-.01-.84-.03l.07-.9c.92,.07,1.84,.01,2.79-.16l.17,.89c-.74,.14-1.48,.21-2.19,.21Zm-3.81-.73c-.92-.37-1.8-.9-2.62-1.55l.57-.71c.75,.6,1.56,1.08,2.4,1.42l-.34,.84Zm8.89-.32l-.34-.84c.85-.34,1.71-.76,2.57-1.26l.46,.79c-.89,.52-1.8,.96-2.69,1.32Z"/><path d="M50.55,110.78c-.18-.23-.36-.47-.54-.72-.19,.24-.38,.48-.57,.7l-.69-.59c.31-.36,.61-.74,.9-1.15l.38-.54,.37,.55c.28,.42,.57,.82,.86,1.18l-.71,.56Z"/><path d="M39.96,115.15c-.28,0-.55,0-.82-.02l.05-.91c.87,.05,1.82,.01,2.7-.13l.14,.9c-.67,.11-1.37,.16-2.07,.16Zm4.86-.96l-.35-.84c.81-.34,1.6-.79,2.32-1.34l.54,.73c-.79,.59-1.63,1.08-2.52,1.45Z"/><path d="M36.28,114.68c-.76-.19-1.29-.4-1.48-.47l-.18-.07-.07-.18c-.19-.46-.38-.93-.56-1.4l.85-.33c.15,.4,.31,.8,.48,1.2,.24,.09,.65,.23,1.19,.37l-.23,.88Z"/><path d="M32.99,109.75c-.31-.93-.59-1.89-.86-2.84l.88-.24c.26,.94,.54,1.88,.84,2.8l-.86,.28Zm-1.57-5.72c-.21-.96-.41-1.94-.57-2.91l.89-.15c.17,.96,.35,1.93,.56,2.87l-.89,.2Zm-1-5.85c-.12-.97-.21-1.97-.29-2.95l.91-.07c.07,.97,.17,1.95,.28,2.91l-.9,.11Zm-.43-5.92c-.01-.5-.02-1.01-.02-1.52,0-.48,0-.97,.02-1.45l.91,.02c-.01,.48-.02,.95-.02,1.43,0,.5,0,1,.02,1.49l-.91,.02Zm1.04-5.87l-.91-.07c.07-.98,.17-1.98,.28-2.96l.9,.11c-.12,.96-.21,1.94-.28,2.91Zm.7-5.81l-.89-.15c.17-.97,.36-1.95,.57-2.91l.89,.2c-.21,.95-.4,1.91-.56,2.87Zm1.26-5.71l-.88-.24c.26-.96,.55-1.91,.85-2.84l.86,.28c-.3,.92-.58,1.86-.84,2.8Z"/><path d="M34.82,69.3l-.85-.32c.18-.47,.37-.94,.57-1.41l.24-.57,.47,.41s.44,.38,1.16,.87l-.51,.75c-.3-.21-.56-.39-.76-.54-.11,.27-.22,.55-.33,.82Z"/><path d="M44.24,71.49l-.12-.9c.89-.12,1.74-.4,2.53-.84l.44,.79c-.89,.5-1.85,.81-2.85,.95Zm-2.98-.12c-.91-.18-1.85-.49-2.8-.92l.37-.83c.89,.4,1.76,.69,2.61,.85l-.18,.89Z"/><path d="M50.55,68.68c-.18-.23-.36-.47-.54-.72-.19,.25-.39,.48-.59,.7l-.67-.61c.31-.34,.62-.72,.9-1.13l.38-.54,.37,.55c.28,.42,.57,.82,.86,1.18l-.71,.57Z"/><path d="M59.11,73.13c-.28,0-.56-.01-.84-.03l.07-.91c.92,.07,1.84,.02,2.8-.16l.17,.89c-.74,.14-1.48,.21-2.19,.21Zm-3.82-.74c-.92-.37-1.8-.9-2.62-1.56l.57-.71c.75,.6,1.56,1.08,2.39,1.43l-.34,.84Zm8.9-.32l-.34-.84c.84-.34,1.71-.76,2.57-1.26l.46,.79c-.9,.52-1.8,.96-2.69,1.32Z"/><path d="M70.96,69.19c-.32-.31-.58-.58-.76-.77-.2,.17-.48,.4-.84,.67l-.55-.72c.71-.54,1.12-.92,1.12-.92l.35-.32,.31,.37s.37,.43,1,1.05l-.63,.65Z"/><path d="M81.49,74.22c-.79,0-1.6-.09-2.4-.28l.2-.89c.99,.23,1.96,.3,2.94,.22l.07,.91c-.27,.02-.54,.03-.81,.03Zm3.94-.81l-.36-.83c.87-.37,1.72-.88,2.54-1.53l.56,.71c-.88,.7-1.81,1.25-2.75,1.65Zm-9.35-.54c-.91-.44-1.82-1-2.71-1.65l.53-.73c.85,.62,1.72,1.14,2.57,1.56l-.4,.82Z"/><path d="M90.47,69.54l-.69-.59c.31-.36,.61-.74,.92-1.15l.33-.44,.37,.41c.34,.37,.68,.72,1.03,1.05l-.62,.66c-.24-.22-.47-.46-.7-.7-.21,.27-.42,.52-.63,.77Z"/><path d="M101.27,73.58c-.44,0-.88-.02-1.3-.07l.1-.9c.97,.1,1.91,.08,2.87-.05l.12,.9c-.6,.08-1.2,.12-1.79,.12Zm-4.32-.78c-.94-.35-1.86-.82-2.75-1.4l.5-.76c.83,.55,1.69,.99,2.57,1.31l-.32,.85Zm9.09-.09l-.31-.85c.88-.32,1.77-.73,2.64-1.22l.45,.79c-.92,.52-1.85,.95-2.78,1.28Z"/><path d="M111.39,69.72l-.56-.72c.7-.54,1.09-.93,1.1-.94l.31-.31,.32,.3s.41,.38,1.12,.92l-.54,.73c-.38-.28-.68-.53-.88-.7-.2,.18-.49,.43-.86,.72Z"/><path d="M123.28,73.48c-.63,0-1.28-.05-1.92-.14l.13-.9c.96,.14,1.89,.18,2.83,.09l.08,.9c-.38,.03-.75,.05-1.13,.05Zm4.11-.71l-.31-.85c.87-.31,1.72-.74,2.54-1.27l.5,.76c-.88,.57-1.79,1.03-2.73,1.37Zm-8.98-.18c-.92-.33-1.84-.75-2.75-1.25l.44-.79c.87,.48,1.75,.88,2.62,1.19l-.31,.85Z"/><path d="M133.84,69.51c-.22-.25-.43-.5-.64-.75-.24,.25-.47,.49-.71,.72l-.63-.65c.34-.33,.68-.68,1.01-1.06l.35-.4,.34,.41c.32,.38,.64,.76,.96,1.14l-.68,.6Z"/><path d="M141.56,73.13l-.13-.9c.8-.12,1.68-.38,2.59-.77l.36,.83c-.99,.43-1.94,.71-2.82,.84Zm-3-.18c-.91-.26-1.78-.72-2.64-1.4l.56-.71c.77,.61,1.53,1.01,2.33,1.24l-.25,.87Z"/><path d="M148.03,71.26c-.1-.28-.2-.57-.3-.85-.27,.18-.53,.35-.78,.51l-.48-.77c.4-.25,.81-.52,1.23-.82l.48-.34,.21,.55c.17,.47,.34,.94,.5,1.42l-.86,.29Z"/><path d="M149.02,109.88l-.86-.3c.3-.86,.59-1.75,.85-2.65l.87,.25c-.27,.92-.56,1.83-.86,2.7Zm1.58-5.44l-.88-.21c.21-.9,.4-1.82,.57-2.73l.89,.16c-.17,.92-.36,1.85-.58,2.77Zm1.02-5.57l-.9-.12c.12-.9,.23-1.84,.31-2.77l.9,.08c-.08,.95-.19,1.9-.31,2.81Zm.49-5.64l-.91-.04c.03-.8,.05-1.62,.05-2.46v-.33h.91v.33c0,.85-.02,1.68-.05,2.49Zm-.94-5.61c-.05-.93-.12-1.86-.21-2.78l.9-.09c.09,.93,.16,1.88,.21,2.82l-.91,.05Zm-.54-5.55c-.13-.92-.29-1.84-.46-2.75l.89-.17c.18,.92,.33,1.85,.47,2.79l-.9,.13Zm-1.05-5.47c-.18-.75-.38-1.5-.58-2.23l-.13-.46,.87-.25,.13,.47c.21,.75,.41,1.51,.59,2.27l-.88,.21Z"/></g><g id="f"><path class="h" d="M34.84,113.73s9.19,4.04,15.19-4.45c7.96,12,20.22,.61,20.22,.61,0,0,11.12,13.28,20.82,.29,10.19,11.17,21.18,.31,21.18,.31,0,0,11.26,10.63,20.97-.31,3.06,3.67,5.37,6.16,13.75,3.55-20.85,51.26-91.65,48.58-112.13,0Z"/><path class="i" d="M91.67,151.68c-25.15,0-47.61-14.78-57.3-37.75l-.49-1.16,1.15,.5c.36,.16,8.89,3.77,14.58-4.28l.42-.6,.4,.61c2.06,3.1,4.59,4.85,7.53,5.21,6.02,.72,11.88-4.63,11.93-4.69l.39-.36,.34,.4c.05,.06,5.09,6,11.13,5.81,3.26-.09,6.26-1.94,8.91-5.5l.36-.49,.41,.45c2.87,3.15,6.07,4.79,9.52,4.88,6.08,.13,10.89-4.54,10.94-4.59l.34-.34,.35,.33c.05,.05,5.08,4.77,11.21,4.49,3.33-.15,6.37-1.75,9.04-4.77l.39-.43,.37,.45c2.89,3.46,4.97,5.96,13.22,3.39l1.01-.31-.4,.98c-9.41,23.13-30.62,37.6-55.35,37.76-.13,0-.27,0-.4,0Zm-55.93-37.11c9.76,22.01,31.56,36.11,55.93,36.11,.13,0,.26,0,.4,0,23.97-.15,44.58-13.98,54.03-36.17-7.71,2.13-10.26-.42-12.9-3.57-2.77,2.95-5.92,4.52-9.36,4.67-5.62,.25-10.29-3.34-11.58-4.45-1.23,1.09-5.54,4.56-10.98,4.56-.11,0-.22,0-.33,0-3.57-.09-6.88-1.7-9.84-4.77-2.76,3.5-5.89,5.33-9.33,5.42-5.65,.19-10.3-4.4-11.58-5.78-1.45,1.23-6.71,5.29-12.35,4.61-3.06-.36-5.69-2.07-7.85-5.06-4.89,6.33-11.64,5.19-14.27,4.43Z"/></g></g><g id="g"><g><polygon class="h" points="83.65 97.08 88.3 97.08 88.3 89.43 93.84 89.43 93.84 97.08 98.48 97.08 91.07 106.04 83.65 97.08"/><path d="M91.07,106.24l-7.68-9.28h4.79v-7.65h5.79v7.65h4.79l-7.68,9.28Zm-7.15-9.03l7.15,8.64,7.15-8.64h-4.51v-7.65h-5.29v7.65h-4.51Z"/></g><g><rect class="h" x="89.67" y="75.64" width="2.79" height="5.54" transform="translate(169.48 -12.66) rotate(90)"/><path d="M93.96,79.93h-5.79v-3.04h5.79v3.04Zm-5.54-.25h5.29v-2.55h-5.29v2.55Z"/></g><g><rect class="h" x="89.67" y="79.78" width="2.79" height="5.54" transform="translate(173.62 -8.52) rotate(90)"/><path d="M93.96,84.07h-5.79v-3.04h5.79v3.04Zm-5.54-.25h5.29v-2.55h-5.29v2.55Z"/></g><g><rect class="h" x="89.67" y="83.92" width="2.79" height="5.54" transform="translate(177.76 -4.38) rotate(90)"/><path d="M93.96,88.21h-5.79v-3.04h5.79v3.04Zm-5.54-.25h5.29v-2.55h-5.29v2.55Z"/></g></g></svg>