<?xml version="1.0" encoding="UTF-8"?><svg id="a" xmlns="http://www.w3.org/2000/svg" viewBox="0 0 181.89 181.48"><defs><style>.p{fill:#777;}.q{fill:#eaeaea;}.r{fill:#999;}.s{fill:#231f20;}.t{fill:#666;}</style></defs><g id="b"><g id="c"><path class="r" d="M90.94,11.85C47.38,11.85,12.06,47.17,12.06,90.74s35.32,78.89,78.89,78.89,78.89-35.32,78.89-78.89S134.51,11.85,90.94,11.85Zm0,145.56c-36.82,0-66.67-29.85-66.67-66.67S54.12,24.07,90.94,24.07s66.67,29.85,66.67,66.67-29.85,66.67-66.67,66.67Z"/><path d="M90.94,170.13c-43.77,0-79.39-35.61-79.39-79.39S47.17,11.35,90.94,11.35s79.39,35.61,79.39,79.39-35.61,79.39-79.39,79.39Zm0-157.78C47.72,12.35,12.56,47.52,12.56,90.74s35.16,78.39,78.39,78.39,78.39-35.17,78.39-78.39S134.17,12.35,90.94,12.35Zm0,145.56c-37.04,0-67.17-30.13-67.17-67.17S53.9,23.57,90.94,23.57s67.17,30.13,67.17,67.17-30.13,67.17-67.17,67.17Zm0-133.35c-36.49,0-66.17,29.69-66.17,66.17s29.69,66.17,66.17,66.17,66.17-29.68,66.17-66.17S127.43,24.57,90.94,24.57Z"/></g></g><g id="d"><g id="e"><path class="q" d="M146.97,113.73c-8.39,2.61-10.69,.12-13.75-3.55-9.71,10.94-20.97,.31-20.97,.31,0,0-10.99,10.86-21.18-.32-9.7,13-20.82-.28-20.82-.28,0,0-12.27,11.39-20.22-.61-5.59,7.91-13.94,4.95-15.06,4.5-2.93-7.1-4.54-14.88-4.54-23.04,0-7.17,1.25-14.05,3.54-20.44,.3-.86,.63-1.72,.99-2.56,.36,.31,9.19,7.76,15.07-.56,7.95,12,20.22,.6,20.22,.6,0,0,11.12,13.28,20.82,.29,10.19,11.17,21.18,.32,21.18,.32,0,0,11.26,10.63,20.97-.32,3.06,3.68,6.35,7.56,14.74,1.63,.55,1.49,1.04,3.01,1.48,4.55,1.48,5.24,2.27,10.78,2.27,16.49,0,13.4-4.33,22-4.74,22.99Z"/><g><path class="p" d="M145.16,114.75l-.24-.97c.53-.13,1.09-.28,1.68-.46,.02-.04,.04-.08,.06-.12,.14-.32,.37-.82,.64-1.49l.93,.38c-.28,.68-.51,1.19-.66,1.52-.06,.14-.11,.25-.14,.32l-.09,.22-.22,.07c-.69,.21-1.34,.4-1.96,.54Z"/><path class="p" d="M141.07,115.31c-1.43,0-2.66-.26-3.77-.8l.43-.9c.97,.47,2.07,.7,3.34,.7h.16l.02,1h-.18Z"/><path class="p" d="M134.16,112.03c-.32-.35-.63-.71-.96-1.09-.34,.37-.7,.71-1.05,1.04l-.67-.74c.46-.42,.92-.89,1.37-1.39l.39-.43,.37,.45c.44,.53,.86,1.03,1.29,1.49l-.74,.68Z"/><path class="p" d="M124.93,115.52l-.13-.99c1.23-.17,2.43-.54,3.58-1.12l.45,.89c-1.24,.63-2.55,1.03-3.89,1.21Zm-4.07-.12c-1.27-.23-2.56-.65-3.85-1.23l.41-.91c1.21,.55,2.43,.94,3.62,1.16l-.18,.98Z"/><path class="p" d="M111.01,112.17l-.6-.8c.93-.69,1.48-1.22,1.48-1.23l.34-.34,.35,.33s.56,.53,1.51,1.2l-.58,.81c-.56-.4-.99-.75-1.26-.98-.27,.24-.69,.59-1.25,1Z"/><path class="p" d="M99.47,115.6c-1.35-.2-2.67-.63-3.93-1.27l.46-.89c1.17,.6,2.38,.99,3.62,1.17l-.15,.99Zm4.13-.08l-.18-.98c1.21-.22,2.44-.61,3.66-1.18l.42,.91c-1.3,.6-2.62,1.03-3.91,1.26Z"/><path class="p" d="M90.17,112.06l-.74-.67c.42-.46,.84-.97,1.24-1.51l.36-.49,.41,.45c.45,.5,.92,.96,1.38,1.38l-.67,.74c-.35-.31-.7-.65-1.05-1.01-.31,.39-.62,.77-.94,1.11Z"/><path class="p" d="M82.86,116.28l-.14-.99c1.26-.17,2.49-.62,3.66-1.34l.52,.85c-1.29,.79-2.65,1.28-4.05,1.47Zm-4.29-.31c-1.29-.35-2.6-.93-3.9-1.72l.52-.85c1.22,.74,2.44,1.29,3.64,1.61l-.26,.96Z"/><path class="p" d="M71.3,111.69c-.48-.45-.85-.83-1.1-1.09-.27,.23-.69,.56-1.22,.95l-.59-.81c.94-.69,1.51-1.21,1.51-1.21l.39-.36,.34,.4s.5,.59,1.35,1.38l-.68,.73Z"/><path class="p" d="M57.77,115.19c-1.36-.18-2.66-.62-3.85-1.33l.51-.86c1.07,.64,2.24,1.04,3.46,1.2l-.13,.99Zm4.05-.22l-.22-.98c1.15-.26,2.34-.69,3.55-1.28l.44,.9c-1.28,.63-2.55,1.08-3.77,1.36Z"/><path class="p" d="M50.85,111.21c-.29-.33-.56-.69-.83-1.07-.28,.37-.58,.71-.88,1.04l-.73-.68c.42-.46,.83-.96,1.22-1.51l.42-.6,.4,.61c.37,.56,.76,1.08,1.17,1.56l-.76,.65Z"/><path class="p" d="M41.24,115.14l-.09-1c1.41-.13,2.75-.51,3.97-1.13l.45,.89c-1.33,.67-2.78,1.09-4.32,1.23Z"/><path class="p" d="M36.77,114.84c-1.01-.22-1.73-.49-1.99-.6l-.2-.08-.08-.2c-.26-.62-.5-1.25-.74-1.88l.94-.35c.21,.55,.42,1.1,.64,1.65,.32,.12,.89,.31,1.64,.47l-.22,.98Z"/><path class="p" d="M32.5,108.34c-.38-1.26-.72-2.55-1.02-3.83l.97-.22c.29,1.26,.63,2.52,1,3.76l-.96,.29Zm-1.78-7.71c-.21-1.3-.38-2.62-.51-3.93l1-.1c.12,1.28,.29,2.58,.5,3.86l-.99,.16Zm-.76-7.88c-.02-.67-.03-1.34-.03-2.01s.01-1.3,.03-1.95l1,.03c-.02,.64-.03,1.28-.03,1.92s.01,1.32,.03,1.98l-1,.03Zm1.24-7.82l-1-.1c.13-1.31,.3-2.63,.51-3.93l.99,.16c-.21,1.28-.37,2.58-.5,3.86Zm1.25-7.69l-.97-.22c.29-1.28,.64-2.57,1.01-3.83l.96,.29c-.37,1.24-.71,2.5-1,3.77Z"/><path class="p" d="M34.69,69.77l-.94-.35c.23-.63,.48-1.26,.75-1.88l.27-.63,.52,.45c.06,.05,.64,.55,1.56,1.13l-.54,.84c-.47-.3-.86-.58-1.14-.79-.17,.41-.32,.82-.48,1.23Z"/><path class="p" d="M43.15,71.61c-.87,0-1.78-.13-2.7-.38l.26-.96c1.46,.4,2.86,.45,4.12,.15l.23,.97c-.62,.15-1.26,.22-1.92,.22Z"/><path class="p" d="M50.85,69.11c-.29-.34-.57-.69-.84-1.07-.3,.37-.6,.72-.92,1.03l-.71-.71c.43-.43,.84-.92,1.23-1.47l.42-.6,.4,.61c.37,.56,.76,1.08,1.17,1.56l-.76,.65Z"/><path class="p" d="M57.76,73.09c-1.36-.17-2.66-.62-3.85-1.34l.51-.86c1.07,.64,2.24,1.04,3.46,1.2l-.13,.99Zm4.05-.23l-.22-.98c1.15-.26,2.34-.69,3.55-1.28l.44,.9c-1.28,.63-2.55,1.09-3.77,1.36Z"/><path class="p" d="M71.3,69.58c-.48-.45-.85-.83-1.1-1.09-.27,.23-.69,.56-1.22,.95l-.59-.81c.94-.69,1.5-1.21,1.51-1.21l.38-.36,.34,.4s.5,.59,1.35,1.38l-.68,.73Z"/><path class="p" d="M82.85,74.18l-.13-.99c1.26-.17,2.49-.62,3.66-1.33l.52,.85c-1.29,.78-2.65,1.28-4.05,1.47Zm-4.29-.32c-1.29-.35-2.6-.93-3.89-1.73l.52-.85c1.22,.74,2.44,1.29,3.64,1.61l-.26,.96Z"/><path class="p" d="M90.17,69.96l-.74-.67c.42-.46,.84-.97,1.24-1.51l.36-.48,.41,.45c.45,.5,.92,.96,1.38,1.38l-.67,.74c-.35-.32-.7-.65-1.05-1.01-.31,.39-.62,.77-.94,1.11Z"/><path class="p" d="M99.45,73.49c-1.35-.2-2.67-.63-3.93-1.28l.46-.89c1.16,.6,2.38,.99,3.62,1.18l-.15,.99Zm4.13-.07l-.17-.98c1.21-.21,2.44-.61,3.67-1.17l.42,.91c-1.3,.6-2.62,1.02-3.91,1.25Z"/><path class="p" d="M111.01,70.07l-.59-.8c.93-.69,1.48-1.22,1.48-1.23l.34-.34,.35,.33s.56,.53,1.51,1.2l-.58,.81c-.56-.4-.99-.75-1.26-.98-.27,.24-.69,.59-1.25,1Z"/><path class="p" d="M124.92,73.41l-.13-.99c1.23-.16,2.43-.54,3.58-1.12l.45,.89c-1.24,.63-2.55,1.03-3.89,1.21Zm-4.07-.12c-1.27-.23-2.56-.65-3.85-1.23l.41-.91c1.21,.55,2.43,.94,3.62,1.16l-.18,.98Z"/><path class="p" d="M134.15,69.92c-.32-.36-.64-.72-.95-1.09-.35,.37-.7,.72-1.05,1.04l-.67-.74c.46-.42,.92-.88,1.37-1.39l.39-.44,.37,.45c.42,.5,.84,1.01,1.29,1.5l-.74,.67Z"/><path class="p" d="M140.44,73.26c-.93,0-1.83-.18-2.68-.54l.39-.92c1.22,.52,2.52,.6,3.99,.25l.23,.97c-.67,.16-1.32,.24-1.94,.24Z"/><path class="p" d="M148.14,71.74c-.14-.42-.28-.84-.43-1.26-.4,.27-.79,.52-1.17,.74l-.51-.86c.53-.32,1.08-.68,1.64-1.08l.53-.38,.23,.61c.23,.63,.45,1.26,.67,1.9l-.95,.32Z"/><path class="p" d="M149.52,108.52l-.95-.3c.37-1.15,.7-2.35,1-3.57l.97,.24c-.3,1.24-.65,2.46-1.02,3.63Zm1.79-7.33l-.98-.17c.21-1.2,.38-2.43,.52-3.67l.99,.11c-.14,1.26-.32,2.52-.53,3.73Zm.83-7.49l-1-.05c.04-.97,.07-1.95,.07-2.92v-.79h1v.79c0,.98-.02,1.98-.07,2.96Zm-1.1-7.46c-.09-1.23-.22-2.48-.39-3.69l.99-.13c.17,1.23,.3,2.49,.39,3.75l-1,.07Zm-1-7.34c-.24-1.21-.52-2.42-.84-3.61l.97-.26c.32,1.21,.61,2.44,.85,3.67l-.98,.2Z"/></g></g><g id="f"><path class="r" d="M34.84,113.73s9.19,4.04,15.19-4.45c7.96,12,20.22,.61,20.22,.61,0,0,11.12,13.28,20.82,.29,10.19,11.17,21.18,.31,21.18,.31,0,0,11.26,10.63,20.97-.31,3.06,3.67,5.37,6.16,13.75,3.55-20.85,51.26-91.65,48.58-112.13,0Z"/><path class="s" d="M91.67,151.68c-25.15,0-47.61-14.78-57.3-37.75l-.49-1.16,1.15,.5c.36,.16,8.89,3.77,14.58-4.28l.42-.6,.4,.61c2.06,3.1,4.59,4.85,7.53,5.21,6.02,.72,11.88-4.63,11.93-4.69l.39-.36,.34,.4c.05,.06,5.09,6,11.13,5.81,3.26-.09,6.26-1.94,8.91-5.5l.36-.49,.41,.45c2.87,3.15,6.07,4.79,9.52,4.88,6.08,.13,10.89-4.54,10.94-4.59l.34-.34,.35,.33c.05,.05,5.08,4.77,11.21,4.49,3.33-.15,6.37-1.75,9.04-4.77l.39-.43,.37,.45c2.89,3.46,4.97,5.96,13.22,3.39l1.01-.31-.4,.98c-9.41,23.13-30.62,37.6-55.35,37.76-.13,0-.27,0-.4,0Zm-55.93-37.11c9.76,22.01,31.56,36.11,55.93,36.11,.13,0,.26,0,.4,0,23.97-.15,44.58-13.98,54.03-36.17-7.71,2.13-10.26-.42-12.9-3.57-2.77,2.95-5.92,4.52-9.36,4.67-5.62,.25-10.29-3.34-11.58-4.45-1.23,1.09-5.54,4.56-10.98,4.56-.11,0-.22,0-.33,0-3.57-.09-6.88-1.7-9.84-4.77-2.76,3.5-5.89,5.33-9.33,5.42-5.65,.19-10.3-4.4-11.58-5.78-1.45,1.23-6.71,5.29-12.35,4.61-3.06-.36-5.69-2.07-7.85-5.06-4.89,6.33-11.64,5.19-14.27,4.43Z"/></g></g><g id="g"><g id="h"><g id="i"><path class="t" d="M87.86,96.38h6.16c.05,.39,.08,.75-.26,1.04-.22,.2-.41,.44-.62,.64-.78,.75-1.74,.84-2.75,.75-.86-.07-1.51-.52-2.06-1.14-.05-.05-.1-.11-.14-.16-.41-.47-.41-.48-.33-1.13Z"/><path d="M90.98,99c-.2,0-.4-.01-.59-.03-.81-.07-1.5-.45-2.17-1.2l-.14-.16c-.44-.5-.46-.56-.37-1.26l.02-.14h6.44l.02,.14c.04,.35,.11,.82-.31,1.18-.12,.11-.23,.23-.34,.35-.09,.1-.18,.19-.27,.29-.69,.67-1.5,.83-2.28,.83Zm-2.98-2.47c-.05,.46-.02,.49,.31,.87l.14,.16c.61,.69,1.23,1.03,1.95,1.09,.86,.07,1.85,.04,2.63-.71,.09-.09,.17-.18,.26-.27,.12-.13,.24-.26,.37-.38,.24-.21,.25-.44,.22-.77h-5.88Z"/></g><g id="j"><path class="t" d="M98.2,93.68s-.09,0-.13,0h-.75c-.16-.01-.22-.09-.21-.29,.05-1.29-.1-2.56-.44-3.8-.73-2.63-2.16-4.67-4.76-5.77-.08-.03-.15-.16-.17-.25-.05-.24-.06-.5-.1-.74-.07-.37-.28-.52-.7-.52-.41,0-.63,.16-.7,.52-.04,.23-.08,.46-.09,.69,0,.18-.1,.26-.26,.33-1.82,.77-3.13,2.07-3.98,3.84-.86,1.78-1.19,3.67-1.15,5.63,0,.29,0,.34-.2,.35h-1.5v2.68h4.15s.08,.01,.13,.01c3.74,0,7.49,0,11.23,0,.09,0,.17,0,.27-.01v-2.68h-.64Z"/><path d="M87.33,96.54c-.06,0-.11,0-.17-.02h-4.27v-2.99h1.66s.06,0,.07-.01h0s-.02-.1-.02-.18c-.04-2.13,.35-3.99,1.17-5.7,.89-1.83,2.25-3.15,4.06-3.91,.13-.06,.15-.09,.16-.19,0-.21,.04-.44,.09-.72,.08-.44,.36-.65,.86-.65h0c.5,0,.77,.21,.85,.65,.02,.12,.04,.25,.05,.37,.01,.12,.03,.25,.05,.37,.01,.06,.06,.12,.08,.14,2.45,1.03,4.04,2.95,4.85,5.87,.34,1.25,.5,2.54,.45,3.85,0,.09,.01,.11,.01,.11h0s.01,0,.05,.01h1.65v2.99h-.25c-.06,.01-.12,.02-.18,.02h-2.59c-2.88,0-5.76,0-8.64,0Zm-4.12-.33h3.99c.07,.01,.09,.01,.13,.01,2.88,0,5.76,0,8.64,0h2.59s.07,0,.11,0v-2.37h-1.35c-.26-.02-.38-.18-.37-.45,.05-1.27-.1-2.54-.44-3.75-.78-2.82-2.3-4.67-4.67-5.66-.14-.06-.24-.23-.27-.36-.03-.13-.04-.27-.06-.4-.01-.12-.03-.23-.05-.34-.05-.25-.15-.39-.54-.39h0c-.39,0-.5,.16-.54,.39-.05,.27-.07,.48-.08,.67-.01,.29-.18,.4-.35,.47-1.74,.73-3.05,2-3.9,3.76-.8,1.66-1.17,3.48-1.14,5.56,0,.28,0,.5-.35,.51h-1.35v2.36Z"/></g><g id="k"><path class="t" d="M82.06,95.09c-.16,0-.32-.08-.42-.23-.04-.06-.97-1.5-.97-3.51s.97-3.17,1.02-3.21c.18-.21,.5-.22,.71-.04,.21,.18,.22,.5,.04,.71-.03,.03-.76,.9-.76,2.55s.8,2.95,.81,2.97c.15,.23,.08,.54-.15,.69-.08,.05-.18,.08-.27,.08Z"/></g><g id="l"><path class="t" d="M80.06,95.09c-.16,0-.32-.08-.42-.23-.04-.06-.97-1.5-.97-3.51s.97-3.17,1.02-3.21c.18-.21,.5-.22,.71-.04,.21,.18,.22,.5,.04,.71-.03,.03-.76,.9-.76,2.55s.8,2.95,.81,2.97c.15,.23,.08,.54-.15,.69-.08,.05-.18,.08-.27,.08Z"/></g><g id="m"><path class="t" d="M100.17,95.09c-.09,0-.19-.03-.27-.08-.23-.15-.3-.46-.15-.69,0-.01,.81-1.27,.81-2.97s-.73-2.52-.76-2.55c-.18-.21-.16-.52,.05-.7,.21-.18,.52-.16,.7,.04,.04,.05,1.02,1.16,1.02,3.21s-.93,3.45-.97,3.51c-.1,.15-.25,.23-.42,.23Z"/></g><g id="n"><path class="t" d="M102.17,95.09c-.09,0-.19-.03-.27-.08-.23-.15-.3-.46-.15-.69,0-.01,.81-1.27,.81-2.97s-.73-2.52-.76-2.55c-.18-.21-.16-.52,.05-.7,.21-.18,.52-.16,.7,.04,.04,.05,1.02,1.16,1.02,3.21s-.93,3.45-.97,3.51c-.1,.15-.25,.23-.42,.23Z"/></g></g><g id="o"><path class="r" d="M90.94,74.55c-8.94,0-16.19,7.25-16.19,16.19s7.25,16.19,16.19,16.19,16.19-7.25,16.19-16.19-7.25-16.19-16.19-16.19Zm0,2.32c3.31,0,6.35,1.16,8.73,3.09l-19.5,19.5c-1.93-2.39-3.09-5.42-3.09-8.73,0-7.66,6.21-13.86,13.86-13.86Zm0,27.73c-3.31,0-6.35-1.16-8.73-3.1l19.5-19.5c1.94,2.38,3.1,5.42,3.1,8.73,0,7.66-6.21,13.87-13.87,13.87Z"/><path d="M90.94,107.12c-9.03,0-16.38-7.35-16.38-16.38s7.35-16.38,16.38-16.38,16.38,7.35,16.38,16.38-7.35,16.38-16.38,16.38Zm0-32.37c-8.82,0-15.99,7.17-15.99,15.99s7.17,15.99,15.99,15.99,15.99-7.17,15.99-15.99-7.17-15.99-15.99-15.99Zm0,30.05c-3.22,0-6.36-1.12-8.86-3.14l-.17-.14,19.81-19.81,.14,.17c2.03,2.49,3.14,5.64,3.14,8.86,0,7.75-6.31,14.06-14.06,14.06Zm-8.44-3.31c2.4,1.88,5.38,2.92,8.44,2.92,7.54,0,13.67-6.13,13.67-13.67,0-3.06-1.04-6.04-2.92-8.44l-19.19,19.19Zm-2.34-1.73l-.14-.17c-2.02-2.5-3.14-5.64-3.14-8.86,0-7.75,6.31-14.06,14.06-14.06,3.21,0,6.36,1.11,8.86,3.14l.17,.14-19.81,19.81Zm10.78-22.69c-7.54,0-13.67,6.13-13.67,13.67,0,3.05,1.03,6.04,2.92,8.44l19.19-19.19c-2.4-1.88-5.39-2.92-8.44-2.92Z"/></g></g></svg>