<?xml version="1.0" encoding="UTF-8"?><svg xmlns="http://www.w3.org/2000/svg" viewBox="0 0 158.78 158.78"><g id="a"><path id="b" d="M79.39,.5C35.82,.5,.5,35.82,.5,79.39s35.32,78.89,78.89,78.89,78.89-35.32,78.89-78.89S122.96,.5,79.39,.5Zm0,145.56c-36.82,0-66.67-29.85-66.67-66.67S42.57,12.71,79.39,12.71s66.67,29.85,66.67,66.67-29.85,66.67-66.67,66.67Z" style="fill:#999; stroke:#000; stroke-miterlimit:10;"/></g><g id="c"><polygon points="101.82 109.34 101.82 90.57 70.91 90.57 70.91 68.21 101.82 68.21 101.82 49.44 138 79.39 101.82 109.34" style="fill:#999; stroke:#000; stroke-miterlimit:10;"/><rect x="20.78" y="68.21" width="11.28" height="22.36" style="fill:#999; stroke:#000; stroke-miterlimit:10;"/><rect x="37.49" y="68.21" width="11.28" height="22.36" style="fill:#999; stroke:#000; stroke-miterlimit:10;"/><rect x="54.2" y="68.21" width="11.28" height="22.36" style="fill:#999; stroke:#000; stroke-miterlimit:10;"/></g></svg>