<svg width="182" height="44" viewBox="0 0 182 44" fill="none" xmlns="http://www.w3.org/2000/svg">
<path d="M172.34 22.2401C172.34 26.1701 170.75 29.7301 168.17 32.31C165.6 34.88 162.04 36.48 158.1 36.48H22.24C14.38 36.48 8 30.1 8 22.24C8 18.31 9.6 14.75 12.17 12.17C14.75 9.6 18.31 8 22.24 8H158.1C165.97 8 172.34 14.38 172.34 22.24V22.2401Z" fill="#DBDBDB" stroke="#231F20" stroke-width="1.0062" stroke-miterlimit="10"/>
<path d="M130.224 24.5862H132.935L134.291 22.2385L132.935 19.8909H130.224L128.869 22.2385L130.224 24.5862Z" fill="#AAAAAA" stroke="#231F20" stroke-width="0.5" stroke-miterlimit="10"/>
<path d="M114.344 24.5862H117.055L118.41 22.2385L117.055 19.8909H114.344L112.989 22.2385L114.344 24.5862Z" fill="#AAAAAA" stroke="#231F20" stroke-width="0.5" stroke-miterlimit="10"/>
<path d="M66.0011 19.8909H63.2902L61.9348 22.2385L63.2902 24.5862H66.0011L67.3565 22.2385L66.0011 19.8909Z" fill="#AAAAAA" stroke="#231F20" stroke-width="0.5" stroke-miterlimit="10"/>
<path d="M50.1208 19.8909H47.41L46.0546 22.2385L47.41 24.5862H50.1208L51.4763 22.2385L50.1208 19.8909Z" fill="#AAAAAA" stroke="#231F20" stroke-width="0.5" stroke-miterlimit="10"/>
<g filter="url(#filter0_i_4_268)">
<path d="M158.099 36.4736C165.962 36.4736 172.336 30.0996 172.336 22.2368C172.336 14.374 165.962 8 158.099 8C150.237 8 143.863 14.374 143.863 22.2368C143.863 30.0996 150.237 36.4736 158.099 36.4736Z" fill="#BFBFBF" stroke="#231F20" stroke-width="1.0062" stroke-miterlimit="10"/>
<path d="M159.279 13.1007H156.569L155.213 15.4484L156.569 17.796H159.279L160.635 15.4484L159.279 13.1007Z" fill="#AAAAAA" stroke="#231F20" stroke-width="0.5" stroke-miterlimit="10"/>
<path d="M166.227 18.1546L163.516 18.2013L162.201 20.5719L163.597 22.8959L166.307 22.8492L167.622 20.4786L166.227 18.1546Z" fill="#AAAAAA" stroke="#231F20" stroke-width="0.5" stroke-miterlimit="10"/>
<path d="M160.285 26.8652L159.64 29.4984L161.598 31.373L164.201 30.6144L164.845 27.9812L162.887 26.1066L160.285 26.8652Z" fill="#AAAAAA" stroke="#231F20" stroke-width="0.5" stroke-miterlimit="10"/>
<path d="M152.139 31.0196L154.846 31.1499L156.313 28.8701L155.072 26.46L152.365 26.3297L150.898 28.6095L152.139 31.0196Z" fill="#AAAAAA" stroke="#231F20" stroke-width="0.5" stroke-miterlimit="10"/>
<path d="M148.601 19.1486L148.576 21.8593L150.912 23.236L153.272 21.9019L153.296 19.1912L150.961 17.8145L148.601 19.1486Z" fill="#AAAAAA" stroke="#231F20" stroke-width="0.5" stroke-miterlimit="10"/>
<path d="M90.1681 36.4736C98.0309 36.4736 104.405 30.0996 104.405 22.2368C104.405 14.374 98.0309 8 90.1681 8C82.3053 8 75.9313 14.374 75.9313 22.2368C75.9313 30.0996 82.3053 36.4736 90.1681 36.4736Z" fill="#BFBFBF" stroke="#231F20" stroke-width="1.0062" stroke-miterlimit="10"/>
<path d="M91.3482 13.1007H88.6374L87.282 15.4484L88.6374 17.796H91.3482L92.7037 15.4484L91.3482 13.1007Z" fill="#AAAAAA" stroke="#231F20" stroke-width="0.5" stroke-miterlimit="10"/>
<path d="M98.2954 18.1546L95.5849 18.2013L94.2701 20.5719L95.6657 22.8959L98.3761 22.8492L99.691 20.4786L98.2954 18.1546Z" fill="#AAAAAA" stroke="#231F20" stroke-width="0.5" stroke-miterlimit="10"/>
<path d="M92.3532 26.8652L91.7089 29.4984L93.6672 31.373L96.2697 30.6144L96.914 27.9812L94.9558 26.1066L92.3532 26.8652Z" fill="#AAAAAA" stroke="#231F20" stroke-width="0.5" stroke-miterlimit="10"/>
<path d="M84.2074 31.0196L86.9152 31.1499L88.3819 28.8701L87.1409 26.46L84.4332 26.3297L82.9665 28.6095L84.2074 31.0196Z" fill="#AAAAAA" stroke="#231F20" stroke-width="0.5" stroke-miterlimit="10"/>
<path d="M80.6698 19.1486L80.6452 21.8593L82.9805 23.236L85.3404 21.9019L85.365 19.1912L83.0297 17.8145L80.6698 19.1486Z" fill="#AAAAAA" stroke="#231F20" stroke-width="0.5" stroke-miterlimit="10"/>
<path d="M22.2368 36.4736C30.0996 36.4736 36.4736 30.0996 36.4736 22.2368C36.4736 14.374 30.0996 8 22.2368 8C14.374 8 8 14.374 8 22.2368C8 30.0996 14.374 36.4736 22.2368 36.4736Z" fill="#BFBFBF" stroke="#231F20" stroke-width="1.0062" stroke-miterlimit="10"/>
<path d="M23.5922 12.5419H20.8814L19.526 14.8895L20.8814 17.2372H23.5922L24.9477 14.8895L23.5922 12.5419Z" fill="#AAAAAA" stroke="#231F20" stroke-width="0.5" stroke-miterlimit="10"/>
<path d="M30.5393 17.5958L27.8289 17.6424L26.5141 20.013L27.9097 22.337L30.6201 22.2904L31.935 19.9198L30.5393 17.5958Z" fill="#AAAAAA" stroke="#231F20" stroke-width="0.5" stroke-miterlimit="10"/>
<path d="M24.5972 26.3064L23.9529 28.9395L25.9111 30.8141L28.5137 30.0555L29.158 27.4223L27.1998 25.5478L24.5972 26.3064Z" fill="#AAAAAA" stroke="#231F20" stroke-width="0.5" stroke-miterlimit="10"/>
<path d="M16.4514 30.4607L19.1591 30.5911L20.6259 28.3113L19.3849 25.9012L16.6772 25.7708L15.2105 28.0506L16.4514 30.4607Z" fill="#AAAAAA" stroke="#231F20" stroke-width="0.5" stroke-miterlimit="10"/>
<path d="M12.9138 18.5897L12.8892 21.3004L15.2245 22.6771L17.5843 21.3431L17.609 18.6324L15.2737 17.2557L12.9138 18.5897Z" fill="#AAAAAA" stroke="#231F20" stroke-width="0.5" stroke-miterlimit="10"/>
</g>
<g filter="url(#filter1_i_4_268)">
<g filter="url(#filter2_i_4_268)">
<path d="M160.02 1.0023H22.08C16.26 1.0023 10.99 3.3623 7.18 7.1823C3.36 10.9923 1 16.2623 1 22.0823C1 33.7223 10.44 43.1623 22.08 43.1623H160.02C165.84 43.1623 171.11 40.8023 174.92 36.9823C178.74 33.1723 181.1 27.9023 181.1 22.0823C181.1 10.4423 171.66 1.0023 160.02 1.0023ZM169.05 32.1523C166.48 34.7223 162.92 36.3223 158.98 36.3223H23.12C15.26 36.3223 8.88 29.9423 8.88 22.0823C8.88 18.1523 10.48 14.5923 13.05 12.0123C15.63 9.4423 19.19 7.8423 23.12 7.8423H158.98C166.85 7.8423 173.22 14.2223 173.22 22.0823C173.22 26.0123 171.63 29.5723 169.05 32.1522V32.1523Z" fill="#727272"/>
</g>
<path d="M160.02 1.0023H22.08C16.26 1.0023 10.99 3.3623 7.18 7.1823C3.36 10.9923 1 16.2623 1 22.0823C1 33.7223 10.44 43.1623 22.08 43.1623H160.02C165.84 43.1623 171.11 40.8023 174.92 36.9823C178.74 33.1723 181.1 27.9023 181.1 22.0823C181.1 10.4423 171.66 1.0023 160.02 1.0023ZM169.05 32.1523C166.48 34.7223 162.92 36.3223 158.98 36.3223H23.12C15.26 36.3223 8.88 29.9423 8.88 22.0823C8.88 18.1523 10.48 14.5923 13.05 12.0123C15.63 9.4423 19.19 7.8423 23.12 7.8423H158.98C166.85 7.8423 173.22 14.2223 173.22 22.0823C173.22 26.0123 171.63 29.5723 169.05 32.1522V32.1523Z" stroke="#231F20" stroke-width="1.0062" stroke-miterlimit="10"/>
<path d="M57.084 7.8439L63.9279 1" stroke="#231F20" stroke-width="1.0062" stroke-linecap="round" stroke-linejoin="bevel"/>
<path d="M27.084 7.8439L33.9279 1" stroke="#231F20" stroke-width="1.0062" stroke-linecap="round" stroke-linejoin="bevel"/>
<path d="M87.084 7.8439L93.9279 1" stroke="#231F20" stroke-width="1.0062" stroke-linecap="round" stroke-linejoin="bevel"/>
<path d="M117.084 7.8439L123.928 1" stroke="#231F20" stroke-width="1.0062" stroke-linecap="round" stroke-linejoin="bevel"/>
<path d="M147.084 7.8439L153.928 1" stroke="#231F20" stroke-width="1.0062" stroke-linecap="round" stroke-linejoin="bevel"/>
<path d="M126.53 43.1614L119.686 36.3176" stroke="#231F20" stroke-width="1.0062" stroke-linecap="round" stroke-linejoin="bevel"/>
<path d="M156.53 43.1614L149.686 36.3176" stroke="#231F20" stroke-width="1.0062" stroke-linecap="round" stroke-linejoin="bevel"/>
<path d="M96.53 43.1614L89.6862 36.3176" stroke="#231F20" stroke-width="1.0062" stroke-linecap="round" stroke-linejoin="bevel"/>
<path d="M66.53 43.1614L59.6862 36.3176" stroke="#231F20" stroke-width="1.0062" stroke-linecap="round" stroke-linejoin="bevel"/>
<path d="M36.53 43.1614L29.6862 36.3176" stroke="#231F20" stroke-width="1.0062" stroke-linecap="round" stroke-linejoin="bevel"/>
<path d="M7.7014 6.6609L13.059 12.0184" stroke="#231F20" stroke-width="1.0062" stroke-linecap="round" stroke-linejoin="bevel"/>
<path d="M7.7043 37.4977L13.0524 32.1497" stroke="#231F20" stroke-width="1.0062" stroke-linecap="round" stroke-linejoin="bevel"/>
<path d="M175.148 7.4118L169.769 12.7909" stroke="#231F20" stroke-width="1.0062" stroke-linecap="round" stroke-linejoin="bevel"/>
<path d="M175.148 36.7497L169.771 31.3734" stroke="#231F20" stroke-width="1.0062" stroke-linecap="round" stroke-linejoin="bevel"/>
</g>
<defs>
<filter id="filter0_i_4_268" x="7.4969" y="7.4969" width="165.342" height="33.4798" filterUnits="userSpaceOnUse" color-interpolation-filters="sRGB">
<feFlood flood-opacity="0" result="BackgroundImageFix"/>
<feBlend mode="normal" in="SourceGraphic" in2="BackgroundImageFix" result="shape"/>
<feColorMatrix in="SourceAlpha" type="matrix" values="0 0 0 0 0 0 0 0 0 0 0 0 0 0 0 0 0 0 127 0" result="hardAlpha"/>
<feOffset dy="4"/>
<feGaussianBlur stdDeviation="2"/>
<feComposite in2="hardAlpha" operator="arithmetic" k2="-1" k3="1"/>
<feColorMatrix type="matrix" values="0 0 0 0 0 0 0 0 0 0 0 0 0 0 0 0 0 0 0.25 0"/>
<feBlend mode="normal" in2="shape" result="effect1_innerShadow_4_268"/>
</filter>
<filter id="filter1_i_4_268" x="0.4969" y="0.496899" width="181.106" height="47.1685" filterUnits="userSpaceOnUse" color-interpolation-filters="sRGB">
<feFlood flood-opacity="0" result="BackgroundImageFix"/>
<feBlend mode="normal" in="SourceGraphic" in2="BackgroundImageFix" result="shape"/>
<feColorMatrix in="SourceAlpha" type="matrix" values="0 0 0 0 0 0 0 0 0 0 0 0 0 0 0 0 0 0 127 0" result="hardAlpha"/>
<feOffset dy="4"/>
<feGaussianBlur stdDeviation="2"/>
<feComposite in2="hardAlpha" operator="arithmetic" k2="-1" k3="1"/>
<feColorMatrix type="matrix" values="0 0 0 0 0 0 0 0 0 0 0 0 0 0 0 0 0 0 0.25 0"/>
<feBlend mode="normal" in2="shape" result="effect1_innerShadow_4_268"/>
</filter>
<filter id="filter2_i_4_268" x="0.4969" y="0.499199" width="181.106" height="47.1662" filterUnits="userSpaceOnUse" color-interpolation-filters="sRGB">
<feFlood flood-opacity="0" result="BackgroundImageFix"/>
<feBlend mode="normal" in="SourceGraphic" in2="BackgroundImageFix" result="shape"/>
<feColorMatrix in="SourceAlpha" type="matrix" values="0 0 0 0 0 0 0 0 0 0 0 0 0 0 0 0 0 0 127 0" result="hardAlpha"/>
<feOffset dy="4"/>
<feGaussianBlur stdDeviation="2"/>
<feComposite in2="hardAlpha" operator="arithmetic" k2="-1" k3="1"/>
<feColorMatrix type="matrix" values="0 0 0 0 0 0 0 0 0 0 0 0 0 0 0 0 0 0 0.25 0"/>
<feBlend mode="normal" in2="shape" result="effect1_innerShadow_4_268"/>
</filter>
</defs>
</svg>
