<?xml version="1.0" encoding="UTF-8"?><svg id="a" xmlns="http://www.w3.org/2000/svg" viewBox="0 0 181.11 43.17"><defs><style>.ad{fill:#727272;}.ae{fill:#dbdbdb;}.af{fill:#bfbfbf;}.ag{fill:#aaa;}.ah{fill:#231f20;}</style></defs><g id="b"><g id="c"><path class="ae" d="M172.84,21.74c0,3.93-1.59,7.49-4.17,10.07-2.57,2.57-6.13,4.17-10.07,4.17H22.74c-7.86,0-14.24-6.38-14.24-14.24,0-3.93,1.6-7.49,4.17-10.07,2.58-2.57,6.14-4.17,10.07-4.17H158.6c7.87,0,14.24,6.38,14.24,14.24h0Z"/><path class="ah" d="M158.6,36.49H22.74c-8.13,0-14.74-6.61-14.74-14.74,0-3.93,1.53-7.63,4.32-10.43,2.8-2.79,6.5-4.32,10.43-4.32H158.6c8.13,0,14.74,6.61,14.74,14.74,0,3.94-1.53,7.64-4.32,10.43-2.78,2.78-6.49,4.32-10.43,4.32ZM22.74,8.01c-3.66,0-7.11,1.43-9.71,4.02-2.59,2.6-4.02,6.05-4.02,9.71,0,7.57,6.16,13.74,13.74,13.74H158.6c3.67,0,7.12-1.43,9.71-4.02,2.59-2.59,4.02-6.04,4.02-9.71,0-7.57-6.16-13.74-13.74-13.74H22.74Z"/></g><g id="d"><g id="e"><path class="ag" d="M130.73,24.09h2.71l1.36-2.35-1.36-2.35h-2.71l-1.35,2.35,1.35,2.35Z"/><path d="M133.58,24.34h-3l-1.5-2.6,1.5-2.6h3l1.5,2.6-1.5,2.6Zm-2.71-.5h2.42l1.21-2.1-1.21-2.1h-2.42l-1.21,2.1,1.21,2.1Z"/></g><g id="f"><path class="ag" d="M114.85,24.09h2.71l1.36-2.35-1.36-2.35h-2.71l-1.36,2.35,1.36,2.35Z"/><path d="M117.7,24.34h-3l-1.5-2.6,1.5-2.6h3l1.5,2.6-1.5,2.6Zm-2.71-.5h2.42l1.21-2.1-1.21-2.1h-2.42l-1.21,2.1,1.21,2.1Z"/></g><g id="g"><path class="ag" d="M66.5,19.39h-2.71l-1.36,2.35,1.36,2.35h2.71l1.36-2.35-1.36-2.35Z"/><path d="M66.65,24.34h-3l-1.5-2.6,1.5-2.6h3l1.5,2.6-1.5,2.6Zm-2.71-.5h2.42l1.21-2.1-1.21-2.1h-2.42l-1.21,2.1,1.21,2.1Z"/></g><g id="h"><path class="ag" d="M50.62,19.39h-2.71l-1.36,2.35,1.36,2.35h2.71l1.36-2.35-1.36-2.35Z"/><path d="M50.77,24.34h-3l-1.5-2.6,1.5-2.6h3l1.5,2.6-1.5,2.6Zm-2.71-.5h2.42l1.21-2.1-1.21-2.1h-2.42l-1.21,2.1,1.21,2.1Z"/></g></g></g><g id="i"><g id="j"><g><path class="af" d="M158.6,35.98c7.86,0,14.24-6.37,14.24-14.24s-6.37-14.24-14.24-14.24-14.24,6.37-14.24,14.24,6.37,14.24,14.24,14.24Z"/><path d="M158.6,36.48c-8.13,0-14.74-6.61-14.74-14.74s6.61-14.74,14.74-14.74,14.74,6.61,14.74,14.74-6.61,14.74-14.74,14.74Zm0-28.47c-7.57,0-13.73,6.16-13.73,13.73s6.16,13.73,13.73,13.73,13.73-6.16,13.73-13.73-6.16-13.73-13.73-13.73Z"/></g><g><path class="ag" d="M159.78,12.6h-2.71l-1.36,2.35,1.36,2.35h2.71l1.36-2.35-1.36-2.35Z"/><path d="M159.93,17.55h-3l-1.5-2.6,1.5-2.6h3l1.5,2.6-1.5,2.6Zm-2.71-.5h2.42l1.21-2.1-1.21-2.1h-2.42l-1.21,2.1,1.21,2.1Z"/></g><g><path class="ag" d="M166.73,17.66l-2.71,.05-1.32,2.37,1.4,2.32,2.71-.05,1.31-2.37-1.39-2.32Z"/><path d="M163.96,22.65l-1.54-2.57,1.46-2.62,3-.05,1.54,2.57-1.46,2.62-3,.05Zm-.97-2.58l1.25,2.08,2.42-.04,1.17-2.12-1.25-2.08-2.42,.04-1.17,2.12Z"/></g><g><path class="ag" d="M160.79,26.37l-.64,2.63,1.96,1.87,2.6-.76,.64-2.63-1.96-1.87-2.6,.76Z"/><path d="M162.03,31.16l-2.17-2.07,.71-2.91,2.88-.84,2.17,2.07-.71,2.91-2.88,.84Zm-1.61-2.24l1.75,1.67,2.33-.68,.58-2.35-1.75-1.68-2.33,.68-.58,2.35Z"/></g><g><path class="ag" d="M152.64,30.52l2.71,.13,1.47-2.28-1.24-2.41-2.71-.13-1.47,2.28,1.24,2.41Z"/><path d="M155.48,30.91l-3-.14-1.37-2.67,1.62-2.52,3,.14,1.37,2.67-1.62,2.52Zm-2.68-.63l2.42,.12,1.31-2.04-1.11-2.15-2.42-.12-1.31,2.04,1.11,2.15Z"/></g><g><path class="ag" d="M149.1,18.65l-.02,2.71,2.34,1.38,2.36-1.33,.02-2.71-2.34-1.38-2.36,1.33Z"/><path d="M151.41,23.03l-2.58-1.52,.03-3,2.61-1.48,2.58,1.52-.03,3-2.61,1.48Zm-2.08-1.81l2.09,1.23,2.11-1.19,.02-2.42-2.09-1.23-2.11,1.19-.02,2.42Z"/></g></g><g id="k"><g><path class="af" d="M90.67,35.98c7.86,0,14.24-6.37,14.24-14.24s-6.37-14.24-14.24-14.24-14.24,6.37-14.24,14.24,6.37,14.24,14.24,14.24Z"/><path d="M90.67,36.48c-8.13,0-14.74-6.61-14.74-14.74s6.61-14.74,14.74-14.74,14.74,6.61,14.74,14.74-6.61,14.74-14.74,14.74Zm0-28.47c-7.57,0-13.73,6.16-13.73,13.73s6.16,13.73,13.73,13.73,13.73-6.16,13.73-13.73-6.16-13.73-13.73-13.73Z"/></g><g><path class="ag" d="M91.85,12.6h-2.71l-1.36,2.35,1.36,2.35h2.71l1.36-2.35-1.36-2.35Z"/><path d="M92,17.55h-3l-1.5-2.6,1.5-2.6h3l1.5,2.6-1.5,2.6Zm-2.71-.5h2.42l1.21-2.1-1.21-2.1h-2.42l-1.21,2.1,1.21,2.1Z"/></g><g><path class="ag" d="M98.8,17.66l-2.71,.05-1.31,2.37,1.4,2.32,2.71-.05,1.31-2.37-1.4-2.32Z"/><path d="M96.03,22.65l-1.54-2.57,1.45-2.62,3-.05,1.54,2.57-1.46,2.62-3,.05Zm-.97-2.58l1.25,2.08,2.42-.04,1.17-2.12-1.25-2.08-2.42,.04-1.17,2.12Z"/></g><g><path class="ag" d="M92.86,26.37l-.64,2.63,1.96,1.87,2.6-.76,.64-2.63-1.96-1.87-2.6,.76Z"/><path d="M94.1,31.16l-2.17-2.07,.71-2.91,2.88-.84,2.17,2.07-.71,2.91-2.88,.84Zm-1.61-2.24l1.75,1.67,2.33-.68,.58-2.35-1.75-1.68-2.33,.68-.58,2.35Z"/></g><g><path class="ag" d="M84.71,30.52l2.71,.13,1.47-2.28-1.24-2.41-2.71-.13-1.47,2.28,1.24,2.41Z"/><path d="M87.55,30.91l-3-.14-1.37-2.67,1.62-2.52,3,.14,1.37,2.67-1.62,2.52Zm-2.68-.63l2.42,.12,1.31-2.04-1.11-2.15-2.42-.12-1.31,2.04,1.11,2.15Z"/></g><g><path class="ag" d="M81.17,18.65l-.02,2.71,2.34,1.38,2.36-1.33,.02-2.71-2.34-1.38-2.36,1.33Z"/><path d="M83.48,23.03l-2.58-1.52,.03-3,2.61-1.48,2.58,1.52-.03,3-2.61,1.48Zm-2.08-1.81l2.09,1.23,2.11-1.19,.02-2.42-2.09-1.23-2.11,1.19-.02,2.42Z"/></g></g><g id="l"><g><path class="af" d="M22.74,35.98c7.86,0,14.24-6.37,14.24-14.24s-6.37-14.24-14.24-14.24-14.24,6.37-14.24,14.24,6.37,14.24,14.24,14.24Z"/><path d="M22.74,36.48c-8.13,0-14.74-6.61-14.74-14.74S14.61,7,22.74,7s14.74,6.61,14.74,14.74-6.61,14.74-14.74,14.74Zm0-28.47c-7.57,0-13.73,6.16-13.73,13.73s6.16,13.73,13.73,13.73,13.73-6.16,13.73-13.73-6.16-13.73-13.73-13.73Z"/></g><g><path class="ag" d="M24.09,12.04h-2.71l-1.36,2.35,1.36,2.35h2.71l1.36-2.35-1.36-2.35Z"/><path d="M24.24,16.99h-3l-1.5-2.6,1.5-2.6h3l1.5,2.6-1.5,2.6Zm-2.71-.5h2.42l1.21-2.1-1.21-2.1h-2.42l-1.21,2.1,1.21,2.1Z"/></g><g><path class="ag" d="M31.04,17.1l-2.71,.05-1.31,2.37,1.4,2.32,2.71-.05,1.31-2.37-1.4-2.32Z"/><path d="M28.27,22.09l-1.54-2.57,1.46-2.62,3-.05,1.54,2.57-1.46,2.62-3,.05Zm-.97-2.58l1.25,2.08,2.42-.04,1.17-2.12-1.25-2.08-2.42,.04-1.17,2.12Z"/></g><g><path class="ag" d="M25.1,25.81l-.64,2.63,1.96,1.87,2.6-.76,.64-2.63-1.96-1.87-2.6,.76Z"/><path d="M26.34,30.6l-2.17-2.07,.71-2.91,2.88-.84,2.17,2.07-.71,2.91-2.88,.84Zm-1.61-2.24l1.75,1.67,2.33-.68,.58-2.35-1.75-1.67-2.33,.68-.58,2.35Z"/></g><g><path class="ag" d="M16.95,29.96l2.71,.13,1.47-2.28-1.24-2.41-2.71-.13-1.47,2.28,1.24,2.41Z"/><path d="M19.79,30.35l-3-.14-1.37-2.67,1.62-2.52,3,.14,1.37,2.67-1.62,2.52Zm-2.68-.63l2.42,.12,1.31-2.04-1.11-2.15-2.42-.12-1.31,2.04,1.11,2.15Z"/></g><g><path class="ag" d="M13.42,18.09l-.02,2.71,2.34,1.38,2.36-1.33,.02-2.71-2.34-1.38-2.36,1.33Z"/><path d="M15.72,22.47l-2.58-1.52,.03-3,2.61-1.48,2.58,1.52-.03,3-2.61,1.48Zm-2.08-1.81l2.09,1.23,2.11-1.19,.02-2.42-2.09-1.23-2.11,1.19-.02,2.42Z"/></g></g></g><g id="m"><g id="n"><path class="ad" d="M159.52,.51H21.58C15.76,.51,10.49,2.87,6.68,6.69,2.86,10.5,.5,15.77,.5,21.59c0,11.64,9.44,21.08,21.08,21.08H159.52c5.82,0,11.09-2.36,14.9-6.18,3.82-3.81,6.18-9.08,6.18-14.9,0-11.64-9.44-21.08-21.08-21.08Zm9.03,31.15c-2.57,2.57-6.13,4.17-10.07,4.17H22.62c-7.86,0-14.24-6.38-14.24-14.24,0-3.93,1.6-7.49,4.17-10.07,2.58-2.57,6.14-4.17,10.07-4.17H158.48c7.87,0,14.24,6.38,14.24,14.24,0,3.93-1.59,7.49-4.17,10.07h0Z"/><path d="M159.52,43.17H21.58C9.68,43.17,0,33.48,0,21.59,0,15.82,2.25,10.4,6.33,6.33,10.4,2.25,15.82,0,21.58,0H159.52c11.9,0,21.58,9.68,21.58,21.58,0,5.77-2.25,11.18-6.33,15.25-4.07,4.08-9.49,6.33-15.25,6.33ZM21.58,1.01c-5.5,0-10.67,2.14-14.55,6.03C3.15,10.92,1,16.09,1,21.59c0,11.35,9.23,20.58,20.58,20.58H159.52c5.5,0,10.67-2.14,14.55-6.03,3.89-3.88,6.03-9.05,6.03-14.55,0-11.35-9.23-20.58-20.58-20.58H21.58ZM158.48,36.33H22.62c-8.13,0-14.74-6.61-14.74-14.74,0-3.93,1.53-7.63,4.32-10.42,2.8-2.78,6.5-4.32,10.42-4.32H158.48c8.13,0,14.74,6.61,14.74,14.74,0,3.94-1.53,7.64-4.32,10.42-2.78,2.78-6.49,4.32-10.42,4.32ZM22.62,7.85c-3.66,0-7.11,1.43-9.72,4.02-2.59,2.6-4.02,6.05-4.02,9.72,0,7.58,6.16,13.74,13.74,13.74H158.48c3.67,0,7.12-1.43,9.72-4.02s4.02-6.05,4.02-9.72c0-7.58-6.16-13.74-13.74-13.74H22.62Z"/></g><g id="o"><g id="p"><path d="M41.59,7.85c-.13,0-.26-.05-.36-.15-.2-.2-.2-.52,0-.71L48.07,.15c.2-.2,.51-.2,.71,0,.2,.2,.2,.52,0,.71l-6.84,6.84c-.1,.1-.23,.15-.36,.15Z"/></g><g id="q"><path d="M71.59,7.85c-.13,0-.26-.05-.36-.15-.2-.2-.2-.52,0-.71L78.07,.15c.2-.2,.51-.2,.71,0,.2,.2,.2,.52,0,.71l-6.84,6.84c-.1,.1-.23,.15-.36,.15Z"/></g><g id="r"><path d="M101.59,7.85c-.13,0-.26-.05-.36-.15-.2-.2-.2-.52,0-.71L108.07,.15c.2-.2,.51-.2,.71,0,.2,.2,.2,.52,0,.71l-6.84,6.84c-.1,.1-.23,.15-.36,.15Z"/></g><g id="s"><path d="M131.59,7.85c-.13,0-.26-.05-.36-.15-.2-.2-.2-.52,0-.71L138.07,.15c.2-.2,.51-.2,.71,0,.2,.2,.2,.52,0,.71l-6.84,6.84c-.1,.1-.23,.15-.36,.15Z"/></g><g id="t"><path d="M161.59,7.85c-.13,0-.26-.05-.36-.15-.2-.2-.2-.52,0-.71l5.46-5.46c.2-.2,.51-.2,.71,0,.2,.2,.2,.52,0,.71l-5.46,5.46c-.1,.1-.23,.15-.36,.15Z"/></g><g id="u"><path d="M170.15,40.3c-.13,0-.26-.05-.36-.15l-5.41-5.41c-.2-.2-.2-.52,0-.71,.2-.2,.51-.2,.71,0l5.41,5.41c.2,.2,.2,.52,0,.71-.1,.1-.23,.15-.36,.15Z"/></g><g id="v"><path d="M141.03,43.17c-.13,0-.26-.05-.36-.15l-6.84-6.84c-.2-.2-.2-.52,0-.71,.2-.2,.51-.2,.71,0l6.84,6.84c.2,.2,.2,.52,0,.71-.1,.1-.23,.15-.36,.15Z"/></g><g id="w"><path d="M111.03,43.17c-.13,0-.26-.05-.36-.15l-6.84-6.84c-.2-.2-.2-.52,0-.71,.2-.2,.51-.2,.71,0l6.84,6.84c.2,.2,.2,.52,0,.71-.1,.1-.23,.15-.36,.15Z"/></g><g id="x"><path d="M81.03,43.17c-.13,0-.26-.05-.36-.15l-6.84-6.84c-.2-.2-.2-.52,0-.71,.2-.2,.51-.2,.71,0l6.84,6.84c.2,.2,.2,.52,0,.71-.1,.1-.23,.15-.36,.15Z"/></g><g id="y"><path d="M51.03,43.17c-.13,0-.26-.05-.36-.15l-6.84-6.84c-.2-.2-.2-.52,0-.71,.2-.2,.51-.2,.71,0l6.84,6.84c.2,.2,.2,.52,0,.71-.1,.1-.23,.15-.36,.15Z"/></g><g id="a`"><path d="M21.03,43.17c-.17,0-.34-.09-.43-.24l-5.16-8.53c-.14-.24-.07-.55,.17-.69,.24-.14,.55-.07,.69,.17l5.16,8.53c.14,.24,.07,.55-.17,.69-.08,.05-.17,.07-.26,.07Z"/></g><g id="aa"><path d="M15.88,9.54c-.09,0-.18-.02-.26-.07-.24-.14-.31-.45-.17-.69L20.6,.24c.14-.24,.45-.31,.69-.17,.24,.14,.31,.45,.17,.69l-5.16,8.53c-.09,.16-.26,.24-.43,.24Z"/></g><g id="ab"><path d="M8.39,22.09H.51C.23,22.09,0,21.86,0,21.58s.23-.5,.5-.5h7.88c.28,0,.5,.23,.5,.5s-.23,.5-.5,.5Z"/></g><g id="ac"><path d="M180.6,22.09h-7.88c-.28,0-.5-.23-.5-.5s.23-.5,.5-.5h7.88c.28,0,.5,.23,.5,.5s-.23,.5-.5,.5Z"/></g></g></g></svg>