<?xml version="1.0" encoding="UTF-8"?><svg id="a" xmlns="http://www.w3.org/2000/svg" viewBox="0 0 181.11 43.17"><defs><style>.au{fill:#dbdbdb;}.av{fill:#bfbfbf;}.aw{fill:#aaa;}.ax{fill:#727272;stroke:#000;stroke-miterlimit:10;stroke-width:1.01px;}.ay{fill:#231f20;}</style></defs><g id="b"><g id="c"><path class="au" d="M172.72,21.59c0,3.93-1.59,7.49-4.17,10.07-2.57,2.57-6.13,4.17-10.07,4.17H22.62c-7.86,0-14.24-6.38-14.24-14.24,0-3.93,1.6-7.49,4.17-10.07,2.58-2.57,6.14-4.17,10.07-4.17H158.48c7.87,0,14.24,6.38,14.24,14.24Z"/><path class="ay" d="M158.48,36.33H22.62c-8.13,0-14.74-6.61-14.74-14.74,0-3.93,1.53-7.63,4.32-10.43,2.8-2.79,6.5-4.32,10.43-4.32H158.48c8.13,0,14.74,6.61,14.74,14.74,0,3.94-1.53,7.64-4.32,10.43-2.78,2.78-6.49,4.32-10.43,4.32ZM22.62,7.85c-3.66,0-7.11,1.43-9.71,4.02-2.59,2.6-4.02,6.05-4.02,9.71,0,7.57,6.16,13.74,13.74,13.74H158.48c3.67,0,7.12-1.43,9.71-4.02,2.59-2.59,4.02-6.04,4.02-9.71,0-7.57-6.16-13.74-13.74-13.74H22.62Z"/></g><g id="d"><polygon class="aw" points="130.61 23.93 133.32 23.93 134.67 21.58 133.32 19.24 130.61 19.24 129.25 21.58 130.61 23.93"/><path d="M133.46,24.18h-3l-1.5-2.6,1.5-2.6h3l1.5,2.6-1.5,2.6Zm-2.71-.5h2.42l1.21-2.1-1.21-2.1h-2.42l-1.21,2.1,1.21,2.1Z"/></g><g id="e"><polygon class="aw" points="114.73 23.93 117.44 23.93 118.79 21.58 117.44 19.24 114.73 19.24 113.37 21.58 114.73 23.93"/><path d="M117.58,24.18h-3l-1.5-2.6,1.5-2.6h3l1.5,2.6-1.5,2.6Zm-2.71-.5h2.42l1.21-2.1-1.21-2.1h-2.42l-1.21,2.1,1.21,2.1Z"/></g><g id="f"><polygon class="aw" points="66.38 19.24 63.67 19.24 62.32 21.58 63.67 23.93 66.38 23.93 67.74 21.58 66.38 19.24"/><path d="M66.53,24.18h-3l-1.5-2.6,1.5-2.6h3l1.5,2.6-1.5,2.6Zm-2.71-.5h2.42l1.21-2.1-1.21-2.1h-2.42l-1.21,2.1,1.21,2.1Z"/></g><g id="g"><polygon class="aw" points="50.5 19.24 47.79 19.24 46.44 21.58 47.79 23.93 50.5 23.93 51.86 21.58 50.5 19.24"/><path d="M50.65,24.18h-3l-1.5-2.6,1.5-2.6h3l1.5,2.6-1.5,2.6Zm-2.71-.5h2.42l1.21-2.1-1.21-2.1h-2.42l-1.21,2.1,1.21,2.1Z"/></g></g><g id="h"><g id="i"><g id="j"><circle class="av" cx="158.49" cy="21.58" r="14.24"/><path class="ay" d="M158.49,36.32c-8.13,0-14.74-6.61-14.74-14.74s6.61-14.74,14.74-14.74,14.74,6.61,14.74,14.74-6.61,14.74-14.74,14.74Zm0-28.47c-7.57,0-13.73,6.16-13.73,13.73s6.16,13.73,13.73,13.73,13.73-6.16,13.73-13.73-6.16-13.73-13.73-13.73Z"/></g><g id="k"><polygon class="aw" points="157.31 30.72 160.02 30.72 161.37 28.37 160.02 26.02 157.31 26.02 155.95 28.37 157.31 30.72"/><path d="M160.16,30.97h-3l-1.5-2.6,1.5-2.6h3l1.5,2.6-1.5,2.6Zm-2.71-.5h2.42l1.21-2.1-1.21-2.1h-2.42l-1.21,2.1,1.21,2.1Z"/></g><g id="l"><polygon class="aw" points="150.36 25.67 153.07 25.62 154.39 23.25 152.99 20.92 150.28 20.97 148.96 23.34 150.36 25.67"/><path d="M150.22,25.92l-1.54-2.57,1.45-2.62,3-.05,1.54,2.57-1.46,2.62-3,.05Zm-.97-2.58l1.25,2.08,2.42-.04,1.17-2.12-1.25-2.08-2.42,.04-1.17,2.12Z"/></g><g id="m"><polygon class="aw" points="156.3 16.96 156.95 14.32 154.99 12.45 152.39 13.21 151.74 15.84 153.7 17.71 156.3 16.96"/><path d="M153.63,17.99l-2.17-2.07,.71-2.91,2.88-.84,2.17,2.07-.71,2.91-2.88,.84Zm-1.61-2.24l1.75,1.67,2.33-.68,.58-2.35-1.75-1.67-2.33,.68-.58,2.35Z"/></g><g id="n"><polygon class="aw" points="164.45 12.8 161.74 12.67 160.27 14.95 161.51 17.36 164.22 17.49 165.69 15.21 164.45 12.8"/><path d="M164.35,17.75l-3-.14-1.37-2.67,1.62-2.52,3,.14,1.37,2.67-1.62,2.52Zm-2.68-.63l2.42,.12,1.31-2.04-1.11-2.15-2.42-.12-1.31,2.04,1.11,2.15Z"/></g><g id="o"><polygon class="aw" points="167.99 24.67 168.01 21.96 165.67 20.58 163.31 21.92 163.29 24.63 165.63 26.01 167.99 24.67"/><path d="M165.62,26.29l-2.58-1.52,.03-3,2.61-1.48,2.58,1.52-.03,3-2.61,1.48Zm-2.08-1.81l2.09,1.23,2.11-1.19,.02-2.42-2.09-1.23-2.11,1.19-.02,2.42Z"/></g></g><g id="p"><g id="q"><circle class="av" cx="90.56" cy="21.58" r="14.24"/><path class="ay" d="M90.56,36.32c-8.13,0-14.74-6.61-14.74-14.74s6.61-14.74,14.74-14.74,14.74,6.61,14.74,14.74-6.61,14.74-14.74,14.74Zm0-28.47c-7.57,0-13.73,6.16-13.73,13.73s6.16,13.73,13.73,13.73,13.73-6.16,13.73-13.73-6.16-13.73-13.73-13.73Z"/></g><g id="r"><polygon class="aw" points="89.38 30.72 92.09 30.72 93.44 28.37 92.09 26.02 89.38 26.02 88.02 28.37 89.38 30.72"/><path d="M92.23,30.97h-3l-1.5-2.6,1.5-2.6h3l1.5,2.6-1.5,2.6Zm-2.71-.5h2.42l1.21-2.1-1.21-2.1h-2.42l-1.21,2.1,1.21,2.1Z"/></g><g id="s"><polygon class="aw" points="82.43 25.67 85.14 25.62 86.45 23.25 85.06 20.92 82.35 20.97 81.03 23.34 82.43 25.67"/><path d="M82.29,25.92l-1.54-2.57,1.46-2.62,3-.05,1.54,2.57-1.45,2.62-3,.05Zm-.97-2.58l1.25,2.08,2.42-.04,1.17-2.12-1.25-2.08-2.42,.04-1.17,2.12Z"/></g><g id="t"><polygon class="aw" points="88.37 16.96 89.01 14.32 87.06 12.45 84.45 13.21 83.81 15.84 85.77 17.71 88.37 16.96"/><path d="M85.7,17.99l-2.17-2.07,.71-2.91,2.88-.84,2.17,2.07-.71,2.91-2.88,.84Zm-1.61-2.24l1.75,1.67,2.33-.68,.58-2.35-1.75-1.67-2.33,.68-.58,2.35Z"/></g><g id="u"><polygon class="aw" points="96.52 12.8 93.81 12.67 92.34 14.95 93.58 17.36 96.29 17.49 97.76 15.21 96.52 12.8"/><path d="M96.42,17.75l-3-.14-1.37-2.67,1.62-2.52,3,.14,1.37,2.67-1.62,2.52Zm-2.68-.63l2.42,.12,1.31-2.04-1.11-2.15-2.42-.12-1.31,2.04,1.11,2.15Z"/></g><g id="v"><polygon class="aw" points="100.05 24.67 100.08 21.96 97.74 20.58 95.38 21.92 95.36 24.63 97.69 26.01 100.05 24.67"/><path d="M97.69,26.29l-2.58-1.52,.03-3,2.61-1.48,2.58,1.52-.03,3-2.61,1.48Zm-2.08-1.81l2.09,1.23,2.11-1.19,.02-2.42-2.09-1.23-2.11,1.19-.02,2.42Z"/></g></g><g id="w"><g id="x"><circle class="av" cx="22.62" cy="21.58" r="14.24"/><path class="ay" d="M22.62,36.32c-8.13,0-14.74-6.61-14.74-14.74S14.5,6.84,22.62,6.84s14.74,6.61,14.74,14.74-6.61,14.74-14.74,14.74Zm0-28.47c-7.57,0-13.73,6.16-13.73,13.73s6.16,13.73,13.73,13.73,13.73-6.16,13.73-13.73-6.16-13.73-13.73-13.73Z"/></g><g id="y"><polygon class="aw" points="21.62 30.16 24.33 30.16 25.69 27.81 24.33 25.47 21.62 25.47 20.26 27.81 21.62 30.16"/><path d="M24.48,30.41h-3l-1.5-2.6,1.5-2.6h3l1.5,2.6-1.5,2.6Zm-2.71-.5h2.42l1.21-2.1-1.21-2.1h-2.42l-1.21,2.1,1.21,2.1Z"/></g><g id="a`"><polygon class="aw" points="14.67 25.11 17.38 25.06 18.7 22.69 17.3 20.37 14.59 20.41 13.28 22.78 14.67 25.11"/><path d="M14.53,25.36l-1.54-2.57,1.46-2.62,3-.05,1.54,2.57-1.46,2.62-3,.05Zm-.97-2.58l1.25,2.08,2.42-.04,1.17-2.12-1.25-2.08-2.42,.04-1.17,2.12Z"/></g><g id="aa"><polygon class="aw" points="20.61 16.4 21.26 13.76 19.3 11.89 16.7 12.65 16.05 15.28 18.01 17.16 20.61 16.4"/><path d="M17.94,17.44l-2.17-2.07,.71-2.91,2.88-.84,2.17,2.07-.71,2.91-2.88,.84Zm-1.61-2.24l1.75,1.68,2.33-.68,.58-2.35-1.75-1.67-2.33,.68-.58,2.35Z"/></g><g id="ab"><polygon class="aw" points="28.76 12.24 26.05 12.11 24.59 14.39 25.83 16.8 28.53 16.93 30 14.65 28.76 12.24"/><path d="M28.67,17.19l-3-.14-1.37-2.67,1.62-2.52,3,.14,1.37,2.67-1.62,2.52Zm-2.68-.63l2.42,.12,1.31-2.04-1.11-2.15-2.42-.12-1.31,2.04,1.11,2.15Z"/></g><g id="ac"><polygon class="aw" points="32.3 24.11 32.32 21.4 29.99 20.03 27.63 21.36 27.6 24.07 29.94 25.45 32.3 24.11"/><path d="M29.94,25.74l-2.58-1.52,.03-3,2.61-1.48,2.58,1.52-.03,3-2.61,1.48Zm-2.08-1.81l2.09,1.23,2.11-1.19,.02-2.42-2.09-1.23-2.11,1.19-.02,2.42Z"/></g></g></g><g id="ad"><g id="ae"><path class="ax" d="M159.52,.51H21.58C15.76,.51,10.49,2.87,6.68,6.69,2.86,10.5,.5,15.77,.5,21.59c0,11.64,9.44,21.08,21.08,21.08H159.52c5.82,0,11.09-2.36,14.9-6.18,3.82-3.81,6.18-9.08,6.18-14.9,0-11.64-9.44-21.08-21.08-21.08Zm9.03,31.15c-2.57,2.57-6.13,4.17-10.07,4.17H22.62c-7.86,0-14.24-6.38-14.24-14.24,0-3.93,1.6-7.49,4.17-10.07,2.58-2.57,6.14-4.17,10.07-4.17H158.48c7.87,0,14.24,6.38,14.24,14.24,0,3.93-1.59,7.49-4.17,10.07Z"/></g><g id="af"><g id="ag"><path d="M56.72,7.85c-.13,0-.26-.05-.36-.15-.2-.2-.2-.52,0-.71L63.21,.15c.2-.2,.51-.2,.71,0,.2,.2,.2,.52,0,.71l-6.84,6.84c-.1,.1-.23,.15-.36,.15Z"/></g><g id="ah"><path d="M26.72,7.85c-.13,0-.26-.05-.36-.15-.2-.2-.2-.52,0-.71L33.21,.15c.2-.2,.51-.2,.71,0,.2,.2,.2,.52,0,.71l-6.84,6.84c-.1,.1-.23,.15-.36,.15Z"/></g><g id="ai"><path d="M86.72,7.85c-.13,0-.26-.05-.36-.15-.2-.2-.2-.52,0-.71L93.21,.15c.2-.2,.51-.2,.71,0,.2,.2,.2,.52,0,.71l-6.84,6.84c-.1,.1-.23,.15-.36,.15Z"/></g><g id="aj"><path d="M116.72,7.85c-.13,0-.26-.05-.36-.15-.2-.2-.2-.52,0-.71L123.21,.15c.2-.2,.51-.2,.71,0,.2,.2,.2,.52,0,.71l-6.84,6.84c-.1,.1-.23,.15-.36,.15Z"/></g><g id="ak"><path d="M146.72,7.85c-.13,0-.26-.05-.36-.15-.2-.2-.2-.52,0-.71L153.21,.15c.2-.2,.51-.2,.71,0,.2,.2,.2,.52,0,.71l-6.84,6.84c-.1,.1-.23,.15-.36,.15Z"/></g><g id="al"><path d="M126.17,43.17c-.13,0-.26-.05-.36-.15l-6.84-6.84c-.2-.2-.2-.52,0-.71,.2-.2,.51-.2,.71,0l6.84,6.84c.2,.2,.2,.52,0,.71-.1,.1-.23,.15-.36,.15Z"/></g><g id="am"><path d="M156.17,43.17c-.13,0-.26-.05-.36-.15l-6.84-6.84c-.2-.2-.2-.52,0-.71,.2-.2,.51-.2,.71,0l6.84,6.84c.2,.2,.2,.52,0,.71-.1,.1-.23,.15-.36,.15Z"/></g><g id="an"><path d="M96.17,43.17c-.13,0-.26-.05-.36-.15l-6.84-6.84c-.2-.2-.2-.52,0-.71,.2-.2,.51-.2,.71,0l6.84,6.84c.2,.2,.2,.52,0,.71-.1,.1-.23,.15-.36,.15Z"/></g><g id="ao"><path d="M66.17,43.17c-.13,0-.26-.05-.36-.15l-6.84-6.84c-.2-.2-.2-.52,0-.71,.2-.2,.51-.2,.71,0l6.84,6.84c.2,.2,.2,.52,0,.71-.1,.1-.23,.15-.36,.15Z"/></g><g id="ap"><path d="M36.17,43.17c-.13,0-.26-.05-.36-.15l-6.84-6.84c-.2-.2-.2-.52,0-.71,.2-.2,.51-.2,.71,0l6.84,6.84c.2,.2,.2,.52,0,.71-.1,.1-.23,.15-.36,.15Z"/></g><g id="aq"><path d="M12.34,11.67c-.13,0-.26-.05-.36-.15L6.98,6.52c-.2-.2-.2-.52,0-.71,.2-.2,.51-.2,.71,0l5,5c.2,.2,.2,.52,0,.71-.1,.1-.23,.15-.36,.15Z"/></g><g id="ar"><path d="M7.34,37.5c-.13,0-.26-.05-.36-.15-.2-.2-.2-.52,0-.71l5.12-5.12c.2-.2,.51-.2,.71,0,.2,.2,.2,.52,0,.71l-5.12,5.12c-.1,.1-.23,.15-.36,.15Z"/></g><g id="as"><path d="M169.41,12.8c-.13,0-.26-.05-.36-.15-.2-.2-.2-.52,0-.71l5.15-5.15c.2-.2,.51-.2,.71,0,.2,.2,.2,.52,0,.71l-5.15,5.15c-.1,.1-.23,.15-.36,.15Z"/></g><g id="at"><path d="M174.55,36.52c-.13,0-.26-.05-.36-.15l-5.14-5.14c-.2-.2-.2-.52,0-.71,.2-.2,.51-.2,.71,0l5.14,5.14c.2,.2,.2,.52,0,.71-.1,.1-.23,.15-.36,.15Z"/></g></g></g></svg>