<?xml version="1.0" encoding="UTF-8"?><svg xmlns="http://www.w3.org/2000/svg" viewBox="0 0 158.78 158.78"><defs><style>.f{stroke-miterlimit:10;}.f,.g{fill:#999;stroke:#000;}.g{stroke-linejoin:round;}</style></defs><g id="a"/><g id="b"><g id="c"><path id="d" class="f" d="M79.39,.5C35.82,.5,.5,35.82,.5,79.39s35.32,78.89,78.89,78.89,78.89-35.32,78.89-78.89S122.96,.5,79.39,.5Zm0,145.56c-36.82,0-66.67-29.85-66.67-66.67S42.56,12.71,79.39,12.71s66.67,29.85,66.67,66.67-29.85,66.67-66.67,66.67Z"/><g id="e"><path class="g" d="M66.04,117.46s-17.35-3.02-17.35-17.01V59.7s.43-4.49,4.66-4.49,4.49,4.49,4.49,4.49v19.08s.13,.91,1.38,.91,1.21-.91,1.21-.91v-27.11s.78-3.37,4.66-3.37,4.75,3.37,4.75,3.37v27.71s.13,.86,1.34,.86,1.17-.86,1.17-.86V44.94s.52-4.14,4.66-4.14,4.75,4.14,4.75,4.14v34.45s0,.95,1.29,.95,1.12-.95,1.12-.95v-24.95s.6-3.71,4.75-3.71,4.92,3.71,4.92,3.71v35.05s5.78-7.94,9.32-13.21c3.63-5.27,13.99-1.73,11.22,3.11-6.3,11.22-18.13,38.07-29.61,38.07h-18.73Z"/></g></g></g></svg>