<?xml version="1.0" encoding="UTF-8"?><svg id="a" xmlns="http://www.w3.org/2000/svg" viewBox="0 0 181 180.57"><defs><style>.e{fill:#999;stroke:#000;stroke-miterlimit:10;}</style></defs><g id="b"><path class="e" d="M90.5,11.4C46.93,11.4,11.61,46.71,11.61,90.28s35.32,78.89,78.89,78.89,78.89-35.32,78.89-78.89S134.07,11.4,90.5,11.4Zm0,145.56c-36.82,0-66.67-29.85-66.67-66.67S53.68,23.61,90.5,23.61s66.67,29.85,66.67,66.67-29.85,66.67-66.67,66.67Z"/></g><path id="c" class="e" d="M88.47,33.68L40.46,116.83c-.9,1.56,.23,3.52,2.03,3.52h96.02c1.8,0,2.93-1.95,2.03-3.52L92.53,33.68c-.9-1.56-3.16-1.56-4.06,0Zm3.44,15.34l35.03,60.67c.63,1.08-.16,2.44-1.41,2.44H55.47c-1.25,0-2.04-1.36-1.41-2.44l35.03-60.67c.63-1.08,2.19-1.08,2.82,0Z"/><g id="d"><path class="e" d="M86.99,104.33c0-.99,.3-1.82,.9-2.49,.6-.67,1.49-1.01,2.67-1.01s2.07,.34,2.68,1.01c.61,.67,.92,1.5,.92,2.49s-.31,1.81-.92,2.46c-.61,.65-1.5,.97-2.68,.97s-2.07-.33-2.67-.97c-.6-.65-.9-1.47-.9-2.46Zm6.12-10.43h-5.46l-.41-32.67c-.01-.81,.64-1.47,1.45-1.47h3.41c.81,0,1.46,.66,1.45,1.47l-.44,32.66Z"/></g></svg>