<?xml version="1.0" encoding="UTF-8"?><svg id="Layer_2" xmlns="http://www.w3.org/2000/svg" viewBox="0 0 181 180.57"><g id="air_settings_icon_group_copy"><g id="GEAR_group_copy"><g id="gear"><path d="M180.07,99.08s.43-5.91,.43-8.92-.15-5.93-.43-8.83c0,0-7.01-.21-11.29-.34-.5-4.24-1.33-8.37-2.47-12.37,4.07-1.88,9.98-4.6,9.98-4.6,0,0-1.87-5.63-3.02-8.41-1.14-2.75-2.4-5.42-3.78-8,0,0-6.31,2.39-10.34,3.92-1.97-3.48-4.2-6.8-6.65-9.92,3.03-3.28,7.3-7.91,7.3-7.91,0,0-3.88-4.48-6.01-6.61s-4.29-4.09-6.55-5.94c0,0-1.3,1.22-2.98,2.81-1.51,1.42-3.34,3.14-4.83,4.54-2.71-2.15-5.57-4.12-8.55-5.91,1.54-4.17,3.59-9.74,3.59-9.74,0,0-5.3-2.66-8.08-3.81-2.75-1.14-5.53-2.13-8.33-2.98,0,0-2.3,5.11-4.04,8.99-4.56-1.42-9.29-2.44-14.17-3.02-.18-4.48-.44-11.08-.44-11.08,0,0-5.91-.43-8.92-.43s-5.93,.15-8.83,.43c0,0-.2,6.75-.33,11.06-4.29,.5-8.47,1.34-12.52,2.49-1.87-4.04-4.41-9.56-4.41-9.56,0,0-5.63,1.87-8.41,3.02-2.75,1.14-5.42,2.4-8,3.78,0,0,2.23,5.88,3.76,9.91-3.65,2.07-7.12,4.41-10.38,7.01-3.3-3.04-8.12-7.51-8.12-7.51,0,0-4.48,3.88-6.61,6.01-2.11,2.11-4.09,4.29-5.94,6.55,0,0,4.7,4.99,7.65,8.12-2.43,3.11-4.63,6.41-6.57,9.86-4.21-1.55-10.48-3.86-10.48-3.86,0,0-2.66,5.3-3.81,8.08-1.14,2.75-2.13,5.53-2.98,8.33,0,0,6.24,2.81,10.16,4.57-1.12,3.96-1.94,8.05-2.43,12.25-4.48,.18-11.28,.45-11.28,.45,0,0-.43,5.91-.43,8.92s.15,5.93,.43,8.83c0,0,7,.21,11.29,.34,.5,4.24,1.33,8.37,2.47,12.38-4.07,1.88-9.9,4.57-9.9,4.57,0,0,1.87,5.63,3.02,8.41,1.14,2.75,2.4,5.42,3.78,8,0,0,6.23-2.36,10.26-3.89,2.02,3.58,4.32,6.98,6.86,10.18-2.98,3.23-6.82,7.38-6.82,7.38,0,0,3.88,4.48,6.01,6.61s4.29,4.09,6.55,5.94c0,0,4.23-3.98,7.34-6.91,3.19,2.51,6.57,4.78,10.13,6.78-1.55,4.2-3.74,10.16-3.74,10.16,0,0,5.3,2.66,8.08,3.81,2.75,1.14,5.53,2.13,8.33,2.98,0,0,2.66-5.91,4.43-9.85,4.8,1.36,13.14,2.53,12.27,2.43,.18,4.49,.44,11.07,.44,11.07,0,0,5.91,.43,8.92,.43s5.93-.15,8.83-.43c0,0,.2-6.77,.33-11.07,4.24-.5,8.39-1.33,12.4-2.48,1.87,4.04,4.41,9.55,4.41,9.55,0,0,5.63-1.87,8.41-3.02,2.75-1.14,5.42-2.4,8-3.78,0,0-2.23-5.87-3.75-9.9,3.72-2.1,7.24-4.5,10.55-7.15,3.27,3.02,7.71,7.12,7.71,7.12,0,0,4.48-3.88,6.61-6.01,2.11-2.11,4.09-4.29,5.94-6.55,0,0-4.33-4.6-7.29-7.74,2.38-3.07,4.55-6.32,6.46-9.72,4.21,1.55,10.49,3.86,10.49,3.86,0,0,2.66-5.3,3.81-8.08,1.14-2.75,2.13-5.53,2.98-8.33,0,0-6.24-2.81-10.16-4.57,1.12-3.96,1.94-8.05,2.43-12.25,4.48-.18,11.28-.45,11.28-.45Zm-89.57,57.87c-36.82,0-66.67-29.85-66.67-66.67S53.68,23.61,90.5,23.61s66.67,29.85,66.67,66.67-29.85,66.67-66.67,66.67Z"/><path d="M90.63,180.57c-2.99,0-8.9-.43-8.96-.43l-.45-.03-.44-11.11h-.05c-5.02-.8-8.87-1.56-11.45-2.26l-4.44,9.86-.42-.13c-2.82-.86-5.64-1.87-8.37-3-2.77-1.15-8.06-3.8-8.11-3.83l-.4-.2,3.75-10.18c-3.3-1.88-6.48-4.01-9.48-6.34l-7.35,6.92-.34-.28c-2.27-1.87-4.49-3.88-6.59-5.98-2.12-2.12-5.99-6.59-6.03-6.64l-.29-.34,6.83-7.4c-2.36-3.01-4.52-6.22-6.42-9.53l-10.27,3.9-.21-.39c-1.39-2.6-2.66-5.3-3.8-8.04-1.15-2.77-3.01-8.39-3.03-8.44l-.14-.42,9.92-4.58c-1.06-3.79-1.84-7.69-2.32-11.61l-11.3-.34-.04-.44c-.29-2.93-.43-5.92-.43-8.88s.43-8.9,.43-8.96l.03-.45,11.3-.45c.47-3.87,1.24-7.73,2.28-11.48l-10.17-4.58,.13-.42c.86-2.82,1.87-5.63,3-8.37,1.15-2.77,3.8-8.06,3.83-8.11l.2-.4,10.5,3.87c1.82-3.2,3.89-6.3,6.14-9.22l-7.66-8.13,.28-.34c1.87-2.28,3.88-4.49,5.98-6.59,2.12-2.12,6.6-5.99,6.64-6.03l.34-.29,8.14,7.52c3.07-2.43,6.35-4.64,9.74-6.58l-3.76-9.92,.39-.21c2.6-1.39,5.3-2.66,8.04-3.8,2.77-1.15,8.39-3.01,8.44-3.03l.42-.14,4.42,9.58c3.84-1.07,7.79-1.86,11.76-2.34l.33-11.07,.44-.04c2.93-.29,5.92-.43,8.88-.43s8.9,.43,8.96,.43l.45,.03,.44,11.1c4.54,.56,9.05,1.52,13.41,2.86l4.04-8.99,.42,.13c2.82,.86,5.64,1.87,8.37,3,2.77,1.15,8.06,3.8,8.11,3.83l.4,.2-3.6,9.77c2.73,1.65,5.39,3.49,7.91,5.46l7.82-7.36,.34,.28c2.27,1.87,4.49,3.88,6.59,5.98,2.12,2.12,5.99,6.6,6.03,6.64l.29,.34-7.32,7.92c2.28,2.94,4.37,6.05,6.22,9.28l10.35-3.93,.21,.39c1.39,2.6,2.67,5.31,3.8,8.04,1.15,2.77,3.01,8.39,3.03,8.44l.14,.42-10,4.61c1.06,3.79,1.84,7.69,2.32,11.61l11.3,.34,.04,.44c.29,2.93,.43,5.92,.43,8.88s-.43,8.9-.43,8.96l-.03,.45-11.3,.45c-.47,3.87-1.24,7.73-2.28,11.48l10.17,4.58-.13,.42c-.86,2.82-1.87,5.64-3,8.37-1.15,2.77-3.8,8.06-3.83,8.11l-.2,.4-10.51-3.87c-1.79,3.15-3.82,6.2-6.03,9.07l7.3,7.75-.28,.34c-1.87,2.28-3.88,4.49-5.98,6.59s-6.6,5.99-6.64,6.03l-.34,.29-7.72-7.13c-3.12,2.48-6.45,4.73-9.91,6.71l3.76,9.91-.39,.21c-2.6,1.38-5.3,2.66-8.04,3.8-2.77,1.15-8.39,3.01-8.44,3.03l-.42,.14-4.42-9.57c-3.8,1.06-7.71,1.84-11.63,2.33l-.33,11.08-.44,.04c-2.93,.29-5.92,.43-8.88,.43Zm-8.44-1.4c1.43,.1,5.96,.4,8.44,.4,2.78,0,5.59-.13,8.35-.39l.33-11.06,.43-.05c4.16-.49,8.3-1.32,12.32-2.46l.41-.12,4.4,9.53c1.36-.46,5.66-1.92,7.95-2.86,2.57-1.07,5.12-2.26,7.56-3.55l-3.75-9.89,.37-.21c3.67-2.08,7.2-4.47,10.49-7.11l.34-.27,7.69,7.11c1.08-.94,4.5-3.93,6.25-5.69,1.97-1.97,3.86-4.04,5.63-6.17l-7.28-7.73,.26-.34c2.37-3.05,4.53-6.3,6.42-9.66l.21-.37,10.46,3.86c.64-1.29,2.65-5.36,3.6-7.65,1.06-2.57,2.02-5.21,2.84-7.86l-10.15-4.57,.12-.42c1.12-3.97,1.93-8.07,2.41-12.17l.05-.42,11.26-.45c.1-1.43,.4-5.96,.4-8.44,0-2.78-.13-5.59-.39-8.35l-11.28-.34-.05-.43c-.49-4.15-1.31-8.29-2.46-12.29l-.12-.41,9.96-4.6c-.46-1.36-1.91-5.66-2.86-7.95-1.06-2.57-2.26-5.11-3.55-7.56l-10.33,3.92-.21-.37c-1.94-3.44-4.17-6.75-6.61-9.86l-.26-.33,7.29-7.89c-.94-1.08-3.93-4.5-5.69-6.25-1.97-1.97-4.04-3.86-6.17-5.63l-7.8,7.34-.34-.27c-2.69-2.13-5.55-4.11-8.5-5.87l-.36-.21,3.58-9.71c-1.29-.64-5.36-2.65-7.65-3.6-2.57-1.06-5.21-2.02-7.86-2.84l-4.04,8.99-.42-.13c-4.57-1.43-9.3-2.44-14.07-3l-.42-.05-.44-11.06c-1.43-.1-5.96-.4-8.44-.4-2.78,0-5.59,.13-8.35,.39l-.33,11.05-.43,.05c-4.2,.49-8.39,1.32-12.44,2.48l-.41,.12-4.4-9.54c-1.36,.46-5.66,1.91-7.95,2.86-2.57,1.07-5.12,2.26-7.56,3.55l3.75,9.9-.37,.21c-3.6,2.04-7.07,4.38-10.32,6.97l-.34,.27-8.11-7.49c-1.08,.94-4.5,3.93-6.25,5.69-1.97,1.97-3.86,4.04-5.63,6.18l7.64,8.11-.26,.34c-2.41,3.09-4.61,6.39-6.53,9.8l-.21,.37-10.46-3.86c-.64,1.28-2.65,5.36-3.6,7.65-1.07,2.57-2.02,5.21-2.84,7.86l10.15,4.57-.12,.42c-1.12,3.97-1.93,8.06-2.41,12.17l-.05,.42-11.26,.45c-.1,1.43-.4,5.96-.4,8.44,0,2.78,.13,5.59,.39,8.35l11.28,.34,.05,.43c.49,4.15,1.32,8.29,2.46,12.3l.12,.41-9.88,4.56c.46,1.36,1.91,5.66,2.86,7.95,1.07,2.57,2.26,5.12,3.55,7.56l10.25-3.89,.21,.37c2,3.53,4.29,6.93,6.81,10.11l.27,.33-6.8,7.37c.94,1.08,3.93,4.5,5.69,6.25,1.97,1.97,4.05,3.86,6.17,5.63l7.33-6.9,.34,.27c3.17,2.49,6.55,4.76,10.06,6.73l.37,.21-3.74,10.14c1.28,.64,5.36,2.65,7.65,3.6,2.57,1.06,5.21,2.02,7.86,2.84l4.43-9.84,.42,.12c2.54,.72,6.49,1.51,11.75,2.34,.16,.03,.31,.05,.43,.08h0c.37,.08,.55,.21,.5,.57l-.04,.31,.4,10.21Zm8.32-21.71c-37.04,0-67.17-30.13-67.17-67.17S53.46,23.11,90.5,23.11s67.17,30.13,67.17,67.17-30.13,67.17-67.17,67.17Zm0-133.35c-36.49,0-66.17,29.69-66.17,66.17s29.69,66.17,66.17,66.17,66.17-29.68,66.17-66.17S126.99,24.11,90.5,24.11Z"/></g></g><g id="AIR_GROUP_copy"><g id="air003"><g><path d="M88.08,131.35c-3.27,0-6.44-.87-8.95-2.25-5.58-3.05-8.31-8.55-7.13-14.34,.33-1.62,1.91-2.67,3.54-2.34,1.62,.33,2.67,1.91,2.34,3.54-.93,4.56,2.58,7.03,4.13,7.88,3.81,2.08,9.62,2.3,13.36-1.33,2.63-2.55,3.33-7.41,1.65-11.55-.82-2.03-2.89-5.42-7.49-5.42H45.14c-1.66,0-3-1.34-3-3s1.34-3,3-3h44.38c5.85,0,10.72,3.43,13.05,9.17,2.6,6.41,1.35,13.86-3.03,18.11-3.34,3.24-7.49,4.53-11.47,4.53Z"/><path d="M88.08,131.85h0c-3.2,0-6.47-.82-9.19-2.31-5.78-3.16-8.61-8.86-7.38-14.88,.38-1.89,2.23-3.11,4.13-2.73,1.89,.38,3.12,2.24,2.73,4.13-.86,4.24,2.43,6.55,3.88,7.34,3.65,2,9.21,2.21,12.77-1.25,2.49-2.42,3.14-7.04,1.53-11-.77-1.91-2.72-5.11-7.03-5.11H45.14c-1.93,0-3.5-1.57-3.5-3.5s1.57-3.5,3.5-3.5h44.38c6.06,0,11.11,3.54,13.52,9.48,2.67,6.59,1.38,14.26-3.15,18.65-3.98,3.86-8.62,4.67-11.82,4.67Zm-13.14-18.99c-1.16,0-2.21,.82-2.45,2-1.13,5.57,1.5,10.86,6.88,13.8,2.57,1.41,5.67,2.18,8.71,2.18,3.01,0,7.38-.76,11.12-4.39,4.24-4.11,5.44-11.33,2.92-17.56-2.25-5.55-6.96-8.86-12.59-8.86H45.14c-1.38,0-2.5,1.12-2.5,2.5s1.12,2.5,2.5,2.5h44.38c4.9,0,7.09,3.59,7.96,5.74,1.75,4.32,1.01,9.4-1.76,12.09-3.91,3.8-9.98,3.58-13.94,1.41-1.65-.9-5.38-3.53-4.38-8.42,.27-1.35-.6-2.67-1.95-2.95-.17-.03-.33-.05-.5-.05Z"/></g></g><g id="air002"><g><path d="M121.79,93.28H45.14c-1.66,0-3-1.34-3-3s1.34-3,3-3H121.79c1.47,0,3.47-.86,5.34-2.29,3.55-2.73,5.88-6.75,6.21-10.75,.33-3.88-1.17-7.64-4.45-11.18-3.73-4.02-9.28-5-14.83-2.61-4.63,1.99-9.14,6.63-8.76,12.51,.11,1.65-1.15,3.08-2.8,3.19-1.66,.11-3.08-1.15-3.19-2.8-.49-7.61,4.48-15.01,12.38-18.41,7.88-3.39,16.15-1.84,21.61,4.04,4.41,4.76,6.5,10.21,6.03,15.76-.48,5.66-3.67,11.27-8.54,15-2.97,2.28-6.16,3.53-8.99,3.53Z"/><path d="M121.79,93.78H45.14c-1.93,0-3.5-1.57-3.5-3.5s1.57-3.5,3.5-3.5H121.79c1.37,0,3.25-.82,5.03-2.19,3.44-2.64,5.69-6.53,6.02-10.39,.32-3.73-1.14-7.37-4.32-10.8-3.58-3.86-8.92-4.79-14.27-2.49-4.47,1.92-8.82,6.39-8.46,12.02,.06,.93-.25,1.83-.86,2.54-.62,.7-1.47,1.12-2.4,1.18-.93,.06-1.83-.24-2.53-.86-.7-.62-1.13-1.47-1.19-2.41-.51-7.82,4.59-15.42,12.68-18.9,8.07-3.47,16.57-1.88,22.17,4.16,4.51,4.86,6.64,10.45,6.16,16.15-.49,5.79-3.76,11.54-8.73,15.36-3.05,2.34-6.36,3.64-9.3,3.64Zm-76.65-6c-1.38,0-2.5,1.12-2.5,2.5s1.12,2.5,2.5,2.5H121.79c2.72,0,5.81-1.22,8.69-3.43,4.76-3.65,7.88-9.13,8.35-14.65,.46-5.41-1.58-10.73-5.9-15.38-5.3-5.72-13.37-7.22-21.04-3.92-7.7,3.31-12.55,10.51-12.07,17.92,.04,.67,.34,1.28,.85,1.72,.5,.44,1.14,.66,1.81,.61,.67-.04,1.28-.34,1.72-.85s.66-1.15,.62-1.81c-.4-6.12,4.26-10.94,9.06-13,5.76-2.48,11.52-1.46,15.4,2.73,3.38,3.64,4.92,7.53,4.58,11.56-.35,4.14-2.75,8.29-6.41,11.1-1.96,1.5-4.06,2.4-5.64,2.4H45.14Z"/></g></g><g id="air001"><g><path d="M77.64,81.35H45.14c-1.66,0-3-1.34-3-3s1.34-3,3-3h32.49c3.18,0,4.76-2.91,5.29-4.16,1.2-2.82,1.04-6.05-.37-7.52-3.69-3.84-7.73-2.22-8.88-1.64-2.63,1.34-4.2,3.84-3.8,6.08,.29,1.63-.8,3.19-2.43,3.48-1.63,.29-3.19-.8-3.48-2.43-.87-4.9,1.94-9.91,6.99-12.48,4.29-2.18,10.72-2.58,15.93,2.83,3.13,3.25,3.76,8.89,1.57,14.03-2.08,4.89-6.12,7.81-10.81,7.81Z"/><path d="M77.64,81.85H45.14c-1.93,0-3.5-1.57-3.5-3.5s1.57-3.5,3.5-3.5h32.49c2.88,0,4.34-2.69,4.83-3.85,1.11-2.6,.99-5.66-.27-6.98-3.45-3.59-7.22-2.09-8.29-1.54-2.44,1.24-3.89,3.52-3.53,5.55,.34,1.9-.94,3.72-2.84,4.06-.91,.16-1.85-.04-2.61-.57-.77-.54-1.28-1.34-1.44-2.26-.9-5.11,2.01-10.34,7.25-13.01,4.45-2.26,11.12-2.68,16.51,2.93,3.26,3.39,3.93,9.25,1.67,14.57-2.16,5.08-6.37,8.11-11.27,8.11Zm-32.49-6c-1.38,0-2.5,1.12-2.5,2.5s1.12,2.5,2.5,2.5h32.49c4.48,0,8.35-2.8,10.35-7.5,2.11-4.96,1.52-10.38-1.47-13.48-5.02-5.22-11.21-4.83-15.34-2.73-4.85,2.47-7.55,7.27-6.72,11.94,.12,.66,.48,1.23,1.03,1.62,.55,.38,1.21,.53,1.86,.41,1.36-.24,2.27-1.54,2.03-2.9-.43-2.46,1.24-5.18,4.07-6.61,1.23-.62,5.54-2.34,9.47,1.74,1.57,1.63,1.77,5.02,.47,8.06-.57,1.34-2.27,4.46-5.75,4.46H45.14Z"/></g></g></g></g></svg>