<?xml version="1.0" encoding="UTF-8"?><svg id="a" xmlns="http://www.w3.org/2000/svg" viewBox="0 0 181 180.57"><defs><style>.h{fill:#999;stroke:#000;stroke-miterlimit:10;}</style></defs><g id="b"><path id="c" class="h" d="M180.07,99.08s.43-5.91,.43-8.92-.15-5.93-.43-8.83c0,0-7.01-.21-11.29-.34-.5-4.24-1.33-8.37-2.47-12.37,4.07-1.88,9.98-4.6,9.98-4.6,0,0-1.87-5.63-3.02-8.41-1.14-2.75-2.4-5.42-3.78-8,0,0-6.31,2.39-10.34,3.92-1.97-3.48-4.2-6.8-6.65-9.92,3.03-3.28,7.3-7.91,7.3-7.91,0,0-3.88-4.48-6.01-6.61s-4.29-4.09-6.55-5.94c0,0-1.3,1.22-2.98,2.81-1.51,1.42-3.34,3.14-4.83,4.54-2.71-2.15-5.57-4.12-8.55-5.91,1.54-4.17,3.59-9.74,3.59-9.74,0,0-5.3-2.66-8.08-3.81-2.75-1.14-5.53-2.13-8.33-2.98,0,0-2.3,5.11-4.04,8.99-4.56-1.42-9.29-2.44-14.17-3.02-.18-4.48-.44-11.08-.44-11.08,0,0-5.91-.43-8.92-.43s-5.93,.15-8.83,.43c0,0-.2,6.75-.33,11.06-4.29,.5-8.47,1.34-12.52,2.49-1.87-4.04-4.41-9.56-4.41-9.56,0,0-5.63,1.87-8.41,3.02-2.75,1.14-5.42,2.4-8,3.78,0,0,2.23,5.88,3.76,9.91-3.65,2.07-7.12,4.41-10.38,7.01-3.3-3.04-8.12-7.51-8.12-7.51,0,0-4.48,3.88-6.61,6.01-2.11,2.11-4.09,4.29-5.94,6.55,0,0,4.7,4.99,7.65,8.12-2.43,3.11-4.63,6.41-6.57,9.86-4.21-1.55-10.48-3.86-10.48-3.86,0,0-2.66,5.3-3.81,8.08-1.14,2.75-2.13,5.53-2.98,8.33,0,0,6.24,2.81,10.16,4.57-1.12,3.96-1.94,8.05-2.43,12.25-4.48,.18-11.28,.45-11.28,.45,0,0-.43,5.91-.43,8.92s.15,5.93,.43,8.83c0,0,7,.21,11.29,.34,.5,4.24,1.33,8.37,2.47,12.38-4.07,1.88-9.9,4.57-9.9,4.57,0,0,1.87,5.63,3.02,8.41,1.14,2.75,2.4,5.42,3.78,8,0,0,6.23-2.36,10.26-3.89,2.02,3.58,4.32,6.98,6.86,10.18-2.98,3.23-6.82,7.38-6.82,7.38,0,0,3.88,4.48,6.01,6.61s4.29,4.09,6.55,5.94c0,0,4.23-3.98,7.34-6.91,3.19,2.51,6.57,4.78,10.13,6.78-1.55,4.2-3.74,10.16-3.74,10.16,0,0,5.3,2.66,8.08,3.81,2.75,1.14,5.53,2.13,8.33,2.98,0,0,2.66-5.91,4.43-9.85,4.8,1.36,13.14,2.53,12.27,2.43,.18,4.49,.44,11.07,.44,11.07,0,0,5.91,.43,8.92,.43s5.93-.15,8.83-.43c0,0,.2-6.77,.33-11.07,4.24-.5,8.39-1.33,12.4-2.48,1.87,4.04,4.41,9.55,4.41,9.55,0,0,5.63-1.87,8.41-3.02,2.75-1.14,5.42-2.4,8-3.78,0,0-2.23-5.87-3.75-9.9,3.72-2.1,7.24-4.5,10.55-7.15,3.27,3.02,7.71,7.12,7.71,7.12,0,0,4.48-3.88,6.61-6.01,2.11-2.11,4.09-4.29,5.94-6.55,0,0-4.33-4.6-7.29-7.74,2.38-3.07,4.55-6.32,6.46-9.72,4.21,1.55,10.49,3.86,10.49,3.86,0,0,2.66-5.3,3.81-8.08,1.14-2.75,2.13-5.53,2.98-8.33,0,0-6.24-2.81-10.16-4.57,1.12-3.96,1.94-8.05,2.43-12.25,4.48-.18,11.28-.45,11.28-.45Zm-89.57,57.87c-36.82,0-66.67-29.85-66.67-66.67S53.68,23.61,90.5,23.61s66.67,29.85,66.67,66.67-29.85,66.67-66.67,66.67Z"/></g><g id="d"><g id="e"><path class="h" d="M88.08,131.35c-3.27,0-6.44-.87-8.95-2.25-5.58-3.05-8.31-8.55-7.13-14.34,.33-1.62,1.91-2.67,3.54-2.34,1.62,.33,2.67,1.91,2.34,3.54-.93,4.56,2.58,7.03,4.13,7.88,3.81,2.08,9.62,2.3,13.36-1.33,2.63-2.55,3.33-7.41,1.65-11.55-.82-2.03-2.89-5.42-7.49-5.42H45.14c-1.66,0-3-1.34-3-3s1.34-3,3-3h44.38c5.85,0,10.72,3.43,13.05,9.17,2.6,6.41,1.35,13.86-3.03,18.11-3.34,3.24-7.49,4.53-11.47,4.53Z"/></g><g id="f"><path class="h" d="M121.79,93.28H45.14c-1.66,0-3-1.34-3-3s1.34-3,3-3H121.79c1.47,0,3.47-.86,5.34-2.29,3.55-2.73,5.88-6.75,6.21-10.75,.33-3.88-1.17-7.64-4.45-11.18-3.73-4.02-9.28-5-14.83-2.61-4.63,1.99-9.14,6.63-8.76,12.51,.11,1.65-1.15,3.08-2.8,3.19-1.66,.11-3.08-1.15-3.19-2.8-.49-7.61,4.48-15.01,12.38-18.41,7.88-3.39,16.15-1.84,21.61,4.04,4.41,4.76,6.5,10.21,6.03,15.76-.48,5.66-3.67,11.27-8.54,15-2.97,2.28-6.16,3.53-8.99,3.53Z"/></g><g id="g"><path class="h" d="M77.64,81.35H45.14c-1.66,0-3-1.34-3-3s1.34-3,3-3h32.49c3.18,0,4.76-2.91,5.29-4.16,1.2-2.82,1.04-6.05-.37-7.52-3.69-3.84-7.73-2.22-8.88-1.64-2.63,1.34-4.2,3.84-3.8,6.08,.29,1.63-.8,3.19-2.43,3.48-1.63,.29-3.19-.8-3.48-2.43-.87-4.9,1.94-9.91,6.99-12.48,4.29-2.18,10.72-2.58,15.93,2.83,3.13,3.25,3.76,8.89,1.57,14.03-2.08,4.89-6.12,7.81-10.81,7.81Z"/></g></g></svg>