<?xml version="1.0" encoding="UTF-8"?><svg xmlns="http://www.w3.org/2000/svg" viewBox="0 0 158.78 158.78"><g id="a"/><g id="b"><g id="c"><g id="d"><path d="M79.39,.5C35.82,.5,.5,35.82,.5,79.39s35.32,78.89,78.89,78.89,78.89-35.32,78.89-78.89S122.96,.5,79.39,.5Zm0,145.56c-36.82,0-66.67-29.85-66.67-66.67S42.56,12.71,79.39,12.71s66.67,29.85,66.67,66.67-29.85,66.67-66.67,66.67Z" style="fill:#999;"/><path d="M79.39,158.78C35.61,158.78,0,123.16,0,79.39S35.61,0,79.39,0s79.39,35.61,79.39,79.39-35.61,79.39-79.39,79.39ZM79.39,1C36.16,1,1,36.16,1,79.39s35.16,78.39,78.39,78.39,78.39-35.17,78.39-78.39S122.61,1,79.39,1Zm0,145.56c-37.04,0-67.17-30.13-67.17-67.17S42.35,12.21,79.39,12.21s67.17,30.13,67.17,67.17-30.13,67.17-67.17,67.17Zm0-133.35C42.9,13.21,13.21,42.9,13.21,79.39s29.69,66.17,66.17,66.17,66.17-29.68,66.17-66.17S115.88,13.21,79.39,13.21Z"/></g><g id="e"><path d="M79.39,46.06c-18.41,0-33.33,14.92-33.33,33.33s14.92,33.33,33.33,33.33,33.33-14.92,33.33-33.33-14.92-33.33-33.33-33.33Zm0,56.89c-13.02,0-23.57-10.55-23.57-23.57s10.55-23.57,23.57-23.57,23.57,10.55,23.57,23.57-10.55,23.57-23.57,23.57Z" style="fill:#999;"/><path d="M79.39,113.21c-18.65,0-33.83-15.17-33.83-33.83s15.17-33.83,33.83-33.83,33.83,15.17,33.83,33.83-15.17,33.83-33.83,33.83Zm0-66.65c-18.1,0-32.83,14.73-32.83,32.83s14.73,32.83,32.83,32.83,32.83-14.73,32.83-32.83-14.73-32.83-32.83-32.83Zm0,56.89c-13.27,0-24.07-10.8-24.07-24.07s10.8-24.07,24.07-24.07,24.07,10.8,24.07,24.07-10.8,24.07-24.07,24.07Zm0-47.13c-12.72,0-23.07,10.35-23.07,23.07s10.35,23.07,23.07,23.07,23.07-10.35,23.07-23.07-10.35-23.07-23.07-23.07Z"/></g></g></g></svg>