<?xml version="1.0" encoding="UTF-8"?><svg id="a" xmlns="http://www.w3.org/2000/svg" viewBox="0 0 181.89 181.48"><defs><style>.d{fill:#999;stroke:#000;stroke-miterlimit:10;}</style></defs><path id="b" class="d" d="M91.01,11.85C47.44,11.85,12.12,47.17,12.12,90.74s35.32,78.89,78.89,78.89,78.89-35.32,78.89-78.89S134.57,11.85,91.01,11.85Zm0,145.56c-36.82,0-66.67-29.85-66.67-66.67S54.18,24.07,91.01,24.07s66.67,29.85,66.67,66.67-29.85,66.67-66.67,66.67Z"/><path id="c" class="d" d="M91.01,57.41c-18.41,0-33.33,14.92-33.33,33.33s14.92,33.33,33.33,33.33,33.33-14.92,33.33-33.33-14.92-33.33-33.33-33.33Zm0,56.89c-13.02,0-23.57-10.55-23.57-23.57s10.55-23.57,23.57-23.57,23.57,10.55,23.57,23.57-10.55,23.57-23.57,23.57Z"/></svg>