<?xml version="1.0" encoding="UTF-8"?><svg xmlns="http://www.w3.org/2000/svg" viewBox="0 0 158.78 158.78"><g id="a"/><g id="b"><g id="c"><g id="d"><path d="M79.39,.5C35.82,.5,.5,35.82,.5,79.39s35.32,78.89,78.89,78.89,78.89-35.32,78.89-78.89S122.96,.5,79.39,.5Zm0,145.56c-36.82,0-66.67-29.85-66.67-66.67S42.56,12.71,79.39,12.71s66.67,29.85,66.67,66.67-29.85,66.67-66.67,66.67Z" style="fill:#999;"/><path d="M79.39,158.78C35.61,158.78,0,123.16,0,79.39S35.61,0,79.39,0s79.39,35.61,79.39,79.39-35.61,79.39-79.39,79.39ZM79.39,1C36.16,1,1,36.16,1,79.39s35.16,78.39,78.39,78.39,78.39-35.17,78.39-78.39S122.61,1,79.39,1Zm0,145.56c-37.04,0-67.17-30.13-67.17-67.17S42.35,12.21,79.39,12.21s67.17,30.13,67.17,67.17-30.13,67.17-67.17,67.17Zm0-133.35C42.9,13.21,13.21,42.9,13.21,79.39s29.69,66.17,66.17,66.17,66.17-29.68,66.17-66.17S115.88,13.21,79.39,13.21Z"/></g><g id="e"><polygon points="93.19 46.06 65.58 46.06 46.06 65.58 46.06 93.19 65.58 112.72 93.19 112.72 112.71 93.19 112.71 65.58 93.19 46.06" style="fill:#999;"/><path d="M93.32,113.02h-27.87l-.09-.09-19.61-19.61v-27.86l19.7-19.7h27.87l.09,.09,19.61,19.61v27.86l-19.7,19.7Zm-27.61-.62h27.35l19.34-19.34v-27.35l-19.34-19.34h-27.35l-19.34,19.34v27.35l19.34,19.34Z"/></g></g></g></svg>