<?xml version="1.0" encoding="UTF-8"?><svg xmlns="http://www.w3.org/2000/svg" viewBox="0 0 165.35 29.49"><defs><style>.j{fill:#aaa;stroke:#000;stroke-width:.5px;}.j,.k{stroke-miterlimit:10;}.k{fill:#dbdbdb;stroke:#231f20;stroke-width:1.01px;}</style></defs><g id="a"/><g id="b"><g id="c"><g id="d"><path id="e" class="k" d="M164.84,14.74c0,3.93-1.59,7.49-4.17,10.07-2.57,2.57-6.13,4.17-10.07,4.17H14.74C6.88,28.98,.5,22.6,.5,14.74c0-3.93,1.6-7.49,4.17-10.07C7.25,2.1,10.81,.5,14.74,.5H150.6c7.87,0,14.24,6.38,14.24,14.24Z"/><polygon id="f" class="j" points="122.73 17.09 125.44 17.09 126.79 14.74 125.44 12.39 122.73 12.39 121.37 14.74 122.73 17.09"/><polygon id="g" class="j" points="106.85 17.09 109.56 17.09 110.91 14.74 109.56 12.39 106.85 12.39 105.49 14.74 106.85 17.09"/><polygon id="h" class="j" points="58.5 12.39 55.79 12.39 54.44 14.74 55.79 17.09 58.5 17.09 59.86 14.74 58.5 12.39"/><polygon id="i" class="j" points="42.62 12.39 39.91 12.39 38.56 14.74 39.91 17.09 42.62 17.09 43.98 14.74 42.62 12.39"/></g></g></g></svg>