<?xml version="1.0" encoding="UTF-8"?><svg xmlns="http://www.w3.org/2000/svg" viewBox="0 0 181.11 43.17"><defs><style>.u{fill:#727272;}.v{fill:#fff;stroke-linecap:round;stroke-linejoin:bevel;}.v,.w{stroke:#000;stroke-width:1.01px;}.w{fill:none;stroke-miterlimit:10;}</style></defs><g id="a"/><g id="b"><g id="c"><g id="d"><g id="e"><path class="u" d="M159.52,.51H21.58C15.76,.51,10.49,2.87,6.68,6.69,2.86,10.5,.5,15.77,.5,21.59c0,11.64,9.44,21.08,21.08,21.08H159.52c5.82,0,11.09-2.36,14.9-6.18,3.82-3.81,6.18-9.08,6.18-14.9,0-11.64-9.44-21.08-21.08-21.08Zm9.03,31.15c-2.57,2.57-6.13,4.17-10.07,4.17H22.62c-7.86,0-14.24-6.38-14.24-14.24,0-3.93,1.6-7.49,4.17-10.07,2.58-2.57,6.14-4.17,10.07-4.17H158.48c7.87,0,14.24,6.38,14.24,14.24,0,3.93-1.59,7.49-4.17,10.07Z"/><path class="w" d="M159.52,.51H21.58C15.76,.51,10.49,2.87,6.68,6.69,2.86,10.5,.5,15.77,.5,21.59c0,11.64,9.44,21.08,21.08,21.08H159.52c5.82,0,11.09-2.36,14.9-6.18,3.82-3.81,6.18-9.08,6.18-14.9,0-11.64-9.44-21.08-21.08-21.08Zm9.03,31.15c-2.57,2.57-6.13,4.17-10.07,4.17H22.62c-7.86,0-14.24-6.38-14.24-14.24,0-3.93,1.6-7.49,4.17-10.07,2.58-2.57,6.14-4.17,10.07-4.17H158.48c7.87,0,14.24,6.38,14.24,14.24,0,3.93-1.59,7.49-4.17,10.07Z"/></g><g id="f"><line id="g" class="v" x1="41.59" y1="7.35" x2="48.43" y2=".5"/><line id="h" class="v" x1="71.59" y1="7.35" x2="78.43" y2=".5"/><line id="i" class="v" x1="101.59" y1="7.35" x2="108.43" y2=".5"/><line id="j" class="v" x1="131.59" y1="7.35" x2="138.43" y2=".5"/><line id="k" class="v" x1="161.59" y1="7.35" x2="167.05" y2="1.89"/><line id="l" class="v" x1="170.15" y1="39.79" x2="164.74" y2="34.38"/><line id="m" class="v" x1="141.03" y1="42.66" x2="134.19" y2="35.82"/><line id="n" class="v" x1="111.03" y1="42.66" x2="104.19" y2="35.82"/><line id="o" class="v" x1="81.03" y1="42.66" x2="74.19" y2="35.82"/><line id="p" class="v" x1="51.03" y1="42.66" x2="44.19" y2="35.82"/><line id="q" class="v" x1="21.03" y1="42.66" x2="15.88" y2="34.13"/><line id="r" class="v" x1="15.88" y1="9.03" x2="21.03" y2=".5"/><line id="s" class="v" x1=".51" y1="21.58" x2="8.39" y2="21.58"/><line id="t" class="v" x1="172.72" y1="21.58" x2="180.61" y2="21.58"/></g></g></g></g></svg>