<?xml version="1.0" encoding="UTF-8"?><svg xmlns="http://www.w3.org/2000/svg" viewBox="0 0 181.11 43.17"><defs><style>.u{fill:#727272;}.v{stroke-miterlimit:10;stroke-width:1.01px;}.v,.w{fill:none;stroke:#000;}.w{stroke-linecap:round;stroke-linejoin:bevel;stroke-width:1.01px;}</style></defs><g id="a"/><g id="b"><g id="c"><g id="d"><g id="e"><path class="u" d="M159.52,.51H21.58C15.76,.51,10.49,2.87,6.68,6.69,2.86,10.5,.5,15.77,.5,21.59c0,11.64,9.44,21.08,21.08,21.08H159.52c5.82,0,11.09-2.36,14.9-6.18,3.82-3.81,6.18-9.08,6.18-14.9,0-11.64-9.44-21.08-21.08-21.08Zm9.03,31.15c-2.57,2.57-6.13,4.17-10.07,4.17H22.62c-7.86,0-14.24-6.38-14.24-14.24,0-3.93,1.6-7.49,4.17-10.07,2.58-2.57,6.14-4.17,10.07-4.17H158.48c7.87,0,14.24,6.38,14.24,14.24,0,3.93-1.59,7.49-4.17,10.07Z"/><path class="v" d="M159.52,.51H21.58C15.76,.51,10.49,2.87,6.68,6.69,2.86,10.5,.5,15.77,.5,21.59c0,11.64,9.44,21.08,21.08,21.08H159.52c5.82,0,11.09-2.36,14.9-6.18,3.82-3.81,6.18-9.08,6.18-14.9,0-11.64-9.44-21.08-21.08-21.08Zm9.03,31.15c-2.57,2.57-6.13,4.17-10.07,4.17H22.62c-7.86,0-14.24-6.38-14.24-14.24,0-3.93,1.6-7.49,4.17-10.07,2.58-2.57,6.14-4.17,10.07-4.17H158.48c7.87,0,14.24,6.38,14.24,14.24,0,3.93-1.59,7.49-4.17,10.07Z"/></g><g id="f"><path id="g" class="w" d="M56.72,7.35L63.57,.5"/><path id="h" class="w" d="M26.72,7.35L33.57,.5"/><path id="i" class="w" d="M86.72,7.35l6.84-6.84"/><path id="j" class="w" d="M116.72,7.35l6.84-6.84"/><path id="k" class="w" d="M146.72,7.35l6.84-6.84"/><path id="l" class="w" d="M126.17,42.66l-6.84-6.84"/><path id="m" class="w" d="M156.17,42.66l-6.84-6.84"/><path id="n" class="w" d="M96.17,42.66l-6.84-6.84"/><path id="o" class="w" d="M66.17,42.66l-6.84-6.84"/><path id="p" class="w" d="M36.17,42.66l-6.84-6.84"/><path id="q" class="w" d="M5.89,7.53l5.82,4.77"/><path id="r" class="w" d="M6.36,36.02l5.43-5.14"/><path id="s" class="w" d="M174.55,7.15l-5.15,5.15"/><path id="t" class="w" d="M174.55,36.02l-5.14-5.14"/></g></g></g></g></svg>