<?xml version="1.0" encoding="UTF-8"?><svg xmlns="http://www.w3.org/2000/svg" viewBox="0 0 165.34 29.48"><defs><style>.ac{fill:#aaa;stroke-width:.5px;}.ac,.ad{stroke:#000;stroke-miterlimit:10;}.ae{fill:#bfbfbf;}.ad{fill:none;stroke-width:1.01px;}</style></defs><g id="a"/><g id="b"><g id="c"><g id="d"><g id="e"><g id="f"><circle class="ae" cx="150.6" cy="14.74" r="14.24"/><circle class="ad" cx="150.6" cy="14.74" r="14.24"/></g><g id="g"><polygon id="h" class="ac" points="151.78 5.6 149.07 5.6 147.72 7.95 149.07 10.3 151.78 10.3 153.14 7.95 151.78 5.6"/><polygon id="i" class="ac" points="158.73 10.66 156.02 10.7 154.7 13.08 156.1 15.4 158.81 15.35 160.13 12.98 158.73 10.66"/><polygon id="j" class="ac" points="152.79 19.37 152.14 22 154.1 23.88 156.7 23.12 157.35 20.48 155.39 18.61 152.79 19.37"/><polygon id="k" class="ac" points="144.64 23.52 147.35 23.65 148.82 21.37 147.58 18.96 144.87 18.83 143.4 21.11 144.64 23.52"/><polygon id="l" class="ac" points="141.1 11.65 141.08 14.36 143.41 15.74 145.77 14.41 145.8 11.69 143.46 10.32 141.1 11.65"/></g></g><g id="m"><g id="n"><circle class="ae" cx="82.67" cy="14.74" r="14.24"/><circle class="ad" cx="82.67" cy="14.74" r="14.24"/></g><g id="o"><polygon id="p" class="ac" points="83.85 5.6 81.14 5.6 79.79 7.95 81.14 10.3 83.85 10.3 85.21 7.95 83.85 5.6"/><polygon id="q" class="ac" points="90.8 10.66 88.09 10.7 86.77 13.08 88.17 15.4 90.88 15.35 92.19 12.98 90.8 10.66"/><polygon id="r" class="ac" points="84.86 19.37 84.21 22 86.17 23.88 88.77 23.12 89.42 20.48 87.46 18.61 84.86 19.37"/><polygon id="s" class="ac" points="76.71 23.52 79.42 23.65 80.89 21.37 79.64 18.96 76.94 18.83 75.47 21.11 76.71 23.52"/><polygon id="t" class="ac" points="73.17 11.65 73.15 14.36 75.48 15.74 77.84 14.41 77.87 11.69 75.53 10.32 73.17 11.65"/></g></g><g id="u"><g id="v"><circle class="ae" cx="14.74" cy="14.74" r="14.24"/><circle class="ad" cx="14.74" cy="14.74" r="14.24"/></g><g id="w"><polygon id="x" class="ac" points="16.1 5.04 13.38 5.04 12.03 7.39 13.38 9.74 16.1 9.74 17.45 7.39 16.1 5.04"/><polygon id="y" class="ac" points="23.04 10.1 20.33 10.15 19.02 12.52 20.41 14.84 23.12 14.79 24.44 12.42 23.04 10.1"/><polygon id="a`" class="ac" points="17.1 18.81 16.46 21.44 18.41 23.32 21.02 22.56 21.66 19.93 19.7 18.05 17.1 18.81"/><polygon id="aa" class="ac" points="8.95 22.96 11.66 23.09 13.13 20.81 11.89 18.4 9.18 18.27 7.71 20.55 8.95 22.96"/><polygon id="ab" class="ac" points="5.42 11.09 5.39 13.8 7.73 15.18 10.09 13.85 10.11 11.14 7.78 9.76 5.42 11.09"/></g></g></g></g></g></svg>