<?xml version="1.0" encoding="UTF-8"?><svg xmlns="http://www.w3.org/2000/svg" viewBox="0 0 165.34 29.48"><defs><style>.ac{fill:#aaa;stroke-width:.5px;}.ac,.ad{stroke:#000;stroke-miterlimit:10;}.ae{fill:#bfbfbf;}.ad{fill:none;stroke-width:1.01px;}</style></defs><g id="a"/><g id="b"><g id="c"><g id="d"><g id="e"><g id="f"><circle class="ae" cx="150.6" cy="14.74" r="14.24"/><circle class="ad" cx="150.6" cy="14.74" r="14.24"/></g><g id="g"><polygon id="h" class="ac" points="157.9 9.11 155.98 7.2 153.36 7.9 152.66 10.52 154.58 12.43 157.2 11.73 157.9 9.11"/><polygon id="i" class="ac" points="159.24 17.6 157.29 15.72 154.68 16.46 154.02 19.09 155.97 20.98 158.58 20.23 159.24 17.6"/><polygon id="j" class="ac" points="148.87 19.56 146.56 20.96 146.62 23.67 148.99 24.98 151.31 23.57 151.25 20.86 148.87 19.56"/><polygon id="k" class="ac" points="140.18 16.74 142 18.74 144.65 18.17 145.48 15.59 143.65 13.58 141 14.15 140.18 16.74"/><polygon id="l" class="ac" points="146.07 5.84 144.14 7.74 144.81 10.36 147.43 11.09 149.36 9.19 148.68 6.57 146.07 5.84"/></g></g><g id="m"><g id="n"><circle class="ae" cx="82.67" cy="14.74" r="14.24"/><circle class="ad" cx="82.67" cy="14.74" r="14.24"/></g><g id="o"><polygon id="p" class="ac" points="89.97 9.11 88.05 7.2 85.43 7.9 84.73 10.52 86.65 12.43 89.26 11.73 89.97 9.11"/><polygon id="q" class="ac" points="91.3 17.6 89.36 15.72 86.75 16.46 86.09 19.09 88.04 20.98 90.65 20.23 91.3 17.6"/><polygon id="r" class="ac" points="80.94 19.56 78.63 20.96 78.69 23.67 81.06 24.98 83.38 23.57 83.32 20.86 80.94 19.56"/><polygon id="s" class="ac" points="72.25 16.74 74.07 18.74 76.72 18.17 77.54 15.59 75.72 13.58 73.07 14.15 72.25 16.74"/><polygon id="t" class="ac" points="78.14 5.84 76.2 7.74 76.88 10.36 79.49 11.09 81.43 9.19 80.75 6.57 78.14 5.84"/></g></g><g id="u"><g id="v"><circle class="ae" cx="14.74" cy="14.74" r="14.24"/><circle class="ad" cx="14.74" cy="14.74" r="14.24"/></g><g id="w"><polygon id="x" class="ac" points="22.55 8.84 20.64 6.93 18.02 7.63 17.32 10.25 19.23 12.16 21.85 11.46 22.55 8.84"/><polygon id="y" class="ac" points="23.89 17.33 21.94 15.45 19.34 16.19 18.68 18.82 20.63 20.71 23.24 19.96 23.89 17.33"/><polygon id="a`" class="ac" points="13.53 19.29 11.21 20.69 11.27 23.4 13.65 24.71 15.97 23.3 15.91 20.59 13.53 19.29"/><polygon id="aa" class="ac" points="4.83 16.46 6.66 18.47 9.31 17.9 10.13 15.31 8.31 13.31 5.66 13.88 4.83 16.46"/><polygon id="ab" class="ac" points="10.73 5.57 8.79 7.47 9.47 10.09 12.08 10.82 14.02 8.92 13.34 6.29 10.73 5.57"/></g></g></g></g></g></svg>