<?xml version="1.0" encoding="UTF-8"?><svg id="a" xmlns="http://www.w3.org/2000/svg" viewBox="0 0 181 180.57"><g id="b"><path d="M90.5,11.4C46.93,11.4,11.61,46.71,11.61,90.28s35.32,78.89,78.89,78.89,78.89-35.32,78.89-78.89S134.07,11.4,90.5,11.4Zm0,145.56c-36.82,0-66.67-29.85-66.67-66.67S53.68,23.61,90.5,23.61s66.67,29.85,66.67,66.67-29.85,66.67-66.67,66.67Z" style="fill:#999; stroke:#000; stroke-miterlimit:10;"/></g><path id="c" d="M88.47,33.68L40.46,116.83c-.9,1.56,.23,3.52,2.03,3.52h96.02c1.8,0,2.93-1.95,2.03-3.52L92.53,33.68c-.9-1.56-3.16-1.56-4.06,0Zm3.44,15.34l35.03,60.67c.63,1.08-.16,2.44-1.41,2.44H55.47c-1.25,0-2.04-1.36-1.41-2.44l35.03-60.67c.63-1.08,2.19-1.08,2.82,0Z" style="fill:#999; stroke:#000; stroke-miterlimit:10;"/><path id="d" d="M89.25,59.5l-26.65,46.17c-.5,.87,.13,1.95,1.13,1.95h53.31c1,0,1.63-1.08,1.13-1.95l-26.65-46.17c-.5-.87-1.75-.87-2.25,0Zm1.91,8.52l19.45,33.69c.35,.6-.09,1.36-.78,1.36h-38.9c-.7,0-1.13-.75-.78-1.36l19.45-33.69c.35-.6,1.22-.6,1.56,0Z" style="fill:#999; stroke:#000; stroke-miterlimit:10; stroke-width:.56px;"/></svg>