<?xml version="1.0" encoding="UTF-8"?><svg xmlns="http://www.w3.org/2000/svg" viewBox="0 0 158.78 158.78"><g id="a"/><g id="b"><g id="c"><g id="d"><g><path d="M79.39,.5C35.82,.5,.5,35.82,.5,79.39s35.32,78.89,78.89,78.89,78.89-35.32,78.89-78.89S122.96,.5,79.39,.5Zm0,145.56c-36.82,0-66.67-29.85-66.67-66.67S42.56,12.71,79.39,12.71s66.67,29.85,66.67,66.67-29.85,66.67-66.67,66.67Z" style="fill:#999;"/><path d="M79.39,158.78C35.61,158.78,0,123.16,0,79.39S35.61,0,79.39,0s79.39,35.61,79.39,79.39-35.61,79.39-79.39,79.39ZM79.39,1C36.16,1,1,36.16,1,79.39s35.16,78.39,78.39,78.39,78.39-35.17,78.39-78.39S122.61,1,79.39,1Zm0,145.56c-37.04,0-67.17-30.13-67.17-67.17S42.35,12.21,79.39,12.21s67.17,30.13,67.17,67.17-30.13,67.17-67.17,67.17Zm0-133.35C42.9,13.21,13.21,42.9,13.21,79.39s29.69,66.17,66.17,66.17,66.17-29.68,66.17-66.17S115.88,13.21,79.39,13.21Z"/></g></g><g id="e"><path d="M77.36,22.78L29.35,105.93c-.9,1.56,.23,3.52,2.03,3.52H127.4c1.8,0,2.93-1.95,2.03-3.52L81.42,22.78c-.9-1.56-3.16-1.56-4.06,0Zm3.44,15.34l35.03,60.67c.63,1.08-.16,2.44-1.41,2.44H44.36c-1.25,0-2.04-1.36-1.41-2.44l35.03-60.67c.63-1.08,2.19-1.08,2.82,0Z" style="fill:#999;"/><path d="M127.4,109.95H31.38c-1.03,0-1.95-.53-2.46-1.42-.51-.89-.51-1.96,0-2.85L76.92,22.53c.51-.89,1.44-1.42,2.46-1.42s1.95,.53,2.46,1.42l48.01,83.15c.51,.89,.51,1.96,0,2.85-.51,.89-1.43,1.42-2.46,1.42ZM79.39,22.11c-.67,0-1.26,.34-1.6,.92L29.78,106.18c-.33,.58-.33,1.27,0,1.85,.33,.58,.93,.92,1.6,.92H127.4c.67,0,1.26-.34,1.6-.92,.33-.58,.33-1.27,0-1.85L80.99,23.03c-.33-.58-.93-.92-1.6-.92Zm35.03,79.63H44.36c-.77,0-1.46-.4-1.84-1.06s-.38-1.46,0-2.13l35.03-60.67c.38-.67,1.07-1.06,1.84-1.06s1.46,.4,1.84,1.06l35.03,60.67c.38,.67,.38,1.46,0,2.13-.38,.67-1.07,1.06-1.84,1.06Zm-35.03-63.93c-.41,0-.77,.21-.98,.56l-35.03,60.67c-.2,.35-.2,.77,0,1.13,.2,.35,.57,.56,.98,.56H114.42c.41,0,.77-.21,.98-.56,.2-.35,.2-.77,0-1.13l-35.03-60.67c-.2-.35-.57-.56-.98-.56Z"/></g><g id="f"><g><path d="M75.88,93.44c0-.99,.3-1.82,.9-2.49,.6-.67,1.49-1.01,2.67-1.01s2.07,.34,2.68,1.01c.61,.67,.92,1.5,.92,2.49s-.31,1.81-.92,2.46c-.61,.65-1.5,.97-2.68,.97s-2.07-.33-2.67-.97c-.6-.65-.9-1.47-.9-2.46Zm6.12-10.43h-5.46l-.41-32.67c-.01-.81,.64-1.47,1.45-1.47h3.41c.81,0,1.46,.66,1.45,1.47l-.44,32.66Z" style="fill:#999;"/><path d="M79.44,97.37c-1.32,0-2.34-.38-3.03-1.14-.69-.74-1.03-1.68-1.03-2.8s.35-2.06,1.03-2.83c.7-.78,1.72-1.17,3.04-1.17s2.35,.39,3.05,1.17c.7,.76,1.05,1.72,1.05,2.83s-.35,2.06-1.05,2.8c-.71,.75-1.73,1.13-3.05,1.13Zm0-6.94c-1.04,0-1.79,.27-2.29,.84-.52,.58-.77,1.29-.77,2.16s.25,1.56,.77,2.12c.51,.55,1.26,.81,2.3,.81s1.8-.27,2.32-.82c.53-.56,.78-1.25,.78-2.12s-.26-1.58-.79-2.16c-.52-.57-1.27-.84-2.31-.84Zm3.05-6.92h-6.45l-.41-33.16c0-.53,.19-1.02,.56-1.39s.86-.58,1.39-.58h3.41c.53,0,1.02,.21,1.39,.58s.57,.87,.56,1.4l-.45,33.16Zm-5.46-1h4.48l.43-32.17c0-.26-.09-.5-.27-.68s-.42-.28-.68-.28h-3.41c-.26,0-.5,.1-.67,.28-.18,.18-.28,.42-.27,.68l.4,32.17Z"/></g></g></g></g></svg>