<?xml version="1.0" encoding="UTF-8"?><svg xmlns="http://www.w3.org/2000/svg" viewBox="0 0 158.78 158.78"><g id="a"/><g id="b"><g id="c"><g id="d"><g><path d="M79.39,.5C35.82,.5,.5,35.82,.5,79.39s35.32,78.89,78.89,78.89,78.89-35.32,78.89-78.89S122.96,.5,79.39,.5Zm0,145.56c-36.82,0-66.67-29.85-66.67-66.67S42.56,12.71,79.39,12.71s66.67,29.85,66.67,66.67-29.85,66.67-66.67,66.67Z" style="fill:#999;"/><path d="M79.39,158.78C35.61,158.78,0,123.16,0,79.39S35.61,0,79.39,0s79.39,35.61,79.39,79.39-35.61,79.39-79.39,79.39ZM79.39,1C36.16,1,1,36.16,1,79.39s35.16,78.39,78.39,78.39,78.39-35.17,78.39-78.39S122.61,1,79.39,1Zm0,145.56c-37.04,0-67.17-30.13-67.17-67.17S42.35,12.21,79.39,12.21s67.17,30.13,67.17,67.17-30.13,67.17-67.17,67.17Zm0-133.35C42.9,13.21,13.21,42.9,13.21,79.39s29.69,66.17,66.17,66.17,66.17-29.68,66.17-66.17S115.88,13.21,79.39,13.21Z"/></g></g><g id="e"><path d="M77.36,22.78L29.35,105.93c-.9,1.56,.23,3.52,2.03,3.52H127.4c1.8,0,2.93-1.95,2.03-3.52L81.42,22.78c-.9-1.56-3.16-1.56-4.06,0Zm3.44,15.34l35.03,60.67c.63,1.08-.16,2.44-1.41,2.44H44.36c-1.25,0-2.04-1.36-1.41-2.44l35.03-60.67c.63-1.08,2.19-1.08,2.82,0Z" style="fill:#999;"/><path d="M127.4,109.95H31.38c-1.03,0-1.95-.53-2.46-1.42-.51-.89-.51-1.96,0-2.85L76.92,22.53c.51-.89,1.44-1.42,2.46-1.42s1.95,.53,2.46,1.42l48.01,83.15c.51,.89,.51,1.96,0,2.85-.51,.89-1.43,1.42-2.46,1.42ZM79.39,22.11c-.67,0-1.26,.34-1.6,.92L29.78,106.18c-.33,.58-.33,1.27,0,1.85,.33,.58,.93,.92,1.6,.92H127.4c.67,0,1.26-.34,1.6-.92,.33-.58,.33-1.27,0-1.85L80.99,23.03c-.33-.58-.93-.92-1.6-.92Zm35.03,79.63H44.36c-.77,0-1.46-.4-1.84-1.06s-.38-1.46,0-2.13l35.03-60.67c.38-.67,1.07-1.06,1.84-1.06s1.46,.4,1.84,1.06l35.03,60.67c.38,.67,.38,1.46,0,2.13-.38,.67-1.07,1.06-1.84,1.06Zm-35.03-63.93c-.41,0-.77,.21-.98,.56l-35.03,60.67c-.2,.35-.2,.77,0,1.13,.2,.35,.57,.56,.98,.56H114.42c.41,0,.77-.21,.98-.56,.2-.35,.2-.77,0-1.13l-35.03-60.67c-.2-.35-.57-.56-.98-.56Z"/></g><g id="f"><path d="M78.38,53.56l-21.09,36.53c-.4,.69,.1,1.54,.89,1.54h42.18c.79,0,1.29-.86,.89-1.54l-21.09-36.53c-.4-.69-1.39-.69-1.78,0Zm1.51,6.74l15.39,26.65c.28,.48-.07,1.07-.62,1.07h-30.77c-.55,0-.89-.6-.62-1.07l15.39-26.65c.28-.48,.96-.48,1.24,0Z" style="fill:#999;"/><path d="M100.36,92.13H58.18c-.55,0-1.05-.29-1.32-.76-.28-.48-.28-1.05,0-1.53l21.09-36.52c.28-.48,.77-.77,1.33-.77s1.05,.29,1.32,.77l21.09,36.52c.28,.48,.28,1.05,0,1.53-.28,.48-.77,.76-1.33,.76Zm-21.09-38.58c-.09,0-.32,.03-.46,.27l-21.09,36.52c-.14,.24-.05,.45,0,.53,.05,.08,.18,.26,.46,.26h42.18c.28,0,.41-.19,.46-.26,.05-.08,.14-.29,0-.53l-21.09-36.52c-.14-.24-.37-.27-.46-.27Zm15.39,34.98h-30.77c-.44,0-.83-.23-1.05-.61-.22-.38-.22-.83,0-1.21l15.39-26.65c.44-.76,1.66-.76,2.1,0l15.39,26.65c.22,.38,.22,.83,0,1.21-.22,.38-.61,.61-1.05,.61Zm-15.39-28.08s-.13,.01-.19,.11l-15.39,26.65c-.05,.09-.02,.17,0,.21,.02,.04,.08,.11,.19,.11h30.77c.11,0,.16-.07,.19-.11s.05-.12,0-.21l-15.39-26.65c-.05-.09-.14-.11-.19-.11Z"/></g></g></g></svg>