<?xml version="1.0" encoding="UTF-8"?><svg id="a" xmlns="http://www.w3.org/2000/svg" viewBox="0 0 181.89 181.48"><defs><style>.e{fill:#999;stroke:#000;stroke-miterlimit:10;}</style></defs><g id="b"><path class="e" d="M91.07,11.85C47.5,11.85,12.18,47.17,12.18,90.74s35.32,78.89,78.89,78.89,78.89-35.32,78.89-78.89S134.64,11.85,91.07,11.85Zm0,145.56c-36.82,0-66.67-29.85-66.67-66.67S54.24,24.07,91.07,24.07s66.67,29.85,66.67,66.67-29.85,66.67-66.67,66.67Z"/></g><path id="c" class="e" d="M89.04,34.13L41.03,117.29c-.9,1.56,.23,3.52,2.03,3.52h96.02c1.8,0,2.93-1.95,2.03-3.52L93.1,34.13c-.9-1.56-3.16-1.56-4.06,0Zm3.44,15.34l35.03,60.67c.63,1.08-.16,2.44-1.41,2.44H56.04c-1.25,0-2.04-1.36-1.41-2.44l35.03-60.67c.63-1.08,2.19-1.08,2.82,0Z"/><path id="d" class="e" d="M90.06,64.92l-21.09,36.53c-.4,.69,.1,1.54,.89,1.54h42.18c.79,0,1.29-.86,.89-1.54l-21.09-36.53c-.4-.69-1.39-.69-1.78,0Zm1.51,6.74l15.39,26.65c.28,.48-.07,1.07-.62,1.07h-30.77c-.55,0-.89-.6-.62-1.07l15.39-26.65c.28-.48,.96-.48,1.24,0Z"/></svg>