<?xml version="1.0" encoding="UTF-8"?><svg id="Layer_2" xmlns="http://www.w3.org/2000/svg" viewBox="0 0 158.78 158.78"><g id="alarm_reset_button_group_02"><path id="outer_ring" d="M79.39,.5C35.82,.5,.5,35.82,.5,79.39s35.32,78.89,78.89,78.89,78.89-35.32,78.89-78.89S122.96,.5,79.39,.5Zm0,145.56c-36.82,0-66.67-29.85-66.67-66.67S42.57,12.71,79.39,12.71s66.67,29.85,66.67,66.67-29.85,66.67-66.67,66.67Z" style="fill:#999; stroke:#000; stroke-miterlimit:10;"/><g id="reset_group"><path id="reset_ring" d="M103.02,119.58c-10.71,0-19.42-8.71-19.42-19.42s8.71-19.42,19.42-19.42,19.42,8.71,19.42,19.42-8.71,19.42-19.42,19.42Zm0-35.83c-9.05,0-16.42,7.36-16.42,16.42s7.36,16.42,16.42,16.42,16.42-7.36,16.42-16.42-7.36-16.42-16.42-16.42Z" style="fill:#999; stroke:#000; stroke-miterlimit:10; stroke-width:.75px;"/><path id="arrow01" d="M104.65,113.72l-2.27-2.27,1.55-1.47-.05-.11c-4.81,.04-8.28-2-10-6.55-1.05-2.77-.67-5.51,.82-8.14,.78,.78,1.54,1.52,2.27,2.29,.08,.08,.02,.34-.03,.49-.86,2.66-.3,5,1.71,6.92,1.42,1.36,3.16,1.9,5.18,1.66l-1.49-1.42,2.34-2.34c.06,.05,.16,.14,.26,.24,1.32,1.32,2.64,2.64,3.96,3.96,.78,.78,.79,1.7,.01,2.48-1.35,1.35-2.7,2.7-4.05,4.05-.07,.07-.14,.13-.22,.2Z" style="fill:#999; stroke:#000; stroke-miterlimit:10; stroke-width:.75px;"/><path id="arrow02" d="M111.4,104.93c-.76-.76-1.51-1.51-2.24-2.28-.08-.09-.04-.34,0-.49,1.14-3.59-.92-7.33-4.57-8.26-.68-.17-1.37-.29-2.09-.13l1.47,1.43-2.34,2.34c-.06-.06-.16-.14-.24-.23-1.32-1.32-2.64-2.64-3.96-3.96-.82-.82-.82-1.72,0-2.55,1.32-1.32,2.64-2.64,3.96-3.96,.09-.09,.18-.17,.25-.23l2.3,2.31-1.58,1.5c4.67,.08,7.99,2.07,9.74,6.37,1.15,2.84,.6,6.16-.71,8.12Z" style="fill:#999; stroke:#000; stroke-miterlimit:10; stroke-width:.75px;"/></g><g id="alarm_group"><path d="M41.14,92.95c-.69,0-1.36-.33-1.76-.95-.17-.26-4.1-6.35-4.1-14.84s4.11-13.38,4.29-13.58c.78-.87,2.11-.94,2.98-.17,.87,.78,.95,2.11,.17,2.98-.12,.14-3.22,3.8-3.22,10.77s3.38,12.48,3.41,12.53c.63,.98,.36,2.28-.62,2.92-.36,.23-.76,.34-1.15,.34Z" style="fill:#999; stroke:#000; stroke-miterlimit:10;"/><path d="M32.7,92.95c-.69,0-1.36-.33-1.76-.95-.17-.26-4.1-6.35-4.1-14.84s4.11-13.38,4.29-13.58c.78-.87,2.11-.94,2.98-.17,.87,.78,.95,2.11,.17,2.98-.12,.14-3.22,3.8-3.22,10.77s3.38,12.48,3.41,12.53c.63,.98,.36,2.28-.62,2.92-.36,.23-.76,.34-1.15,.34Z" style="fill:#999; stroke:#000; stroke-miterlimit:10;"/><path d="M126.08,92.95c-.4,0-.8-.11-1.15-.34-.98-.64-1.25-1.94-.62-2.92,.03-.05,3.41-5.34,3.41-12.53s-3.1-10.63-3.23-10.78c-.76-.88-.67-2.21,.2-2.98,.87-.77,2.19-.69,2.97,.18,.18,.2,4.29,4.91,4.29,13.58s-3.93,14.59-4.1,14.84c-.4,.62-1.08,.95-1.77,.95Z" style="fill:#999; stroke:#000; stroke-miterlimit:10;"/><path d="M66.17,99.63s3.73,10.45,16.85,7.19c-.65-2.03-1.01-4.95-1.01-7.19h-15.83Z" style="fill:#999; stroke:#000; stroke-miterlimit:10;"/><path d="M103.02,79.36c.29,0,.58,.03,.87,.04-.27-3.21-.83-6.38-1.69-9.48-3.29-11.9-9.73-19.72-19.7-23.92-.58-.24-1.01-.96-1.13-1.54-.11-.55-.17-1.12-.24-1.68-.05-.49-.1-.97-.19-1.45-.2-1.04-.64-1.64-2.29-1.64h-.02c-1.65,0-2.11,.67-2.3,1.66-.2,1.12-.31,2.03-.35,2.84-.05,1.22-.78,1.69-1.48,1.99-7.34,3.08-12.88,8.42-16.48,15.87-3.38,7.02-4.96,14.69-4.8,23.46,.02,1.17,.04,2.1-1.5,2.16h-5.69v9.98s30.44,.05,36.15,.05c1.32-10.34,10.13-18.35,20.84-18.35Z" style="fill:#999; stroke:#000; stroke-miterlimit:10;"/><path d="M120.84,89.26c1.18-2.61,2.65-6.9,2.65-12.11,0-8.67-4.11-13.38-4.29-13.58-.78-.87-2.09-.94-2.97-.18-.87,.77-.96,2.1-.2,2.98,.13,.15,3.23,3.81,3.23,10.78,0,3.26-.7,6.12-1.46,8.29,1.15,1.14,2.16,2.43,3.03,3.81Z" style="fill:#999; stroke:#000; stroke-miterlimit:10;"/></g></g></svg>