<?xml version="1.0" encoding="UTF-8"?><svg id="Layer_2" xmlns="http://www.w3.org/2000/svg" viewBox="0 0 158.78 158.78"><g id="alarm_reset_button_group_01"><path id="outer_ring" d="M79.39,.5C35.82,.5,.5,35.82,.5,79.39s35.32,78.89,78.89,78.89,78.89-35.32,78.89-78.89S122.96,.5,79.39,.5Zm0,145.56c-36.82,0-66.67-29.85-66.67-66.67S42.57,12.71,79.39,12.71s66.67,29.85,66.67,66.67-29.85,66.67-66.67,66.67Z" style="fill:#999; stroke:#000; stroke-miterlimit:10;"/><g id="reset_group"><path id="reset_ring" d="M103.02,127.49c-10.97,0-19.89-8.92-19.89-19.89s8.92-19.89,19.89-19.89,19.89,8.92,19.89,19.89-8.92,19.89-19.89,19.89Zm0-35.83c-8.79,0-15.94,7.15-15.94,15.94s7.15,15.94,15.94,15.94,15.94-7.15,15.94-15.94-7.15-15.94-15.94-15.94Z" style="fill:#999; stroke:#000; stroke-miterlimit:10; stroke-width:.75px;"/><path id="arrow01" d="M104.65,121.16l-2.27-2.27,1.55-1.47-.05-.11c-4.81,.04-8.28-2-10-6.55-1.05-2.77-.67-5.51,.82-8.14,.78,.78,1.54,1.52,2.27,2.29,.08,.08,.02,.34-.03,.49-.86,2.66-.3,5,1.71,6.92,1.42,1.36,3.16,1.9,5.18,1.66l-1.49-1.42,2.34-2.34c.06,.05,.16,.14,.26,.24,1.32,1.32,2.64,2.64,3.96,3.96,.78,.78,.79,1.7,.01,2.48-1.35,1.35-2.7,2.7-4.05,4.05-.07,.07-.14,.13-.22,.2Z" style="fill:#999; stroke:#000; stroke-miterlimit:10; stroke-width:.75px;"/><path id="arrow02" d="M111.4,112.36c-.76-.76-1.51-1.51-2.24-2.28-.08-.09-.04-.34,0-.49,1.14-3.59-.92-7.33-4.57-8.26-.68-.17-1.37-.29-2.09-.13l1.47,1.43-2.34,2.34c-.06-.06-.16-.14-.24-.23-1.32-1.32-2.64-2.64-3.96-3.96-.82-.82-.82-1.72,0-2.55,1.32-1.32,2.64-2.64,3.96-3.96,.09-.09,.18-.17,.25-.23l2.3,2.31-1.58,1.5c4.67,.08,7.99,2.07,9.74,6.37,1.15,2.84,.6,6.16-.71,8.12Z" style="fill:#999; stroke:#000; stroke-miterlimit:10; stroke-width:.75px;"/></g><g id="clock_group"><path id="L_bell" d="M70.26,40.48c.08,.1,.14,.21,.27,.43l-29.18,20.43c-1.49-2.03-2.43-4.23-2.89-6.61-1.87-9.85,4.06-17.08,10.13-19.85,10.26-4.69,19.03,2.09,21.66,5.6Z" style="fill:#999; stroke:#000; stroke-miterlimit:10;"/><path id="R_bell" d="M86.62,40.48c-.08,.1-.14,.21-.27,.43l29.18,20.43c1.49-2.03,2.43-4.23,2.89-6.61,1.87-9.85-4.06-17.08-10.13-19.85-10.26-4.69-19.03,2.09-21.66,5.6Z" style="fill:#999; stroke:#000; stroke-miterlimit:10;"/><path id="hammer" d="M81.53,33.26v10.27h-6.17v-10.27h6.17Z" style="fill:#999; stroke:#000; stroke-miterlimit:10;"/><path id="clock_face" d="M81.44,107.6c0-4.49,1.38-8.66,3.73-12.12-3.1-3.1-6.2-6.2-9.31-9.29-.47-.47-.66-.94-.66-1.6,.02-6.62,.01-20.37,.01-20.74h6.15c0,.4-.02,12.53,.03,18.25,0,.5,.26,1.13,.61,1.49,2.42,2.46,4.87,4.9,7.32,7.34,3.73-3.07,8.5-4.91,13.71-4.91,3.57,0,6.93,.88,9.9,2.42,.15-1.29,.25-2.6,.25-3.94,.12-19.05-15.44-34.76-34.52-34.86-19.2-.11-34.79,15.35-34.94,34.64-.15,19.04,15.46,34.72,34.67,34.83,2.08,.01,4.11-.17,6.09-.52-1.91-3.22-3.03-6.97-3.03-10.98Z" style="fill:#999; stroke:#000; stroke-miterlimit:10;"/></g></g></svg>