<?xml version="1.0" encoding="UTF-8"?><svg id="expanded" xmlns="http://www.w3.org/2000/svg" viewBox="0 0 336.19 142.72"><g id="small_group"><g id="cope_sm_group"><g id="cope_circles"><path id="circle2" d="M147.07,79.88c-.76,.81-1.23,1.9-1.23,3.11,0,2.5,2.03,4.53,4.53,4.53,1.56,0,2.94-.79,3.76-2" style="fill:#999; stroke:#000; stroke-width:.99px;"/><path id="circle1" d="M147.08,63.1c-.77-.81-1.24-1.91-1.24-3.12,0-2.5,2.03-4.53,4.53-4.53,1.45,0,2.75,.68,3.58,1.75" style="fill:#999; stroke:#000; stroke-width:.99px;"/></g><polyline id="cope_outline" points="164.21 85.58 147.14 85.58 147.14 57.24 164.04 57.24 164.04 53.51 133 53.51 131.52 52.03 131.52 13.09 133.09 11.52 164.04 11.52 164.04 5.99 166.27 3.76 167.59 3.76 167.59 2.8 167.59 1.33 168.11 .5 171.48 .5 172.04 1.05 172.04 4.98 196.8 4.98 196.78 1.14 197.39 .54 200.28 .54 201.07 1.33 201.07 2.8 202.42 2.8 204.67 5.05 204.67 137.65 202.43 139.89 201.07 139.89 201.07 141.42 200.38 142.05 197.16 142.05 196.72 141.42 196.72 137.7 172.07 137.7 172.07 141.42 171.48 142.22 168.14 142.22 167.59 141.42 167.59 140.11 167.59 138.95 166.1 138.95 163.96 136.81 163.96 130.85 150.89 130.86 149.35 129.32 149.35 116.14 150.72 114.77 164.21 114.77 164.21 85.58" style="fill:#999; stroke:#000; stroke-width:.99px;"/><g id="cope_details"><rect id="bg_placeholder" x="0" width="336.17" height="142.72" style="fill:none;"/><line x1="173.77" y1="87.21" x2="177.46" y2="88.46" style="fill:none; stroke:#000; stroke-linecap:round; stroke-linejoin:round;"/><line x1="173.77" y1="87.21" x2="177.46" y2="88.46" style="fill:none; stroke:#000; stroke-linecap:round; stroke-linejoin:round;"/><line x1="173.77" y1="85.21" x2="177.46" y2="86.46" style="fill:none; stroke:#000; stroke-linecap:round; stroke-linejoin:round;"/><line x1="173.77" y1="83.21" x2="177.46" y2="84.46" style="fill:none; stroke:#000; stroke-linecap:round; stroke-linejoin:round;"/><line x1="173.77" y1="81.21" x2="177.46" y2="82.46" style="fill:none; stroke:#000; stroke-linecap:round; stroke-linejoin:round;"/><line x1="173.77" y1="79.21" x2="177.46" y2="80.46" style="fill:none; stroke:#000; stroke-linecap:round; stroke-linejoin:round;"/><line x1="173.77" y1="77.21" x2="177.46" y2="78.46" style="fill:none; stroke:#000; stroke-linecap:round; stroke-linejoin:round;"/><line x1="173.77" y1="75.21" x2="177.46" y2="76.46" style="fill:none; stroke:#000; stroke-linecap:round; stroke-linejoin:round;"/><line x1="173.77" y1="73.21" x2="177.46" y2="74.46" style="fill:none; stroke:#000; stroke-linecap:round; stroke-linejoin:round;"/><line x1="173.77" y1="71.21" x2="177.46" y2="72.46" style="fill:none; stroke:#000; stroke-linecap:round; stroke-linejoin:round;"/><line x1="173.77" y1="69.21" x2="177.46" y2="70.46" style="fill:none; stroke:#000; stroke-linecap:round; stroke-linejoin:round;"/><line x1="173.77" y1="67.21" x2="177.46" y2="68.46" style="fill:none; stroke:#000; stroke-linecap:round; stroke-linejoin:round;"/><line x1="173.77" y1="65.21" x2="177.46" y2="66.46" style="fill:none; stroke:#000; stroke-linecap:round; stroke-linejoin:round;"/><line x1="173.77" y1="63.21" x2="177.46" y2="64.46" style="fill:none; stroke:#000; stroke-linecap:round; stroke-linejoin:round;"/><line x1="173.77" y1="61.21" x2="177.46" y2="62.46" style="fill:none; stroke:#000; stroke-linecap:round; stroke-linejoin:round;"/><line x1="173.77" y1="59.21" x2="177.46" y2="60.46" style="fill:none; stroke:#000; stroke-linecap:round; stroke-linejoin:round;"/><polyline points="177.46 57.21 175.97 57.72 174.5 57.83" style="fill:none; stroke:#000; stroke-linecap:round; stroke-linejoin:round;"/><line x1="177.46" y1="55.21" x2="173.77" y2="56.46" style="fill:none; stroke:#000; stroke-linecap:round; stroke-linejoin:round;"/><line x1="177.46" y1="53.21" x2="173.77" y2="54.46" style="fill:none; stroke:#000; stroke-linecap:round; stroke-linejoin:round;"/><line x1="183.06" y1="103.43" x2="186.74" y2="104.68" style="fill:none; stroke:#000; stroke-linecap:round; stroke-linejoin:round;"/><line x1="183.06" y1="103.43" x2="186.74" y2="104.68" style="fill:none; stroke:#000; stroke-linecap:round; stroke-linejoin:round;"/><line x1="183.06" y1="101.43" x2="186.74" y2="102.68" style="fill:none; stroke:#000; stroke-linecap:round; stroke-linejoin:round;"/><line x1="183.06" y1="99.43" x2="186.74" y2="100.68" style="fill:none; stroke:#000; stroke-linecap:round; stroke-linejoin:round;"/><line x1="183.06" y1="97.43" x2="186.74" y2="98.68" style="fill:none; stroke:#000; stroke-linecap:round; stroke-linejoin:round;"/><line x1="183.06" y1="95.43" x2="186.74" y2="96.68" style="fill:none; stroke:#000; stroke-linecap:round; stroke-linejoin:round;"/><line x1="183.06" y1="93.43" x2="186.74" y2="94.68" style="fill:none; stroke:#000; stroke-linecap:round; stroke-linejoin:round;"/><line x1="183.06" y1="91.43" x2="186.74" y2="92.68" style="fill:none; stroke:#000; stroke-linecap:round; stroke-linejoin:round;"/><line x1="183.06" y1="89.43" x2="186.74" y2="90.68" style="fill:none; stroke:#000; stroke-linecap:round; stroke-linejoin:round;"/><line x1="183.06" y1="87.43" x2="186.74" y2="88.68" style="fill:none; stroke:#000; stroke-linecap:round; stroke-linejoin:round;"/><line x1="183.06" y1="85.43" x2="186.74" y2="86.68" style="fill:none; stroke:#000; stroke-linecap:round; stroke-linejoin:round;"/><line x1="183.06" y1="83.43" x2="186.74" y2="84.68" style="fill:none; stroke:#000; stroke-linecap:round; stroke-linejoin:round;"/><line x1="183.06" y1="75.43" x2="186.74" y2="76.68" style="fill:none; stroke:#000; stroke-linecap:round; stroke-linejoin:round;"/><line x1="183.06" y1="73.43" x2="186.74" y2="74.68" style="fill:none; stroke:#000; stroke-linecap:round; stroke-linejoin:round;"/><line x1="183.06" y1="71.43" x2="186.74" y2="72.68" style="fill:none; stroke:#000; stroke-linecap:round; stroke-linejoin:round;"/><line x1="183.06" y1="69.43" x2="186.74" y2="70.68" style="fill:none; stroke:#000; stroke-linecap:round; stroke-linejoin:round;"/><line x1="183.06" y1="67.43" x2="186.74" y2="68.68" style="fill:none; stroke:#000; stroke-linecap:round; stroke-linejoin:round;"/><line x1="183.06" y1="65.43" x2="186.74" y2="66.68" style="fill:none; stroke:#000; stroke-linecap:round; stroke-linejoin:round;"/><line x1="183.06" y1="63.43" x2="186.74" y2="64.68" style="fill:none; stroke:#000; stroke-linecap:round; stroke-linejoin:round;"/><line x1="183.06" y1="61.43" x2="186.74" y2="62.68" style="fill:none; stroke:#000; stroke-linecap:round; stroke-linejoin:round;"/><line x1="183.06" y1="59.43" x2="186.74" y2="60.68" style="fill:none; stroke:#000; stroke-linecap:round; stroke-linejoin:round;"/><line x1="189.42" y1="110.11" x2="193.11" y2="111.36" style="fill:none; stroke:#000; stroke-linecap:round; stroke-linejoin:round;"/><line x1="189.42" y1="110.11" x2="193.11" y2="111.36" style="fill:none; stroke:#000; stroke-linecap:round; stroke-linejoin:round;"/><line x1="189.42" y1="108.11" x2="193.11" y2="109.36" style="fill:none; stroke:#000; stroke-linecap:round; stroke-linejoin:round;"/><line x1="189.42" y1="106.11" x2="193.11" y2="107.36" style="fill:none; stroke:#000; stroke-linecap:round; stroke-linejoin:round;"/><line x1="189.42" y1="104.11" x2="193.11" y2="105.36" style="fill:none; stroke:#000; stroke-linecap:round; stroke-linejoin:round;"/><line x1="189.42" y1="102.11" x2="193.11" y2="103.36" style="fill:none; stroke:#000; stroke-linecap:round; stroke-linejoin:round;"/><line x1="189.42" y1="100.11" x2="193.11" y2="101.36" style="fill:none; stroke:#000; stroke-linecap:round; stroke-linejoin:round;"/><line x1="189.42" y1="98.11" x2="193.11" y2="99.36" style="fill:none; stroke:#000; stroke-linecap:round; stroke-linejoin:round;"/><line x1="189.42" y1="96.11" x2="193.11" y2="97.36" style="fill:none; stroke:#000; stroke-linecap:round; stroke-linejoin:round;"/><line x1="189.42" y1="94.11" x2="193.11" y2="95.36" style="fill:none; stroke:#000; stroke-linecap:round; stroke-linejoin:round;"/><line x1="189.42" y1="92.11" x2="193.11" y2="93.36" style="fill:none; stroke:#000; stroke-linecap:round; stroke-linejoin:round;"/><line x1="189.42" y1="90.11" x2="193.11" y2="91.36" style="fill:none; stroke:#000; stroke-linecap:round; stroke-linejoin:round;"/><line x1="189.42" y1="88.11" x2="193.11" y2="89.36" style="fill:none; stroke:#000; stroke-linecap:round; stroke-linejoin:round;"/><line x1="189.42" y1="86.11" x2="193.11" y2="87.36" style="fill:none; stroke:#000; stroke-linecap:round; stroke-linejoin:round;"/><line x1="189.42" y1="84.11" x2="193.11" y2="85.36" style="fill:none; stroke:#000; stroke-linecap:round; stroke-linejoin:round;"/><line x1="189.42" y1="75.11" x2="193.11" y2="76.36" style="fill:none; stroke:#000; stroke-linecap:round; stroke-linejoin:round;"/><line x1="189.42" y1="73.11" x2="193.11" y2="74.36" style="fill:none; stroke:#000; stroke-linecap:round; stroke-linejoin:round;"/><line x1="189.42" y1="71.11" x2="193.11" y2="72.36" style="fill:none; stroke:#000; stroke-linecap:round; stroke-linejoin:round;"/><line x1="189.42" y1="69.11" x2="193.11" y2="70.36" style="fill:none; stroke:#000; stroke-linecap:round; stroke-linejoin:round;"/><line x1="189.42" y1="67.11" x2="193.11" y2="68.36" style="fill:none; stroke:#000; stroke-linecap:round; stroke-linejoin:round;"/><line x1="189.42" y1="65.11" x2="193.11" y2="66.36" style="fill:none; stroke:#000; stroke-linecap:round; stroke-linejoin:round;"/><line x1="189.42" y1="63.11" x2="193.11" y2="64.36" style="fill:none; stroke:#000; stroke-linecap:round; stroke-linejoin:round;"/><line x1="189.42" y1="61.11" x2="193.11" y2="62.36" style="fill:none; stroke:#000; stroke-linecap:round; stroke-linejoin:round;"/><line x1="189.42" y1="59.11" x2="193.11" y2="60.36" style="fill:none; stroke:#000; stroke-linecap:round; stroke-linejoin:round;"/><line x1="195.33" y1="114.42" x2="199.02" y2="115.68" style="fill:none; stroke:#000; stroke-linecap:round; stroke-linejoin:round;"/><line x1="195.33" y1="114.42" x2="199.02" y2="115.68" style="fill:none; stroke:#000; stroke-linecap:round; stroke-linejoin:round;"/><line x1="195.33" y1="112.42" x2="199.02" y2="113.68" style="fill:none; stroke:#000; stroke-linecap:round; stroke-linejoin:round;"/><line x1="195.33" y1="110.42" x2="199.02" y2="111.68" style="fill:none; stroke:#000; stroke-linecap:round; stroke-linejoin:round;"/><line x1="195.33" y1="108.42" x2="199.02" y2="109.68" style="fill:none; stroke:#000; stroke-linecap:round; stroke-linejoin:round;"/><line x1="195.33" y1="106.42" x2="199.02" y2="107.68" style="fill:none; stroke:#000; stroke-linecap:round; stroke-linejoin:round;"/><line x1="195.33" y1="104.42" x2="199.02" y2="105.68" style="fill:none; stroke:#000; stroke-linecap:round; stroke-linejoin:round;"/><line x1="195.33" y1="102.42" x2="199.02" y2="103.68" style="fill:none; stroke:#000; stroke-linecap:round; stroke-linejoin:round;"/><line x1="195.33" y1="100.42" x2="199.02" y2="101.68" style="fill:none; stroke:#000; stroke-linecap:round; stroke-linejoin:round;"/><line x1="195.33" y1="98.42" x2="199.02" y2="99.68" style="fill:none; stroke:#000; stroke-linecap:round; stroke-linejoin:round;"/><line x1="195.33" y1="96.42" x2="199.02" y2="97.68" style="fill:none; stroke:#000; stroke-linecap:round; stroke-linejoin:round;"/><line x1="195.33" y1="94.42" x2="199.02" y2="95.68" style="fill:none; stroke:#000; stroke-linecap:round; stroke-linejoin:round;"/><line x1="195.33" y1="92.42" x2="199.02" y2="93.68" style="fill:none; stroke:#000; stroke-linecap:round; stroke-linejoin:round;"/><line x1="195.33" y1="90.42" x2="199.02" y2="91.68" style="fill:none; stroke:#000; stroke-linecap:round; stroke-linejoin:round;"/><line x1="195.33" y1="88.42" x2="199.02" y2="89.68" style="fill:none; stroke:#000; stroke-linecap:round; stroke-linejoin:round;"/><line x1="195.33" y1="86.42" x2="199.02" y2="87.68" style="fill:none; stroke:#000; stroke-linecap:round; stroke-linejoin:round;"/><line x1="195.33" y1="84.42" x2="199.02" y2="85.68" style="fill:none; stroke:#000; stroke-linecap:round; stroke-linejoin:round;"/><line x1="195.33" y1="82.42" x2="199.02" y2="83.68" style="fill:none; stroke:#000; stroke-linecap:round; stroke-linejoin:round;"/><line x1="195.33" y1="80.42" x2="199.02" y2="81.68" style="fill:none; stroke:#000; stroke-linecap:round; stroke-linejoin:round;"/><line x1="195.33" y1="78.42" x2="199.02" y2="79.68" style="fill:none; stroke:#000; stroke-linecap:round; stroke-linejoin:round;"/><line x1="195.33" y1="76.42" x2="199.02" y2="77.68" style="fill:none; stroke:#000; stroke-linecap:round; stroke-linejoin:round;"/><line x1="195.33" y1="74.42" x2="199.02" y2="75.68" style="fill:none; stroke:#000; stroke-linecap:round; stroke-linejoin:round;"/><line x1="195.33" y1="72.42" x2="199.02" y2="73.68" style="fill:none; stroke:#000; stroke-linecap:round; stroke-linejoin:round;"/><line x1="195.33" y1="70.42" x2="199.02" y2="71.68" style="fill:none; stroke:#000; stroke-linecap:round; stroke-linejoin:round;"/><line x1="195.33" y1="68.42" x2="199.02" y2="69.68" style="fill:none; stroke:#000; stroke-linecap:round; stroke-linejoin:round;"/><line x1="195.33" y1="66.42" x2="199.02" y2="67.68" style="fill:none; stroke:#000; stroke-linecap:round; stroke-linejoin:round;"/><line x1="195.33" y1="64.42" x2="199.02" y2="65.68" style="fill:none; stroke:#000; stroke-linecap:round; stroke-linejoin:round;"/><line x1="195.33" y1="62.42" x2="199.02" y2="63.68" style="fill:none; stroke:#000; stroke-linecap:round; stroke-linejoin:round;"/><line x1="195.33" y1="60.42" x2="199.02" y2="61.68" style="fill:none; stroke:#000; stroke-linecap:round; stroke-linejoin:round;"/><line x1="172.04" y1="86.06" x2="181.63" y2="58" style="fill:none; stroke:#000; stroke-linecap:round; stroke-linejoin:round;"/><path d="M199.82,57.9l-28.16,.03s-1.43,.38-1.43,1.29v23.09s-.32,.53,.42,1.5c0,0,1.37,2.13,1.72,3.29s5.91,19.76,18.38,28.23l8.97,.31,.1-57.75Z" style="fill:none; stroke:#000; stroke-linecap:round; stroke-linejoin:round;"/><path d="M172.04,57.34l-.03-1.18s3.48-15.31,18.15-28.58" style="fill:none; stroke:#000; stroke-linecap:round; stroke-linejoin:round;"/><rect x="147.11" y="57.2" width="17.07" height="28.34" style="fill:none; stroke:#000; stroke-linecap:round; stroke-linejoin:round;"/><rect x="133.13" y="12.97" width="31.05" height="38.77" style="fill:none; stroke:#000; stroke-linecap:round; stroke-linejoin:round;"/><line x1="168" y1="121.28" x2="200.93" y2="121.28" style="fill:none; stroke:#000; stroke-linecap:round; stroke-linejoin:round; stroke-width:1px;"/><polygon points="196.88 21.21 172.08 21.21 172.06 4.98 196.86 4.98 196.88 21.21" style="fill:none; stroke:#000; stroke-linecap:round; stroke-linejoin:round; stroke-width:.99px;"/><line x1="167.9" y1="21.4" x2="201.03" y2="21.4" style="fill:none; stroke:#000;"/><line x1="200.72" y1="27.26" x2="167.95" y2="27.26" style="fill:none; stroke:#000;"/><line x1="167.76" y1="24.76" x2="200.72" y2="24.76" style="fill:none; stroke:#000;"/><line x1="133.13" y1="51.74" x2="131.73" y2="51.74" style="fill:none; stroke:#000;"/><line x1="133.13" y1="12.97" x2="131.9" y2="12.97" style="fill:none; stroke:#000;"/><polyline points="153.29 57.06 153.29 55.36 159.52 55.36 159.52 57.06" style="fill:none; stroke:#000; stroke-width:1.02px;"/><polyline points="153.29 85.63 153.29 87.33 159.52 87.33 159.52 85.63" style="fill:none; stroke:#000; stroke-width:1.02px;"/><rect x="150.69" y="115.96" width="13.53" height="13.32" style="fill:none; stroke:#000; stroke-linecap:round; stroke-linejoin:round; stroke-width:1px;"/><polyline points="167.31 138.91 166.07 138.91 163.92 136.77 163.92 131.12" style="fill:none; stroke:#000; stroke-linecap:round; stroke-linejoin:round; stroke-width:1px;"/><line x1="172.43" y1="137.66" x2="196.45" y2="137.66" style="fill:none; stroke:#000; stroke-linecap:round; stroke-linejoin:round; stroke-width:1px;"/><line x1="168" y1="118.61" x2="200.72" y2="118.61" style="fill:none; stroke:#000;"/><line x1="190.74" y1="115.34" x2="167.76" y2="115.34" style="fill:none; stroke:#000;"/><circle cx="155.17" cy="122.77" r="2.68" style="fill:none; stroke:#000;"/><polygon points="201.07 139.89 202.39 139.85 204.63 137.61 204.63 5.01 202.38 2.76 201.07 2.8 201.07 139.89" style="fill:none; stroke:#000;"/><line x1="186.13" y1="56.77" x2="182.44" y2="58.02" style="fill:none; stroke:#000; stroke-linecap:round; stroke-linejoin:round;"/><line x1="186.13" y1="54.77" x2="182.44" y2="56.02" style="fill:none; stroke:#000; stroke-linecap:round; stroke-linejoin:round;"/><line x1="186.13" y1="52.77" x2="182.44" y2="54.02" style="fill:none; stroke:#000; stroke-linecap:round; stroke-linejoin:round;"/><line x1="186.13" y1="50.77" x2="182.44" y2="52.02" style="fill:none; stroke:#000; stroke-linecap:round; stroke-linejoin:round;"/><line x1="186.13" y1="48.77" x2="182.44" y2="50.02" style="fill:none; stroke:#000; stroke-linecap:round; stroke-linejoin:round;"/><line x1="186.13" y1="46.77" x2="182.44" y2="48.02" style="fill:none; stroke:#000; stroke-linecap:round; stroke-linejoin:round;"/><line x1="186.13" y1="44.77" x2="182.44" y2="46.02" style="fill:none; stroke:#000; stroke-linecap:round; stroke-linejoin:round;"/><line x1="186.13" y1="42.77" x2="182.44" y2="44.02" style="fill:none; stroke:#000; stroke-linecap:round; stroke-linejoin:round;"/><line x1="186.13" y1="40.77" x2="182.44" y2="42.02" style="fill:none; stroke:#000; stroke-linecap:round; stroke-linejoin:round;"/><line x1="186.13" y1="38.77" x2="182.44" y2="40.02" style="fill:none; stroke:#000; stroke-linecap:round; stroke-linejoin:round;"/><line x1="192.13" y1="56.77" x2="188.44" y2="58.02" style="fill:none; stroke:#000; stroke-linecap:round; stroke-linejoin:round;"/><line x1="192.13" y1="54.77" x2="188.44" y2="56.02" style="fill:none; stroke:#000; stroke-linecap:round; stroke-linejoin:round;"/><line x1="192.13" y1="52.77" x2="188.44" y2="54.02" style="fill:none; stroke:#000; stroke-linecap:round; stroke-linejoin:round;"/><line x1="192.13" y1="50.77" x2="188.44" y2="52.02" style="fill:none; stroke:#000; stroke-linecap:round; stroke-linejoin:round;"/><line x1="192.13" y1="48.77" x2="188.44" y2="50.02" style="fill:none; stroke:#000; stroke-linecap:round; stroke-linejoin:round;"/><line x1="192.13" y1="46.77" x2="188.44" y2="48.02" style="fill:none; stroke:#000; stroke-linecap:round; stroke-linejoin:round;"/><line x1="192.13" y1="44.77" x2="188.44" y2="46.02" style="fill:none; stroke:#000; stroke-linecap:round; stroke-linejoin:round;"/><line x1="192.13" y1="42.77" x2="188.44" y2="44.02" style="fill:none; stroke:#000; stroke-linecap:round; stroke-linejoin:round;"/><line x1="192.13" y1="40.77" x2="188.44" y2="42.02" style="fill:none; stroke:#000; stroke-linecap:round; stroke-linejoin:round;"/><line x1="192.13" y1="38.77" x2="188.44" y2="40.02" style="fill:none; stroke:#000; stroke-linecap:round; stroke-linejoin:round;"/><line x1="192.13" y1="36.77" x2="188.44" y2="38.02" style="fill:none; stroke:#000; stroke-linecap:round; stroke-linejoin:round;"/><line x1="192.13" y1="34.77" x2="188.44" y2="36.02" style="fill:none; stroke:#000; stroke-linecap:round; stroke-linejoin:round;"/><line x1="192.13" y1="32.77" x2="188.44" y2="34.02" style="fill:none; stroke:#000; stroke-linecap:round; stroke-linejoin:round;"/><line x1="192.13" y1="30.77" x2="188.44" y2="32.02" style="fill:none; stroke:#000; stroke-linecap:round; stroke-linejoin:round;"/><line x1="198.13" y1="56.77" x2="194.44" y2="58.02" style="fill:none; stroke:#000; stroke-linecap:round; stroke-linejoin:round;"/><line x1="198.13" y1="54.77" x2="194.44" y2="56.02" style="fill:none; stroke:#000; stroke-linecap:round; stroke-linejoin:round;"/><line x1="198.13" y1="52.77" x2="194.44" y2="54.02" style="fill:none; stroke:#000; stroke-linecap:round; stroke-linejoin:round;"/><line x1="198.13" y1="50.77" x2="194.44" y2="52.02" style="fill:none; stroke:#000; stroke-linecap:round; stroke-linejoin:round;"/><line x1="198.13" y1="48.77" x2="194.44" y2="50.02" style="fill:none; stroke:#000; stroke-linecap:round; stroke-linejoin:round;"/><line x1="198.13" y1="46.77" x2="194.44" y2="48.02" style="fill:none; stroke:#000; stroke-linecap:round; stroke-linejoin:round;"/><line x1="198.13" y1="44.77" x2="194.44" y2="46.02" style="fill:none; stroke:#000; stroke-linecap:round; stroke-linejoin:round;"/><line x1="198.13" y1="42.77" x2="194.44" y2="44.02" style="fill:none; stroke:#000; stroke-linecap:round; stroke-linejoin:round;"/><line x1="198.13" y1="40.77" x2="194.44" y2="42.02" style="fill:none; stroke:#000; stroke-linecap:round; stroke-linejoin:round;"/><line x1="198.13" y1="38.77" x2="194.44" y2="40.02" style="fill:none; stroke:#000; stroke-linecap:round; stroke-linejoin:round;"/><line x1="198.13" y1="36.77" x2="194.44" y2="38.02" style="fill:none; stroke:#000; stroke-linecap:round; stroke-linejoin:round;"/><line x1="198.13" y1="34.77" x2="194.44" y2="36.02" style="fill:none; stroke:#000; stroke-linecap:round; stroke-linejoin:round;"/><line x1="198.13" y1="32.77" x2="194.44" y2="34.02" style="fill:none; stroke:#000; stroke-linecap:round; stroke-linejoin:round;"/><line x1="198.13" y1="30.77" x2="194.44" y2="32.02" style="fill:none; stroke:#000; stroke-linecap:round; stroke-linejoin:round;"/><line x1="198.13" y1="28.77" x2="194.44" y2="30.02" style="fill:none; stroke:#000; stroke-linecap:round; stroke-linejoin:round;"/><line x1="199.82" y1="57.9" x2="199.82" y2="27.4" style="fill:none; stroke:#000; stroke-linecap:round; stroke-linejoin:round;"/><rect x="167.62" y="69.79" width="2.61" height="3.09" style="fill:none; stroke:#000; stroke-linecap:round; stroke-linejoin:round;"/><rect x="153.99" y="55.4" width="5.57" height="1.7" style="fill:#999; stroke:#000; stroke-width:.99px;"/><rect x="153.99" y="85.67" width="5.57" height="1.7" style="fill:#999; stroke:#000; stroke-width:.99px;"/><line x1="167.59" y1="138.95" x2="167.59" y2="3.76" style="fill:none; stroke:#000; stroke-width:.99px;"/><path d="M167.31,131.54s-3.09,.35-3.09-2.26" style="fill:none; stroke:#000; stroke-width:.99px;"/><line x1="164.21" y1="114.77" x2="164.21" y2="117.2" style="fill:none; stroke:#000; stroke-width:.99px;"/><line x1="172.07" y1="137.7" x2="172.07" y2="121.42" style="fill:none; stroke:#000; stroke-width:.99px;"/><line x1="196.65" y1="137.7" x2="196.69" y2="121.28" style="fill:none; stroke:#000; stroke-width:.99px;"/><path d="M167.31,11.16s-3.13-.38-3.13,1.81" style="fill:none; stroke:#000; stroke-linecap:round; stroke-linejoin:round; stroke-width:.99px;"/></g><g id="cope_sensors"><g id="cope_unloader_arm_sensor_details"><rect id="unloader_arm_color" x="199.82" y="43.59" width="4.85" height="4.85" style="fill:#999; stroke:#000; stroke-width:.99px;"/><circle id="unloader_arm_details" cx="202.24" cy="46.02" r="1.48" style="fill:none; stroke:#000; stroke-miterlimit:6.36; stroke-width:.4px;"/></g><g id="cope_shaft_sensor"><rect x="154.87" y="68.71" width="3.25" height="5.24" transform="translate(227.82 -85.17) rotate(90)" style="fill:#999; stroke:#000;"/><circle cx="160.81" cy="71.33" r="2.78" style="fill:#999; stroke:#000;"/></g></g></g></g></svg>