<?xml version="1.0" encoding="UTF-8"?><svg id="expanded" xmlns="http://www.w3.org/2000/svg" viewBox="0 0 336.19 142.72"><g id="large_group"><g id="cope_lg_group"><g id="cope_circles"><path id="circle2" d="M147.07,79.88c-.76,.81-1.23,1.9-1.23,3.11,0,2.5,2.03,4.53,4.53,4.53,1.56,0,2.94-.79,3.76-2" style="fill:#999; stroke:#000; stroke-width:.99px;"/><path id="circle1" d="M147.08,63.1c-.77-.81-1.24-1.91-1.24-3.12,0-2.5,2.03-4.53,4.53-4.53,1.45,0,2.75,.68,3.58,1.75" style="fill:#999; stroke:#000; stroke-width:.99px;"/></g><polyline id="cope_outline" points="164.21 85.58 147.14 85.58 147.14 57.24 164.04 57.24 164.04 53.51 133 53.51 131.52 52.03 131.52 13.09 133.09 11.52 164.04 11.52 164.04 5.99 166.27 3.76 167.59 3.76 167.59 2.8 167.59 1.33 168.11 .5 171.48 .5 172.04 1.05 172.04 4.98 196.8 4.98 196.78 1.14 197.39 .54 200.28 .54 201.07 1.33 201.07 2.8 202.42 2.8 204.67 5.05 204.67 137.65 202.43 139.89 201.07 139.89 201.07 141.42 200.38 142.05 197.16 142.05 196.72 141.42 196.72 137.7 172.07 137.7 172.07 141.42 171.48 142.22 168.14 142.22 167.59 141.42 167.59 140.11 167.59 138.95 166.1 138.95 163.96 136.81 163.96 130.85 150.89 130.86 149.35 129.32 149.35 116.14 150.72 114.77 164.21 114.77 164.21 85.58" style="fill:#999; stroke:#000; stroke-width:.99px;"/><line x1="173.77" y1="87.21" x2="177.46" y2="88.46" style="fill:none; stroke:#000; stroke-linecap:round; stroke-linejoin:round;"/><line x1="173.77" y1="87.21" x2="177.46" y2="88.46" style="fill:none; stroke:#000; stroke-linecap:round; stroke-linejoin:round;"/><line x1="173.77" y1="85.21" x2="177.46" y2="86.46" style="fill:none; stroke:#000; stroke-linecap:round; stroke-linejoin:round;"/><line x1="173.77" y1="83.21" x2="177.46" y2="84.46" style="fill:none; stroke:#000; stroke-linecap:round; stroke-linejoin:round;"/><line x1="173.77" y1="81.21" x2="177.46" y2="82.46" style="fill:none; stroke:#000; stroke-linecap:round; stroke-linejoin:round;"/><line x1="173.77" y1="79.21" x2="177.46" y2="80.46" style="fill:none; stroke:#000; stroke-linecap:round; stroke-linejoin:round;"/><line x1="173.77" y1="77.21" x2="177.46" y2="78.46" style="fill:none; stroke:#000; stroke-linecap:round; stroke-linejoin:round;"/><line x1="173.77" y1="75.21" x2="177.46" y2="76.46" style="fill:none; stroke:#000; stroke-linecap:round; stroke-linejoin:round;"/><line x1="173.77" y1="73.21" x2="177.46" y2="74.46" style="fill:none; stroke:#000; stroke-linecap:round; stroke-linejoin:round;"/><line x1="173.77" y1="71.21" x2="177.46" y2="72.46" style="fill:none; stroke:#000; stroke-linecap:round; stroke-linejoin:round;"/><line x1="173.77" y1="69.21" x2="177.46" y2="70.46" style="fill:none; stroke:#000; stroke-linecap:round; stroke-linejoin:round;"/><line x1="173.77" y1="67.21" x2="177.46" y2="68.46" style="fill:none; stroke:#000; stroke-linecap:round; stroke-linejoin:round;"/><line x1="173.77" y1="65.21" x2="177.46" y2="66.46" style="fill:none; stroke:#000; stroke-linecap:round; stroke-linejoin:round;"/><line x1="173.77" y1="63.21" x2="177.46" y2="64.46" style="fill:none; stroke:#000; stroke-linecap:round; stroke-linejoin:round;"/><line x1="173.77" y1="61.21" x2="177.46" y2="62.46" style="fill:none; stroke:#000; stroke-linecap:round; stroke-linejoin:round;"/><line x1="173.77" y1="59.21" x2="177.46" y2="60.46" style="fill:none; stroke:#000; stroke-linecap:round; stroke-linejoin:round;"/><polyline points="177.46 57.21 175.97 57.72 174.5 57.83" style="fill:none; stroke:#000; stroke-linecap:round; stroke-linejoin:round;"/><line x1="177.46" y1="55.21" x2="173.77" y2="56.46" style="fill:none; stroke:#000; stroke-linecap:round; stroke-linejoin:round;"/><line x1="177.46" y1="53.21" x2="173.77" y2="54.46" style="fill:none; stroke:#000; stroke-linecap:round; stroke-linejoin:round;"/><line x1="183.06" y1="103.43" x2="186.74" y2="104.68" style="fill:none; stroke:#000; stroke-linecap:round; stroke-linejoin:round;"/><line x1="183.06" y1="103.43" x2="186.74" y2="104.68" style="fill:none; stroke:#000; stroke-linecap:round; stroke-linejoin:round;"/><line x1="183.06" y1="101.43" x2="186.74" y2="102.68" style="fill:none; stroke:#000; stroke-linecap:round; stroke-linejoin:round;"/><line x1="183.06" y1="99.43" x2="186.74" y2="100.68" style="fill:none; stroke:#000; stroke-linecap:round; stroke-linejoin:round;"/><line x1="183.06" y1="97.43" x2="186.74" y2="98.68" style="fill:none; stroke:#000; stroke-linecap:round; stroke-linejoin:round;"/><line x1="183.06" y1="95.43" x2="186.74" y2="96.68" style="fill:none; stroke:#000; stroke-linecap:round; stroke-linejoin:round;"/><line x1="183.06" y1="93.43" x2="186.74" y2="94.68" style="fill:none; stroke:#000; stroke-linecap:round; stroke-linejoin:round;"/><line x1="183.06" y1="91.43" x2="186.74" y2="92.68" style="fill:none; stroke:#000; stroke-linecap:round; stroke-linejoin:round;"/><line x1="183.06" y1="89.43" x2="186.74" y2="90.68" style="fill:none; stroke:#000; stroke-linecap:round; stroke-linejoin:round;"/><line x1="183.06" y1="87.43" x2="186.74" y2="88.68" style="fill:none; stroke:#000; stroke-linecap:round; stroke-linejoin:round;"/><line x1="183.06" y1="85.43" x2="186.74" y2="86.68" style="fill:none; stroke:#000; stroke-linecap:round; stroke-linejoin:round;"/><line x1="183.06" y1="83.43" x2="186.74" y2="84.68" style="fill:none; stroke:#000; stroke-linecap:round; stroke-linejoin:round;"/><line x1="183.06" y1="75.43" x2="186.74" y2="76.68" style="fill:none; stroke:#000; stroke-linecap:round; stroke-linejoin:round;"/><line x1="183.06" y1="73.43" x2="186.74" y2="74.68" style="fill:none; stroke:#000; stroke-linecap:round; stroke-linejoin:round;"/><line x1="183.06" y1="71.43" x2="186.74" y2="72.68" style="fill:none; stroke:#000; stroke-linecap:round; stroke-linejoin:round;"/><line x1="183.06" y1="69.43" x2="186.74" y2="70.68" style="fill:none; stroke:#000; stroke-linecap:round; stroke-linejoin:round;"/><line x1="183.06" y1="67.43" x2="186.74" y2="68.68" style="fill:none; stroke:#000; stroke-linecap:round; stroke-linejoin:round;"/><line x1="183.06" y1="65.43" x2="186.74" y2="66.68" style="fill:none; stroke:#000; stroke-linecap:round; stroke-linejoin:round;"/><line x1="183.06" y1="63.43" x2="186.74" y2="64.68" style="fill:none; stroke:#000; stroke-linecap:round; stroke-linejoin:round;"/><line x1="183.06" y1="61.43" x2="186.74" y2="62.68" style="fill:none; stroke:#000; stroke-linecap:round; stroke-linejoin:round;"/><line x1="183.06" y1="59.43" x2="186.74" y2="60.68" style="fill:none; stroke:#000; stroke-linecap:round; stroke-linejoin:round;"/><line x1="189.42" y1="110.11" x2="193.11" y2="111.36" style="fill:none; stroke:#000; stroke-linecap:round; stroke-linejoin:round;"/><line x1="189.42" y1="110.11" x2="193.11" y2="111.36" style="fill:none; stroke:#000; stroke-linecap:round; stroke-linejoin:round;"/><line x1="189.42" y1="108.11" x2="193.11" y2="109.36" style="fill:none; stroke:#000; stroke-linecap:round; stroke-linejoin:round;"/><line x1="189.42" y1="106.11" x2="193.11" y2="107.36" style="fill:none; stroke:#000; stroke-linecap:round; stroke-linejoin:round;"/><line x1="189.42" y1="104.11" x2="193.11" y2="105.36" style="fill:none; stroke:#000; stroke-linecap:round; stroke-linejoin:round;"/><line x1="189.42" y1="102.11" x2="193.11" y2="103.36" style="fill:none; stroke:#000; stroke-linecap:round; stroke-linejoin:round;"/><line x1="189.42" y1="100.11" x2="193.11" y2="101.36" style="fill:none; stroke:#000; stroke-linecap:round; stroke-linejoin:round;"/><line x1="189.42" y1="98.11" x2="193.11" y2="99.36" style="fill:none; stroke:#000; stroke-linecap:round; stroke-linejoin:round;"/><line x1="189.42" y1="96.11" x2="193.11" y2="97.36" style="fill:none; stroke:#000; stroke-linecap:round; stroke-linejoin:round;"/><line x1="189.42" y1="94.11" x2="193.11" y2="95.36" style="fill:none; stroke:#000; stroke-linecap:round; stroke-linejoin:round;"/><line x1="189.42" y1="92.11" x2="193.11" y2="93.36" style="fill:none; stroke:#000; stroke-linecap:round; stroke-linejoin:round;"/><line x1="189.42" y1="90.11" x2="193.11" y2="91.36" style="fill:none; stroke:#000; stroke-linecap:round; stroke-linejoin:round;"/><line x1="189.42" y1="88.11" x2="193.11" y2="89.36" style="fill:none; stroke:#000; stroke-linecap:round; stroke-linejoin:round;"/><line x1="189.42" y1="86.11" x2="193.11" y2="87.36" style="fill:none; stroke:#000; stroke-linecap:round; stroke-linejoin:round;"/><line x1="189.42" y1="84.11" x2="193.11" y2="85.36" style="fill:none; stroke:#000; stroke-linecap:round; stroke-linejoin:round;"/><line x1="189.42" y1="75.11" x2="193.11" y2="76.36" style="fill:none; stroke:#000; stroke-linecap:round; stroke-linejoin:round;"/><line x1="189.42" y1="73.11" x2="193.11" y2="74.36" style="fill:none; stroke:#000; stroke-linecap:round; stroke-linejoin:round;"/><line x1="189.42" y1="71.11" x2="193.11" y2="72.36" style="fill:none; stroke:#000; stroke-linecap:round; stroke-linejoin:round;"/><line x1="189.42" y1="69.11" x2="193.11" y2="70.36" style="fill:none; stroke:#000; stroke-linecap:round; stroke-linejoin:round;"/><line x1="189.42" y1="67.11" x2="193.11" y2="68.36" style="fill:none; stroke:#000; stroke-linecap:round; stroke-linejoin:round;"/><line x1="189.42" y1="65.11" x2="193.11" y2="66.36" style="fill:none; stroke:#000; stroke-linecap:round; stroke-linejoin:round;"/><line x1="189.42" y1="63.11" x2="193.11" y2="64.36" style="fill:none; stroke:#000; stroke-linecap:round; stroke-linejoin:round;"/><line x1="189.42" y1="61.11" x2="193.11" y2="62.36" style="fill:none; stroke:#000; stroke-linecap:round; stroke-linejoin:round;"/><line x1="189.42" y1="59.11" x2="193.11" y2="60.36" style="fill:none; stroke:#000; stroke-linecap:round; stroke-linejoin:round;"/><line x1="195.33" y1="114.42" x2="199.02" y2="115.68" style="fill:none; stroke:#000; stroke-linecap:round; stroke-linejoin:round;"/><line x1="195.33" y1="114.42" x2="199.02" y2="115.68" style="fill:none; stroke:#000; stroke-linecap:round; stroke-linejoin:round;"/><line x1="195.33" y1="112.42" x2="199.02" y2="113.68" style="fill:none; stroke:#000; stroke-linecap:round; stroke-linejoin:round;"/><line x1="195.33" y1="110.42" x2="199.02" y2="111.68" style="fill:none; stroke:#000; stroke-linecap:round; stroke-linejoin:round;"/><line x1="195.33" y1="108.42" x2="199.02" y2="109.68" style="fill:none; stroke:#000; stroke-linecap:round; stroke-linejoin:round;"/><line x1="195.33" y1="106.42" x2="199.02" y2="107.68" style="fill:none; stroke:#000; stroke-linecap:round; stroke-linejoin:round;"/><line x1="195.33" y1="104.42" x2="199.02" y2="105.68" style="fill:none; stroke:#000; stroke-linecap:round; stroke-linejoin:round;"/><line x1="195.33" y1="102.42" x2="199.02" y2="103.68" style="fill:none; stroke:#000; stroke-linecap:round; stroke-linejoin:round;"/><line x1="195.33" y1="100.42" x2="199.02" y2="101.68" style="fill:none; stroke:#000; stroke-linecap:round; stroke-linejoin:round;"/><line x1="195.33" y1="98.42" x2="199.02" y2="99.68" style="fill:none; stroke:#000; stroke-linecap:round; stroke-linejoin:round;"/><line x1="195.33" y1="96.42" x2="199.02" y2="97.68" style="fill:none; stroke:#000; stroke-linecap:round; stroke-linejoin:round;"/><line x1="195.33" y1="94.42" x2="199.02" y2="95.68" style="fill:none; stroke:#000; stroke-linecap:round; stroke-linejoin:round;"/><line x1="195.33" y1="92.42" x2="199.02" y2="93.68" style="fill:none; stroke:#000; stroke-linecap:round; stroke-linejoin:round;"/><line x1="195.33" y1="90.42" x2="199.02" y2="91.68" style="fill:none; stroke:#000; stroke-linecap:round; stroke-linejoin:round;"/><line x1="195.33" y1="88.42" x2="199.02" y2="89.68" style="fill:none; stroke:#000; stroke-linecap:round; stroke-linejoin:round;"/><line x1="195.33" y1="86.42" x2="199.02" y2="87.68" style="fill:none; stroke:#000; stroke-linecap:round; stroke-linejoin:round;"/><line x1="195.33" y1="84.42" x2="199.02" y2="85.68" style="fill:none; stroke:#000; stroke-linecap:round; stroke-linejoin:round;"/><line x1="195.33" y1="82.42" x2="199.02" y2="83.68" style="fill:none; stroke:#000; stroke-linecap:round; stroke-linejoin:round;"/><line x1="195.33" y1="80.42" x2="199.02" y2="81.68" style="fill:none; stroke:#000; stroke-linecap:round; stroke-linejoin:round;"/><line x1="195.33" y1="78.42" x2="199.02" y2="79.68" style="fill:none; stroke:#000; stroke-linecap:round; stroke-linejoin:round;"/><line x1="195.33" y1="76.42" x2="199.02" y2="77.68" style="fill:none; stroke:#000; stroke-linecap:round; stroke-linejoin:round;"/><line x1="195.33" y1="74.42" x2="199.02" y2="75.68" style="fill:none; stroke:#000; stroke-linecap:round; stroke-linejoin:round;"/><line x1="195.33" y1="72.42" x2="199.02" y2="73.68" style="fill:none; stroke:#000; stroke-linecap:round; stroke-linejoin:round;"/><line x1="195.33" y1="70.42" x2="199.02" y2="71.68" style="fill:none; stroke:#000; stroke-linecap:round; stroke-linejoin:round;"/><line x1="195.33" y1="68.42" x2="199.02" y2="69.68" style="fill:none; stroke:#000; stroke-linecap:round; stroke-linejoin:round;"/><line x1="195.33" y1="66.42" x2="199.02" y2="67.68" style="fill:none; stroke:#000; stroke-linecap:round; stroke-linejoin:round;"/><line x1="195.33" y1="64.42" x2="199.02" y2="65.68" style="fill:none; stroke:#000; stroke-linecap:round; stroke-linejoin:round;"/><line x1="195.33" y1="62.42" x2="199.02" y2="63.68" style="fill:none; stroke:#000; stroke-linecap:round; stroke-linejoin:round;"/><line x1="195.33" y1="60.42" x2="199.02" y2="61.68" style="fill:none; stroke:#000; stroke-linecap:round; stroke-linejoin:round;"/><line x1="172.04" y1="86.06" x2="181.63" y2="58" style="fill:none; stroke:#000; stroke-linecap:round; stroke-linejoin:round;"/><path d="M199.82,57.9l-28.16,.03s-1.43,.38-1.43,1.29v23.09s-.32,.53,.42,1.5c0,0,1.37,2.13,1.72,3.29s5.91,19.76,18.38,28.23l8.97,.31,.1-57.75Z" style="fill:none; stroke:#000; stroke-linecap:round; stroke-linejoin:round;"/><path d="M172.04,57.34l-.03-1.18s3.48-15.31,18.15-28.58" style="fill:none; stroke:#000; stroke-linecap:round; stroke-linejoin:round;"/><rect x="147.11" y="57.2" width="17.07" height="28.34" style="fill:none; stroke:#000; stroke-linecap:round; stroke-linejoin:round;"/><rect x="133.13" y="12.97" width="31.05" height="38.77" style="fill:none; stroke:#000; stroke-linecap:round; stroke-linejoin:round;"/><line x1="168" y1="121.28" x2="200.93" y2="121.28" style="fill:none; stroke:#000; stroke-linecap:round; stroke-linejoin:round; stroke-width:1px;"/><polygon points="196.88 21.21 172.08 21.21 172.06 4.98 196.86 4.98 196.88 21.21" style="fill:none; stroke:#000; stroke-linecap:round; stroke-linejoin:round; stroke-width:.99px;"/><line x1="167.9" y1="21.4" x2="201.03" y2="21.4" style="fill:none; stroke:#000;"/><line x1="200.72" y1="27.26" x2="167.95" y2="27.26" style="fill:none; stroke:#000;"/><line x1="167.76" y1="24.76" x2="200.72" y2="24.76" style="fill:none; stroke:#000;"/><line x1="133.13" y1="51.74" x2="131.73" y2="51.74" style="fill:none; stroke:#000;"/><line x1="133.13" y1="12.97" x2="131.9" y2="12.97" style="fill:none; stroke:#000;"/><polyline points="153.29 57.06 153.29 55.36 159.52 55.36 159.52 57.06" style="fill:none; stroke:#000; stroke-width:1.02px;"/><polyline points="153.29 85.63 153.29 87.33 159.52 87.33 159.52 85.63" style="fill:none; stroke:#000; stroke-width:1.02px;"/><rect x="150.69" y="115.96" width="13.53" height="13.32" style="fill:none; stroke:#000; stroke-linecap:round; stroke-linejoin:round; stroke-width:1px;"/><polyline points="167.31 138.91 166.07 138.91 163.92 136.77 163.92 131.12" style="fill:none; stroke:#000; stroke-linecap:round; stroke-linejoin:round; stroke-width:1px;"/><line x1="172.43" y1="137.66" x2="196.45" y2="137.66" style="fill:none; stroke:#000; stroke-linecap:round; stroke-linejoin:round; stroke-width:1px;"/><line x1="168" y1="118.61" x2="200.72" y2="118.61" style="fill:none; stroke:#000;"/><line x1="190.74" y1="115.34" x2="167.76" y2="115.34" style="fill:none; stroke:#000;"/><circle cx="155.17" cy="122.77" r="2.68" style="fill:none; stroke:#000;"/><polygon points="201.07 139.89 202.39 139.85 204.63 137.61 204.63 5.01 202.38 2.76 201.07 2.8 201.07 139.89" style="fill:none; stroke:#000;"/><line x1="186.13" y1="56.77" x2="182.44" y2="58.02" style="fill:none; stroke:#000; stroke-linecap:round; stroke-linejoin:round;"/><line x1="186.13" y1="54.77" x2="182.44" y2="56.02" style="fill:none; stroke:#000; stroke-linecap:round; stroke-linejoin:round;"/><line x1="186.13" y1="52.77" x2="182.44" y2="54.02" style="fill:none; stroke:#000; stroke-linecap:round; stroke-linejoin:round;"/><line x1="186.13" y1="50.77" x2="182.44" y2="52.02" style="fill:none; stroke:#000; stroke-linecap:round; stroke-linejoin:round;"/><line x1="186.13" y1="48.77" x2="182.44" y2="50.02" style="fill:none; stroke:#000; stroke-linecap:round; stroke-linejoin:round;"/><line x1="186.13" y1="46.77" x2="182.44" y2="48.02" style="fill:none; stroke:#000; stroke-linecap:round; stroke-linejoin:round;"/><line x1="186.13" y1="44.77" x2="182.44" y2="46.02" style="fill:none; stroke:#000; stroke-linecap:round; stroke-linejoin:round;"/><line x1="186.13" y1="42.77" x2="182.44" y2="44.02" style="fill:none; stroke:#000; stroke-linecap:round; stroke-linejoin:round;"/><line x1="186.13" y1="40.77" x2="182.44" y2="42.02" style="fill:none; stroke:#000; stroke-linecap:round; stroke-linejoin:round;"/><line x1="186.13" y1="38.77" x2="182.44" y2="40.02" style="fill:none; stroke:#000; stroke-linecap:round; stroke-linejoin:round;"/><line x1="192.13" y1="56.77" x2="188.44" y2="58.02" style="fill:none; stroke:#000; stroke-linecap:round; stroke-linejoin:round;"/><line x1="192.13" y1="54.77" x2="188.44" y2="56.02" style="fill:none; stroke:#000; stroke-linecap:round; stroke-linejoin:round;"/><line x1="192.13" y1="52.77" x2="188.44" y2="54.02" style="fill:none; stroke:#000; stroke-linecap:round; stroke-linejoin:round;"/><line x1="192.13" y1="50.77" x2="188.44" y2="52.02" style="fill:none; stroke:#000; stroke-linecap:round; stroke-linejoin:round;"/><line x1="192.13" y1="48.77" x2="188.44" y2="50.02" style="fill:none; stroke:#000; stroke-linecap:round; stroke-linejoin:round;"/><line x1="192.13" y1="46.77" x2="188.44" y2="48.02" style="fill:none; stroke:#000; stroke-linecap:round; stroke-linejoin:round;"/><line x1="192.13" y1="44.77" x2="188.44" y2="46.02" style="fill:none; stroke:#000; stroke-linecap:round; stroke-linejoin:round;"/><line x1="192.13" y1="42.77" x2="188.44" y2="44.02" style="fill:none; stroke:#000; stroke-linecap:round; stroke-linejoin:round;"/><line x1="192.13" y1="40.77" x2="188.44" y2="42.02" style="fill:none; stroke:#000; stroke-linecap:round; stroke-linejoin:round;"/><line x1="192.13" y1="38.77" x2="188.44" y2="40.02" style="fill:none; stroke:#000; stroke-linecap:round; stroke-linejoin:round;"/><line x1="192.13" y1="36.77" x2="188.44" y2="38.02" style="fill:none; stroke:#000; stroke-linecap:round; stroke-linejoin:round;"/><line x1="192.13" y1="34.77" x2="188.44" y2="36.02" style="fill:none; stroke:#000; stroke-linecap:round; stroke-linejoin:round;"/><line x1="192.13" y1="32.77" x2="188.44" y2="34.02" style="fill:none; stroke:#000; stroke-linecap:round; stroke-linejoin:round;"/><line x1="192.13" y1="30.77" x2="188.44" y2="32.02" style="fill:none; stroke:#000; stroke-linecap:round; stroke-linejoin:round;"/><line x1="198.13" y1="56.77" x2="194.44" y2="58.02" style="fill:none; stroke:#000; stroke-linecap:round; stroke-linejoin:round;"/><line x1="198.13" y1="54.77" x2="194.44" y2="56.02" style="fill:none; stroke:#000; stroke-linecap:round; stroke-linejoin:round;"/><line x1="198.13" y1="52.77" x2="194.44" y2="54.02" style="fill:none; stroke:#000; stroke-linecap:round; stroke-linejoin:round;"/><line x1="198.13" y1="50.77" x2="194.44" y2="52.02" style="fill:none; stroke:#000; stroke-linecap:round; stroke-linejoin:round;"/><line x1="198.13" y1="48.77" x2="194.44" y2="50.02" style="fill:none; stroke:#000; stroke-linecap:round; stroke-linejoin:round;"/><line x1="198.13" y1="46.77" x2="194.44" y2="48.02" style="fill:none; stroke:#000; stroke-linecap:round; stroke-linejoin:round;"/><line x1="198.13" y1="44.77" x2="194.44" y2="46.02" style="fill:none; stroke:#000; stroke-linecap:round; stroke-linejoin:round;"/><line x1="198.13" y1="42.77" x2="194.44" y2="44.02" style="fill:none; stroke:#000; stroke-linecap:round; stroke-linejoin:round;"/><line x1="198.13" y1="40.77" x2="194.44" y2="42.02" style="fill:none; stroke:#000; stroke-linecap:round; stroke-linejoin:round;"/><line x1="198.13" y1="38.77" x2="194.44" y2="40.02" style="fill:none; stroke:#000; stroke-linecap:round; stroke-linejoin:round;"/><line x1="198.13" y1="36.77" x2="194.44" y2="38.02" style="fill:none; stroke:#000; stroke-linecap:round; stroke-linejoin:round;"/><line x1="198.13" y1="34.77" x2="194.44" y2="36.02" style="fill:none; stroke:#000; stroke-linecap:round; stroke-linejoin:round;"/><line x1="198.13" y1="32.77" x2="194.44" y2="34.02" style="fill:none; stroke:#000; stroke-linecap:round; stroke-linejoin:round;"/><line x1="198.13" y1="30.77" x2="194.44" y2="32.02" style="fill:none; stroke:#000; stroke-linecap:round; stroke-linejoin:round;"/><line x1="198.13" y1="28.77" x2="194.44" y2="30.02" style="fill:none; stroke:#000; stroke-linecap:round; stroke-linejoin:round;"/><line x1="199.82" y1="57.9" x2="199.82" y2="27.4" style="fill:none; stroke:#000; stroke-linecap:round; stroke-linejoin:round;"/><rect x="167.62" y="69.79" width="2.61" height="3.09" style="fill:none; stroke:#000; stroke-linecap:round; stroke-linejoin:round;"/><rect x="153.99" y="55.4" width="5.57" height="1.7" style="fill:#999; stroke:#000; stroke-width:.99px;"/><rect x="153.99" y="85.67" width="5.57" height="1.7" style="fill:#999; stroke:#000; stroke-width:.99px;"/><line x1="167.59" y1="138.95" x2="167.59" y2="3.76" style="fill:none; stroke:#000; stroke-width:.99px;"/><path d="M167.31,131.54s-3.09,.35-3.09-2.26" style="fill:none; stroke:#000; stroke-width:.99px;"/><line x1="164.21" y1="114.77" x2="164.21" y2="117.2" style="fill:none; stroke:#000; stroke-width:.99px;"/><line x1="172.07" y1="137.7" x2="172.07" y2="121.42" style="fill:none; stroke:#000; stroke-width:.99px;"/><line x1="196.65" y1="137.7" x2="196.69" y2="121.28" style="fill:none; stroke:#000; stroke-width:.99px;"/><path d="M167.31,11.16s-3.13-.38-3.13,1.81" style="fill:none; stroke:#000; stroke-linecap:round; stroke-linejoin:round; stroke-width:.99px;"/><rect id="unloader_arm_color" x="199.82" y="43.59" width="4.85" height="4.85" style="fill:#999; stroke:#000; stroke-width:.99px;"/><circle id="unloader_arm_details" cx="202.24" cy="46.02" r="1.48" style="fill:none; stroke:#000; stroke-miterlimit:6.36; stroke-width:.4px;"/><g id="cope_shaft_sensor"><rect x="154.87" y="68.71" width="3.25" height="5.24" transform="translate(227.82 -85.17) rotate(90)" style="fill:#999; stroke:#000;"/><circle cx="160.81" cy="71.33" r="2.78" style="fill:#999; stroke:#000;"/></g><g id="TEXT-3"><g><path d="M115.01,96.57c0,.3-.05,.55-.15,.77-.1,.22-.25,.39-.45,.51-.2,.12-.46,.18-.77,.18s-.56-.06-.77-.18c-.2-.12-.35-.29-.45-.52-.1-.22-.15-.48-.15-.78s.05-.55,.15-.77,.25-.39,.45-.51,.46-.18,.77-.18,.56,.06,.76,.18c.2,.12,.35,.29,.45,.51,.1,.22,.15,.48,.15,.77Zm-2.08,0c0,.3,.06,.53,.17,.71,.11,.17,.3,.26,.55,.26s.44-.09,.56-.26c.11-.17,.17-.41,.17-.71s-.06-.54-.17-.71c-.11-.17-.3-.26-.55-.26s-.44,.09-.56,.26c-.11,.17-.17,.41-.17,.71Z"/><path d="M117.92,97c0,.2-.04,.38-.13,.53-.09,.16-.22,.28-.39,.38-.17,.09-.4,.14-.66,.14-.38,0-.67-.1-.86-.29s-.3-.45-.3-.77v-1.84h.6v1.75c0,.24,.05,.4,.14,.5,.1,.1,.24,.14,.43,.14s.34-.05,.43-.16c.09-.1,.13-.27,.13-.49v-1.74h.6v1.85Z"/><path d="M119.73,98.01h-.6v-2.35h-.78v-.5h2.16v.5h-.78v2.35Z"/><path d="M120.94,98.01v-2.86h.6v2.36h1.16v.5h-1.76Z"/><path d="M124.85,98.01h-1.64v-2.86h1.64v.5h-1.04v.63h.97v.5h-.97v.74h1.04v.5Z"/><path d="M126.54,98.01h-.6v-2.35h-.78v-.5h2.16v.5h-.78v2.35Z"/><path d="M130.48,97.21c0,.25-.09,.46-.27,.61-.18,.15-.44,.23-.78,.23-.3,0-.57-.06-.81-.17v-.56c.14,.06,.28,.11,.42,.16,.14,.05,.29,.07,.43,.07s.25-.03,.32-.09c.06-.06,.09-.13,.09-.22,0-.07-.02-.13-.07-.18-.05-.05-.12-.1-.2-.14-.08-.04-.18-.09-.28-.14-.07-.03-.14-.07-.22-.11s-.15-.1-.22-.16-.13-.14-.17-.24c-.05-.09-.07-.21-.07-.34,0-.26,.09-.46,.26-.6,.17-.14,.41-.21,.71-.21,.15,0,.29,.02,.43,.05,.13,.03,.28,.08,.42,.15l-.2,.47c-.13-.05-.25-.09-.35-.12-.1-.03-.21-.04-.32-.04-.12,0-.2,.03-.26,.08-.06,.05-.09,.12-.09,.21,0,.1,.05,.18,.14,.24,.09,.06,.22,.13,.4,.22,.15,.07,.27,.14,.37,.22,.1,.07,.18,.16,.24,.26s.08,.23,.08,.38Z"/><path d="M133.34,98.01h-.6v-1.23h-1.13v1.23h-.6v-2.86h.6v1.12h1.13v-1.12h.6v2.86Z"/><path d="M135.81,98.01l-.21-.68h-1.04l-.21,.68h-.65l1.01-2.87h.74l1.01,2.87h-.65Zm-.56-1.85s-.03-.1-.05-.17-.04-.14-.06-.21c-.02-.07-.04-.13-.05-.19-.01,.05-.03,.12-.05,.2-.02,.08-.04,.15-.06,.22-.02,.07-.04,.12-.05,.15l-.2,.66h.74l-.21-.66Z"/><path d="M137.42,98.01h-.6v-2.86h1.64v.5h-1.04v.74h.97v.5h-.97v1.13Z"/><path d="M140.12,98.01h-.6v-2.35h-.78v-.5h2.16v.5h-.78v2.35Z"/><path d="M128.33,102.01c0,.25-.09,.46-.27,.61-.18,.15-.44,.23-.78,.23-.3,0-.57-.06-.81-.17v-.56c.14,.06,.28,.11,.42,.16,.14,.05,.29,.07,.43,.07s.25-.03,.32-.09c.06-.06,.09-.13,.09-.22,0-.07-.02-.13-.07-.18-.05-.05-.12-.1-.2-.14-.08-.04-.18-.09-.28-.14-.07-.03-.14-.07-.22-.11s-.15-.1-.22-.16-.13-.14-.17-.24c-.05-.09-.07-.21-.07-.34,0-.26,.09-.46,.26-.6,.17-.14,.41-.21,.71-.21,.15,0,.29,.02,.43,.05,.13,.03,.28,.08,.42,.15l-.2,.47c-.13-.05-.25-.09-.35-.12-.1-.03-.21-.04-.32-.04-.12,0-.2,.03-.26,.08-.06,.05-.09,.12-.09,.21,0,.1,.05,.18,.14,.24,.09,.06,.22,.13,.4,.22,.15,.07,.27,.14,.37,.22,.1,.07,.18,.16,.24,.26s.08,.23,.08,.38Z"/><path d="M130.5,102.81h-1.64v-2.86h1.64v.5h-1.04v.63h.97v.5h-.97v.74h1.04v.5Z"/><path d="M133.63,102.81h-.77l-1.24-2.16h-.02c0,.14,.01,.27,.02,.41s.01,.27,.02,.41v1.34h-.54v-2.86h.76l1.24,2.14h.01c0-.13,0-.27-.01-.4,0-.13-.01-.26-.02-.39v-1.35h.54v2.86Z"/><path d="M136.03,102.01c0,.25-.09,.46-.27,.61-.18,.15-.44,.23-.78,.23-.3,0-.57-.06-.81-.17v-.56c.14,.06,.28,.11,.42,.16,.14,.05,.29,.07,.43,.07s.25-.03,.32-.09c.06-.06,.09-.13,.09-.22,0-.07-.02-.13-.07-.18-.05-.05-.12-.1-.2-.14-.08-.04-.18-.09-.28-.14-.07-.03-.14-.07-.22-.11s-.15-.1-.22-.16-.13-.14-.17-.24c-.05-.09-.07-.21-.07-.34,0-.26,.09-.46,.26-.6,.17-.14,.41-.21,.71-.21,.15,0,.29,.02,.43,.05,.13,.03,.28,.08,.42,.15l-.2,.47c-.13-.05-.25-.09-.35-.12-.1-.03-.21-.04-.32-.04-.12,0-.2,.03-.26,.08-.06,.05-.09,.12-.09,.21,0,.1,.05,.18,.14,.24,.09,.06,.22,.13,.4,.22,.15,.07,.27,.14,.37,.22,.1,.07,.18,.16,.24,.26s.08,.23,.08,.38Z"/><path d="M139.14,101.37c0,.3-.05,.55-.15,.77-.1,.22-.25,.39-.45,.51-.2,.12-.46,.18-.77,.18s-.56-.06-.77-.18c-.2-.12-.35-.29-.45-.52-.1-.22-.15-.48-.15-.78s.05-.55,.15-.77,.25-.39,.45-.51,.46-.18,.77-.18,.56,.06,.76,.18c.2,.12,.35,.29,.45,.51,.1,.22,.15,.48,.15,.77Zm-2.08,0c0,.3,.06,.53,.17,.71,.11,.17,.3,.26,.55,.26s.44-.09,.56-.26c.11-.17,.17-.41,.17-.71s-.06-.54-.17-.71c-.11-.17-.3-.26-.55-.26s-.44,.09-.56,.26c-.11,.17-.17,.41-.17,.71Z"/><path d="M140.57,99.95c.39,0,.68,.07,.86,.21,.19,.14,.28,.36,.28,.64,0,.13-.02,.25-.07,.34-.05,.1-.11,.18-.2,.25-.08,.07-.17,.12-.26,.17l.84,1.24h-.67l-.68-1.1h-.32v1.1h-.6v-2.86h.83Zm-.04,.5h-.18v.77h.2c.2,0,.34-.03,.43-.1,.09-.07,.13-.17,.13-.3s-.05-.23-.14-.29c-.09-.06-.24-.09-.43-.09Z"/></g><g><path d="M207.51,34.1h-.6v-2.86h1.64v.5h-1.04v.74h.97v.5h-.97v1.13Z"/><path d="M209.11,34.1v-2.86h.6v2.36h1.16v.5h-1.76Z"/><path d="M212.44,34.1h-1.3v-.34l.35-.16v-1.85l-.35-.16v-.34h1.3v.34l-.35,.16v1.85l.35,.16v.34Z"/><path d="M214.01,32.5h1.13v1.48c-.15,.05-.3,.09-.47,.12-.16,.03-.34,.04-.55,.04-.43,0-.75-.13-.98-.38s-.34-.62-.34-1.1c0-.3,.06-.56,.17-.78s.28-.39,.51-.51,.49-.18,.81-.18c.15,0,.3,.02,.45,.05,.15,.03,.28,.07,.4,.13l-.2,.48c-.09-.04-.19-.08-.3-.11-.11-.03-.23-.04-.35-.04-.18,0-.33,.04-.46,.12-.13,.08-.23,.19-.3,.34-.07,.14-.11,.32-.11,.51,0,.19,.02,.35,.08,.5,.05,.14,.13,.26,.24,.34s.25,.12,.43,.12c.09,0,.16,0,.22-.01,.06,0,.12-.02,.17-.03v-.6h-.54v-.5Z"/><path d="M218.16,34.1h-.6v-1.23h-1.13v1.23h-.6v-2.86h.6v1.12h1.13v-1.12h.6v2.86Z"/><path d="M219.98,34.1h-.6v-2.35h-.78v-.5h2.16v.5h-.78v2.35Z"/><path d="M223.92,33.31c0,.25-.09,.46-.27,.61-.18,.15-.44,.23-.78,.23-.3,0-.57-.06-.81-.17v-.56c.14,.06,.28,.11,.42,.16,.14,.05,.29,.07,.43,.07s.25-.03,.32-.09c.06-.06,.09-.13,.09-.22,0-.07-.02-.13-.07-.18-.05-.05-.12-.1-.2-.14-.08-.04-.18-.09-.28-.14-.07-.03-.14-.07-.22-.11s-.15-.1-.22-.16-.13-.14-.17-.24c-.05-.09-.07-.21-.07-.34,0-.26,.09-.46,.26-.6,.17-.14,.41-.21,.71-.21,.15,0,.29,.02,.43,.05,.13,.03,.28,.08,.42,.15l-.2,.47c-.13-.05-.25-.09-.35-.12-.1-.03-.21-.04-.32-.04-.12,0-.2,.03-.26,.08-.06,.05-.09,.12-.09,.21,0,.1,.05,.18,.14,.24,.09,.06,.22,.13,.4,.22,.15,.07,.27,.14,.37,.22,.1,.07,.18,.16,.24,.26s.08,.23,.08,.38Z"/><path d="M226.09,34.1h-1.64v-2.86h1.64v.5h-1.04v.63h.97v.5h-.97v.74h1.04v.5Z"/><path d="M229.21,34.1h-.77l-1.24-2.16h-.02c0,.14,.01,.27,.02,.41s.01,.27,.02,.41v1.34h-.54v-2.86h.76l1.24,2.14h.01c0-.13,0-.27-.01-.4,0-.13-.01-.26-.02-.39v-1.35h.54v2.86Z"/><path d="M231.62,33.31c0,.25-.09,.46-.27,.61-.18,.15-.44,.23-.78,.23-.3,0-.57-.06-.81-.17v-.56c.14,.06,.28,.11,.42,.16,.14,.05,.29,.07,.43,.07s.25-.03,.32-.09c.06-.06,.09-.13,.09-.22,0-.07-.02-.13-.07-.18-.05-.05-.12-.1-.2-.14-.08-.04-.18-.09-.28-.14-.07-.03-.14-.07-.22-.11s-.15-.1-.22-.16-.13-.14-.17-.24c-.05-.09-.07-.21-.07-.34,0-.26,.09-.46,.26-.6,.17-.14,.41-.21,.71-.21,.15,0,.29,.02,.43,.05,.13,.03,.28,.08,.42,.15l-.2,.47c-.13-.05-.25-.09-.35-.12-.1-.03-.21-.04-.32-.04-.12,0-.2,.03-.26,.08-.06,.05-.09,.12-.09,.21,0,.1,.05,.18,.14,.24,.09,.06,.22,.13,.4,.22,.15,.07,.27,.14,.37,.22,.1,.07,.18,.16,.24,.26s.08,.23,.08,.38Z"/><path d="M234.73,32.67c0,.3-.05,.55-.15,.77-.1,.22-.25,.39-.45,.51-.2,.12-.46,.18-.77,.18s-.56-.06-.77-.18c-.2-.12-.35-.29-.45-.52-.1-.22-.15-.48-.15-.78s.05-.55,.15-.77,.25-.39,.45-.51,.46-.18,.77-.18,.56,.06,.76,.18c.2,.12,.35,.29,.45,.51,.1,.22,.15,.48,.15,.77Zm-2.08,0c0,.3,.06,.53,.17,.71,.11,.17,.3,.26,.55,.26s.44-.09,.56-.26c.11-.17,.17-.41,.17-.71s-.06-.54-.17-.71c-.11-.17-.3-.26-.55-.26s-.44,.09-.56,.26c-.11,.17-.17,.41-.17,.71Z"/><path d="M236.16,31.24c.39,0,.68,.07,.86,.21,.19,.14,.28,.36,.28,.64,0,.13-.02,.25-.07,.34-.05,.1-.11,.18-.2,.25-.08,.07-.17,.12-.26,.17l.84,1.24h-.67l-.68-1.1h-.32v1.1h-.6v-2.86h.83Zm-.04,.5h-.18v.77h.2c.2,0,.34-.03,.43-.1,.09-.07,.13-.17,.13-.3s-.05-.23-.14-.29c-.09-.06-.24-.09-.43-.09Z"/></g><g><polyline points="210.44 45.94 220.36 45.94 220.36 36.57" style="fill:none; stroke:#010101; stroke-miterlimit:10;"/><polygon points="211.17 48.43 206.85 45.94 211.17 43.44 211.17 48.43" style="fill:#010101;"/></g><g><polyline points="149.01 71.37 139.09 71.37 139.09 92.68" style="fill:none; stroke:#010101; stroke-miterlimit:10;"/><polygon points="148.28 68.87 152.6 71.37 148.28 73.86 148.28 68.87" style="fill:#010101;"/></g></g></g></g></svg>