<?xml version="1.0" encoding="UTF-8"?><svg id="expanded" xmlns="http://www.w3.org/2000/svg" viewBox="0 0 337.17 140.08"><g id="small_group"><g id="dtm_sm_group"><g id="dtm_chiller_fill_color"><path d="M.51,43.08H46.33V6.25l2.19-2.19h2.19V1.22l.64-.64h3.4l.54,.54v3.87h124.96V.98l.48-.48h3.29l.56,.56v3.93h125.01V1l.49-.49h3.35l.44,.44v1.87h1.95l1.57,1.57,.07,7.37s1.96,0,1.96,1.53V52.01h8.31v35.25h-8.31v.74h15.07v27.04h-15.07v11.85s.14,1.02-.95,1.02h-1.01v7.47l-1.69,1.69h-1.91v1.7l-.53,.53h-3.2l-.52-.52v-3.87h-124.98v3.9l-.55,.55h-3.29l-.59-.59v-3.85H55.31v4.07l-.6,.6h-3.24l-.78-.57v-3.17h-2.17l-2.19-2.19v-36.96H.5V43.08Z" style="fill:#999;"/></g><g id="dtm_unloader_fill_color"><path d="M319.53,115.04v11.85s.14,1.02-.94,1.02h-1.01v7.47l-1.68,1.7h-1.89v1.69l-.54,.54h-3.18l-.52-.52v-3.88h-38.04V4.99h38.02V1l.48-.49h3.33l.45,.44v1.88h1.94l1.56,1.57,.07,7.37s1.96,0,1.96,1.53V52.01h8.26v35.26h-8.26v.73h14.98v27.04h-14.98Z" style="fill:#999;"/></g><g id="inner_shaft_group"><polygon points="277.78 64.8 269.05 64.89 269.05 74.95 277.78 74.95 277.78 71.02 282.55 71.02 282.55 68.56 277.78 68.56 277.78 64.8" style="fill:#999;"/><polygon points="51.02 66.82 53.53 66.82 53.53 64.87 54.97 64.87 54.97 61.17 57.27 61.17 57.35 78.43 54.97 78.43 54.97 74.73 53.53 74.73 53.53 72.78 51.02 72.69 51.02 66.82" style="fill:#999;"/></g><g id="dtm_details"><line x1="309.6" y1="4.99" x2="309.63" y2="20.86" style="fill:none; stroke:#000; stroke-miterlimit:4.36;"/><rect x="276" y="20.25" width="37.31" height="5.63" style="fill:none; stroke:#000; stroke-miterlimit:4.36;"/><line x1="313.88" y1="137.07" x2="313.88" y2="2.83" style="fill:none; stroke:#000; stroke-miterlimit:4.36;"/><path d="M16.19,43.08v-1.34c0-.5,.49-.49,.49-.49h5.47s.49-.01,.49,.49c0,.65,0,1.34,0,1.34h-6.44Z" style="fill:none; stroke:#000; stroke-miterlimit:4.36;"/><path d="M16.19,96.82v1.34c0,.5,.49,.49,.49,.49h5.47s.49,.01,.49-.49c0-.65,0-1.34,0-1.34h-6.44Z" style="fill:none; stroke:#000; stroke-miterlimit:4.36;"/><polyline points="1.1 43.06 1.1 42.31 1.31 42.1 1.79 42.1 2 42.31 2 43.06" style="fill:none; stroke:#000; stroke-miterlimit:4.36;"/><polyline points="25.42 43.06 25.42 42.31 25.63 42.1 26.11 42.1 26.32 42.31 26.32 43.06" style="fill:none; stroke:#000; stroke-miterlimit:4.36;"/><line x1="50.72" y1="4.06" x2="50.72" y2="135.84" style="fill:none; stroke:#000; stroke-miterlimit:4.36;"/><polyline points="52.74 112.99 52.74 104.56 65.11 104.56" style="fill:none; stroke:#000; stroke-miterlimit:4.36;"/><path d="M286.56,58.65v-1.83s3.43-16.82,18.67-30.21h8.08v29.94l-23.49,8.35" style="fill:none; stroke:#000; stroke-miterlimit:4.36;"/><line x1="53" y1="106.64" x2="65.11" y2="106.64" style="fill:none; stroke:#000; stroke-miterlimit:4.36;"/><rect x="65.62" y="77.6" width="5.55" height="35.47" style="fill:none; stroke:#000; stroke-miterlimit:4.36;"/><rect x="86.62" y="79.67" width="5.55" height="26.75" style="fill:none; stroke:#000; stroke-miterlimit:4.36;"/><rect x="106.62" y="79.67" width="5.55" height="26.75" style="fill:none; stroke:#000; stroke-miterlimit:4.36;"/><rect x="127.62" y="77.6" width="5.55" height="35.47" style="fill:none; stroke:#000; stroke-miterlimit:4.36;"/><polyline points="196.17 104.49 196.17 113.07 190.62 113.07 190.62 77.6 196.17 77.6 196.17 104.49" style="fill:none; stroke:#000; stroke-miterlimit:4.36;"/><rect x="252.62" y="77.6" width="5.55" height="35.47" style="fill:none; stroke:#000; stroke-miterlimit:4.36;"/><rect x="50.72" y="113.07" width="221.51" height="5.63" style="fill:none; stroke:#000; stroke-miterlimit:4.36; stroke-width:1px;"/><rect x="50.72" y="115.48" width="221.51" height=".8" style="fill:none; stroke:#000; stroke-miterlimit:4.36; stroke-width:.5px;"/><rect x="276.35" y="113.07" width="37.53" height="5.63" style="fill:none; stroke:#000; stroke-miterlimit:4.36;"/><rect x="276.35" y="115.48" width="37.53" height=".8" style="fill:none; stroke:#000; stroke-miterlimit:4.36; stroke-width:.5px;"/><line x1="55.51" y1="118.58" x2="55.51" y2="113.16" style="fill:none; stroke:#000; stroke-miterlimit:4.36;"/><line x1="55.31" y1="134.91" x2="55.31" y2="118.7" style="fill:none; stroke:#000; stroke-miterlimit:4.36;"/><rect x="23.09" y="43.08" width="3.79" height="53.57" style="fill:none; stroke:#000; stroke-miterlimit:4.36;"/><line x1="24.9" y1="43.22" x2="24.9" y2="96.76" style="fill:none; stroke:#000; stroke-miterlimit:4.36;"/><line x1="24.78" y1="53.91" x2="23.09" y2="53.91" style="fill:none; stroke:#000; stroke-miterlimit:4.36;"/><line x1="23.14" y1="85.69" x2="24.99" y2="85.69" style="fill:none; stroke:#000; stroke-miterlimit:4.36;"/><line x1="44.74" y1="96.65" x2="44.74" y2="43.49" style="fill:none; stroke:#000; stroke-miterlimit:4.36;"/><line x1="46.33" y1="96.68" x2="46.33" y2="43.08" style="fill:none; stroke:#000; stroke-miterlimit:4.36;"/><rect x="39.37" y="43.08" width="5.37" height="1.7" style="fill:none; stroke:#000; stroke-miterlimit:4.36;"/><rect x="39.37" y="94.98" width="5.37" height="1.7" style="fill:none; stroke:#000; stroke-miterlimit:4.36;"/><rect x="50.92" y="66.82" width="2.61" height="5.96" style="fill:none; stroke:#000; stroke-miterlimit:4.36;"/><rect x="53.53" y="64.87" width="1.44" height="9.86" style="fill:none; stroke:#000; stroke-miterlimit:4.36;"/><rect x="54.97" y="61.17" width="2.19" height="17.26" style="fill:none; stroke:#000; stroke-miterlimit:4.36;"/><line x1="252.74" y1="79.67" x2="196.12" y2="79.67" style="fill:none; stroke:#000; stroke-miterlimit:4.36;"/><polyline points="65.62 79.67 57.37 79.67 57.37 59.94 269.05 59.94 269.05 79.67 258.17 79.67" style="fill:none; stroke:#000; stroke-miterlimit:4.36;"/><line x1="127.58" y1="79.67" x2="71.17" y2="79.67" style="fill:none; stroke:#000; stroke-miterlimit:4.36;"/><line x1="190.62" y1="79.67" x2="133.17" y2="79.67" style="fill:none; stroke:#000; stroke-miterlimit:4.36;"/><line x1="269.05" y1="25.88" x2="269.05" y2="112.86" style="fill:none; stroke:#000; stroke-miterlimit:4.36;"/><polyline points="276 74.95 277.78 74.95 277.78 64.8 276 64.8" style="fill:none; stroke:#000; stroke-miterlimit:4.36;"/><polyline points="272.23 64.8 269.49 64.8 269.49 74.95 272.23 74.95" style="fill:none; stroke:#000; stroke-miterlimit:4.36;"/><rect x="277.78" y="68.56" width="4.77" height="2.46" style="fill:none; stroke:#000; stroke-miterlimit:4.36;"/><rect x="296.24" y="68.57" width="17.64" height="2.46" style="fill:none; stroke:#000; stroke-miterlimit:4.36; stroke-width:1px;"/><polyline points="296.24 64.11 296.24 76.25 282.68 76.25 282.68 63.8 285.74 63.8" style="fill:none; stroke:#000; stroke-miterlimit:4.36;"/><line x1="289.53" y1="63.8" x2="292.88" y2="63.8" style="fill:none; stroke:#000; stroke-miterlimit:4.36;"/><path d="M285.66,65.28v5.23s.1,1.22,1.93,1.22,1.93-1.22,1.93-1.22l.04-4.79" style="fill:none; stroke:#000; stroke-miterlimit:4.36;"/><circle cx="293.37" cy="72.53" r=".6"/><circle cx="293.37" cy="66.53" r=".6"/><circle cx="285.37" cy="72.53" r=".6"/><circle cx="285.37" cy="66.53" r=".6"/><line x1="71.32" y1="106.41" x2="127.68" y2="106.41" style="fill:none; stroke:#000; stroke-miterlimit:4.36;"/><line x1="133.17" y1="106.32" x2="190.57" y2="106.32" style="fill:none; stroke:#000; stroke-miterlimit:4.36;"/><line x1="196.17" y1="106.32" x2="252.74" y2="106.32" style="fill:none; stroke:#000; stroke-miterlimit:4.36;"/><line x1="258.17" y1="106.39" x2="269.11" y2="106.39" style="fill:none; stroke:#000; stroke-miterlimit:4.36;"/><line x1="86.62" y1="104.64" x2="71.43" y2="104.64" style="fill:none; stroke:#000; stroke-miterlimit:4.36;"/><line x1="106.76" y1="104.64" x2="92.37" y2="104.64" style="fill:none; stroke:#000; stroke-miterlimit:4.36;"/><line x1="127.62" y1="104.64" x2="112.17" y2="104.64" style="fill:none; stroke:#000; stroke-miterlimit:4.36;"/><line x1="148.68" y1="104.64" x2="133.17" y2="104.64" style="fill:none; stroke:#000; stroke-miterlimit:4.36;"/><path d="M289.61,65.42s.03,1.44-1.98,1.44-1.98-1.44-1.98-1.44v-6.76h3.96v6.76Z" style="fill:none; stroke:#000; stroke-miterlimit:4.36;"/><line x1="169.37" y1="104.64" x2="154.84" y2="104.64" style="fill:none; stroke:#000; stroke-miterlimit:4.36;"/><line x1="190.62" y1="104.64" x2="175.67" y2="104.64" style="fill:none; stroke:#000; stroke-miterlimit:4.36;"/><line x1="211.02" y1="104.64" x2="196.28" y2="104.64" style="fill:none; stroke:#000; stroke-miterlimit:4.36;"/><line x1="231.71" y1="104.64" x2="217.28" y2="104.64" style="fill:none; stroke:#000; stroke-miterlimit:4.36;"/><line x1="252.74" y1="104.64" x2="238.15" y2="104.64" style="fill:none; stroke:#000; stroke-miterlimit:4.36;"/><line x1="269.11" y1="104.64" x2="258.17" y2="104.64" style="fill:none; stroke:#000; stroke-miterlimit:4.36;"/><line x1="140.94" y1="112.99" x2="140.94" y2="106.64" style="fill:none; stroke:#000; stroke-miterlimit:4.36;"/><line x1="148.55" y1="79.87" x2="148.55" y2="106.41" style="fill:none; stroke:#000; stroke-miterlimit:4.36;"/><line x1="154.84" y1="79.87" x2="154.84" y2="104.64" style="fill:none; stroke:#000; stroke-miterlimit:4.36;"/><rect x="169.51" y="79.67" width="6.16" height="26.55" style="fill:none; stroke:#000; stroke-miterlimit:4.36;"/><line x1="159.63" y1="112.93" x2="170.75" y2="101.5" style="fill:none; stroke:#000; stroke-miterlimit:4.36;"/><line x1="154.92" y1="84.7" x2="169.37" y2="99.12" style="fill:none; stroke:#000; stroke-miterlimit:4.36;"/><line x1="180.22" y1="134.91" x2="180.22" y2="118.7" style="fill:none; stroke:#000; stroke-miterlimit:4.36;"/><line x1="184.64" y1="134.91" x2="184.64" y2="118.7" style="fill:none; stroke:#000; stroke-miterlimit:4.36;"/><line x1="211.02" y1="79.87" x2="211.02" y2="106.22" style="fill:none; stroke:#000; stroke-miterlimit:4.36;"/><line x1="217.46" y1="79.87" x2="217.46" y2="106.22" style="fill:none; stroke:#000; stroke-miterlimit:4.36;"/><line x1="201.81" y1="106.22" x2="201.81" y2="34.04" style="fill:none; stroke:#000; stroke-linecap:round; stroke-miterlimit:4.36;"/><line x1="201.88" y1="93.51" x2="215.44" y2="76.67" style="fill:none; stroke:#000; stroke-linecap:round; stroke-miterlimit:4.36;"/><line x1="202.01" y1="46.52" x2="212.82" y2="59.74" style="fill:none; stroke:#000; stroke-linecap:round; stroke-miterlimit:4.36;"/><rect x="231.71" y="79.67" width="6.44" height="26.83" style="fill:none; stroke:#000; stroke-miterlimit:4.36;"/><polyline points="154.84 112.99 154.84 106.39 154.84 104.64" style="fill:none; stroke:#000; stroke-miterlimit:4.36;"/><rect x="272.23" y="20.25" width="3.76" height="98.38" style="fill:none; stroke:#000; stroke-miterlimit:4.36;"/><line x1="180.26" y1="4.99" x2="180.26" y2="20.63" style="fill:none; stroke:#000; stroke-miterlimit:4.36;"/><line x1="184.59" y1="4.99" x2="184.59" y2="20.63" style="fill:none; stroke:#000; stroke-miterlimit:4.36;"/><rect x="50.82" y="20.25" width="221.41" height="5.63" style="fill:none; stroke:#000; stroke-miterlimit:4.36; stroke-width:1px;"/><rect x="50.82" y="22.66" width="221.41" height=".8" style="fill:none; stroke:#000; stroke-miterlimit:4.36; stroke-width:.5px;"/><rect x="276" y="22.66" width="37.58" height=".8" style="fill:none; stroke:#000; stroke-miterlimit:4.36; stroke-width:.5px;"/><line x1="55.3" y1="4.99" x2="55.3" y2="20.25" style="fill:none; stroke:#000; stroke-miterlimit:4.36;"/><line x1="55.3" y1="23.07" x2="55.3" y2="25.88" style="fill:none; stroke:#000; stroke-miterlimit:4.36;"/><line x1="33.73" y1="41.03" x2="33.73" y2="42.78" style="fill:none; stroke:#000; stroke-linecap:round; stroke-miterlimit:4.36;"/><line x1="4.25" y1="58.29" x2="10.65" y2="58.29" style="fill:none; stroke:#000; stroke-linecap:round; stroke-miterlimit:4.36;"/><line x1="4.25" y1="81.29" x2="10.65" y2="81.29" style="fill:none; stroke:#000; stroke-linecap:round; stroke-miterlimit:4.36;"/><line x1="33.73" y1="98.57" x2="33.73" y2="96.94" style="fill:none; stroke:#000; stroke-linecap:round; stroke-miterlimit:4.36;"/><line x1="329.67" y1="82.61" x2="327.94" y2="82.63" style="fill:none; stroke:#000; stroke-linecap:round; stroke-miterlimit:4.36;"/><line x1="336.67" y1="90.61" x2="334.94" y2="90.63" style="fill:none; stroke:#000; stroke-linecap:round; stroke-miterlimit:4.36;"/><line x1="336.67" y1="100.61" x2="334.94" y2="100.63" style="fill:none; stroke:#000; stroke-linecap:round; stroke-miterlimit:4.36;"/><line x1="336.67" y1="111.61" x2="334.94" y2="111.63" style="fill:none; stroke:#000; stroke-linecap:round; stroke-miterlimit:4.36;"/><line x1="329.67" y1="55.61" x2="327.94" y2="55.63" style="fill:none; stroke:#000; stroke-linecap:round; stroke-miterlimit:4.36;"/><line x1="289.57" y1="67.18" x2="313.31" y2="56.55" style="fill:none; stroke:#000; stroke-linecap:round; stroke-miterlimit:4.36; stroke-width:.5px;"/><line x1="296.24" y1="74.55" x2="282.68" y2="74.55" style="fill:none; stroke:#000; stroke-miterlimit:4.36;"/><line x1="317.48" y1="11.77" x2="313.99" y2="11.77" style="fill:none; stroke:#000; stroke-miterlimit:4.36;"/><line x1="319.44" y1="52.01" x2="319.44" y2="115.04" style="fill:none; stroke:#000; stroke-miterlimit:4.36;"/><line x1="317.48" y1="127.91" x2="313.88" y2="127.91" style="fill:none; stroke:#000; stroke-miterlimit:4.36;"/><line x1="309.63" y1="134.91" x2="309.63" y2="118.79" style="fill:none; stroke:#000; stroke-miterlimit:4.36;"/><line x1="285.65" y1="112.99" x2="285.65" y2="76.1" style="fill:none; stroke:#000; stroke-miterlimit:4.36;"/><path d="M281.41,112.99c0-3.27-1.25-8.71,4.28-8.71" style="fill:none; stroke:#000; stroke-miterlimit:4.36;"/><line x1="289.47" y1="112.99" x2="289.46" y2="76.36" style="fill:none; stroke:#000; stroke-miterlimit:4.36;"/><line x1="313.4" y1="108.82" x2="289.57" y2="108.19" style="fill:none; stroke:#000; stroke-miterlimit:4.36;"/><line x1="308.26" y1="112.99" x2="313.4" y2="108.82" style="fill:none; stroke:#000; stroke-miterlimit:4.36;"/><path d="M300.61,108.46s-9.06-10.59-11.04-16.28" style="fill:none; stroke:#000; stroke-miterlimit:4.36; stroke-width:.5px;"/><line x1="295.81" y1="100.33" x2="300.07" y2="102.06" style="fill:none; stroke:#000; stroke-linecap:round; stroke-miterlimit:4.36;"/><line x1="295.81" y1="98.33" x2="300.07" y2="100.06" style="fill:none; stroke:#000; stroke-linecap:round; stroke-miterlimit:4.36;"/><line x1="295.81" y1="96.33" x2="300.07" y2="98.06" style="fill:none; stroke:#000; stroke-linecap:round; stroke-miterlimit:4.36;"/><line x1="295.81" y1="94.33" x2="300.07" y2="96.06" style="fill:none; stroke:#000; stroke-linecap:round; stroke-miterlimit:4.36;"/><line x1="295.81" y1="92.33" x2="300.07" y2="94.06" style="fill:none; stroke:#000; stroke-linecap:round; stroke-miterlimit:4.36;"/><line x1="295.81" y1="90.33" x2="300.07" y2="92.06" style="fill:none; stroke:#000; stroke-linecap:round; stroke-miterlimit:4.36;"/><line x1="295.81" y1="88.33" x2="300.07" y2="90.06" style="fill:none; stroke:#000; stroke-linecap:round; stroke-miterlimit:4.36;"/><line x1="295.81" y1="86.33" x2="300.07" y2="88.06" style="fill:none; stroke:#000; stroke-linecap:round; stroke-miterlimit:4.36;"/><line x1="295.81" y1="84.33" x2="300.07" y2="86.06" style="fill:none; stroke:#000; stroke-linecap:round; stroke-miterlimit:4.36;"/><line x1="295.81" y1="82.33" x2="300.07" y2="84.06" style="fill:none; stroke:#000; stroke-linecap:round; stroke-miterlimit:4.36;"/><line x1="295.81" y1="80.33" x2="300.07" y2="82.06" style="fill:none; stroke:#000; stroke-linecap:round; stroke-miterlimit:4.36;"/><line x1="295.81" y1="78.33" x2="300.07" y2="80.06" style="fill:none; stroke:#000; stroke-linecap:round; stroke-miterlimit:4.36;"/><line x1="301.81" y1="100.33" x2="306.07" y2="102.06" style="fill:none; stroke:#000; stroke-linecap:round; stroke-miterlimit:4.36;"/><line x1="301.81" y1="102.33" x2="306.07" y2="104.06" style="fill:none; stroke:#000; stroke-linecap:round; stroke-miterlimit:4.36;"/><line x1="301.81" y1="104.33" x2="306.07" y2="106.06" style="fill:none; stroke:#000; stroke-linecap:round; stroke-miterlimit:4.36;"/><line x1="301.81" y1="106.33" x2="306.07" y2="108.06" style="fill:none; stroke:#000; stroke-linecap:round; stroke-miterlimit:4.36;"/><line x1="301.81" y1="98.33" x2="306.07" y2="100.06" style="fill:none; stroke:#000; stroke-linecap:round; stroke-miterlimit:4.36;"/><line x1="301.81" y1="96.33" x2="306.07" y2="98.06" style="fill:none; stroke:#000; stroke-linecap:round; stroke-miterlimit:4.36;"/><line x1="301.81" y1="94.33" x2="306.07" y2="96.06" style="fill:none; stroke:#000; stroke-linecap:round; stroke-miterlimit:4.36;"/><line x1="301.81" y1="92.33" x2="306.07" y2="94.06" style="fill:none; stroke:#000; stroke-linecap:round; stroke-miterlimit:4.36;"/><line x1="301.81" y1="90.33" x2="306.07" y2="92.06" style="fill:none; stroke:#000; stroke-linecap:round; stroke-miterlimit:4.36;"/><line x1="301.81" y1="88.33" x2="306.07" y2="90.06" style="fill:none; stroke:#000; stroke-linecap:round; stroke-miterlimit:4.36;"/><line x1="301.81" y1="86.33" x2="306.07" y2="88.06" style="fill:none; stroke:#000; stroke-linecap:round; stroke-miterlimit:4.36;"/><line x1="301.81" y1="84.33" x2="306.07" y2="86.06" style="fill:none; stroke:#000; stroke-linecap:round; stroke-miterlimit:4.36;"/><line x1="301.81" y1="82.33" x2="306.07" y2="84.06" style="fill:none; stroke:#000; stroke-linecap:round; stroke-miterlimit:4.36;"/><line x1="301.81" y1="80.33" x2="306.07" y2="82.06" style="fill:none; stroke:#000; stroke-linecap:round; stroke-miterlimit:4.36;"/><line x1="307.81" y1="100.33" x2="312.07" y2="102.06" style="fill:none; stroke:#000; stroke-linecap:round; stroke-miterlimit:4.36;"/><line x1="307.81" y1="102.33" x2="312.07" y2="104.06" style="fill:none; stroke:#000; stroke-linecap:round; stroke-miterlimit:4.36;"/><line x1="307.81" y1="104.33" x2="312.07" y2="106.06" style="fill:none; stroke:#000; stroke-linecap:round; stroke-miterlimit:4.36;"/><line x1="307.81" y1="98.33" x2="312.07" y2="100.06" style="fill:none; stroke:#000; stroke-linecap:round; stroke-miterlimit:4.36;"/><line x1="307.81" y1="96.33" x2="312.07" y2="98.06" style="fill:none; stroke:#000; stroke-linecap:round; stroke-miterlimit:4.36;"/><line x1="307.81" y1="94.33" x2="312.07" y2="96.06" style="fill:none; stroke:#000; stroke-linecap:round; stroke-miterlimit:4.36;"/><line x1="307.81" y1="92.33" x2="312.07" y2="94.06" style="fill:none; stroke:#000; stroke-linecap:round; stroke-miterlimit:4.36;"/><line x1="307.81" y1="90.33" x2="312.07" y2="92.06" style="fill:none; stroke:#000; stroke-linecap:round; stroke-miterlimit:4.36;"/><line x1="307.81" y1="88.33" x2="312.07" y2="90.06" style="fill:none; stroke:#000; stroke-linecap:round; stroke-miterlimit:4.36;"/><line x1="307.81" y1="86.33" x2="312.07" y2="88.06" style="fill:none; stroke:#000; stroke-linecap:round; stroke-miterlimit:4.36;"/><line x1="307.81" y1="84.33" x2="312.07" y2="86.06" style="fill:none; stroke:#000; stroke-linecap:round; stroke-miterlimit:4.36;"/><line x1="307.81" y1="82.33" x2="312.07" y2="84.06" style="fill:none; stroke:#000; stroke-linecap:round; stroke-miterlimit:4.36;"/><polyline points="294.19 76.27 313.79 83.47 296.52 75.83" style="fill:none; stroke:#000; stroke-miterlimit:4.36; stroke-width:.5px;"/><line x1="285.69" y1="58.65" x2="285.69" y2="35.37" style="fill:none; stroke:#000; stroke-miterlimit:4.36;"/><path d="M287.28,26.14v9.45s-2.06-.25-3.14-.46-3.42-.55-2.34-9.19" style="fill:none; stroke:#000; stroke-miterlimit:4.36;"/><line x1="289.55" y1="25.82" x2="289.55" y2="48.23" style="fill:none; stroke:#000; stroke-miterlimit:4.36;"/><line x1="289.53" y1="31.46" x2="300.21" y2="31.15" style="fill:none; stroke:#000; stroke-miterlimit:4.36;"/><line x1="295.94" y1="61.2" x2="300.25" y2="59.74" style="fill:none; stroke:#000; stroke-linecap:round; stroke-miterlimit:4.36;"/><line x1="295.94" y1="59.2" x2="300.25" y2="57.74" style="fill:none; stroke:#000; stroke-linecap:round; stroke-miterlimit:4.36;"/><line x1="295.94" y1="57.2" x2="300.25" y2="55.74" style="fill:none; stroke:#000; stroke-linecap:round; stroke-miterlimit:4.36;"/><line x1="295.94" y1="55.2" x2="300.25" y2="53.74" style="fill:none; stroke:#000; stroke-linecap:round; stroke-miterlimit:4.36;"/><line x1="295.94" y1="53.2" x2="300.25" y2="51.74" style="fill:none; stroke:#000; stroke-linecap:round; stroke-miterlimit:4.36;"/><line x1="295.94" y1="51.2" x2="300.25" y2="49.74" style="fill:none; stroke:#000; stroke-linecap:round; stroke-miterlimit:4.36;"/><line x1="295.94" y1="49.2" x2="300.25" y2="47.74" style="fill:none; stroke:#000; stroke-linecap:round; stroke-miterlimit:4.36;"/><line x1="295.94" y1="47.2" x2="300.25" y2="45.74" style="fill:none; stroke:#000; stroke-linecap:round; stroke-miterlimit:4.36;"/><line x1="295.94" y1="45.2" x2="300.25" y2="43.74" style="fill:none; stroke:#000; stroke-linecap:round; stroke-miterlimit:4.36;"/><line x1="295.94" y1="43.2" x2="300.25" y2="41.74" style="fill:none; stroke:#000; stroke-linecap:round; stroke-miterlimit:4.36;"/><line x1="295.94" y1="41.2" x2="300.25" y2="39.74" style="fill:none; stroke:#000; stroke-linecap:round; stroke-miterlimit:4.36;"/><line x1="295.94" y1="39.2" x2="300.25" y2="37.74" style="fill:none; stroke:#000; stroke-linecap:round; stroke-miterlimit:4.36;"/><line x1="301.94" y1="59.2" x2="306.25" y2="57.74" style="fill:none; stroke:#000; stroke-linecap:round; stroke-miterlimit:4.36;"/><line x1="301.94" y1="57.2" x2="306.25" y2="55.74" style="fill:none; stroke:#000; stroke-linecap:round; stroke-miterlimit:4.36;"/><line x1="301.94" y1="55.2" x2="306.25" y2="53.74" style="fill:none; stroke:#000; stroke-linecap:round; stroke-miterlimit:4.36;"/><line x1="301.94" y1="53.2" x2="306.25" y2="51.74" style="fill:none; stroke:#000; stroke-linecap:round; stroke-miterlimit:4.36;"/><line x1="301.94" y1="51.2" x2="306.25" y2="49.74" style="fill:none; stroke:#000; stroke-linecap:round; stroke-miterlimit:4.36;"/><line x1="301.94" y1="49.2" x2="306.25" y2="47.74" style="fill:none; stroke:#000; stroke-linecap:round; stroke-miterlimit:4.36;"/><line x1="301.94" y1="47.2" x2="306.25" y2="45.74" style="fill:none; stroke:#000; stroke-linecap:round; stroke-miterlimit:4.36;"/><line x1="301.94" y1="45.2" x2="306.25" y2="43.74" style="fill:none; stroke:#000; stroke-linecap:round; stroke-miterlimit:4.36;"/><line x1="301.94" y1="43.2" x2="306.25" y2="41.74" style="fill:none; stroke:#000; stroke-linecap:round; stroke-miterlimit:4.36;"/><line x1="301.94" y1="41.2" x2="306.25" y2="39.74" style="fill:none; stroke:#000; stroke-linecap:round; stroke-miterlimit:4.36;"/><line x1="301.94" y1="39.2" x2="306.25" y2="37.74" style="fill:none; stroke:#000; stroke-linecap:round; stroke-miterlimit:4.36;"/><line x1="301.94" y1="37.2" x2="306.25" y2="35.74" style="fill:none; stroke:#000; stroke-linecap:round; stroke-miterlimit:4.36;"/><line x1="301.94" y1="35.2" x2="306.25" y2="33.74" style="fill:none; stroke:#000; stroke-linecap:round; stroke-miterlimit:4.36;"/><line x1="301.94" y1="33.2" x2="306.25" y2="31.74" style="fill:none; stroke:#000; stroke-linecap:round; stroke-miterlimit:4.36;"/><line x1="301.94" y1="31.2" x2="306.25" y2="29.74" style="fill:none; stroke:#000; stroke-linecap:round; stroke-miterlimit:4.36;"/><line x1="307.94" y1="57.2" x2="312.25" y2="55.74" style="fill:none; stroke:#000; stroke-linecap:round; stroke-miterlimit:4.36;"/><line x1="307.94" y1="55.2" x2="312.25" y2="53.74" style="fill:none; stroke:#000; stroke-linecap:round; stroke-miterlimit:4.36;"/><line x1="307.94" y1="53.2" x2="312.25" y2="51.74" style="fill:none; stroke:#000; stroke-linecap:round; stroke-miterlimit:4.36;"/><line x1="307.94" y1="51.2" x2="312.25" y2="49.74" style="fill:none; stroke:#000; stroke-linecap:round; stroke-miterlimit:4.36;"/><line x1="307.94" y1="49.2" x2="312.25" y2="47.74" style="fill:none; stroke:#000; stroke-linecap:round; stroke-miterlimit:4.36;"/><line x1="307.94" y1="47.2" x2="312.25" y2="45.74" style="fill:none; stroke:#000; stroke-linecap:round; stroke-miterlimit:4.36;"/><line x1="307.94" y1="45.2" x2="312.25" y2="43.74" style="fill:none; stroke:#000; stroke-linecap:round; stroke-miterlimit:4.36;"/><line x1="307.94" y1="43.2" x2="312.25" y2="41.74" style="fill:none; stroke:#000; stroke-linecap:round; stroke-miterlimit:4.36;"/><line x1="307.94" y1="41.2" x2="312.25" y2="39.74" style="fill:none; stroke:#000; stroke-linecap:round; stroke-miterlimit:4.36;"/><line x1="307.94" y1="39.2" x2="312.25" y2="37.74" style="fill:none; stroke:#000; stroke-linecap:round; stroke-miterlimit:4.36;"/><line x1="307.94" y1="37.2" x2="312.25" y2="35.74" style="fill:none; stroke:#000; stroke-linecap:round; stroke-miterlimit:4.36;"/><line x1="307.94" y1="35.2" x2="312.25" y2="33.74" style="fill:none; stroke:#000; stroke-linecap:round; stroke-miterlimit:4.36;"/><line x1="307.94" y1="33.2" x2="312.25" y2="31.74" style="fill:none; stroke:#000; stroke-linecap:round; stroke-miterlimit:4.36;"/><line x1="307.94" y1="31.2" x2="312.25" y2="29.74" style="fill:none; stroke:#000; stroke-linecap:round; stroke-miterlimit:4.36;"/><line x1="307.94" y1="29.2" x2="312.25" y2="27.74" style="fill:none; stroke:#000; stroke-linecap:round; stroke-miterlimit:4.36;"/><line x1="237.94" y1="113.16" x2="237.94" y2="106.5" style="fill:none; stroke:#000; stroke-linecap:round; stroke-miterlimit:4.36;"/><line x1="289.41" y1="99.07" x2="292.08" y2="98.48" style="fill:none; stroke:#000; stroke-linejoin:round; stroke-width:.5px;"/><line x1="292.69" y1="106.09" x2="295.8" y2="104.01" style="fill:none; stroke:#000; stroke-linejoin:round; stroke-width:.5px;"/><line x1="289.33" y1="105.68" x2="297.67" y2="106.57" style="fill:none; stroke:#000; stroke-linejoin:round; stroke-width:.5px;"/><path d="M289.41,93.04s2.44,6.6,8.35,13.5c0,0,.19,.51,1.91,1.96" style="fill:none; stroke:#000; stroke-linejoin:round; stroke-width:.5px;"/></g><g id="dtm_chiller_outline"><path d="M.51,43.08H46.33V6.25l2.19-2.19h2.19V1.22l.64-.64h3.4l.54,.54v3.87h124.96V.98l.48-.48h3.29l.56,.56v3.93h125.01V1l.49-.49h3.35l.44,.44v1.87h1.95l1.57,1.57,.07,7.37s1.96,0,1.96,1.53V52.01h8.31v35.25h-8.31v.74h15.07v27.04h-15.07v11.85s.14,1.02-.95,1.02h-1.01v7.47l-1.69,1.69h-1.91v1.7l-.53,.53h-3.2l-.52-.52v-3.87h-124.98v3.9l-.55,.55h-3.29l-.59-.59v-3.85H55.31v4.07l-.6,.6h-3.24l-.78-.57v-3.17h-2.17l-2.19-2.19v-36.96H.5V43.08Z" style="fill:none; stroke:#000;"/></g><g id="dtm_sensor_group"><g><rect x="314.39" y="37.67" width="4.85" height="4.85" style="fill:#999; stroke:#000; stroke-width:.5px;"/><circle cx="316.81" cy="40.1" r="1.48" style="fill:#999; stroke:#000; stroke-width:.5px;"/></g><g><rect x="324.12" y="68.33" width="5.24" height="3.25" style="fill:#999; stroke:#000;"/><circle cx="322.43" cy="69.95" r="2.78" style="fill:#999; stroke:#000;"/></g><g><rect x="36.62" y="68.33" width="5.24" height="3.25" style="fill:#999; stroke:#000;"/><circle cx="43.56" cy="69.95" r="2.78" style="fill:#999; stroke:#000;"/></g></g></g></g></svg>