<?xml version="1.0" encoding="UTF-8"?><svg id="expanded" xmlns="http://www.w3.org/2000/svg" viewBox="0 0 355.18 126.32"><g id="large_group"><g id="mat_lg_group"><polygon points="289.04 122.16 315.94 122.16 315.94 125.08 318.97 125.08 318.97 123.72 320.48 123.72 321.99 122.21 321.99 99.79 332.71 99.79 332.71 81.71 330.48 81.71 330.48 58.07 321.89 58.07 321.89 17.64 320.43 16.19 318.84 16.19 318.84 14.76 315.9 14.76 315.9 17.64 289.08 17.64 289.04 122.16" style="fill:#999;"/><polygon points="289.04 122.16 289.04 123.41 41.87 123.41 41.87 125.82 38.8 125.82 38.8 125.09 35.29 125.09 35.29 122.93 34.29 121.94 34.29 113.18 .5 113.18 .5 54.75 34.2 54.75 34.19 39.2 27.83 39.2 27.17 38.09 27.17 27.5 28.04 26.63 34.19 26.63 34.19 18.91 35.67 17.66 35.67 14.76 38.16 14.76 38.16 16.3 45.32 16.3 45.32 8.91 77.49 8.91 77.49 16.43 114.24 16.43 114.24 3.38 173.82 3.38 173.82 16.42 176.97 16.42 176.97 14.77 179.89 14.77 179.89 16.42 197.75 16.42 197.75 .5 244.12 .5 244.12 16.32 247.17 16.32 247.17 14.76 250.02 14.76 250.02 16.32 289.08 16.32 289.08 17.64 289.08 25.05 290.58 25.05 290.58 120.43 290.58 122.16 289.04 122.16" style="fill:#999; stroke:#000;"/><polygon points="294.97 65.27 286.24 65.36 286.24 75.41 294.97 75.41 294.97 71.49 297.23 71.49 297.23 69.03 294.97 69.03 294.97 65.27" style="fill:#999; stroke:#000;"/><polygon points="35.7 67.29 37.53 67.29 37.53 65.33 38.73 65.33 38.73 62.65 41.81 62.65 41.9 77.22 38.73 77.22 38.73 75.2 37.53 75.2 37.53 73.25 35.67 73.24 35.7 67.29" style="fill:#999; stroke:#000;"/><g><path d="M302.2,42.38c2.35-4.29,5.49-8.59,9.67-12.83h7.04l-.07,29.64-12.25,5.05" style="fill:none; stroke:#000; stroke-miterlimit:4.36; stroke-width:.93px;"/><path d="M297.23,62.93l-1.47-3.47s.8-4.58,3.44-10.86" style="fill:none; stroke:#000; stroke-miterlimit:4.36; stroke-width:.93px;"/><line x1="308.21" y1="64.83" x2="318.83" y2="59.19" style="fill:none; stroke:#000; stroke-linecap:round; stroke-miterlimit:4.36; stroke-width:.46px;"/><line x1="303.85" y1="61.84" x2="307.57" y2="60.38" style="fill:none; stroke:#000; stroke-linecap:round; stroke-miterlimit:4.36; stroke-width:.93px;"/><line x1="303.85" y1="59.84" x2="307.57" y2="58.38" style="fill:none; stroke:#000; stroke-linecap:round; stroke-miterlimit:4.36; stroke-width:.93px;"/><line x1="303.85" y1="57.84" x2="307.57" y2="56.38" style="fill:none; stroke:#000; stroke-linecap:round; stroke-miterlimit:4.36; stroke-width:.93px;"/><line x1="303.85" y1="55.84" x2="307.57" y2="54.38" style="fill:none; stroke:#000; stroke-linecap:round; stroke-miterlimit:4.36; stroke-width:.93px;"/><line x1="303.85" y1="53.84" x2="307.57" y2="52.38" style="fill:none; stroke:#000; stroke-linecap:round; stroke-miterlimit:4.36; stroke-width:.93px;"/><line x1="303.85" y1="51.84" x2="307.57" y2="50.38" style="fill:none; stroke:#000; stroke-linecap:round; stroke-miterlimit:4.36; stroke-width:.93px;"/><line x1="303.85" y1="49.84" x2="307.57" y2="48.38" style="fill:none; stroke:#000; stroke-linecap:round; stroke-miterlimit:4.36; stroke-width:.93px;"/><line x1="303.85" y1="47.84" x2="307.57" y2="46.38" style="fill:none; stroke:#000; stroke-linecap:round; stroke-miterlimit:4.36; stroke-width:.93px;"/><line x1="303.85" y1="45.84" x2="307.57" y2="44.38" style="fill:none; stroke:#000; stroke-linecap:round; stroke-miterlimit:4.36; stroke-width:.93px;"/><line x1="303.85" y1="43.84" x2="307.57" y2="42.38" style="fill:none; stroke:#000; stroke-linecap:round; stroke-miterlimit:4.36; stroke-width:.93px;"/><line x1="303.85" y1="41.84" x2="307.57" y2="40.38" style="fill:none; stroke:#000; stroke-linecap:round; stroke-miterlimit:4.36; stroke-width:.93px;"/><line x1="309.03" y1="61.84" x2="312.75" y2="60.38" style="fill:none; stroke:#000; stroke-linecap:round; stroke-miterlimit:4.36; stroke-width:.93px;"/><line x1="309.03" y1="59.84" x2="312.75" y2="58.38" style="fill:none; stroke:#000; stroke-linecap:round; stroke-miterlimit:4.36; stroke-width:.93px;"/><line x1="309.03" y1="57.84" x2="312.75" y2="56.38" style="fill:none; stroke:#000; stroke-linecap:round; stroke-miterlimit:4.36; stroke-width:.93px;"/><line x1="309.03" y1="55.84" x2="312.75" y2="54.38" style="fill:none; stroke:#000; stroke-linecap:round; stroke-miterlimit:4.36; stroke-width:.93px;"/><line x1="309.03" y1="53.84" x2="312.75" y2="52.38" style="fill:none; stroke:#000; stroke-linecap:round; stroke-miterlimit:4.36; stroke-width:.93px;"/><line x1="309.03" y1="51.84" x2="312.75" y2="50.38" style="fill:none; stroke:#000; stroke-linecap:round; stroke-miterlimit:4.36; stroke-width:.93px;"/><line x1="309.03" y1="49.84" x2="312.75" y2="48.38" style="fill:none; stroke:#000; stroke-linecap:round; stroke-miterlimit:4.36; stroke-width:.93px;"/><line x1="309.03" y1="47.84" x2="312.75" y2="46.38" style="fill:none; stroke:#000; stroke-linecap:round; stroke-miterlimit:4.36; stroke-width:.93px;"/><line x1="309.03" y1="45.84" x2="312.75" y2="44.38" style="fill:none; stroke:#000; stroke-linecap:round; stroke-miterlimit:4.36; stroke-width:.93px;"/><line x1="309.03" y1="43.84" x2="312.75" y2="42.38" style="fill:none; stroke:#000; stroke-linecap:round; stroke-miterlimit:4.36; stroke-width:.93px;"/><line x1="309.03" y1="41.84" x2="312.75" y2="40.38" style="fill:none; stroke:#000; stroke-linecap:round; stroke-miterlimit:4.36; stroke-width:.93px;"/><line x1="309.03" y1="39.84" x2="312.75" y2="38.38" style="fill:none; stroke:#000; stroke-linecap:round; stroke-miterlimit:4.36; stroke-width:.93px;"/><line x1="309.03" y1="37.84" x2="312.75" y2="36.38" style="fill:none; stroke:#000; stroke-linecap:round; stroke-miterlimit:4.36; stroke-width:.93px;"/><line x1="309.03" y1="35.84" x2="312.75" y2="34.38" style="fill:none; stroke:#000; stroke-linecap:round; stroke-miterlimit:4.36; stroke-width:.93px;"/><line x1="309.03" y1="33.84" x2="312.75" y2="32.38" style="fill:none; stroke:#000; stroke-linecap:round; stroke-miterlimit:4.36; stroke-width:.93px;"/><line x1="314.2" y1="59.84" x2="317.92" y2="58.38" style="fill:none; stroke:#000; stroke-linecap:round; stroke-miterlimit:4.36; stroke-width:.93px;"/><line x1="314.2" y1="57.84" x2="317.92" y2="56.38" style="fill:none; stroke:#000; stroke-linecap:round; stroke-miterlimit:4.36; stroke-width:.93px;"/><line x1="314.2" y1="55.84" x2="317.92" y2="54.38" style="fill:none; stroke:#000; stroke-linecap:round; stroke-miterlimit:4.36; stroke-width:.93px;"/><line x1="314.2" y1="53.84" x2="317.92" y2="52.38" style="fill:none; stroke:#000; stroke-linecap:round; stroke-miterlimit:4.36; stroke-width:.93px;"/><line x1="314.2" y1="51.84" x2="317.92" y2="50.38" style="fill:none; stroke:#000; stroke-linecap:round; stroke-miterlimit:4.36; stroke-width:.93px;"/><line x1="314.2" y1="49.84" x2="317.92" y2="48.38" style="fill:none; stroke:#000; stroke-linecap:round; stroke-miterlimit:4.36; stroke-width:.93px;"/><line x1="314.2" y1="47.84" x2="317.92" y2="46.38" style="fill:none; stroke:#000; stroke-linecap:round; stroke-miterlimit:4.36; stroke-width:.93px;"/><line x1="314.2" y1="45.84" x2="317.92" y2="44.38" style="fill:none; stroke:#000; stroke-linecap:round; stroke-miterlimit:4.36; stroke-width:.93px;"/><line x1="314.2" y1="43.84" x2="317.92" y2="42.38" style="fill:none; stroke:#000; stroke-linecap:round; stroke-miterlimit:4.36; stroke-width:.93px;"/><line x1="314.2" y1="41.84" x2="317.92" y2="40.38" style="fill:none; stroke:#000; stroke-linecap:round; stroke-miterlimit:4.36; stroke-width:.93px;"/><line x1="314.2" y1="39.84" x2="317.92" y2="38.38" style="fill:none; stroke:#000; stroke-linecap:round; stroke-miterlimit:4.36; stroke-width:.93px;"/><line x1="314.2" y1="37.84" x2="317.92" y2="36.38" style="fill:none; stroke:#000; stroke-linecap:round; stroke-miterlimit:4.36; stroke-width:.93px;"/><line x1="314.2" y1="35.84" x2="317.92" y2="34.38" style="fill:none; stroke:#000; stroke-linecap:round; stroke-miterlimit:4.36; stroke-width:.93px;"/><line x1="314.2" y1="33.84" x2="317.92" y2="32.38" style="fill:none; stroke:#000; stroke-linecap:round; stroke-miterlimit:4.36; stroke-width:.93px;"/><line x1="314.2" y1="31.84" x2="317.92" y2="30.38" style="fill:none; stroke:#000; stroke-linecap:round; stroke-miterlimit:4.36; stroke-width:.93px;"/></g><polyline points="35.7 26.33 27.84 26.33 26.97 27.2 26.97 38.46 27.86 39.35 35.67 39.35" style="fill:none; stroke:#000; stroke-linecap:round; stroke-linejoin:round;"/><polyline points="35.67 38.53 27.83 38.53 27.83 27.21 35.67 27.21" style="fill:none; stroke:#000; stroke-linecap:round; stroke-linejoin:round;"/><circle cx="31.33" cy="30.16" r="1.74" style="fill:none; stroke:#000; stroke-linecap:round; stroke-linejoin:round;"/><circle cx="31.33" cy="35.57" r="1.74" style="fill:none; stroke:#000; stroke-linecap:round; stroke-linejoin:round;"/><line x1="34.2" y1="39.35" x2="34.2" y2="54.75" style="fill:none; stroke:#000; stroke-linecap:round; stroke-linejoin:round;"/><line x1="35.7" y1="55.35" x2="35.7" y2="123.35" style="fill:none; stroke:#000; stroke-linecap:round; stroke-linejoin:round;"/><polyline points="35.53 123.35 36.58 124.4 38.59 124.4" style="fill:none; stroke:#000; stroke-linecap:round; stroke-linejoin:round;"/><polyline points="38.73 125.27 38.73 16.3 38.73 15.31 41.58 15.31 41.58 16.3" style="fill:none; stroke:#000; stroke-linecap:round; stroke-linejoin:round;"/><polyline points="38.16 16.05 38.16 14.76 35.1 14.76 35.1 17.96" style="fill:none; stroke:#000; stroke-linecap:round; stroke-linejoin:round;"/><polyline points="36.73 16.36 34.19 18.91 34.19 26.33" style="fill:none; stroke:#000; stroke-linecap:round; stroke-linejoin:round;"/><polyline points="77.49 21.6 77.49 16.54 45.32 16.54 45.32 21.6" style="fill:none; stroke:#000; stroke-linecap:round; stroke-linejoin:round;"/><line x1="114.24" y1="16.43" x2="173.82" y2="16.43" style="fill:none; stroke:#000; stroke-linejoin:round;"/><line x1="173.09" y1="16.46" x2="173.09" y2="3.34" style="fill:none; stroke:#000; stroke-linejoin:round;"/><line x1="114.87" y1="16.54" x2="114.87" y2="3.34" style="fill:none; stroke:#000; stroke-linejoin:round;"/><line x1="114.85" y1="4.8" x2="173.09" y2="4.8" style="fill:none; stroke:#000; stroke-linejoin:round;"/><path d="M114.97,6.2h58.12" style="fill:none; stroke:#000; stroke-linejoin:round;"/><circle cx="125.74" cy="9.09" r="1.44" style="fill:none; stroke:#000; stroke-linejoin:round;"/><circle cx="162.74" cy="9.09" r="1.44" style="fill:none; stroke:#000; stroke-linejoin:round;"/><circle cx="144.13" cy="13.7" r="1.32" style="fill:none; stroke:#000; stroke-linejoin:round;"/><polyline points="176.97 16.32 176.97 14.77 179.89 14.77 179.89 16.43" style="fill:none; stroke:#000; stroke-linejoin:round;"/><line x1="197.75" y1="16.42" x2="244.12" y2="16.32" style="fill:none; stroke:#000; stroke-linejoin:round;"/><polyline points="199.12 16.32 199.12 1.82 242.81 1.82 242.81 16.32" style="fill:none; stroke:#000; stroke-linejoin:round;"/><circle cx="220.97" cy="5.16" r="1.41" style="fill:none; stroke:#000; stroke-linejoin:round;"/><polyline points="247.17 16.32 247.17 14.76 250.02 14.76 250.02 16.32" style="fill:none; stroke:#000; stroke-linejoin:round;"/><polyline points="288.4 16.32 288.4 20.15 289.07 20.15 289.07 17.67" style="fill:none; stroke:#000; stroke-linejoin:round;"/><line x1="288.49" y1="19.42" x2="76.76" y2="19.42" style="fill:none; stroke:#000; stroke-linejoin:round;"/><line x1="76.76" y1="21.05" x2="289.4" y2="21.05" style="fill:none; stroke:#000; stroke-linejoin:round;"/><line x1="38.82" y1="25.05" x2="289.4" y2="25.05" style="fill:none; stroke:#000; stroke-linejoin:round;"/><line x1="294.7" y1="21" x2="318.84" y2="21" style="fill:none; stroke:#000; stroke-linejoin:round;"/><line x1="315.9" y1="21" x2="315.9" y2="17.64" style="fill:none; stroke:#000; stroke-linejoin:round;"/><line x1="318.9" y1="16.24" x2="318.9" y2="123.72" style="fill:none; stroke:#000; stroke-linejoin:round;"/><line x1="315.9" y1="122.16" x2="315.9" y2="118.85" style="fill:none; stroke:#000; stroke-linejoin:round;"/><line x1="318.61" y1="118.86" x2="293.37" y2="118.86" style="fill:none; stroke:#000; stroke-linejoin:round;"/><line x1="293.69" y1="116.98" x2="318.9" y2="116.98" style="fill:none; stroke:#000; stroke-linejoin:round;"/><line x1="293.5" y1="115.15" x2="318.9" y2="115.15" style="fill:none; stroke:#000; stroke-linejoin:round;"/><polyline points="318.97 121.48 320.43 121.48 321.97 119.94" style="fill:none; stroke:#000; stroke-linejoin:round;"/><path d="M318.9,114.23s.17-.8,.65-.73c.66,.09,2.09-.06,2.45-1.85" style="fill:none; stroke:#000; stroke-linejoin:round;"/><line x1="317.48" y1="97.94" x2="321.99" y2="97.94" style="fill:none; stroke:#000; stroke-linejoin:round;"/><polyline points="321.66 106.99 313.07 106.99 313.07 104.36" style="fill:none; stroke:#000; stroke-linejoin:round;"/><line x1="321.99" y1="99.79" x2="321.99" y2="58.07" style="fill:none; stroke:#000; stroke-linejoin:round;"/><polyline points="319.25 63.87 320.05 63.87 320.05 26.36" style="fill:none; stroke:#000; stroke-linejoin:round;"/><path d="M318.83,26.36s2.33-.45,3.06,1.3" style="fill:none; stroke:#000; stroke-linejoin:round;"/><polyline points="321.89 19.83 320.43 18.37 318.97 18.37" style="fill:none; stroke:#000; stroke-linejoin:round;"/><rect x="289.4" y="20.38" width="5.3" height="4.75" style="fill:none; stroke:#000; stroke-linejoin:round;"/><rect x="290.58" y="20.38" width="2.93" height="100.04" style="fill:#999; stroke:#000; stroke-linejoin:round;"/><line x1="283.73" y1="21.05" x2="283.73" y2="19.42" style="fill:none; stroke:#000; stroke-linejoin:round;"/><polyline points="294.77 115.1 294.77 104.36 318.83 104.36" style="fill:none; stroke:#000; stroke-linejoin:round;"/><line x1="294.97" y1="69.03" x2="294.97" y2="71.49" style="fill:none; stroke:#000; stroke-linejoin:round; stroke-width:1.09px;"/><polyline points="299.2 77.98 297.23 77.54 297.23 62.93 297.8 62.37 299.09 62.37" style="fill:none; stroke:#000; stroke-linejoin:round; stroke-width:1.09px;"/><line x1="299.08" y1="97.06" x2="299.08" y2="61.91" style="fill:none; stroke:#000; stroke-linejoin:round; stroke-width:1.09px;"/><path d="M299.06,79.06h2.93v-16.81s-.16-1.38-1.37-1.38-1.52,1.5-1.52,1.5" style="fill:none; stroke:#000; stroke-linejoin:round;"/><polyline points="294.63 25.41 294.63 29.55 318.9 29.55" style="fill:none; stroke:#000; stroke-linejoin:round;"/><line x1="294.72" y1="23.87" x2="318.9" y2="23.87" style="fill:none; stroke:#000; stroke-linejoin:round; stroke-width:.5px;"/><line x1="289.35" y1="22.34" x2="43.18" y2="22.34" style="fill:none; stroke:#000; stroke-linejoin:round; stroke-width:.5px;"/><line x1="45.32" y1="18.23" x2="41.65" y2="18.23" style="fill:none; stroke:#000; stroke-linejoin:round;"/><line x1="41.65" y1="21.05" x2="45.32" y2="21.05" style="fill:none; stroke:#000; stroke-linejoin:round;"/><line x1="45.32" y1="19.69" x2="41.65" y2="19.69" style="fill:none; stroke:#000; stroke-linejoin:round;"/><polyline points="41.65 16.36 41.65 21.05 38.73 21.05" style="fill:none; stroke:#000; stroke-linejoin:round;"/><rect x="39.02" y="21.11" width="4.05" height="2.47" style="fill:none; stroke:#000; stroke-linejoin:round; stroke-width:.5px;"/><line x1="35.8" y1="22.87" x2="38.8" y2="22.87" style="fill:none; stroke:#000; stroke-linejoin:round; stroke-width:.5px;"/><polyline points="38.8 118.95 36.73 118.95 36.73 115.15 38.8 115.15" style="fill:none; stroke:#000; stroke-linecap:round; stroke-linejoin:round;"/><rect x="38.8" y="115.15" width="251.78" height="5.27" style="fill:none; stroke:#000; stroke-linecap:round; stroke-linejoin:round;"/><rect x="38.8" y="117.43" width="251.78" height="1.32" style="fill:none; stroke:#000; stroke-linecap:round; stroke-linejoin:round;"/><polyline points="43.29 77.22 41.9 77.22 41.9 62.65 286.24 62.65 286.24 77.22 47.6 77.22" style="fill:none; stroke:#000; stroke-linecap:round; stroke-linejoin:round;"/><path d="M297.04,29.55v5.85s.17,2.54,2,2.43" style="fill:none; stroke:#000; stroke-linejoin:round;"/><polyline points="317.48 104.28 317.48 59.88 312.58 66.4" style="fill:none; stroke:#000; stroke-linecap:round; stroke-linejoin:round; stroke-width:.5px;"/><polyline points="317.52 68.39 302.05 62.47 302.05 29.55 299.06 29.55 299.06 62.12" style="fill:none; stroke:#000; stroke-linejoin:round;"/><line x1="317.62" y1="70.93" x2="319.01" y2="70.93" style="fill:none; stroke:#000; stroke-linejoin:round;"/><line x1="317.55" y1="68.9" x2="319.01" y2="68.9" style="fill:none; stroke:#000; stroke-linejoin:round;"/><polyline points="311.69 66.07 315.52 61.73 316.76 62.58" style="fill:none; stroke:#000; stroke-linecap:round; stroke-linejoin:round;"/><polyline points="322.03 59.32 324.53 59.32 324.53 57.94" style="fill:none; stroke:#000; stroke-linejoin:round; stroke-width:.5px;"/><line x1="330.52" y1="81.81" x2="321.99" y2="81.81" style="fill:none; stroke:#000; stroke-linejoin:round; stroke-width:.5px;"/><path d="M297.14,104.47v-7.96s0-1.65,1.06-.57,1.84,2.13,1.84,2.13v6.29" style="fill:none; stroke:#000; stroke-linejoin:round;"/><line x1="301.99" y1="104.47" x2="301.99" y2="87.22" style="fill:none; stroke:#000; stroke-linejoin:round; stroke-width:.5px;"/><line x1="302.06" y1="94.28" x2="304.99" y2="93.62" style="fill:none; stroke:#000; stroke-linejoin:round; stroke-width:.5px;"/><line x1="305.34" y1="101.3" x2="308.46" y2="99.21" style="fill:none; stroke:#000; stroke-linejoin:round; stroke-width:.5px;"/><line x1="301.99" y1="100.88" x2="310.32" y2="101.77" style="fill:none; stroke:#000; stroke-linejoin:round; stroke-width:.5px;"/><path d="M314.53,104.47s-13.39-12.56-14.78-25.33" style="fill:none; stroke:#000; stroke-linejoin:round; stroke-width:.5px;"/><path d="M302.06,88.25s3.56,7.3,8.35,13.5c0,0,.93,1.16,2.66,2.61" style="fill:none; stroke:#000; stroke-linejoin:round; stroke-width:.5px;"/><path d="M55.51,63.16c1.52-20.05,3.04-38.11,3.04-38.11" style="fill:none; stroke:#000; stroke-linejoin:round;"/><path d="M45.79,115.21c-2.24-12.17-2.24-42.15-2.24-42.15,0,0,.63,1.53,4.05,4.15" style="fill:none; stroke:#000; stroke-linejoin:round;"/><path d="M53.75,77.22c-.99,15.43-3.02,31.89-3.88,37.65" style="fill:none; stroke:#000; stroke-linejoin:round;"/><path d="M82.64,62.56c2.17-15.9,4.26-31.88,5.69-37.8" style="fill:none; stroke:#000; stroke-linejoin:round;"/><path d="M75.45,115.15c1.37-4.89,2.96-21.57,5.18-37.86" style="fill:none; stroke:#000; stroke-linejoin:round;"/><path d="M63.92,25.41s8.57,77.44,9.99,89.78" style="fill:none; stroke:#000; stroke-linejoin:round;"/><path d="M172.64,62.56c2.17-15.9,4.43-31.89,5.86-37.81" style="fill:none; stroke:#000; stroke-linejoin:round;"/><path d="M168.21,115.13c.72-6.89,2.12-23.88,3.35-37.92" style="fill:none; stroke:#000; stroke-linejoin:round;"/><path d="M153.92,25.41s8.01,72.71,9.93,89.71" style="fill:none; stroke:#000; stroke-linejoin:round;"/><path d="M203.48,62.65c1.49-13.11,3.25-26.46,5.26-37.24" style="fill:none; stroke:#000; stroke-linejoin:round;"/><path d="M197.98,115.14c.69-3.46,2-19.13,3.91-37.73" style="fill:none; stroke:#000; stroke-linejoin:round;"/><path d="M183.92,25.41s7.06,71.75,9.09,89.72" style="fill:none; stroke:#000; stroke-linejoin:round;"/><path d="M232.64,62.56c2.17-15.9,3.52-31.88,4.95-37.8" style="fill:none; stroke:#000; stroke-linejoin:round;"/><path d="M227.76,115.15c1.52-7.07,3.78-26.48,4.23-37.89" style="fill:none; stroke:#000; stroke-linejoin:round;"/><path d="M213.92,25.41s7.09,68.29,9.48,89.73" style="fill:none; stroke:#000; stroke-linejoin:round;"/><path d="M262.64,62.56c2.17-15.9,3.3-31.87,4.72-37.79" style="fill:none; stroke:#000; stroke-linejoin:round;"/><path d="M257.7,115.15c1.19-7.06,3.09-27.28,4.07-37.89" style="fill:none; stroke:#000; stroke-linejoin:round;"/><path d="M243.92,25.41s6.76,67.31,9.26,89.74" style="fill:none; stroke:#000; stroke-linejoin:round;"/><path d="M285.68,115.11c.72-6.91,.54-27.29,.56-37.89" style="fill:none; stroke:#000; stroke-linejoin:round;"/><path d="M272.28,24.78s7.13,67.18,10.06,90.38" style="fill:none; stroke:#000; stroke-linejoin:round;"/><path d="M113.84,62.65c2.42-20.01,4.27-37.93,4.27-37.93" style="fill:none; stroke:#000; stroke-linejoin:round;"/><path d="M105.55,114.86c1.84-5.02,4.25-20.68,6.45-37.57" style="fill:none; stroke:#000; stroke-linejoin:round;"/><path d="M93.62,24.77s6.53,55.42,9.45,86.53c.14,1.45,.29,2.58,.47,3.41" style="fill:none; stroke:#000; stroke-linejoin:round;"/><path d="M144.19,62.92c2.02-20.84,3.7-38.18,3.7-38.18" style="fill:none; stroke:#000; stroke-linejoin:round;"/><path d="M139.1,115.1c.03-.28,.06-.57,.09-.87,1.03-10.51,2.34-24.01,3.64-37.33" style="fill:none; stroke:#000; stroke-linejoin:round;"/><path d="M123.28,24.73s5.88,67.14,10.81,90.42" style="fill:none; stroke:#000; stroke-linejoin:round;"/><line x1="303.63" y1="87.77" x2="306.98" y2="89.05" style="fill:#fff; stroke:#000; stroke-linecap:round; stroke-miterlimit:10; stroke-width:.99px;"/><line x1="303.63" y1="85.77" x2="306.98" y2="87.05" style="fill:#fff; stroke:#000; stroke-linecap:round; stroke-miterlimit:10; stroke-width:.99px;"/><line x1="303.63" y1="83.77" x2="306.98" y2="85.05" style="fill:#fff; stroke:#000; stroke-linecap:round; stroke-miterlimit:10; stroke-width:.99px;"/><line x1="303.63" y1="81.77" x2="306.98" y2="83.05" style="fill:#fff; stroke:#000; stroke-linecap:round; stroke-miterlimit:10; stroke-width:.99px;"/><line x1="303.63" y1="79.77" x2="306.98" y2="81.05" style="fill:#fff; stroke:#000; stroke-linecap:round; stroke-miterlimit:10; stroke-width:.99px;"/><line x1="303.63" y1="77.77" x2="306.98" y2="79.05" style="fill:#fff; stroke:#000; stroke-linecap:round; stroke-miterlimit:10; stroke-width:.99px;"/><line x1="303.63" y1="75.77" x2="306.98" y2="77.05" style="fill:#fff; stroke:#000; stroke-linecap:round; stroke-miterlimit:10; stroke-width:.99px;"/><line x1="303.63" y1="73.77" x2="306.98" y2="75.05" style="fill:#fff; stroke:#000; stroke-linecap:round; stroke-miterlimit:10; stroke-width:.99px;"/><line x1="303.63" y1="71.77" x2="306.98" y2="73.05" style="fill:#fff; stroke:#000; stroke-linecap:round; stroke-miterlimit:10; stroke-width:.99px;"/><line x1="303.63" y1="69.77" x2="306.98" y2="71.05" style="fill:#fff; stroke:#000; stroke-linecap:round; stroke-miterlimit:10; stroke-width:.99px;"/><line x1="303.63" y1="67.77" x2="306.98" y2="69.05" style="fill:#fff; stroke:#000; stroke-linecap:round; stroke-miterlimit:10; stroke-width:.99px;"/><line x1="303.63" y1="65.77" x2="306.98" y2="67.05" style="fill:#fff; stroke:#000; stroke-linecap:round; stroke-miterlimit:10; stroke-width:.99px;"/><line x1="308.21" y1="89.77" x2="311.55" y2="91.05" style="fill:#fff; stroke:#000; stroke-linecap:round; stroke-miterlimit:10; stroke-width:.99px;"/><line x1="308.21" y1="91.77" x2="311.55" y2="93.05" style="fill:#fff; stroke:#000; stroke-linecap:round; stroke-miterlimit:10; stroke-width:.99px;"/><line x1="308.21" y1="93.77" x2="311.55" y2="95.05" style="fill:#fff; stroke:#000; stroke-linecap:round; stroke-miterlimit:10; stroke-width:.99px;"/><line x1="308.21" y1="95.77" x2="311.55" y2="97.05" style="fill:#fff; stroke:#000; stroke-linecap:round; stroke-miterlimit:10; stroke-width:.99px;"/><line x1="308.21" y1="87.77" x2="311.55" y2="89.05" style="fill:#fff; stroke:#000; stroke-linecap:round; stroke-miterlimit:10; stroke-width:.99px;"/><line x1="308.21" y1="85.77" x2="311.55" y2="87.05" style="fill:#fff; stroke:#000; stroke-linecap:round; stroke-miterlimit:10; stroke-width:.99px;"/><line x1="308.21" y1="83.77" x2="311.55" y2="85.05" style="fill:#fff; stroke:#000; stroke-linecap:round; stroke-miterlimit:10; stroke-width:.99px;"/><line x1="308.21" y1="81.77" x2="311.55" y2="83.05" style="fill:#fff; stroke:#000; stroke-linecap:round; stroke-miterlimit:10; stroke-width:.99px;"/><line x1="308.21" y1="79.77" x2="311.55" y2="81.05" style="fill:#fff; stroke:#000; stroke-linecap:round; stroke-miterlimit:10; stroke-width:.99px;"/><line x1="308.21" y1="77.77" x2="311.55" y2="79.05" style="fill:#fff; stroke:#000; stroke-linecap:round; stroke-miterlimit:10; stroke-width:.99px;"/><line x1="308.21" y1="75.77" x2="311.55" y2="77.05" style="fill:#fff; stroke:#000; stroke-linecap:round; stroke-miterlimit:10; stroke-width:.99px;"/><line x1="308.21" y1="73.77" x2="311.55" y2="75.05" style="fill:#fff; stroke:#000; stroke-linecap:round; stroke-miterlimit:10; stroke-width:.99px;"/><line x1="308.21" y1="71.77" x2="311.55" y2="73.05" style="fill:#fff; stroke:#000; stroke-linecap:round; stroke-miterlimit:10; stroke-width:.99px;"/><line x1="308.21" y1="69.77" x2="311.55" y2="71.05" style="fill:#fff; stroke:#000; stroke-linecap:round; stroke-miterlimit:10; stroke-width:.99px;"/><line x1="312.78" y1="89.77" x2="316.13" y2="91.05" style="fill:#fff; stroke:#000; stroke-linecap:round; stroke-miterlimit:10; stroke-width:.99px;"/><line x1="312.78" y1="91.77" x2="316.13" y2="93.05" style="fill:#fff; stroke:#000; stroke-linecap:round; stroke-miterlimit:10; stroke-width:.99px;"/><line x1="312.78" y1="93.77" x2="316.13" y2="95.05" style="fill:#fff; stroke:#000; stroke-linecap:round; stroke-miterlimit:10; stroke-width:.99px;"/><line x1="312.78" y1="95.77" x2="316.13" y2="97.05" style="fill:#fff; stroke:#000; stroke-linecap:round; stroke-miterlimit:10; stroke-width:.99px;"/><line x1="312.78" y1="97.77" x2="316.13" y2="99.05" style="fill:#fff; stroke:#000; stroke-linecap:round; stroke-miterlimit:10; stroke-width:.99px;"/><line x1="312.78" y1="99.77" x2="316.13" y2="101.05" style="fill:#fff; stroke:#000; stroke-linecap:round; stroke-miterlimit:10; stroke-width:.99px;"/><line x1="312.78" y1="87.77" x2="316.13" y2="89.05" style="fill:#fff; stroke:#000; stroke-linecap:round; stroke-miterlimit:10; stroke-width:.99px;"/><line x1="312.78" y1="85.77" x2="316.13" y2="87.05" style="fill:#fff; stroke:#000; stroke-linecap:round; stroke-miterlimit:10; stroke-width:.99px;"/><line x1="312.78" y1="83.77" x2="316.13" y2="85.05" style="fill:#fff; stroke:#000; stroke-linecap:round; stroke-miterlimit:10; stroke-width:.99px;"/><line x1="312.78" y1="81.77" x2="316.13" y2="83.05" style="fill:#fff; stroke:#000; stroke-linecap:round; stroke-miterlimit:10; stroke-width:.99px;"/><line x1="312.78" y1="79.77" x2="316.13" y2="81.05" style="fill:#fff; stroke:#000; stroke-linecap:round; stroke-miterlimit:10; stroke-width:.99px;"/><line x1="312.78" y1="77.77" x2="316.13" y2="79.05" style="fill:#fff; stroke:#000; stroke-linecap:round; stroke-miterlimit:10; stroke-width:.99px;"/><line x1="312.78" y1="75.77" x2="316.13" y2="77.05" style="fill:#fff; stroke:#000; stroke-linecap:round; stroke-miterlimit:10; stroke-width:.99px;"/><line x1="312.78" y1="73.77" x2="316.13" y2="75.05" style="fill:#fff; stroke:#000; stroke-linecap:round; stroke-miterlimit:10; stroke-width:.99px;"/><line x1="312.78" y1="71.77" x2="316.13" y2="73.05" style="fill:#fff; stroke:#000; stroke-linecap:round; stroke-miterlimit:10; stroke-width:.99px;"/><line x1="312.78" y1="69.77" x2="316.13" y2="71.05" style="fill:#fff; stroke:#000; stroke-linecap:round; stroke-miterlimit:10; stroke-width:.99px;"/><line x1="308.21" y1="67.77" x2="311.55" y2="69.05" style="fill:#fff; stroke:#000; stroke-linecap:round; stroke-miterlimit:10; stroke-width:.99px;"/><line x1="37.53" y1="73.25" x2="37.53" y2="67.29" style="fill:#08fc6b; stroke:#000; stroke-miterlimit:6.36;"/><polygon points=".5 113.18 34.29 113.18 34.29 121.94 35.29 122.93 35.29 125.09 38.8 125.09 38.8 125.82 41.87 125.82 41.87 123.41 289.04 123.41 289.04 122.16 315.94 122.16 315.94 125.08 318.97 125.08 318.97 123.72 320.48 123.72 321.99 122.21 321.99 99.79 332.71 99.79 332.71 81.71 330.48 81.71 330.48 58.07 321.89 58.07 321.89 17.64 320.43 16.19 318.84 16.19 318.84 14.76 315.9 14.76 315.9 17.64 289.08 17.64 289.08 16.32 244.12 16.32 244.12 .5 197.75 .5 197.75 16.42 173.82 16.42 173.82 3.38 114.24 3.38 114.24 16.43 77.49 16.43 77.49 8.91 45.32 8.91 45.32 16.3 35.67 16.3 35.67 39.35 35.67 54.75 .5 54.75 .5 113.18" style="fill:none; stroke:#000; stroke-linecap:round; stroke-linejoin:round;"/><g><rect x="326.57" y="68.3" width="5.24" height="3.25" style="fill:#999; stroke:#000;"/><circle cx="324.87" cy="69.92" r="2.78" style="fill:#999; stroke:#000;"/></g><g><rect x="282.62" y="120.04" width="3.25" height="5.24" style="fill:#999; stroke:#000;"/><circle cx="284.25" cy="118.35" r="2.78" style="fill:#999; stroke:#000;"/></g><g><rect x="25.42" y="68.3" width="5.24" height="3.25" style="fill:#999; stroke:#000;"/><circle cx="32.35" cy="69.92" r="2.78" style="fill:#999; stroke:#000;"/></g><g><rect x="317.23" y="47.41" width="4.85" height="4.85" style="fill:#999; stroke:#000;"/><circle cx="319.65" cy="49.84" r="1.48" style="fill:#999; stroke:#000; stroke-width:.5px;"/></g><g id="TEXT-2"><g><path d="M2.16,45.12H.86v-.34l.35-.16v-1.85l-.35-.16v-.34h1.3v.34l-.35,.16v1.85l.35,.16v.34Z"/><path d="M5.18,45.12h-.77l-1.24-2.16h-.02c0,.14,.01,.27,.02,.41s.01,.27,.02,.41v1.34h-.54v-2.86h.76l1.24,2.14h.01c0-.13,0-.27-.01-.4,0-.13-.01-.26-.02-.39v-1.35h.54v2.86Z"/><path d="M5.9,45.12v-2.86h.6v2.36h1.16v.5h-1.76Z"/><path d="M9.8,45.12h-1.64v-2.86h1.64v.5h-1.04v.63h.97v.5h-.97v.74h1.04v.5Z"/><path d="M11.5,45.12h-.6v-2.35h-.78v-.5h2.16v.5h-.78v2.35Z"/><path d="M15.44,44.32c0,.25-.09,.46-.27,.61-.18,.15-.44,.23-.78,.23-.3,0-.57-.06-.81-.17v-.56c.14,.06,.28,.11,.42,.16,.14,.05,.29,.07,.43,.07s.25-.03,.32-.09c.06-.06,.09-.13,.09-.22,0-.07-.02-.13-.07-.18-.05-.05-.12-.1-.2-.14-.08-.04-.18-.09-.28-.14-.07-.03-.14-.07-.22-.11s-.15-.1-.22-.16-.13-.14-.17-.24c-.05-.09-.07-.21-.07-.34,0-.26,.09-.46,.26-.6,.17-.14,.41-.21,.71-.21,.15,0,.29,.02,.43,.05,.13,.03,.28,.08,.42,.15l-.2,.47c-.13-.05-.25-.09-.35-.12-.1-.03-.21-.04-.32-.04-.12,0-.2,.03-.26,.08-.06,.05-.09,.12-.09,.21,0,.1,.05,.18,.14,.24,.09,.06,.22,.13,.4,.22,.15,.07,.27,.14,.37,.22,.1,.07,.18,.16,.24,.26s.08,.23,.08,.38Z"/><path d="M18.3,45.12h-.6v-1.23h-1.13v1.23h-.6v-2.86h.6v1.12h1.13v-1.12h.6v2.86Z"/><path d="M20.76,45.12l-.21-.68h-1.04l-.21,.68h-.65l1.01-2.87h.74l1.01,2.87h-.65Zm-.56-1.85s-.03-.1-.05-.17-.04-.14-.06-.21c-.02-.07-.04-.13-.05-.19-.01,.05-.03,.12-.05,.2-.02,.08-.04,.15-.06,.22-.02,.07-.04,.12-.05,.15l-.2,.66h.74l-.21-.66Z"/><path d="M22.37,45.12h-.6v-2.86h1.64v.5h-1.04v.74h.97v.5h-.97v1.13Z"/><path d="M25.07,45.12h-.6v-2.35h-.78v-.5h2.16v.5h-.78v2.35Z"/><path d="M13.29,49.12c0,.25-.09,.46-.27,.61-.18,.15-.44,.23-.78,.23-.3,0-.57-.06-.81-.17v-.56c.14,.06,.28,.11,.42,.16,.14,.05,.29,.07,.43,.07s.25-.03,.32-.09c.06-.06,.09-.13,.09-.22,0-.07-.02-.13-.07-.18-.05-.05-.12-.1-.2-.14-.08-.04-.18-.09-.28-.14-.07-.03-.14-.07-.22-.11s-.15-.1-.22-.16-.13-.14-.17-.24c-.05-.09-.07-.21-.07-.34,0-.26,.09-.46,.26-.6,.17-.14,.41-.21,.71-.21,.15,0,.29,.02,.43,.05,.13,.03,.28,.08,.42,.15l-.2,.47c-.13-.05-.25-.09-.35-.12-.1-.03-.21-.04-.32-.04-.12,0-.2,.03-.26,.08-.06,.05-.09,.12-.09,.21,0,.1,.05,.18,.14,.24,.09,.06,.22,.13,.4,.22,.15,.07,.27,.14,.37,.22,.1,.07,.18,.16,.24,.26s.08,.23,.08,.38Z"/><path d="M15.45,49.92h-1.64v-2.86h1.64v.5h-1.04v.63h.97v.5h-.97v.74h1.04v.5Z"/><path d="M18.58,49.92h-.77l-1.24-2.16h-.02c0,.14,.01,.27,.02,.41s.01,.27,.02,.41v1.34h-.54v-2.86h.76l1.24,2.14h.01c0-.13,0-.27-.01-.4,0-.13-.01-.26-.02-.39v-1.35h.54v2.86Z"/><path d="M20.98,49.12c0,.25-.09,.46-.27,.61-.18,.15-.44,.23-.78,.23-.3,0-.57-.06-.81-.17v-.56c.14,.06,.28,.11,.42,.16,.14,.05,.29,.07,.43,.07s.25-.03,.32-.09c.06-.06,.09-.13,.09-.22,0-.07-.02-.13-.07-.18-.05-.05-.12-.1-.2-.14-.08-.04-.18-.09-.28-.14-.07-.03-.14-.07-.22-.11s-.15-.1-.22-.16-.13-.14-.17-.24c-.05-.09-.07-.21-.07-.34,0-.26,.09-.46,.26-.6,.17-.14,.41-.21,.71-.21,.15,0,.29,.02,.43,.05,.13,.03,.28,.08,.42,.15l-.2,.47c-.13-.05-.25-.09-.35-.12-.1-.03-.21-.04-.32-.04-.12,0-.2,.03-.26,.08-.06,.05-.09,.12-.09,.21,0,.1,.05,.18,.14,.24,.09,.06,.22,.13,.4,.22,.15,.07,.27,.14,.37,.22,.1,.07,.18,.16,.24,.26s.08,.23,.08,.38Z"/><path d="M24.1,48.48c0,.3-.05,.55-.15,.77-.1,.22-.25,.39-.45,.51-.2,.12-.46,.18-.77,.18s-.56-.06-.77-.18c-.2-.12-.35-.29-.45-.52-.1-.22-.15-.48-.15-.78s.05-.55,.15-.77,.25-.39,.45-.51,.46-.18,.77-.18,.56,.06,.76,.18c.2,.12,.35,.29,.45,.51,.1,.22,.15,.48,.15,.77Zm-2.08,0c0,.3,.06,.53,.17,.71,.11,.17,.3,.26,.55,.26s.44-.09,.56-.26c.11-.17,.17-.41,.17-.71s-.06-.54-.17-.71c-.11-.17-.3-.26-.55-.26s-.44,.09-.56,.26c-.11,.17-.17,.41-.17,.71Z"/><path d="M25.52,47.06c.39,0,.68,.07,.86,.21,.19,.14,.28,.36,.28,.64,0,.13-.02,.25-.07,.34-.05,.1-.11,.18-.2,.25-.08,.07-.17,.12-.26,.17l.84,1.24h-.67l-.68-1.1h-.32v1.1h-.6v-2.86h.83Zm-.04,.5h-.18v.77h.2c.2,0,.34-.03,.43-.1,.09-.07,.13-.17,.13-.3s-.05-.23-.14-.29c-.09-.06-.24-.09-.43-.09Z"/></g><g><path d="M328.09,115.55c0,.3-.05,.55-.15,.77-.1,.22-.25,.39-.45,.51-.2,.12-.46,.18-.77,.18s-.56-.06-.77-.18c-.2-.12-.35-.29-.45-.52-.1-.22-.15-.48-.15-.78s.05-.55,.15-.77,.25-.39,.45-.51,.46-.18,.77-.18,.56,.06,.76,.18c.2,.12,.35,.29,.45,.51,.1,.22,.15,.48,.15,.77Zm-2.08,0c0,.3,.06,.53,.17,.71,.11,.17,.3,.26,.55,.26s.44-.09,.56-.26c.11-.17,.17-.41,.17-.71s-.06-.54-.17-.71c-.11-.17-.3-.26-.55-.26s-.44,.09-.56,.26c-.11,.17-.17,.41-.17,.71Z"/><path d="M331,115.97c0,.2-.04,.38-.13,.53-.09,.16-.22,.28-.39,.38-.17,.09-.4,.14-.66,.14-.38,0-.67-.1-.86-.29s-.3-.45-.3-.77v-1.84h.6v1.75c0,.24,.05,.4,.14,.5,.1,.1,.24,.14,.43,.14s.34-.05,.43-.16c.09-.1,.13-.27,.13-.49v-1.74h.6v1.85Z"/><path d="M332.8,116.98h-.6v-2.35h-.78v-.5h2.16v.5h-.78v2.35Z"/><path d="M334.02,116.98v-2.86h.6v2.36h1.16v.5h-1.76Z"/><path d="M337.92,116.98h-1.64v-2.86h1.64v.5h-1.04v.63h.97v.5h-.97v.74h1.04v.5Z"/><path d="M339.62,116.98h-.6v-2.35h-.78v-.5h2.16v.5h-.78v2.35Z"/><path d="M343.56,116.19c0,.25-.09,.46-.27,.61-.18,.15-.44,.23-.78,.23-.3,0-.57-.06-.81-.17v-.56c.14,.06,.28,.11,.42,.16,.14,.05,.29,.07,.43,.07s.25-.03,.32-.09c.06-.06,.09-.13,.09-.22,0-.07-.02-.13-.07-.18-.05-.05-.12-.1-.2-.14-.08-.04-.18-.09-.28-.14-.07-.03-.14-.07-.22-.11s-.15-.1-.22-.16-.13-.14-.17-.24c-.05-.09-.07-.21-.07-.34,0-.26,.09-.46,.26-.6,.17-.14,.41-.21,.71-.21,.15,0,.29,.02,.43,.05,.13,.03,.28,.08,.42,.15l-.2,.47c-.13-.05-.25-.09-.35-.12-.1-.03-.21-.04-.32-.04-.12,0-.2,.03-.26,.08-.06,.05-.09,.12-.09,.21,0,.1,.05,.18,.14,.24,.09,.06,.22,.13,.4,.22,.15,.07,.27,.14,.37,.22,.1,.07,.18,.16,.24,.26s.08,.23,.08,.38Z"/><path d="M346.42,116.98h-.6v-1.23h-1.13v1.23h-.6v-2.86h.6v1.12h1.13v-1.12h.6v2.86Z"/><path d="M348.89,116.98l-.21-.68h-1.04l-.21,.68h-.65l1.01-2.87h.74l1.01,2.87h-.65Zm-.56-1.85s-.03-.1-.05-.17-.04-.14-.06-.21c-.02-.07-.04-.13-.05-.19-.01,.05-.03,.12-.05,.2-.02,.08-.04,.15-.06,.22-.02,.07-.04,.12-.05,.15l-.2,.66h.74l-.21-.66Z"/><path d="M350.49,116.98h-.6v-2.86h1.64v.5h-1.04v.74h.97v.5h-.97v1.13Z"/><path d="M353.19,116.98h-.6v-2.35h-.78v-.5h2.16v.5h-.78v2.35Z"/><path d="M327.18,120.99c0,.25-.09,.46-.27,.61-.18,.15-.44,.23-.78,.23-.3,0-.57-.06-.81-.17v-.56c.14,.06,.28,.11,.42,.16,.14,.05,.29,.07,.43,.07s.25-.03,.32-.09c.06-.06,.09-.13,.09-.22,0-.07-.02-.13-.07-.18-.05-.05-.12-.1-.2-.14-.08-.04-.18-.09-.28-.14-.07-.03-.14-.07-.22-.11s-.15-.1-.22-.16-.13-.14-.17-.24c-.05-.09-.07-.21-.07-.34,0-.26,.09-.46,.26-.6,.17-.14,.41-.21,.71-.21,.15,0,.29,.02,.43,.05,.13,.03,.28,.08,.42,.15l-.2,.47c-.13-.05-.25-.09-.35-.12-.1-.03-.21-.04-.32-.04-.12,0-.2,.03-.26,.08-.06,.05-.09,.12-.09,.21,0,.1,.05,.18,.14,.24,.09,.06,.22,.13,.4,.22,.15,.07,.27,.14,.37,.22,.1,.07,.18,.16,.24,.26s.08,.23,.08,.38Z"/><path d="M329.34,121.78h-1.64v-2.86h1.64v.5h-1.04v.63h.97v.5h-.97v.74h1.04v.5Z"/><path d="M332.47,121.78h-.77l-1.24-2.16h-.02c0,.14,.01,.27,.02,.41s.01,.27,.02,.41v1.34h-.54v-2.86h.76l1.24,2.14h.01c0-.13,0-.27-.01-.4,0-.13-.01-.26-.02-.39v-1.35h.54v2.86Z"/><path d="M334.87,120.99c0,.25-.09,.46-.27,.61-.18,.15-.44,.23-.78,.23-.3,0-.57-.06-.81-.17v-.56c.14,.06,.28,.11,.42,.16,.14,.05,.29,.07,.43,.07s.25-.03,.32-.09c.06-.06,.09-.13,.09-.22,0-.07-.02-.13-.07-.18-.05-.05-.12-.1-.2-.14-.08-.04-.18-.09-.28-.14-.07-.03-.14-.07-.22-.11s-.15-.1-.22-.16-.13-.14-.17-.24c-.05-.09-.07-.21-.07-.34,0-.26,.09-.46,.26-.6,.17-.14,.41-.21,.71-.21,.15,0,.29,.02,.43,.05,.13,.03,.28,.08,.42,.15l-.2,.47c-.13-.05-.25-.09-.35-.12-.1-.03-.21-.04-.32-.04-.12,0-.2,.03-.26,.08-.06,.05-.09,.12-.09,.21,0,.1,.05,.18,.14,.24,.09,.06,.22,.13,.4,.22,.15,.07,.27,.14,.37,.22,.1,.07,.18,.16,.24,.26s.08,.23,.08,.38Z"/><path d="M337.99,120.35c0,.3-.05,.55-.15,.77-.1,.22-.25,.39-.45,.51-.2,.12-.46,.18-.77,.18s-.56-.06-.77-.18c-.2-.12-.35-.29-.45-.52-.1-.22-.15-.48-.15-.78s.05-.55,.15-.77,.25-.39,.45-.51,.46-.18,.77-.18,.56,.06,.76,.18c.2,.12,.35,.29,.45,.51,.1,.22,.15,.48,.15,.77Zm-2.08,0c0,.3,.06,.53,.17,.71,.11,.17,.3,.26,.55,.26s.44-.09,.56-.26c.11-.17,.17-.41,.17-.71s-.06-.54-.17-.71c-.11-.17-.3-.26-.55-.26s-.44,.09-.56,.26c-.11,.17-.17,.41-.17,.71Z"/><path d="M339.41,118.92c.39,0,.68,.07,.86,.21,.19,.14,.28,.36,.28,.64,0,.13-.02,.25-.07,.34-.05,.1-.11,.18-.2,.25-.08,.07-.17,.12-.26,.17l.84,1.24h-.67l-.68-1.1h-.32v1.1h-.6v-2.86h.83Zm-.04,.5h-.18v.77h.2c.2,0,.34-.03,.43-.1,.09-.07,.13-.17,.13-.3s-.05-.23-.14-.29c-.09-.06-.24-.09-.43-.09Z"/></g><g><path d="M325.09,38.07h-.6v-2.86h1.64v.5h-1.04v.74h.97v.5h-.97v1.13Z"/><path d="M326.69,38.07v-2.86h.6v2.36h1.16v.5h-1.76Z"/><path d="M330.02,38.07h-1.3v-.34l.35-.16v-1.85l-.35-.16v-.34h1.3v.34l-.35,.16v1.85l.35,.16v.34Z"/><path d="M331.59,36.47h1.13v1.48c-.15,.05-.3,.09-.47,.12-.16,.03-.34,.04-.55,.04-.43,0-.75-.13-.98-.38s-.34-.62-.34-1.1c0-.3,.06-.56,.17-.78s.28-.39,.51-.51,.49-.18,.81-.18c.15,0,.3,.02,.45,.05,.15,.03,.28,.07,.4,.13l-.2,.48c-.09-.04-.19-.08-.3-.11-.11-.03-.23-.04-.35-.04-.18,0-.33,.04-.46,.12-.13,.08-.23,.19-.3,.34-.07,.14-.11,.32-.11,.51,0,.19,.02,.35,.08,.5,.05,.14,.13,.26,.24,.34s.25,.12,.43,.12c.09,0,.16,0,.22-.01,.06,0,.12-.02,.17-.03v-.6h-.54v-.5Z"/><path d="M335.74,38.07h-.6v-1.23h-1.13v1.23h-.6v-2.86h.6v1.12h1.13v-1.12h.6v2.86Z"/><path d="M337.56,38.07h-.6v-2.35h-.78v-.5h2.16v.5h-.78v2.35Z"/><path d="M341.5,37.28c0,.25-.09,.46-.27,.61-.18,.15-.44,.23-.78,.23-.3,0-.57-.06-.81-.17v-.56c.14,.06,.28,.11,.42,.16,.14,.05,.29,.07,.43,.07s.25-.03,.32-.09c.06-.06,.09-.13,.09-.22,0-.07-.02-.13-.07-.18-.05-.05-.12-.1-.2-.14-.08-.04-.18-.09-.28-.14-.07-.03-.14-.07-.22-.11s-.15-.1-.22-.16-.13-.14-.17-.24c-.05-.09-.07-.21-.07-.34,0-.26,.09-.46,.26-.6,.17-.14,.41-.21,.71-.21,.15,0,.29,.02,.43,.05,.13,.03,.28,.08,.42,.15l-.2,.47c-.13-.05-.25-.09-.35-.12-.1-.03-.21-.04-.32-.04-.12,0-.2,.03-.26,.08-.06,.05-.09,.12-.09,.21,0,.1,.05,.18,.14,.24,.09,.06,.22,.13,.4,.22,.15,.07,.27,.14,.37,.22,.1,.07,.18,.16,.24,.26s.08,.23,.08,.38Z"/><path d="M343.67,38.07h-1.64v-2.86h1.64v.5h-1.04v.63h.97v.5h-.97v.74h1.04v.5Z"/><path d="M346.79,38.07h-.77l-1.24-2.16h-.02c0,.14,.01,.27,.02,.41s.01,.27,.02,.41v1.34h-.54v-2.86h.76l1.24,2.14h.01c0-.13,0-.27-.01-.4,0-.13-.01-.26-.02-.39v-1.35h.54v2.86Z"/><path d="M349.2,37.28c0,.25-.09,.46-.27,.61-.18,.15-.44,.23-.78,.23-.3,0-.57-.06-.81-.17v-.56c.14,.06,.28,.11,.42,.16,.14,.05,.29,.07,.43,.07s.25-.03,.32-.09c.06-.06,.09-.13,.09-.22,0-.07-.02-.13-.07-.18-.05-.05-.12-.1-.2-.14-.08-.04-.18-.09-.28-.14-.07-.03-.14-.07-.22-.11s-.15-.1-.22-.16-.13-.14-.17-.24c-.05-.09-.07-.21-.07-.34,0-.26,.09-.46,.26-.6,.17-.14,.41-.21,.71-.21,.15,0,.29,.02,.43,.05,.13,.03,.28,.08,.42,.15l-.2,.47c-.13-.05-.25-.09-.35-.12-.1-.03-.21-.04-.32-.04-.12,0-.2,.03-.26,.08-.06,.05-.09,.12-.09,.21,0,.1,.05,.18,.14,.24,.09,.06,.22,.13,.4,.22,.15,.07,.27,.14,.37,.22,.1,.07,.18,.16,.24,.26s.08,.23,.08,.38Z"/><path d="M352.31,36.64c0,.3-.05,.55-.15,.77-.1,.22-.25,.39-.45,.51-.2,.12-.46,.18-.77,.18s-.56-.06-.77-.18c-.2-.12-.35-.29-.45-.52-.1-.22-.15-.48-.15-.78s.05-.55,.15-.77,.25-.39,.45-.51,.46-.18,.77-.18,.56,.06,.76,.18c.2,.12,.35,.29,.45,.51,.1,.22,.15,.48,.15,.77Zm-2.08,0c0,.3,.06,.53,.17,.71,.11,.17,.3,.26,.55,.26s.44-.09,.56-.26c.11-.17,.17-.41,.17-.71s-.06-.54-.17-.71c-.11-.17-.3-.26-.55-.26s-.44,.09-.56,.26c-.11,.17-.17,.41-.17,.71Z"/><path d="M353.74,35.22c.39,0,.68,.07,.86,.21,.19,.14,.28,.36,.28,.64,0,.13-.02,.25-.07,.34-.05,.1-.11,.18-.2,.25-.08,.07-.17,.12-.26,.17l.84,1.24h-.67l-.68-1.1h-.32v1.1h-.6v-2.86h.83Zm-.04,.5h-.18v.77h.2c.2,0,.34-.03,.43-.1,.09-.07,.13-.17,.13-.3s-.05-.23-.14-.29c-.09-.06-.24-.09-.43-.09Z"/></g><g><line x1="326.43" y1="77.9" x2="326.43" y2="112.31" style="fill:none; stroke:#010101; stroke-miterlimit:10;"/><polygon points="323.93 78.63 326.43 74.31 328.92 78.63 323.93 78.63" style="fill:#010101;"/></g><g><polyline points="328.02 49.91 337.94 49.91 337.94 40.54" style="fill:none; stroke:#010101; stroke-miterlimit:10;"/><polygon points="328.74 52.4 324.43 49.91 328.74 47.42 328.74 52.4" style="fill:#010101;"/></g><g><polyline points="20.01 69.95 10.09 69.95 10.09 51.84" style="fill:none; stroke:#010101; stroke-miterlimit:10;"/><polygon points="19.28 67.46 23.59 69.95 19.28 72.45 19.28 67.46" style="fill:#010101;"/></g></g></g></g></svg>