<?xml version="1.0" encoding="UTF-8"?><svg id="expanded" xmlns="http://www.w3.org/2000/svg" viewBox="0 0 333.21 126.32"><g id="small_group"><g id="mat_sm_group"><g id="mat_unloader_fill_color"><polygon points="289.04 122.16 315.94 122.16 315.94 125.08 318.97 125.08 318.97 123.72 320.48 123.72 321.99 122.21 321.99 99.79 332.71 99.79 332.71 81.71 330.48 81.71 330.48 58.07 321.89 58.07 321.89 17.64 320.43 16.19 318.84 16.19 318.84 14.76 315.9 14.76 315.9 17.64 289.08 17.64 289.04 122.16" style="fill:#999;"/></g><g id="mat_chiller_fill_color"><polygon points="289.04 122.16 289.04 123.41 41.87 123.41 41.87 125.82 38.8 125.82 38.8 125.09 35.29 125.09 35.29 122.93 34.29 121.94 34.29 113.18 .5 113.18 .5 54.75 34.2 54.75 34.19 39.2 27.83 39.2 27.17 38.09 27.17 27.5 28.04 26.63 34.19 26.63 34.19 18.91 35.67 17.66 35.67 14.76 38.16 14.76 38.16 16.3 45.32 16.3 45.32 8.91 77.49 8.91 77.49 16.43 114.24 16.43 114.24 3.38 173.82 3.38 173.82 16.42 176.97 16.42 176.97 14.77 179.89 14.77 179.89 16.42 197.75 16.42 197.75 .5 244.12 .5 244.12 16.32 247.17 16.32 247.17 14.76 250.02 14.76 250.02 16.32 289.08 16.32 289.08 17.64 289.08 25.05 290.58 25.05 290.58 120.43 290.58 122.16 289.04 122.16" style="fill:#999; stroke:#000;"/></g><g id="mat_inner_shaft_sensors"><polygon points="294.97 65.27 286.24 65.36 286.24 75.41 294.97 75.41 294.97 71.49 297.23 71.49 297.23 69.03 294.97 69.03 294.97 65.27" style="fill:#999; stroke:#000;"/><polygon points="35.7 67.29 37.53 67.29 37.53 65.33 38.73 65.33 38.73 62.65 41.81 62.65 41.9 77.22 38.73 77.22 38.73 75.2 37.53 75.2 37.53 73.25 35.67 73.24 35.7 67.29" style="fill:#999; stroke:#000;"/></g><g id="mat_details"><polyline points="35.7 26.33 27.84 26.33 26.97 27.2 26.97 38.46 27.86 39.35 35.67 39.35" style="fill:none; stroke:#000; stroke-linecap:round; stroke-linejoin:round;"/><polyline points="35.67 38.53 27.83 38.53 27.83 27.21 35.67 27.21" style="fill:none; stroke:#000; stroke-linecap:round; stroke-linejoin:round;"/><circle cx="31.33" cy="30.16" r="1.74" style="fill:none; stroke:#000; stroke-linecap:round; stroke-linejoin:round;"/><circle cx="31.33" cy="35.57" r="1.74" style="fill:none; stroke:#000; stroke-linecap:round; stroke-linejoin:round;"/><line x1="34.2" y1="39.35" x2="34.2" y2="54.75" style="fill:none; stroke:#000; stroke-linecap:round; stroke-linejoin:round;"/><line x1="35.7" y1="55.35" x2="35.7" y2="123.35" style="fill:none; stroke:#000; stroke-linecap:round; stroke-linejoin:round;"/><polyline points="35.53 123.35 36.58 124.4 38.59 124.4" style="fill:none; stroke:#000; stroke-linecap:round; stroke-linejoin:round;"/><polyline points="38.73 125.27 38.73 16.3 38.73 15.31 41.58 15.31 41.58 16.3" style="fill:none; stroke:#000; stroke-linecap:round; stroke-linejoin:round;"/><polyline points="38.16 16.05 38.16 14.76 35.1 14.76 35.1 17.96" style="fill:none; stroke:#000; stroke-linecap:round; stroke-linejoin:round;"/><polyline points="36.73 16.36 34.19 18.91 34.19 26.33" style="fill:none; stroke:#000; stroke-linecap:round; stroke-linejoin:round;"/><polyline points="77.49 21.6 77.49 16.54 45.32 16.54 45.32 21.6" style="fill:none; stroke:#000; stroke-linecap:round; stroke-linejoin:round;"/><line x1="114.24" y1="16.43" x2="173.82" y2="16.43" style="fill:none; stroke:#000; stroke-linejoin:round;"/><line x1="173.09" y1="16.46" x2="173.09" y2="3.34" style="fill:none; stroke:#000; stroke-linejoin:round;"/><line x1="114.87" y1="16.54" x2="114.87" y2="3.34" style="fill:none; stroke:#000; stroke-linejoin:round;"/><line x1="114.85" y1="4.8" x2="173.09" y2="4.8" style="fill:none; stroke:#000; stroke-linejoin:round;"/><path d="M114.97,6.2h58.12" style="fill:none; stroke:#000; stroke-linejoin:round;"/><circle cx="125.74" cy="9.09" r="1.44" style="fill:none; stroke:#000; stroke-linejoin:round;"/><circle cx="162.74" cy="9.09" r="1.44" style="fill:none; stroke:#000; stroke-linejoin:round;"/><circle cx="144.13" cy="13.7" r="1.32" style="fill:none; stroke:#000; stroke-linejoin:round;"/><polyline points="176.97 16.32 176.97 14.77 179.89 14.77 179.89 16.43" style="fill:none; stroke:#000; stroke-linejoin:round;"/><line x1="197.75" y1="16.42" x2="244.12" y2="16.32" style="fill:none; stroke:#000; stroke-linejoin:round;"/><polyline points="199.12 16.32 199.12 1.82 242.81 1.82 242.81 16.32" style="fill:none; stroke:#000; stroke-linejoin:round;"/><circle cx="220.97" cy="5.16" r="1.41" style="fill:none; stroke:#000; stroke-linejoin:round;"/><polyline points="247.17 16.32 247.17 14.76 250.02 14.76 250.02 16.32" style="fill:none; stroke:#000; stroke-linejoin:round;"/><polyline points="288.4 16.32 288.4 20.15 289.07 20.15 289.07 17.67" style="fill:none; stroke:#000; stroke-linejoin:round;"/><line x1="288.49" y1="19.42" x2="76.76" y2="19.42" style="fill:none; stroke:#000; stroke-linejoin:round;"/><line x1="76.76" y1="21.05" x2="289.4" y2="21.05" style="fill:none; stroke:#000; stroke-linejoin:round;"/><line x1="38.82" y1="25.05" x2="289.4" y2="25.05" style="fill:none; stroke:#000; stroke-linejoin:round;"/><line x1="294.7" y1="21" x2="318.84" y2="21" style="fill:none; stroke:#000; stroke-linejoin:round;"/><line x1="315.9" y1="21" x2="315.9" y2="17.64" style="fill:none; stroke:#000; stroke-linejoin:round;"/><line x1="318.9" y1="16.24" x2="318.9" y2="123.72" style="fill:none; stroke:#000; stroke-linejoin:round;"/><line x1="315.9" y1="122.16" x2="315.9" y2="118.85" style="fill:none; stroke:#000; stroke-linejoin:round;"/><line x1="318.61" y1="118.86" x2="293.37" y2="118.86" style="fill:none; stroke:#000; stroke-linejoin:round;"/><line x1="293.69" y1="116.98" x2="318.9" y2="116.98" style="fill:none; stroke:#000; stroke-linejoin:round;"/><line x1="293.5" y1="115.15" x2="318.9" y2="115.15" style="fill:none; stroke:#000; stroke-linejoin:round;"/><polyline points="318.97 121.48 320.43 121.48 321.97 119.94" style="fill:none; stroke:#000; stroke-linejoin:round;"/><path d="M318.9,114.23s.17-.8,.65-.73c.66,.09,2.09-.06,2.45-1.85" style="fill:none; stroke:#000; stroke-linejoin:round;"/><line x1="317.48" y1="97.94" x2="321.99" y2="97.94" style="fill:none; stroke:#000; stroke-linejoin:round;"/><polyline points="321.66 106.99 313.07 106.99 313.07 104.36" style="fill:none; stroke:#000; stroke-linejoin:round;"/><line x1="321.99" y1="99.79" x2="321.99" y2="58.07" style="fill:none; stroke:#000; stroke-linejoin:round;"/><polyline points="319.25 63.87 320.05 63.87 320.05 26.36" style="fill:none; stroke:#000; stroke-linejoin:round;"/><path d="M318.83,26.36s2.33-.45,3.06,1.3" style="fill:none; stroke:#000; stroke-linejoin:round;"/><polyline points="321.89 19.83 320.43 18.37 318.97 18.37" style="fill:none; stroke:#000; stroke-linejoin:round;"/><rect x="289.4" y="20.38" width="5.3" height="4.75" style="fill:none; stroke:#000; stroke-linejoin:round;"/><rect x="290.58" y="20.38" width="2.93" height="100.04" style="fill:#999; stroke:#000; stroke-linejoin:round;"/><line x1="283.73" y1="21.05" x2="283.73" y2="19.42" style="fill:none; stroke:#000; stroke-linejoin:round;"/><polyline points="294.77 115.1 294.77 104.36 318.83 104.36" style="fill:none; stroke:#000; stroke-linejoin:round;"/><line x1="294.97" y1="69.03" x2="294.97" y2="71.49" style="fill:none; stroke:#000; stroke-linejoin:round; stroke-width:1.09px;"/><polyline points="299.2 77.98 297.23 77.54 297.23 62.93 297.8 62.37 299.09 62.37" style="fill:none; stroke:#000; stroke-linejoin:round; stroke-width:1.09px;"/><line x1="299.08" y1="97.06" x2="299.08" y2="61.91" style="fill:none; stroke:#000; stroke-linejoin:round; stroke-width:1.09px;"/><path d="M299.06,79.06h2.93v-16.81s-.16-1.38-1.37-1.38-1.52,1.5-1.52,1.5" style="fill:none; stroke:#000; stroke-linejoin:round;"/><g id="Layer_23_copy"><g><path d="M302.2,42.38c2.35-4.29,5.49-8.59,9.67-12.83h7.04l-.07,29.64-12.25,5.05" style="fill:none; stroke:#000; stroke-miterlimit:4.36; stroke-width:.93px;"/><path d="M297.23,62.93l-1.47-3.47s.8-4.58,3.44-10.86" style="fill:none; stroke:#000; stroke-miterlimit:4.36; stroke-width:.93px;"/><line x1="308.21" y1="64.83" x2="318.83" y2="59.19" style="fill:none; stroke:#000; stroke-linecap:round; stroke-miterlimit:4.36; stroke-width:.46px;"/><line x1="303.85" y1="61.84" x2="307.57" y2="60.38" style="fill:none; stroke:#000; stroke-linecap:round; stroke-miterlimit:4.36; stroke-width:.93px;"/><line x1="303.85" y1="59.84" x2="307.57" y2="58.38" style="fill:none; stroke:#000; stroke-linecap:round; stroke-miterlimit:4.36; stroke-width:.93px;"/><line x1="303.85" y1="57.84" x2="307.57" y2="56.38" style="fill:none; stroke:#000; stroke-linecap:round; stroke-miterlimit:4.36; stroke-width:.93px;"/><line x1="303.85" y1="55.84" x2="307.57" y2="54.38" style="fill:none; stroke:#000; stroke-linecap:round; stroke-miterlimit:4.36; stroke-width:.93px;"/><line x1="303.85" y1="53.84" x2="307.57" y2="52.38" style="fill:none; stroke:#000; stroke-linecap:round; stroke-miterlimit:4.36; stroke-width:.93px;"/><line x1="303.85" y1="51.84" x2="307.57" y2="50.38" style="fill:none; stroke:#000; stroke-linecap:round; stroke-miterlimit:4.36; stroke-width:.93px;"/><line x1="303.85" y1="49.84" x2="307.57" y2="48.38" style="fill:none; stroke:#000; stroke-linecap:round; stroke-miterlimit:4.36; stroke-width:.93px;"/><line x1="303.85" y1="47.84" x2="307.57" y2="46.38" style="fill:none; stroke:#000; stroke-linecap:round; stroke-miterlimit:4.36; stroke-width:.93px;"/><line x1="303.85" y1="45.84" x2="307.57" y2="44.38" style="fill:none; stroke:#000; stroke-linecap:round; stroke-miterlimit:4.36; stroke-width:.93px;"/><line x1="303.85" y1="43.84" x2="307.57" y2="42.38" style="fill:none; stroke:#000; stroke-linecap:round; stroke-miterlimit:4.36; stroke-width:.93px;"/><line x1="303.85" y1="41.84" x2="307.57" y2="40.38" style="fill:none; stroke:#000; stroke-linecap:round; stroke-miterlimit:4.36; stroke-width:.93px;"/><line x1="309.03" y1="61.84" x2="312.75" y2="60.38" style="fill:none; stroke:#000; stroke-linecap:round; stroke-miterlimit:4.36; stroke-width:.93px;"/><line x1="309.03" y1="59.84" x2="312.75" y2="58.38" style="fill:none; stroke:#000; stroke-linecap:round; stroke-miterlimit:4.36; stroke-width:.93px;"/><line x1="309.03" y1="57.84" x2="312.75" y2="56.38" style="fill:none; stroke:#000; stroke-linecap:round; stroke-miterlimit:4.36; stroke-width:.93px;"/><line x1="309.03" y1="55.84" x2="312.75" y2="54.38" style="fill:none; stroke:#000; stroke-linecap:round; stroke-miterlimit:4.36; stroke-width:.93px;"/><line x1="309.03" y1="53.84" x2="312.75" y2="52.38" style="fill:none; stroke:#000; stroke-linecap:round; stroke-miterlimit:4.36; stroke-width:.93px;"/><line x1="309.03" y1="51.84" x2="312.75" y2="50.38" style="fill:none; stroke:#000; stroke-linecap:round; stroke-miterlimit:4.36; stroke-width:.93px;"/><line x1="309.03" y1="49.84" x2="312.75" y2="48.38" style="fill:none; stroke:#000; stroke-linecap:round; stroke-miterlimit:4.36; stroke-width:.93px;"/><line x1="309.03" y1="47.84" x2="312.75" y2="46.38" style="fill:none; stroke:#000; stroke-linecap:round; stroke-miterlimit:4.36; stroke-width:.93px;"/><line x1="309.03" y1="45.84" x2="312.75" y2="44.38" style="fill:none; stroke:#000; stroke-linecap:round; stroke-miterlimit:4.36; stroke-width:.93px;"/><line x1="309.03" y1="43.84" x2="312.75" y2="42.38" style="fill:none; stroke:#000; stroke-linecap:round; stroke-miterlimit:4.36; stroke-width:.93px;"/><line x1="309.03" y1="41.84" x2="312.75" y2="40.38" style="fill:none; stroke:#000; stroke-linecap:round; stroke-miterlimit:4.36; stroke-width:.93px;"/><line x1="309.03" y1="39.84" x2="312.75" y2="38.38" style="fill:none; stroke:#000; stroke-linecap:round; stroke-miterlimit:4.36; stroke-width:.93px;"/><line x1="309.03" y1="37.84" x2="312.75" y2="36.38" style="fill:none; stroke:#000; stroke-linecap:round; stroke-miterlimit:4.36; stroke-width:.93px;"/><line x1="309.03" y1="35.84" x2="312.75" y2="34.38" style="fill:none; stroke:#000; stroke-linecap:round; stroke-miterlimit:4.36; stroke-width:.93px;"/><line x1="309.03" y1="33.84" x2="312.75" y2="32.38" style="fill:none; stroke:#000; stroke-linecap:round; stroke-miterlimit:4.36; stroke-width:.93px;"/><line x1="314.2" y1="59.84" x2="317.92" y2="58.38" style="fill:none; stroke:#000; stroke-linecap:round; stroke-miterlimit:4.36; stroke-width:.93px;"/><line x1="314.2" y1="57.84" x2="317.92" y2="56.38" style="fill:none; stroke:#000; stroke-linecap:round; stroke-miterlimit:4.36; stroke-width:.93px;"/><line x1="314.2" y1="55.84" x2="317.92" y2="54.38" style="fill:none; stroke:#000; stroke-linecap:round; stroke-miterlimit:4.36; stroke-width:.93px;"/><line x1="314.2" y1="53.84" x2="317.92" y2="52.38" style="fill:none; stroke:#000; stroke-linecap:round; stroke-miterlimit:4.36; stroke-width:.93px;"/><line x1="314.2" y1="51.84" x2="317.92" y2="50.38" style="fill:none; stroke:#000; stroke-linecap:round; stroke-miterlimit:4.36; stroke-width:.93px;"/><line x1="314.2" y1="49.84" x2="317.92" y2="48.38" style="fill:none; stroke:#000; stroke-linecap:round; stroke-miterlimit:4.36; stroke-width:.93px;"/><line x1="314.2" y1="47.84" x2="317.92" y2="46.38" style="fill:none; stroke:#000; stroke-linecap:round; stroke-miterlimit:4.36; stroke-width:.93px;"/><line x1="314.2" y1="45.84" x2="317.92" y2="44.38" style="fill:none; stroke:#000; stroke-linecap:round; stroke-miterlimit:4.36; stroke-width:.93px;"/><line x1="314.2" y1="43.84" x2="317.92" y2="42.38" style="fill:none; stroke:#000; stroke-linecap:round; stroke-miterlimit:4.36; stroke-width:.93px;"/><line x1="314.2" y1="41.84" x2="317.92" y2="40.38" style="fill:none; stroke:#000; stroke-linecap:round; stroke-miterlimit:4.36; stroke-width:.93px;"/><line x1="314.2" y1="39.84" x2="317.92" y2="38.38" style="fill:none; stroke:#000; stroke-linecap:round; stroke-miterlimit:4.36; stroke-width:.93px;"/><line x1="314.2" y1="37.84" x2="317.92" y2="36.38" style="fill:none; stroke:#000; stroke-linecap:round; stroke-miterlimit:4.36; stroke-width:.93px;"/><line x1="314.2" y1="35.84" x2="317.92" y2="34.38" style="fill:none; stroke:#000; stroke-linecap:round; stroke-miterlimit:4.36; stroke-width:.93px;"/><line x1="314.2" y1="33.84" x2="317.92" y2="32.38" style="fill:none; stroke:#000; stroke-linecap:round; stroke-miterlimit:4.36; stroke-width:.93px;"/><line x1="314.2" y1="31.84" x2="317.92" y2="30.38" style="fill:none; stroke:#000; stroke-linecap:round; stroke-miterlimit:4.36; stroke-width:.93px;"/></g></g><polyline points="294.63 25.41 294.63 29.55 318.9 29.55" style="fill:none; stroke:#000; stroke-linejoin:round;"/><line x1="294.72" y1="23.87" x2="318.9" y2="23.87" style="fill:none; stroke:#000; stroke-linejoin:round; stroke-width:.5px;"/><line x1="289.35" y1="22.34" x2="43.18" y2="22.34" style="fill:none; stroke:#000; stroke-linejoin:round; stroke-width:.5px;"/><line x1="45.32" y1="18.23" x2="41.65" y2="18.23" style="fill:none; stroke:#000; stroke-linejoin:round;"/><line x1="41.65" y1="21.05" x2="45.32" y2="21.05" style="fill:none; stroke:#000; stroke-linejoin:round;"/><line x1="45.32" y1="19.69" x2="41.65" y2="19.69" style="fill:none; stroke:#000; stroke-linejoin:round;"/><polyline points="41.65 16.36 41.65 21.05 38.73 21.05" style="fill:none; stroke:#000; stroke-linejoin:round;"/><rect x="39.02" y="21.11" width="4.05" height="2.47" style="fill:none; stroke:#000; stroke-linejoin:round; stroke-width:.5px;"/><line x1="35.8" y1="22.87" x2="38.8" y2="22.87" style="fill:none; stroke:#000; stroke-linejoin:round; stroke-width:.5px;"/><polyline points="38.8 118.95 36.73 118.95 36.73 115.15 38.8 115.15" style="fill:none; stroke:#000; stroke-linecap:round; stroke-linejoin:round;"/><rect x="38.8" y="115.15" width="251.78" height="5.27" style="fill:none; stroke:#000; stroke-linecap:round; stroke-linejoin:round;"/><rect x="38.8" y="117.43" width="251.78" height="1.32" style="fill:none; stroke:#000; stroke-linecap:round; stroke-linejoin:round;"/><polyline points="43.29 77.22 41.9 77.22 41.9 62.65 286.24 62.65 286.24 77.22 47.6 77.22" style="fill:none; stroke:#000; stroke-linecap:round; stroke-linejoin:round;"/><path d="M297.04,29.55v5.85s.17,2.54,2,2.43" style="fill:none; stroke:#000; stroke-linejoin:round;"/><polyline points="317.48 104.28 317.48 59.88 312.58 66.4" style="fill:none; stroke:#000; stroke-linecap:round; stroke-linejoin:round; stroke-width:.5px;"/><polyline points="317.52 68.39 302.05 62.47 302.05 29.55 299.06 29.55 299.06 62.12" style="fill:none; stroke:#000; stroke-linejoin:round;"/><line x1="317.62" y1="70.93" x2="319.01" y2="70.93" style="fill:none; stroke:#000; stroke-linejoin:round;"/><line x1="317.55" y1="68.9" x2="319.01" y2="68.9" style="fill:none; stroke:#000; stroke-linejoin:round;"/><polyline points="311.69 66.07 315.52 61.73 316.76 62.58" style="fill:none; stroke:#000; stroke-linecap:round; stroke-linejoin:round;"/><polyline points="322.03 59.32 324.53 59.32 324.53 57.94" style="fill:none; stroke:#000; stroke-linejoin:round; stroke-width:.5px;"/><line x1="330.52" y1="81.81" x2="321.99" y2="81.81" style="fill:none; stroke:#000; stroke-linejoin:round; stroke-width:.5px;"/><path d="M297.14,104.47v-7.96s0-1.65,1.06-.57,1.84,2.13,1.84,2.13v6.29" style="fill:none; stroke:#000; stroke-linejoin:round;"/><line x1="301.99" y1="104.47" x2="301.99" y2="87.22" style="fill:none; stroke:#000; stroke-linejoin:round; stroke-width:.5px;"/><line x1="302.06" y1="94.28" x2="304.99" y2="93.62" style="fill:none; stroke:#000; stroke-linejoin:round; stroke-width:.5px;"/><line x1="305.34" y1="101.3" x2="308.46" y2="99.21" style="fill:none; stroke:#000; stroke-linejoin:round; stroke-width:.5px;"/><line x1="301.99" y1="100.88" x2="310.32" y2="101.77" style="fill:none; stroke:#000; stroke-linejoin:round; stroke-width:.5px;"/><path d="M314.53,104.47s-13.39-12.56-14.78-25.33" style="fill:none; stroke:#000; stroke-linejoin:round; stroke-width:.5px;"/><path d="M302.06,88.25s3.56,7.3,8.35,13.5c0,0,.93,1.16,2.66,2.61" style="fill:none; stroke:#000; stroke-linejoin:round; stroke-width:.5px;"/><path d="M55.51,63.16c1.52-20.05,3.04-38.11,3.04-38.11" style="fill:none; stroke:#000; stroke-linejoin:round;"/><path d="M45.79,115.21c-2.24-12.17-2.24-42.15-2.24-42.15,0,0,.63,1.53,4.05,4.15" style="fill:none; stroke:#000; stroke-linejoin:round;"/><path d="M53.75,77.22c-.99,15.43-3.02,31.89-3.88,37.65" style="fill:none; stroke:#000; stroke-linejoin:round;"/><path d="M82.64,62.56c2.17-15.9,4.26-31.88,5.69-37.8" style="fill:none; stroke:#000; stroke-linejoin:round;"/><path d="M75.45,115.15c1.37-4.89,2.96-21.57,5.18-37.86" style="fill:none; stroke:#000; stroke-linejoin:round;"/><path d="M63.92,25.41s8.57,77.44,9.99,89.78" style="fill:none; stroke:#000; stroke-linejoin:round;"/><path d="M172.64,62.56c2.17-15.9,4.43-31.89,5.86-37.81" style="fill:none; stroke:#000; stroke-linejoin:round;"/><path d="M168.21,115.13c.72-6.89,2.12-23.88,3.35-37.92" style="fill:none; stroke:#000; stroke-linejoin:round;"/><path d="M153.92,25.41s8.01,72.71,9.93,89.71" style="fill:none; stroke:#000; stroke-linejoin:round;"/><path d="M203.48,62.65c1.49-13.11,3.25-26.46,5.26-37.24" style="fill:none; stroke:#000; stroke-linejoin:round;"/><path d="M197.98,115.14c.69-3.46,2-19.13,3.91-37.73" style="fill:none; stroke:#000; stroke-linejoin:round;"/><path d="M183.92,25.41s7.06,71.75,9.09,89.72" style="fill:none; stroke:#000; stroke-linejoin:round;"/><path d="M232.64,62.56c2.17-15.9,3.52-31.88,4.95-37.8" style="fill:none; stroke:#000; stroke-linejoin:round;"/><path d="M227.76,115.15c1.52-7.07,3.78-26.48,4.23-37.89" style="fill:none; stroke:#000; stroke-linejoin:round;"/><path d="M213.92,25.41s7.09,68.29,9.48,89.73" style="fill:none; stroke:#000; stroke-linejoin:round;"/><path d="M262.64,62.56c2.17-15.9,3.3-31.87,4.72-37.79" style="fill:none; stroke:#000; stroke-linejoin:round;"/><path d="M257.7,115.15c1.19-7.06,3.09-27.28,4.07-37.89" style="fill:none; stroke:#000; stroke-linejoin:round;"/><path d="M243.92,25.41s6.76,67.31,9.26,89.74" style="fill:none; stroke:#000; stroke-linejoin:round;"/><path d="M285.68,115.11c.72-6.91,.54-27.29,.56-37.89" style="fill:none; stroke:#000; stroke-linejoin:round;"/><path d="M272.28,24.78s7.13,67.18,10.06,90.38" style="fill:none; stroke:#000; stroke-linejoin:round;"/><path d="M113.84,62.65c2.42-20.01,4.27-37.93,4.27-37.93" style="fill:none; stroke:#000; stroke-linejoin:round;"/><path d="M105.55,114.86c1.84-5.02,4.25-20.68,6.45-37.57" style="fill:none; stroke:#000; stroke-linejoin:round;"/><path d="M93.62,24.77s6.53,55.42,9.45,86.53c.14,1.45,.29,2.58,.47,3.41" style="fill:none; stroke:#000; stroke-linejoin:round;"/><path d="M144.19,62.92c2.02-20.84,3.7-38.18,3.7-38.18" style="fill:none; stroke:#000; stroke-linejoin:round;"/><path d="M139.1,115.1c.03-.28,.06-.57,.09-.87,1.03-10.51,2.34-24.01,3.64-37.33" style="fill:none; stroke:#000; stroke-linejoin:round;"/><path d="M123.28,24.73s5.88,67.14,10.81,90.42" style="fill:none; stroke:#000; stroke-linejoin:round;"/><line x1="303.63" y1="87.77" x2="306.98" y2="89.05" style="fill:#fff; stroke:#000; stroke-linecap:round; stroke-miterlimit:10; stroke-width:.99px;"/><line x1="303.63" y1="85.77" x2="306.98" y2="87.05" style="fill:#fff; stroke:#000; stroke-linecap:round; stroke-miterlimit:10; stroke-width:.99px;"/><line x1="303.63" y1="83.77" x2="306.98" y2="85.05" style="fill:#fff; stroke:#000; stroke-linecap:round; stroke-miterlimit:10; stroke-width:.99px;"/><line x1="303.63" y1="81.77" x2="306.98" y2="83.05" style="fill:#fff; stroke:#000; stroke-linecap:round; stroke-miterlimit:10; stroke-width:.99px;"/><line x1="303.63" y1="79.77" x2="306.98" y2="81.05" style="fill:#fff; stroke:#000; stroke-linecap:round; stroke-miterlimit:10; stroke-width:.99px;"/><line x1="303.63" y1="77.77" x2="306.98" y2="79.05" style="fill:#fff; stroke:#000; stroke-linecap:round; stroke-miterlimit:10; stroke-width:.99px;"/><line x1="303.63" y1="75.77" x2="306.98" y2="77.05" style="fill:#fff; stroke:#000; stroke-linecap:round; stroke-miterlimit:10; stroke-width:.99px;"/><line x1="303.63" y1="73.77" x2="306.98" y2="75.05" style="fill:#fff; stroke:#000; stroke-linecap:round; stroke-miterlimit:10; stroke-width:.99px;"/><line x1="303.63" y1="71.77" x2="306.98" y2="73.05" style="fill:#fff; stroke:#000; stroke-linecap:round; stroke-miterlimit:10; stroke-width:.99px;"/><line x1="303.63" y1="69.77" x2="306.98" y2="71.05" style="fill:#fff; stroke:#000; stroke-linecap:round; stroke-miterlimit:10; stroke-width:.99px;"/><line x1="303.63" y1="67.77" x2="306.98" y2="69.05" style="fill:#fff; stroke:#000; stroke-linecap:round; stroke-miterlimit:10; stroke-width:.99px;"/><line x1="303.63" y1="65.77" x2="306.98" y2="67.05" style="fill:#fff; stroke:#000; stroke-linecap:round; stroke-miterlimit:10; stroke-width:.99px;"/><line x1="308.21" y1="89.77" x2="311.55" y2="91.05" style="fill:#fff; stroke:#000; stroke-linecap:round; stroke-miterlimit:10; stroke-width:.99px;"/><line x1="308.21" y1="91.77" x2="311.55" y2="93.05" style="fill:#fff; stroke:#000; stroke-linecap:round; stroke-miterlimit:10; stroke-width:.99px;"/><line x1="308.21" y1="93.77" x2="311.55" y2="95.05" style="fill:#fff; stroke:#000; stroke-linecap:round; stroke-miterlimit:10; stroke-width:.99px;"/><line x1="308.21" y1="95.77" x2="311.55" y2="97.05" style="fill:#fff; stroke:#000; stroke-linecap:round; stroke-miterlimit:10; stroke-width:.99px;"/><line x1="308.21" y1="87.77" x2="311.55" y2="89.05" style="fill:#fff; stroke:#000; stroke-linecap:round; stroke-miterlimit:10; stroke-width:.99px;"/><line x1="308.21" y1="85.77" x2="311.55" y2="87.05" style="fill:#fff; stroke:#000; stroke-linecap:round; stroke-miterlimit:10; stroke-width:.99px;"/><line x1="308.21" y1="83.77" x2="311.55" y2="85.05" style="fill:#fff; stroke:#000; stroke-linecap:round; stroke-miterlimit:10; stroke-width:.99px;"/><line x1="308.21" y1="81.77" x2="311.55" y2="83.05" style="fill:#fff; stroke:#000; stroke-linecap:round; stroke-miterlimit:10; stroke-width:.99px;"/><line x1="308.21" y1="79.77" x2="311.55" y2="81.05" style="fill:#fff; stroke:#000; stroke-linecap:round; stroke-miterlimit:10; stroke-width:.99px;"/><line x1="308.21" y1="77.77" x2="311.55" y2="79.05" style="fill:#fff; stroke:#000; stroke-linecap:round; stroke-miterlimit:10; stroke-width:.99px;"/><line x1="308.21" y1="75.77" x2="311.55" y2="77.05" style="fill:#fff; stroke:#000; stroke-linecap:round; stroke-miterlimit:10; stroke-width:.99px;"/><line x1="308.21" y1="73.77" x2="311.55" y2="75.05" style="fill:#fff; stroke:#000; stroke-linecap:round; stroke-miterlimit:10; stroke-width:.99px;"/><line x1="308.21" y1="71.77" x2="311.55" y2="73.05" style="fill:#fff; stroke:#000; stroke-linecap:round; stroke-miterlimit:10; stroke-width:.99px;"/><line x1="308.21" y1="69.77" x2="311.55" y2="71.05" style="fill:#fff; stroke:#000; stroke-linecap:round; stroke-miterlimit:10; stroke-width:.99px;"/><line x1="312.78" y1="89.77" x2="316.13" y2="91.05" style="fill:#fff; stroke:#000; stroke-linecap:round; stroke-miterlimit:10; stroke-width:.99px;"/><line x1="312.78" y1="91.77" x2="316.13" y2="93.05" style="fill:#fff; stroke:#000; stroke-linecap:round; stroke-miterlimit:10; stroke-width:.99px;"/><line x1="312.78" y1="93.77" x2="316.13" y2="95.05" style="fill:#fff; stroke:#000; stroke-linecap:round; stroke-miterlimit:10; stroke-width:.99px;"/><line x1="312.78" y1="95.77" x2="316.13" y2="97.05" style="fill:#fff; stroke:#000; stroke-linecap:round; stroke-miterlimit:10; stroke-width:.99px;"/><line x1="312.78" y1="97.77" x2="316.13" y2="99.05" style="fill:#fff; stroke:#000; stroke-linecap:round; stroke-miterlimit:10; stroke-width:.99px;"/><line x1="312.78" y1="99.77" x2="316.13" y2="101.05" style="fill:#fff; stroke:#000; stroke-linecap:round; stroke-miterlimit:10; stroke-width:.99px;"/><line x1="312.78" y1="87.77" x2="316.13" y2="89.05" style="fill:#fff; stroke:#000; stroke-linecap:round; stroke-miterlimit:10; stroke-width:.99px;"/><line x1="312.78" y1="85.77" x2="316.13" y2="87.05" style="fill:#fff; stroke:#000; stroke-linecap:round; stroke-miterlimit:10; stroke-width:.99px;"/><line x1="312.78" y1="83.77" x2="316.13" y2="85.05" style="fill:#fff; stroke:#000; stroke-linecap:round; stroke-miterlimit:10; stroke-width:.99px;"/><line x1="312.78" y1="81.77" x2="316.13" y2="83.05" style="fill:#fff; stroke:#000; stroke-linecap:round; stroke-miterlimit:10; stroke-width:.99px;"/><line x1="312.78" y1="79.77" x2="316.13" y2="81.05" style="fill:#fff; stroke:#000; stroke-linecap:round; stroke-miterlimit:10; stroke-width:.99px;"/><line x1="312.78" y1="77.77" x2="316.13" y2="79.05" style="fill:#fff; stroke:#000; stroke-linecap:round; stroke-miterlimit:10; stroke-width:.99px;"/><line x1="312.78" y1="75.77" x2="316.13" y2="77.05" style="fill:#fff; stroke:#000; stroke-linecap:round; stroke-miterlimit:10; stroke-width:.99px;"/><line x1="312.78" y1="73.77" x2="316.13" y2="75.05" style="fill:#fff; stroke:#000; stroke-linecap:round; stroke-miterlimit:10; stroke-width:.99px;"/><line x1="312.78" y1="71.77" x2="316.13" y2="73.05" style="fill:#fff; stroke:#000; stroke-linecap:round; stroke-miterlimit:10; stroke-width:.99px;"/><line x1="312.78" y1="69.77" x2="316.13" y2="71.05" style="fill:#fff; stroke:#000; stroke-linecap:round; stroke-miterlimit:10; stroke-width:.99px;"/><line x1="308.21" y1="67.77" x2="311.55" y2="69.05" style="fill:#fff; stroke:#000; stroke-linecap:round; stroke-miterlimit:10; stroke-width:.99px;"/><line x1="37.53" y1="73.25" x2="37.53" y2="67.29" style="fill:#08fc6b; stroke:#000; stroke-miterlimit:6.36;"/></g><g id="mat_outline"><polygon points=".5 113.18 34.29 113.18 34.29 121.94 35.29 122.93 35.29 125.09 38.8 125.09 38.8 125.82 41.87 125.82 41.87 123.41 289.04 123.41 289.04 122.16 315.94 122.16 315.94 125.08 318.97 125.08 318.97 123.72 320.48 123.72 321.99 122.21 321.99 99.79 332.71 99.79 332.71 81.71 330.48 81.71 330.48 58.07 321.89 58.07 321.89 17.64 320.43 16.19 318.84 16.19 318.84 14.76 315.9 14.76 315.9 17.64 289.08 17.64 289.08 16.32 244.12 16.32 244.12 .5 197.75 .5 197.75 16.42 173.82 16.42 173.82 3.38 114.24 3.38 114.24 16.43 77.49 16.43 77.49 8.91 45.32 8.91 45.32 16.3 35.67 16.3 35.67 39.35 35.67 54.75 .5 54.75 .5 113.18" style="fill:none; stroke:#000; stroke-linecap:round; stroke-linejoin:round;"/></g><g id="mat_sensor_group"><g id="mat_unloader_arm_sensor"><g><rect x="326.57" y="68.3" width="5.24" height="3.25" style="fill:#999; stroke:#000;"/><circle cx="324.87" cy="69.92" r="2.78" style="fill:#999; stroke:#000;"/></g><g><rect x="282.62" y="120.04" width="3.25" height="5.24" style="fill:#999; stroke:#000;"/><circle cx="284.25" cy="118.35" r="2.78" style="fill:#999; stroke:#000;"/></g><g><rect x="25.42" y="68.3" width="5.24" height="3.25" style="fill:#999; stroke:#000;"/><circle cx="32.35" cy="69.92" r="2.78" style="fill:#999; stroke:#000;"/></g></g><g><rect x="317.23" y="47.41" width="4.85" height="4.85" style="fill:#999; stroke:#000;"/><circle cx="319.65" cy="49.84" r="1.48" style="fill:#999; stroke:#000; stroke-width:.5px;"/></g></g></g></g></svg>