<?xml version="1.0" encoding="UTF-8"?><svg id="Layer_2" xmlns="http://www.w3.org/2000/svg" viewBox="0 0 337.38 110.08"><g id="expanded"><g id="WRC_SM_group"><path id="WRC_SM_outline" d="M334.83,74.9c1.08-1.45,3.13-4.55,.87-8.54-2.51-4.43-7.93-3.6-7.93-3.6v-7.82c12.15-2.54,9.04-11.43,7.06-12.87,.98-1.11,2.23-2.37,1.94-5.38-.87-8.77-7.88-9.53-7.88-9.53v-.94l-1.11-.37-.39-.13h-2.44v-1.43h-3.02v3.29h-14.29v-10.37h-13.71V7.45h-21.57v9.67h-20.41v-4.22h-9.21v-1.97h2.72v-1.44h3.94v-.71h1.46v-.45h1.66v.72l.83,1.41v2.24h2.1v-1.84l-.56-.41v-.58l.46-.33v-.7l-.51-.38v-.67l.5-.37v-.8l-.55-.4v-1.03l.46-.33V2.84h-1.8v1.04l-1.06,2.51v1.02h-1.53v-.64h-1.46v-.71h-3.94v-1.16l-2.72,.04h-.63l-5.37,.09c-.07,.01-.13,.04-.19,.07-.38,.19-.29,.54-.29,.54-1.24-.02-.93,.67-.93,.67h-1.16v-2.08h-5.38v2.01h-1.5V1.64h-1.08l-1.18,2.72s-1.43-3-5.23-3.02c-4.1-.01-5.12,3.01-5.12,3.01h-1.3V1.68h-2.1v3.78h-.58c-.04-.1-.09-.19-.14-.3-.05-.1-.11-.19-.17-.29-.2-.35-.46-.65-.74-.94-.08-.08-.16-.16-.25-.24-.24-.21-.51-.41-.8-.57-.14-.09-.29-.16-.44-.23-.14-.07-.3-.13-.46-.19-.08-.03-.15-.06-.24-.08-.1-.03-.2-.06-.31-.08-.13-.04-.27-.06-.41-.08-.01-.01-.03-.01-.05-.01-.25-.04-.52-.06-.79-.06-.29,0-.57,.02-.86,.07-.13,.02-.27,.05-.41,.08-.2,.05-.4,.11-.58,.18-.19,.07-.38,.15-.56,.24-.13,.06-.25,.13-.38,.21-.18,.11-.36,.24-.53,.38-.14,.11-.28,.23-.4,.35-.27,.27-.5,.55-.69,.86-.06,.08-.11,.16-.16,.25-.07,.12-.13,.24-.19,.37-.01,.01-.01,.02-.01,.02h-.63V1.57h-2.22v2.87h-1.04l-.75-2.86h-1.5V6.23h-25.02v-2.01h-5.38v2.03h-7.02V.89h-2.23v3.34h-1.46V.89h-2.41v1.46l-2.33-1.85s-.23,.33-.51,.67c-.05,.07-.11,.14-.17,.21-.11,.13-.22,.27-.33,.35-.29-.09-.57-.16-.88-.19-.06-.01-.13-.02-.2-.03h-.02s-.08-.01-.12-.01c-.18-.02-.38-.03-.57-.03s-.38,.01-.56,.03c-.08,0-.16,.01-.24,.03-.56,.06-1.09,.2-1.59,.42-.05,.02-.11,.04-.16,.07-.11,.04-.21,.1-.33,.15-.09,.05-.18,.1-.28,.16-.19,.11-.38,.23-.55,.37-.01-.01-.02,0-.03,.02-.16,.12-.32,.24-.47,.39-.04,.02-.07,.05-.1,.09-.07,.06-.13,.12-.19,.19-.1,.09-.19,.2-.29,.31l-.61-2.25h-2.21v2.84h-1.47V1.5h-2.26V6.25h-7.68l-.48-.66h-15.21v1.43h-2.14v1.3h2.14v1.36h9.82v1.51h.57v1.71h-24.82v4.23h-14.94V7.45h-21.5v9.68h-15.11v9.61h-3.46l-.75,.86s-6.22-.43-6.22,.5h-6.71v-3.65h-1.36v1.54h-3.48l-.54,.39-.03,.94-.04,.97s-7.19,.39-7.74,8.06c-.45,6.42,6.59,8.74,6.59,8.74,0,0-3.85,3.63-5.51,5.45,.72,.69,.48,2.51-.58,2.65H4.63l-.35-.5H.5v11.63h3.62l.44-.45h3.45v1.35l1.57,.02v-1.44s5.78,.07,6.23,.07c.01,.01,.03,.02,.04,.02,.02,.01,.03,.02,.04,.03,.05,.03,.1,.06,.14,.1,.06,.04,.11,.09,.15,.14,.11,.12,.19,.27,.23,.42,.03,.08,.05,.16,.06,.24,.01,.09,.02,.17,.02,.25,0,.11-.01,.21-.03,.32-.03,.19-.08,.38-.12,.52-.04,.11-.08,.2-.11,.28l-.05,.1,5.68,5.63s-7.55,2.48-6.56,9.39c1.07,7.45,9.39,7.35,9.39,7.35v.74h-1.25l-.33,.33v.79l.36,.37h1.22v.29h2.44v1.36h1.36v-3.55h6.32l1.5,.33h4.18l.93,.93h4.21v9.61h2.83v-.49h12.28v10.23h21.57v-10.23h190.04v10.23h21.57v-10.23h12.06v.49h1.65v-10.73h14.29v3.56h3.02v-1.25h2.59v-.31h.97l.45-.45v-.74l-.36-.36h-.93v-.4s.07-.01,.1-.01c1.17-.16,2.21-.4,3.12-.71,.11-.03,.21-.07,.32-.11,.22-.08,.45-.17,.65-.27,1.11-.48,2-1.08,2.7-1.75,.13-.12,.24-.24,.37-.37,.01-.01,.02-.03,.03-.04,.13-.14,.24-.29,.36-.43,.23-.31,.45-.62,.62-.95,.07-.13,.14-.28,.2-.41,.22-.47,.39-.95,.5-1.43,.04-.16,.07-.33,.1-.49,.03-.16,.05-.33,.07-.49,.03-.22,.05-.45,.05-.68,.1-2.56-.92-5.01-2.04-6.12ZM134.84,12.89h-10.11v-3.29h10.11v3.29Zm29.74-.05h-6.7v-3.77h6.7v3.77Zm14.98-1.88l-.82,1.88h-8.79v-3.53h9.61v1.65Zm15.48,1.88h-8.33l-.63-1.87h-.13v-1.85l9.1-.06v3.77Zm5.59-.23v-2.26h.66c.31,.56,.69,1.06,1.16,1.47,.06,.05,.12,.1,.19,.15l.45,.33,.44,.32h-2.91Zm28.11,.29h-1.45v-3.87l1.45,.29v3.58Zm5.43,0v-3.76h1.01v.18h1.37v3.58h-2.38Z" style="fill:#999; stroke:#000; stroke-linejoin:round;"/><g id="WRC_SM_details"><line x1="4.63" y1="63.86" x2="4.63" y2="53.18" style="fill:none; stroke:#000; stroke-miterlimit:4.36; stroke-width:1.02px;"/><line x1="15.85" y1="63.89" x2="15.85" y2="53.21" style="fill:none; stroke:#000; stroke-miterlimit:4.36; stroke-width:1.02px;"/><path d="M21.9,45.07s7.97-8.24,9.32-9.6c0,2.73-1.01,2.4,10.39,2.4" style="fill:none; stroke:#000; stroke-linejoin:round; stroke-width:1.02px;"/><line x1="41.44" y1="24.58" x2="41.44" y2="92.49" style="fill:none; stroke:#000; stroke-linejoin:round; stroke-width:1.02px;"/><line x1="32.12" y1="79.19" x2="32.08" y2="37.84" style="fill:none; stroke:#000; stroke-linejoin:round; stroke-width:1.02px;"/><path d="M21.87,71.91s6.95,7,9.35,9.4c0-2.83-.6-2.19,10.21-2.19" style="fill:none; stroke:#000; stroke-linejoin:round; stroke-width:1.02px;"/><line x1="24.77" y1="74.83" x2="24.77" y2="93.81" style="fill:none; stroke:#000; stroke-linejoin:round; stroke-width:1.02px;"/><line x1="27.14" y1="91.16" x2="27.14" y2="77.19" style="fill:none; stroke:#000; stroke-linejoin:round; stroke-width:1.02px;"/><line x1="25.07" y1="89.55" x2="27.72" y2="89.55" style="fill:none; stroke:#000; stroke-linejoin:round; stroke-width:1.02px;"/><line x1="26.86" y1="39.94" x2="26.86" y2="26.12" style="fill:none; stroke:#000; stroke-linejoin:round; stroke-width:1.02px;"/><line x1="23.05" y1="28.27" x2="23.2" y2="43.36" style="fill:none; stroke:#000; stroke-linejoin:round; stroke-width:1.02px;"/><line x1="22.77" y1="37.48" x2="27.53" y2="37.48" style="fill:none; stroke:#000; stroke-linejoin:round; stroke-width:1.02px;"/><line x1="22.77" y1="33.23" x2="27.53" y2="33.23" style="fill:none; stroke:#000; stroke-linejoin:round; stroke-width:1.02px;"/><line x1="22.77" y1="28.97" x2="27.53" y2="28.97" style="fill:none; stroke:#000; stroke-linejoin:round; stroke-width:1.02px;"/><line x1="41.44" y1="82.24" x2="31.22" y2="81.31" style="fill:none; stroke:#000; stroke-linejoin:round; stroke-width:1.02px;"/><path d="M34.08,88.87s-2.99-2.44-.54-7.24" style="fill:none; stroke:#000; stroke-linejoin:round; stroke-width:1.02px;"/><path d="M34.84,35.22s-2.99-2.44-.54-7.24" style="fill:none; stroke:#000; stroke-linejoin:round; stroke-width:1.02px;"/><line x1="40.9" y1="35.04" x2="31.08" y2="35.47" style="fill:none; stroke:#000; stroke-linejoin:round; stroke-width:1.02px;"/><line x1="32.08" y1="45.91" x2="41.62" y2="45.91" style="fill:none; stroke:#000; stroke-linejoin:round; stroke-width:1.02px;"/><line x1="32.08" y1="54.43" x2="41.62" y2="54.43" style="fill:none; stroke:#000; stroke-linejoin:round; stroke-width:1.02px;"/><line x1="32.08" y1="58.68" x2="41.62" y2="58.68" style="fill:none; stroke:#000; stroke-linejoin:round; stroke-width:1.02px;"/><line x1="32.08" y1="62.94" x2="41.62" y2="62.94" style="fill:none; stroke:#000; stroke-linejoin:round; stroke-width:1.02px;"/><line x1="32.08" y1="71.45" x2="41.62" y2="71.45" style="fill:none; stroke:#000; stroke-linejoin:round; stroke-width:1.02px;"/><line x1="45.64" y1="90.23" x2="45.64" y2="26.73" style="fill:none; stroke:#000; stroke-linejoin:round; stroke-width:1.02px;"/><g><path d="M66.13,20.75l.07-6.71s-.15-1.74,1.74-1.74h7.13s1.81-.07,1.81,1.47v6.98" style="fill:none; stroke:#000; stroke-linejoin:round; stroke-width:1.02px;"/><line x1="67.49" y1="12.35" x2="67.49" y2="7.68" style="fill:none; stroke:#000; stroke-linejoin:round; stroke-width:1.02px;"/><line x1="75.07" y1="12.35" x2="75.07" y2="7.68" style="fill:none; stroke:#000; stroke-linejoin:round; stroke-width:1.02px;"/></g><g><path d="M76.88,96.52l-.07,6.71s.15,1.74-1.74,1.74h-7.13s-1.81,.07-1.81-1.47v-6.98" style="fill:none; stroke:#000; stroke-linejoin:round; stroke-width:1.02px;"/><line x1="75.52" y1="104.93" x2="75.52" y2="109.6" style="fill:none; stroke:#000; stroke-linejoin:round; stroke-width:1.02px;"/><line x1="67.94" y1="104.93" x2="67.94" y2="109.6" style="fill:none; stroke:#000; stroke-linejoin:round; stroke-width:1.02px;"/></g><g><path d="M277.79,20.75l.07-6.71s-.15-1.74,1.74-1.74h7.13s1.81-.07,1.81,1.47v6.98" style="fill:none; stroke:#000; stroke-linejoin:round; stroke-width:1.02px;"/><line x1="279.15" y1="12.35" x2="279.15" y2="7.68" style="fill:none; stroke:#000; stroke-linejoin:round; stroke-width:1.02px;"/><line x1="286.73" y1="12.35" x2="286.73" y2="7.68" style="fill:none; stroke:#000; stroke-linejoin:round; stroke-width:1.02px;"/></g><g><path d="M288.54,96.52l-.07,6.71s.15,1.74-1.74,1.74h-7.13s-1.81,.07-1.81-1.47v-6.98" style="fill:none; stroke:#000; stroke-linejoin:round; stroke-width:1.02px;"/><line x1="287.17" y1="104.93" x2="287.17" y2="109.6" style="fill:none; stroke:#000; stroke-linejoin:round; stroke-width:1.02px;"/><line x1="279.59" y1="104.93" x2="279.59" y2="109.6" style="fill:none; stroke:#000; stroke-linejoin:round; stroke-width:1.02px;"/></g><line x1="103.71" y1="12.9" x2="103.71" y2="17.45" style="fill:none; stroke:#000; stroke-miterlimit:10;"/><line x1="307.64" y1="27.59" x2="307.64" y2="89.11" style="fill:none; stroke:#000; stroke-linejoin:round; stroke-width:1.02px;"/><line x1="324.95" y1="90.88" x2="324.95" y2="25.73" style="fill:none; stroke:#000; stroke-linejoin:round; stroke-width:1.02px;"/><line x1="327.78" y1="89.16" x2="327.78" y2="25.86" style="fill:none; stroke:#000; stroke-linejoin:round; stroke-width:1.02px;"/><path d="M334.84,74.89s-1.91-2.62-6.84-2.62" style="fill:none; stroke:#000; stroke-linejoin:round; stroke-width:1.02px;"/><path d="M334.84,42.07s-2.98,3.45-6.84,3.58" style="fill:none; stroke:#000; stroke-linejoin:round; stroke-width:1.02px;"/><line x1="324.95" y1="81.13" x2="307.64" y2="81.13" style="fill:none; stroke:#000; stroke-linejoin:round; stroke-width:1.02px;"/><line x1="324.95" y1="76.87" x2="307.64" y2="76.87" style="fill:none; stroke:#000; stroke-linejoin:round; stroke-width:1.02px;"/><line x1="324.95" y1="72.62" x2="307.64" y2="72.62" style="fill:none; stroke:#000; stroke-linejoin:round; stroke-width:1.02px;"/><line x1="324.95" y1="44.95" x2="307.64" y2="44.95" style="fill:none; stroke:#000; stroke-linejoin:round; stroke-width:1.02px;"/><line x1="324.95" y1="38.56" x2="307.64" y2="38.56" style="fill:none; stroke:#000; stroke-linejoin:round; stroke-width:1.02px;"/><line x1="324.95" y1="34.31" x2="307.64" y2="34.31" style="fill:none; stroke:#000; stroke-linejoin:round; stroke-width:1.02px;"/><line x1="310.97" y1="45.02" x2="310.97" y2="72.61" style="fill:none; stroke:#000; stroke-linejoin:round; stroke-width:1.02px;"/><path d="M311.26,47.73h3.65s4.45,.34,4.45,4.22-4.45,3.88-4.45,3.88h-3.8" style="fill:none; stroke:#000; stroke-linejoin:round; stroke-width:1.02px;"/><path d="M311.26,60.5h3.65s4.45,.34,4.45,4.22-4.45,3.88-4.45,3.88h-3.8" style="fill:none; stroke:#000; stroke-linejoin:round; stroke-width:1.02px;"/><line x1="308.07" y1="49.95" x2="311.26" y2="49.95" style="fill:none; stroke:#000; stroke-linejoin:round; stroke-width:1.02px;"/><line x1="308.07" y1="54.21" x2="311.26" y2="54.21" style="fill:none; stroke:#000; stroke-linejoin:round; stroke-width:1.02px;"/><line x1="308.07" y1="58.47" x2="311.26" y2="58.47" style="fill:none; stroke:#000; stroke-linejoin:round; stroke-width:1.02px;"/><line x1="308.07" y1="62.72" x2="311.26" y2="62.72" style="fill:none; stroke:#000; stroke-linejoin:round; stroke-width:1.02px;"/><line x1="308.07" y1="66.98" x2="311.26" y2="66.98" style="fill:none; stroke:#000; stroke-linejoin:round; stroke-width:1.02px;"/><line x1="111.8" y1="9.6" x2="134.84" y2="9.6" style="fill:none; stroke:#000; stroke-linejoin:round;"/><line x1="122.05" y1="17.34" x2="122.05" y2="9.78" style="fill:none; stroke:#000; stroke-linejoin:round;"/><line x1="124.74" y1="9.58" x2="124.74" y2="17.34" style="fill:none; stroke:#000; stroke-linejoin:round;"/><line x1="137.92" y1="4.37" x2="137.92" y2="11" style="fill:none; stroke:#000; stroke-linejoin:round;"/><circle cx="146.34" cy="7.74" r="6.27" style="fill:none; stroke:#000; stroke-linejoin:round;"/><circle cx="146.34" cy="7.74" r="2.8" style="fill:none; stroke:#000; stroke-linejoin:round;"/><path d="M152.69,6.74h.56c.19,0,.34,.15,.34,.34v1.33c0,.19-.15,.34-.34,.34h-.56" style="fill:none; stroke:#000; stroke-linejoin:round; stroke-width:.5px;"/><path d="M140.14,8.74h-2.03c-.19,0-.34-.15-.34-.34v-1.33c0-.19,.15-.34,.34-.34h1.95" style="fill:none; stroke:#000; stroke-linejoin:round; stroke-width:.5px;"/><path d="M147.29,8.44c-.2,.36-.55,.59-.95,.59s-.73-.23-.94-.57c-.12-.21-.13-1.19-.03-1.39,.2-.37,.56-.63,.97-.63s.77,.25,.97,.63c.1,.19,.09,1.16-.02,1.36Z" style="fill:none; stroke:#000; stroke-linejoin:round; stroke-width:.5px;"/><polyline points="134.92 5.97 134.92 13.78 137.12 13.76 137.12 10.96 138.78 10.96 138.78 13.76 140.93 13.76 140.93 10.82" style="fill:none; stroke:#000; stroke-linejoin:round;"/><line x1="127.17" y1="6.26" x2="127.17" y2="9.46" style="fill:none; stroke:#000; stroke-linejoin:round;"/><line x1="120.99" y1="9.39" x2="120.99" y2="5.73" style="fill:none; stroke:#000; stroke-linejoin:round;"/><polygon points="142.08 6.92 141.29 6.92 140.9 7.6 141.29 8.27 142.08 8.27 142.47 7.6 142.08 6.92" style="fill:none; stroke:#000; stroke-linejoin:round; stroke-width:.5px;"/><polygon points="151.32 6.92 150.54 6.92 150.15 7.6 150.54 8.27 151.32 8.27 151.71 7.6 151.32 6.92" style="fill:none; stroke:#000; stroke-linejoin:round; stroke-width:.5px;"/><polygon points="146.99 3.36 146.99 2.58 146.31 2.19 145.63 2.58 145.63 3.36 146.31 3.76 146.99 3.36" style="fill:none; stroke:#000; stroke-linejoin:round; stroke-width:.5px;"/><polygon points="146.99 12.61 146.99 11.83 146.31 11.43 145.63 11.83 145.63 12.61 146.31 13 146.99 12.61" style="fill:none; stroke:#000; stroke-linejoin:round; stroke-width:.5px;"/><polygon points="143.8 4.12 143.24 3.57 142.49 3.77 142.28 4.53 142.84 5.08 143.59 4.88 143.8 4.12" style="fill:none; stroke:#000; stroke-linejoin:round; stroke-width:.5px;"/><polygon points="150.33 10.66 149.78 10.11 149.02 10.31 148.82 11.07 149.37 11.62 150.13 11.42 150.33 10.66" style="fill:none; stroke:#000; stroke-linejoin:round; stroke-width:.5px;"/><polygon points="149.78 5.08 150.33 4.53 150.13 3.77 149.37 3.57 148.82 4.12 149.02 4.88 149.78 5.08" style="fill:none; stroke:#000; stroke-linejoin:round; stroke-width:.5px;"/><polygon points="143.24 11.62 143.8 11.07 143.59 10.31 142.84 10.11 142.28 10.66 142.49 11.42 143.24 11.62" style="fill:none; stroke:#000; stroke-linejoin:round; stroke-width:.5px;"/><polyline points="148.75 13.68 149.91 14.98 153.24 12.37 151.77 10.7" style="fill:none; stroke:#000; stroke-linejoin:round;"/><line x1="154.62" y1="4.3" x2="154.62" y2="10.96" style="fill:none; stroke:#000; stroke-linejoin:round;"/><polyline points="151.71 13.83 153.83 13.83 153.83 10.86 155.36 10.86 155.36 13.83 157.62 13.83 157.62 6.26" style="fill:none; stroke:#000; stroke-linejoin:round;"/><polyline points="157.88 9.06 195.04 9.06 195.04 13.72 196.12 13.72 197.12 10.68 198.27 10.68 198.27 13.68 200.63 13.68 200.63 9.75" style="fill:none; stroke:#000; stroke-linejoin:round;"/><path d="M200.9,5.95c.72-2.07,2.69-3.56,5-3.56s4.24,1.46,4.98,3.49" style="fill:none; stroke:#000; stroke-linejoin:round;"/><path d="M207.3,12.7c-.22,.03-.65,.2-1.4,.27-2.06,.2-3.85-1.07-4.73-2.87" style="fill:none; stroke:#000; stroke-linejoin:round;"/><circle cx="205.9" cy="7.68" r="1.99" style="fill:none; stroke:#000; stroke-linejoin:round;"/><polyline points="208.54 15.63 207.28 14.95 207.17 11.6 210.03 9.83 212.98 11.42 213.09 14.77 211.6 15.69" style="fill:none; stroke:#000; stroke-linejoin:round;"/><path d="M209.45,5.23l-3.99-.82-6.64,2.5,.27,2.5,7.17,1.51,4.62-2.05s.99-.24,.99-1.71-2.42-1.92-2.42-1.92Z" style="fill:none; stroke:#000; stroke-linejoin:round;"/><path d="M208.45,20.17v-6.88s-.1-2.32,1.54-2.32,1.52,2.53,1.52,2.53v6.67" style="fill:none; stroke:#000; stroke-linejoin:round;"/><rect x="207.66" y="20.17" width="5.15" height="7.53" style="fill:none; stroke:#000; stroke-linejoin:round;"/><rect x="198.63" y="21.93" width="9.13" height="4.01" style="fill:none; stroke:#000; stroke-linejoin:round;"/><rect x="208.66" y="27.79" width="2.84" height="26.6" style="fill:none; stroke:#000; stroke-linejoin:round;"/><rect x="237.42" y="35.55" width="2.84" height="19.46" style="fill:none; stroke:#000; stroke-linejoin:round;"/><polyline points="237.1 24.83 237.1 12.9 240.72 12.9 240.72 24.69" style="fill:none; stroke:#000; stroke-linejoin:round;"/><rect x="236.04" y="24.8" width="5.72" height="10.64" style="fill:none; stroke:#000; stroke-linejoin:round;"/><rect x="195.88" y="23.29" width="2.62" height="1.36" style="fill:none; stroke:#000; stroke-linejoin:round;"/><path d="M208.05,55.05s-.85,5.26,5.7,5.26c0-2.04,.06-3.58,.06-3.58,0,0-1.82,.11-1.84-1.67h-3.92Z" style="fill:none; stroke:#000; stroke-miterlimit:10;"/><path d="M240.87,55.05s.85,5.26-5.7,5.26c0-2.04-.06-3.58-.06-3.58,0,0,1.82,.11,1.84-1.67h3.92Z" style="fill:none; stroke:#000; stroke-miterlimit:10;"/><rect x="219.05" y="56.12" width="7.81" height="5.04" style="fill:none; stroke:#000; stroke-miterlimit:10;"/><line x1="221.42" y1="56.04" x2="221.42" y2="61.1" style="fill:none; stroke:#000; stroke-miterlimit:10;"/><line x1="224.79" y1="56.12" x2="224.79" y2="61.1" style="fill:none; stroke:#000; stroke-miterlimit:10;"/><line x1="213.89" y1="57.05" x2="219.05" y2="57.05" style="fill:none; stroke:#000; stroke-miterlimit:10;"/><line x1="213.81" y1="59.91" x2="219.05" y2="59.91" style="fill:none; stroke:#000; stroke-miterlimit:10;"/><line x1="227.12" y1="57.05" x2="234.89" y2="57.05" style="fill:none; stroke:#000; stroke-miterlimit:10;"/><line x1="226.99" y1="59.91" x2="234.89" y2="59.91" style="fill:none; stroke:#000; stroke-miterlimit:10;"/><line x1="179.56" y1="9.13" x2="179.56" y2="11.25" style="fill:none; stroke:#000; stroke-linejoin:round;"/><line x1="185.95" y1="9.03" x2="185.95" y2="11.25" style="fill:none; stroke:#000; stroke-linejoin:round;"/><polygon points="187 13.68 178.42 13.68 179.56 10.96 186.09 10.98 187 13.68" style="fill:none; stroke:#000; stroke-linejoin:round;"/><path d="M178.42,13.68s.97,1.8,4.3,1.8,4.29-1.8,4.29-1.8" style="fill:none; stroke:#000; stroke-linejoin:round;"/><polyline points="169.96 9.03 169.96 12.9 164.58 12.9 164.58 9.03" style="fill:none; stroke:#000; stroke-linejoin:round;"/><polyline points="164.58 6.26 164.58 4.23 169.96 4.23 169.96 6.23" style="fill:none; stroke:#000; stroke-linejoin:round;"/><polyline id="outline" points="122.01 12.9 122.01 11.18 121.44 11.18 121.44 9.67 111.62 9.67 111.62 8.31 109.47 8.31 109.47 7.02 111.62 7.02 111.62 5.59 126.83 5.59 127.3 6.26 134.98 6.26 134.98 1.5 137.24 1.5 137.24 4.29 138.71 4.29 138.71 1.45 140.93 1.45 141.58 3.83" style="fill:none; stroke:#000; stroke-linejoin:round;"/><path id="outline-2" d="M148.03,1.84c.4-.32,1.11-1.34,1.11-1.34l2.33,1.84V.89h2.4v3.33h1.46V.89h2.23V6.26h7.02l5.38-.02h25.01V1.58h1.51l.75,2.86h1.04V1.58h2.22v3.83h.84" style="fill:none; stroke:#000; stroke-linejoin:round;"/><path id="outline-3" d="M210.57,5.47h.72V1.68h2.1v2.68h1.29s1.02-3.02,5.12-3.01c3.81,.01,5.23,3.02,5.23,3.02l1.18-2.72h1.08V6.23h1.51v-2.01h5.38v2.08h1.16s-.31-.69,.93-.67c0,0-.19-.69,1.06-.69h5.41" style="fill:none; stroke:#000; stroke-linejoin:round;"/><line x1="197.48" y1="4.59" x2="197.41" y2="10.68" style="fill:none; stroke:#000; stroke-linejoin:round;"/><line x1="212.81" y1="15.03" x2="236.92" y2="15.05" style="fill:none; stroke:#000; stroke-linejoin:round;"/><line x1="185.29" y1="14.96" x2="207.28" y2="14.95" style="fill:none; stroke:#000; stroke-linejoin:round;"/><path d="M126.35,17.13s.34-2.14,3.62-2.14l50.02-.03" style="fill:none; stroke:#000; stroke-linejoin:round;"/><line x1="133.95" y1="14.98" x2="133.95" y2="17.01" style="fill:none; stroke:#000; stroke-linejoin:round;"/><line x1="231.85" y1="14.98" x2="231.85" y2="17.15" style="fill:none; stroke:#000; stroke-linejoin:round;"/><line x1="211.51" y1="17.13" x2="237.1" y2="17.13" style="fill:none; stroke:#000; stroke-linejoin:round;"/><line x1="97.19" y1="17.13" x2="208.42" y2="17.13" style="fill:none; stroke:#000; stroke-linejoin:round;"/><rect x="214.73" y="4.51" width="10.06" height="6.31" style="fill:none; stroke:#000; stroke-linejoin:round;"/><path d="M222.78,10.82s-.9,1.31-3.19,1.45-3.26-1.45-3.26-1.45" style="fill:none; stroke:#000; stroke-linejoin:round;"/><path d="M216.4,4.53c1.08-1.23,2.12-1.47,3.19-1.47s2.49,.53,3.19,1.56" style="fill:none; stroke:#000; stroke-linejoin:round;"/><line x1="227.3" y1="12.9" x2="227.3" y2="6.23" style="fill:none; stroke:#000; stroke-linejoin:round;"/><line x1="228.8" y1="6.23" x2="234.18" y2="6.31" style="fill:none; stroke:#000; stroke-linejoin:round;"/><line x1="227.37" y1="9.13" x2="235.18" y2="9.13" style="fill:none; stroke:#000; stroke-linejoin:round;"/><line x1="234.18" y1="9.03" x2="234.18" y2="13.04" style="fill:none; stroke:#000; stroke-linejoin:round;"/><line x1="236.46" y1="12.54" x2="236.55" y2="5.02" style="fill:none; stroke:#000; stroke-linejoin:round;"/><polyline points="235.18 6.23 235.18 9.92 236.48 9.94" style="fill:none; stroke:#000; stroke-linejoin:round;"/><line x1="242.74" y1="12.76" x2="242.74" y2="4.73" style="fill:none; stroke:#000; stroke-linejoin:round;"/><circle cx="239.55" cy="7.91" r="1.88" style="fill:none; stroke:#000; stroke-linejoin:round;"/><polyline points="244.45 28.24 248.47 28.24 248.47 31.68 244.42 31.68" style="fill:none; stroke:#000; stroke-linejoin:round;"/><polyline points="241.7 26.93 244.42 26.93 244.42 32.97 241.81 32.97" style="fill:none; stroke:#000; stroke-linejoin:round;"/><polyline points="248.47 28.95 249.93 28.95 249.93 30.96 248.47 30.96" style="fill:none; stroke:#000; stroke-linejoin:round;"/><polyline points="249.93 29.49 251.46 29.49 251.46 28.09 252.52 24.65 252.52 23.22 254.31 23.22 254.31 26.01 253.86 26.47 253.86 27.88 254.41 28.43 254.41 29.53 253.91 30.02 253.91 30.96 254.42 31.46 254.42 32.43 253.97 32.89 253.97 33.68 254.52 34.24 254.52 36.77 252.42 36.77 252.42 33.68 251.59 31.75 251.59 30.76 250.03 30.76" style="fill:none; stroke:#000; stroke-linejoin:round;"/><polygon points="238.35 30.39 238.35 32.11 237.46 32.11 238.91 34.26 240.22 32.31 239.47 32.31 239.47 30.39 238.35 30.39" style="fill:none; stroke:#000; stroke-linejoin:round; stroke-width:.5px;"/><polyline points="245.38 6.05 249.4 6.05 249.4 9.49 245.35 9.49" style="fill:none; stroke:#000; stroke-linejoin:round;"/><polyline points="249.4 6.77 250.86 6.77 250.86 8.77 249.4 8.77" style="fill:none; stroke:#000; stroke-linejoin:round;"/><polyline points="250.86 7.4 252.39 7.4 252.39 6.39 253.45 3.88 253.45 2.84 255.24 2.84 255.24 4.87 254.79 5.21 254.79 6.23 255.34 6.63 255.34 7.43 254.84 7.79 254.84 8.47 255.35 8.84 255.35 9.54 254.89 9.87 254.89 10.46 255.45 10.86 255.45 12.7 253.34 12.7 253.34 10.46 252.52 9.05 252.52 8.33 250.96 8.33" style="fill:none; stroke:#000; stroke-linejoin:round;"/><polyline points="242.74 4.89 245.46 4.89 245.46 10.93 242.85 10.93" style="fill:none; stroke:#000; stroke-linejoin:round;"/><line id="outline-4" x1="157.74" y1="12.9" x2="178.74" y2="12.9" style="fill:none; stroke:#000; stroke-linejoin:round;"/><line id="outline-5" x1="153.95" y1="12.9" x2="155.23" y2="12.9" style="fill:none; stroke:#000; stroke-linejoin:round;"/><line id="outline-6" x1="137.12" y1="12.9" x2="138.78" y2="12.9" style="fill:none; stroke:#000; stroke-linejoin:round;"/><line id="outline-7" x1="142.47" y1="12.9" x2="140.93" y2="12.9" style="fill:none; stroke:#000; stroke-linejoin:round;"/><line id="outline-8" x1="124.74" y1="12.9" x2="134.84" y2="12.9" style="fill:none; stroke:#000; stroke-linejoin:round;"/><line x1="186.72" y1="12.84" x2="204.28" y2="12.84" style="fill:none; stroke:#000; stroke-linejoin:round;"/><line x1="251.95" y1="17.12" x2="240.72" y2="17.09" style="fill:none; stroke:#000; stroke-linejoin:round;"/><line x1="237.1" y1="13.04" x2="213.09" y2="13.04" style="fill:none; stroke:#000; stroke-linejoin:round;"/></g></g></g></svg>