<?xml version="1.0" encoding="UTF-8"?><svg id="Layer_2" xmlns="http://www.w3.org/2000/svg" viewBox="0 0 47.36 39.41"><g id="chicken_group"><g id="chicken001"><path id="chicken_bone" d="M35.04,7.5s1.63-1.88,2.24-2.48c-4.79-4.71,3.93-6.86,3.24-.86,6.6-.91,4.1,7.81-.78,3.76l-2.09,2.01-2.61-2.43Z" style="fill:#f4cca8; stroke:#000; stroke-miterlimit:10;"/><path id="chicken_body" d="M11.08,33.55C.5,31.31-1.31,11.69,14.13,8.49c16.64-3.45,23.4,10.33,23.4,10.33,0,0,6.25,10.41-1.94,15.39-13.95,.58-17.62,.81-24.52-.65Z" style="fill:#cc7723; stroke:#000; stroke-miterlimit:10;"/><path id="chicken_tray" d="M.5,34.2H46.86c0,4.71-3.71,4.71-3.71,4.71H4.34s-3.84,0-3.84-4.71Z" style="fill:#88c9ea; stroke:#000; stroke-miterlimit:10;"/><path id="chicken_leg" d="M36.76,8.65s2.57,2.24-1.64,5.87c-1.25,1.08-1.27,5.18-1.21,6.86,.17,4.83-8.61,10.73-15.11,4.4-5.86-5.7-1.07-15.15,8.14-14.18,4.26,.45,5.67-7.11,9.82-2.96Z" style="fill:#eaa15e; stroke:#000; stroke-miterlimit:10;"/></g></g></svg>