<?xml version="1.0" encoding="UTF-8"?><svg id="Layer_2" xmlns="http://www.w3.org/2000/svg" viewBox="0 0 180.85 42.91"><g id="conveyor_icon_group_02"><g id="conveyor_belt_group"><g id="conveyor_background_group"><g id="background"><path d="M172.59,21.46c0,3.93-1.59,7.49-4.17,10.07-2.57,2.57-6.13,4.17-10.07,4.17H22.49c-7.86,0-14.24-6.38-14.24-14.24,0-3.93,1.6-7.49,4.17-10.07,2.58-2.57,6.14-4.17,10.07-4.17H158.35c7.87,0,14.24,6.38,14.24,14.24Z" style="fill:#dbdbdb;"/><path d="M158.36,35.94H22.49c-7.99,0-14.49-6.5-14.49-14.49,0-3.86,1.51-7.5,4.24-10.25,2.75-2.74,6.39-4.24,10.25-4.24H158.36c7.99,0,14.49,6.5,14.49,14.49,0,3.87-1.51,7.51-4.24,10.25-2.74,2.74-6.37,4.24-10.25,4.24ZM22.49,7.46c-3.73,0-7.24,1.46-9.89,4.1-2.64,2.65-4.1,6.17-4.1,9.89,0,7.71,6.28,13.99,13.99,13.99H158.36c3.74,0,7.25-1.46,9.89-4.1s4.1-6.16,4.1-9.89c0-7.71-6.28-13.99-13.99-13.99H22.49Z" style="fill:#231f20;"/></g><g id="bg_bolt_group"><g id="bolt004"><polygon points="130.21 24.27 133.46 24.27 135.09 21.45 133.46 18.64 130.21 18.64 128.58 21.45 130.21 24.27" style="fill:#aaa;"/><path d="M133.63,24.57h-3.6l-1.8-3.12,1.8-3.12h3.6l1.8,3.12-1.8,3.12Zm-3.25-.6h2.91l1.45-2.52-1.45-2.52h-2.91l-1.45,2.52,1.45,2.52Z"/></g><g id="bolt003"><polygon points="102.6 24.27 105.86 24.27 107.48 21.45 105.86 18.64 102.6 18.64 100.98 21.45 102.6 24.27" style="fill:#aaa;"/><path d="M106.03,24.57h-3.6l-1.8-3.12,1.8-3.12h3.6l1.8,3.12-1.8,3.12Zm-3.25-.6h2.91l1.45-2.52-1.45-2.52h-2.91l-1.45,2.52,1.45,2.52Z"/></g><g id="bolt002"><polygon points="78.25 18.64 75 18.64 73.37 21.45 75 24.27 78.25 24.27 79.88 21.45 78.25 18.64" style="fill:#aaa;"/><path d="M78.42,24.57h-3.6l-1.8-3.12,1.8-3.12h3.6l1.8,3.12-1.8,3.12Zm-3.25-.6h2.91l1.45-2.52-1.45-2.52h-2.91l-1.45,2.52,1.45,2.52Z"/></g><g id="bolt001"><polygon points="50.65 18.64 47.39 18.64 45.77 21.45 47.39 24.27 50.65 24.27 52.27 21.45 50.65 18.64" style="fill:#aaa;"/><path d="M50.82,24.57h-3.6l-1.8-3.12,1.8-3.12h3.6l1.8,3.12-1.8,3.12Zm-3.25-.6h2.91l1.45-2.52-1.45-2.52h-2.91l-1.45,2.52,1.45,2.52Z"/></g></g></g><g id="wheel_group"><g id="wheel_group2"><g id="wheel"><circle cx="158.36" cy="21.45" r="14.24" style="fill:#bfbfbf;"/><path d="M158.36,35.94c-7.99,0-14.49-6.5-14.49-14.49s6.5-14.49,14.49-14.49,14.49,6.5,14.49,14.49-6.5,14.49-14.49,14.49Zm0-28.47c-7.71,0-13.99,6.27-13.99,13.99s6.27,13.99,13.99,13.99,13.99-6.27,13.99-13.99-6.27-13.99-13.99-13.99Z" style="fill:#231f20;"/></g><g id="bolts_group"><g id="bolt"><polygon points="157.18 30.59 159.89 30.59 161.24 28.24 159.89 25.89 157.18 25.89 155.82 28.24 157.18 30.59" style="fill:#aaa;"/><path d="M160.03,30.84h-3l-1.5-2.6,1.5-2.6h3l1.5,2.6-1.5,2.6Zm-2.71-.5h2.42l1.21-2.1-1.21-2.1h-2.42l-1.21,2.1,1.21,2.1Z"/></g><g id="bolt-2"><polygon points="150.23 25.54 152.94 25.49 154.26 23.12 152.86 20.79 150.15 20.84 148.84 23.21 150.23 25.54" style="fill:#aaa;"/><path d="M150.09,25.79l-1.54-2.57,1.46-2.62,3-.05,1.54,2.57-1.46,2.62-3,.05Zm-.97-2.58l1.25,2.08,2.42-.04,1.17-2.12-1.25-2.08-2.42,.04-1.17,2.12Z"/></g><g id="bolt-3"><polygon points="156.17 16.83 156.82 14.19 154.86 12.32 152.26 13.08 151.61 15.71 153.57 17.58 156.17 16.83" style="fill:#aaa;"/><path d="M153.5,17.86l-2.17-2.07,.71-2.91,2.88-.84,2.17,2.07-.71,2.91-2.88,.84Zm-1.61-2.24l1.75,1.67,2.33-.68,.58-2.35-1.75-1.67-2.33,.68-.58,2.35Z"/></g><g id="bolt-4"><polygon points="164.32 12.67 161.61 12.54 160.15 14.82 161.39 17.23 164.09 17.36 165.56 15.08 164.32 12.67" style="fill:#aaa;"/><path d="M164.23,17.62l-3-.14-1.37-2.67,1.62-2.52,3,.14,1.37,2.67-1.62,2.52Zm-2.68-.63l2.42,.12,1.31-2.04-1.11-2.15-2.42-.12-1.31,2.04,1.11,2.15Z"/></g><g id="bolt-5"><polygon points="167.86 24.54 167.88 21.83 165.55 20.45 163.19 21.79 163.16 24.5 165.5 25.88 167.86 24.54" style="fill:#aaa;"/><path d="M165.49,26.16l-2.58-1.52,.03-3,2.61-1.48,2.58,1.52-.03,3-2.61,1.48Zm-2.08-1.81l2.09,1.23,2.11-1.19,.02-2.42-2.09-1.23-2.11,1.19-.02,2.42Z"/></g></g></g><g id="wheel_group1"><g id="wheel-2"><circle cx="22.5" cy="21.45" r="14.24" style="fill:#bfbfbf;"/><path d="M22.5,35.94c-7.99,0-14.49-6.5-14.49-14.49S14.51,6.97,22.5,6.97s14.49,6.5,14.49,14.49-6.5,14.49-14.49,14.49Zm0-28.47c-7.71,0-13.99,6.27-13.99,13.99s6.27,13.99,13.99,13.99,13.99-6.27,13.99-13.99-6.27-13.99-13.99-13.99Z" style="fill:#231f20;"/></g><g id="bolts_group-2"><g id="bolt-6"><polygon points="21.49 30.03 24.2 30.03 25.56 27.68 24.2 25.34 21.49 25.34 20.14 27.68 21.49 30.03" style="fill:#aaa;"/><path d="M24.35,30.28h-3l-1.5-2.6,1.5-2.6h3l1.5,2.6-1.5,2.6Zm-2.71-.5h2.42l1.21-2.1-1.21-2.1h-2.42l-1.21,2.1,1.21,2.1Z"/></g><g id="bolt-7"><polygon points="14.54 24.98 17.25 24.93 18.57 22.56 17.17 20.24 14.46 20.28 13.15 22.65 14.54 24.98" style="fill:#aaa;"/><path d="M14.41,25.23l-1.55-2.57,1.46-2.62,3-.05,1.54,2.57-1.46,2.62-3,.05Zm-.97-2.58l1.25,2.08,2.42-.04,1.17-2.12-1.25-2.08-2.42,.04-1.17,2.12Z"/></g><g id="bolt-8"><polygon points="20.49 16.27 21.13 13.63 19.17 11.76 16.57 12.52 15.93 15.15 17.88 17.02 20.49 16.27" style="fill:#aaa;"/><path d="M17.82,17.31l-2.17-2.07,.71-2.91,2.88-.84,2.17,2.07-.71,2.91-2.88,.84Zm-1.61-2.24l1.75,1.67,2.33-.68,.58-2.35-1.75-1.67-2.33,.68-.58,2.35Z"/></g><g id="bolt-9"><polygon points="28.63 12.11 25.92 11.98 24.46 14.26 25.7 16.67 28.41 16.8 29.87 14.52 28.63 12.11" style="fill:#aaa;"/><path d="M28.54,17.06l-3-.14-1.37-2.67,1.62-2.52,3,.14,1.37,2.67-1.62,2.52Zm-2.68-.63l2.42,.12,1.31-2.04-1.11-2.15-2.42-.12-1.31,2.04,1.11,2.15Z"/></g><g id="bolt-10"><polygon points="32.17 23.98 32.19 21.27 29.86 19.9 27.5 21.23 27.47 23.94 29.81 25.32 32.17 23.98" style="fill:#aaa;"/><path d="M29.81,25.61l-2.58-1.52,.03-3,2.61-1.48,2.58,1.52-.03,3-2.61,1.48Zm-2.08-1.81l2.09,1.23,2.11-1.19,.02-2.42-2.09-1.23-2.11,1.19-.02,2.42Z"/></g></g></g></g><g id="conveyor_belt_group-2"><g id="conveyor_belt_group-3"><path d="M159.4,.38H21.46C15.64,.38,10.36,2.73,6.55,6.55,2.73,10.36,.38,15.64,.38,21.46c0,11.64,9.44,21.08,21.08,21.08H159.4c5.82,0,11.09-2.36,14.9-6.18,3.82-3.81,6.18-9.08,6.18-14.9,0-11.64-9.44-21.08-21.08-21.08Zm9.03,31.15c-2.57,2.57-6.13,4.17-10.07,4.17H22.49c-7.86,0-14.24-6.38-14.24-14.24,0-3.93,1.6-7.49,4.17-10.07,2.58-2.57,6.14-4.17,10.07-4.17H158.35c7.87,0,14.24,6.38,14.24,14.24,0,3.93-1.59,7.49-4.17,10.07Z" style="fill:#727272; stroke:#000; stroke-miterlimit:10; stroke-width:.75px;"/></g><g id="tread_group"><g id="tread"><path d="M56.59,7.47c-.06,0-.13-.02-.18-.07-.1-.1-.1-.26,0-.35L63.26,.2c.1-.1,.26-.1,.35,0s.1,.26,0,.35l-6.84,6.84s-.11,.07-.18,.07Z"/></g><g id="tread-2"><path d="M26.59,7.47c-.06,0-.13-.02-.18-.07-.1-.1-.1-.26,0-.35L33.26,.2c.1-.1,.26-.1,.35,0s.1,.26,0,.35l-6.84,6.84s-.11,.07-.18,.07Z"/></g><g id="tread-3"><path d="M86.59,7.47c-.06,0-.13-.02-.18-.07-.1-.1-.1-.26,0-.35L93.26,.2c.1-.1,.26-.1,.35,0s.1,.26,0,.35l-6.84,6.84s-.11,.07-.18,.07Z"/></g><g id="tread-4"><path d="M116.59,7.47c-.06,0-.13-.02-.18-.07-.1-.1-.1-.26,0-.35L123.26,.2c.1-.1,.26-.1,.35,0s.1,.26,0,.35l-6.84,6.84s-.11,.07-.18,.07Z"/></g><g id="tread-5"><path d="M146.59,7.47c-.06,0-.13-.02-.18-.07-.1-.1-.1-.26,0-.35L153.26,.2c.1-.1,.26-.1,.35,0s.1,.26,0,.35l-6.84,6.84s-.11,.07-.18,.07Z"/></g><g id="tread-6"><path d="M126.04,42.78c-.06,0-.13-.02-.18-.07l-6.84-6.84c-.1-.1-.1-.26,0-.35s.26-.1,.35,0l6.84,6.84c.1,.1,.1,.26,0,.35-.05,.05-.11,.07-.18,.07Z"/></g><g id="tread-7"><path d="M156.04,42.78c-.06,0-.13-.02-.18-.07l-6.84-6.84c-.1-.1-.1-.26,0-.35s.26-.1,.35,0l6.84,6.84c.1,.1,.1,.26,0,.35-.05,.05-.11,.07-.18,.07Z"/></g><g id="tread-8"><path d="M96.04,42.78c-.06,0-.13-.02-.18-.07l-6.84-6.84c-.1-.1-.1-.26,0-.35s.26-.1,.35,0l6.84,6.84c.1,.1,.1,.26,0,.35-.05,.05-.11,.07-.18,.07Z"/></g><g id="tread-9"><path d="M66.04,42.78c-.06,0-.13-.02-.18-.07l-6.84-6.84c-.1-.1-.1-.26,0-.35s.26-.1,.35,0l6.84,6.84c.1,.1,.1,.26,0,.35-.05,.05-.11,.07-.18,.07Z"/></g><g id="tread-10"><path d="M36.04,42.78c-.06,0-.13-.02-.18-.07l-6.84-6.84c-.1-.1-.1-.26,0-.35s.26-.1,.35,0l6.84,6.84c.1,.1,.1,.26,0,.35-.05,.05-.11,.07-.18,.07Z"/></g><g id="tread-11"><path d="M12.21,11.29c-.06,0-.13-.02-.18-.07L7.04,6.21c-.1-.1-.1-.26,0-.35s.26-.1,.35,0l5,5c.1,.1,.1,.26,0,.35-.05,.05-.11,.07-.18,.07Z"/></g><g id="tread-12"><path d="M7.21,37.12c-.06,0-.13-.02-.18-.07-.1-.1-.1-.26,0-.35l5.12-5.12c.1-.1,.26-.1,.35,0s.1,.26,0,.35l-5.12,5.12s-.11,.07-.18,.07Z"/></g><g id="tread-13"><path d="M169.28,12.41c-.06,0-.13-.02-.18-.07-.1-.1-.1-.26,0-.35l5.15-5.15c.1-.1,.26-.1,.35,0s.1,.26,0,.35l-5.15,5.15s-.11,.07-.18,.07Z"/></g><g id="tread-14"><path d="M174.43,36.14c-.06,0-.13-.02-.18-.07l-5.14-5.14c-.1-.1-.1-.26,0-.35s.26-.1,.35,0l5.14,5.14c.1,.1,.1,.26,0,.35-.05,.05-.11,.07-.18,.07Z"/></g></g></g></g></g></svg>