<?xml version="1.0" encoding="UTF-8"?><svg id="Layer_2" xmlns="http://www.w3.org/2000/svg" viewBox="0 0 180.85 42.91"><g id="conveyor_icon_group_01"><g id="conveyor_background_group"><g id="conveyor_background"><path d="M172.71,21.61c0,3.93-1.59,7.49-4.17,10.07-2.57,2.57-6.13,4.17-10.07,4.17H22.61c-7.86,0-14.24-6.38-14.24-14.24,0-3.93,1.6-7.49,4.17-10.07,2.58-2.57,6.14-4.17,10.07-4.17H158.47c7.87,0,14.24,6.38,14.24,14.24h0Z" style="fill:#dbdbdb;"/><path d="M158.47,36.1H22.61c-7.99,0-14.49-6.5-14.49-14.49,0-3.86,1.51-7.5,4.24-10.25,2.75-2.74,6.39-4.24,10.25-4.24H158.47c7.99,0,14.49,6.5,14.49,14.49,0,3.87-1.51,7.51-4.24,10.25-2.74,2.74-6.38,4.24-10.25,4.24ZM22.61,7.62c-3.73,0-7.24,1.46-9.89,4.1-2.64,2.65-4.1,6.17-4.1,9.89,0,7.71,6.28,13.99,13.99,13.99H158.47c3.74,0,7.25-1.46,9.89-4.1,2.64-2.64,4.1-6.16,4.1-9.89,0-7.71-6.28-13.99-13.99-13.99H22.61Z" style="fill:#231f20;"/></g><g id="bg_bolt_group"><g id="bolt"><path d="M130.33,24.43h3.25l1.63-2.82-1.63-2.82h-3.25l-1.63,2.82,1.63,2.82Z" style="fill:#aaa;"/><path d="M133.75,24.73h-3.6l-1.8-3.12,1.8-3.12h3.6l1.8,3.12-1.8,3.12Zm-3.25-.6h2.91l1.45-2.52-1.45-2.52h-2.91l-1.45,2.52,1.45,2.52Z"/></g><g id="bolt-2"><path d="M102.72,24.43h3.25l1.63-2.82-1.63-2.82h-3.25l-1.63,2.82,1.63,2.82Z" style="fill:#aaa;"/><path d="M106.15,24.73h-3.6l-1.8-3.12,1.8-3.12h3.6l1.8,3.12-1.8,3.12Zm-3.25-.6h2.91l1.45-2.52-1.45-2.52h-2.91l-1.45,2.52,1.45,2.52Z"/></g><g id="bolt-3"><path d="M78.37,18.79h-3.25l-1.63,2.82,1.63,2.82h3.25l1.63-2.82-1.63-2.82Z" style="fill:#aaa;"/><path d="M78.54,24.73h-3.6l-1.8-3.12,1.8-3.12h3.6l1.8,3.12-1.8,3.12Zm-3.25-.6h2.91l1.45-2.52-1.45-2.52h-2.91l-1.45,2.52,1.45,2.52Z"/></g><g id="bolt-4"><path d="M50.77,18.79h-3.25l-1.63,2.82,1.63,2.82h3.25l1.63-2.82-1.63-2.82Z" style="fill:#aaa;"/><path d="M50.94,24.73h-3.6l-1.8-3.12,1.8-3.12h3.6l1.8,3.12-1.8,3.12Zm-3.25-.6h2.91l1.45-2.52-1.45-2.52h-2.91l-1.45,2.52,1.45,2.52Z"/></g></g></g><g id="wheel_group"><g id="wheel03"><g><path d="M158.47,35.85c7.86,0,14.24-6.37,14.24-14.24s-6.37-14.24-14.24-14.24-14.24,6.37-14.24,14.24,6.37,14.24,14.24,14.24Z" style="fill:#bfbfbf;"/><path d="M158.47,36.1c-7.99,0-14.49-6.5-14.49-14.49s6.5-14.49,14.49-14.49,14.49,6.5,14.49,14.49-6.5,14.49-14.49,14.49Zm0-28.47c-7.71,0-13.99,6.27-13.99,13.99s6.27,13.99,13.99,13.99,13.99-6.27,13.99-13.99-6.27-13.99-13.99-13.99Z"/></g><g><path d="M159.65,12.47h-2.71l-1.36,2.35,1.36,2.35h2.71l1.36-2.35-1.36-2.35Z" style="fill:#aaa;"/><path d="M159.8,17.42h-3l-1.5-2.6,1.5-2.6h3l1.5,2.6-1.5,2.6Zm-2.71-.5h2.42l1.21-2.1-1.21-2.1h-2.42l-1.21,2.1,1.21,2.1Z"/></g><g><path d="M166.6,17.53l-2.71,.05-1.32,2.37,1.4,2.32,2.71-.05,1.31-2.37-1.39-2.32Z" style="fill:#aaa;"/><path d="M163.83,22.52l-1.54-2.57,1.46-2.62,3-.05,1.54,2.57-1.46,2.62-3,.05Zm-.97-2.58l1.25,2.08,2.42-.04,1.17-2.12-1.25-2.08-2.42,.04-1.17,2.12Z"/></g><g><path d="M160.66,26.24l-.64,2.63,1.96,1.87,2.6-.76,.64-2.63-1.96-1.87-2.6,.76Z" style="fill:#aaa;"/><path d="M161.9,31.03l-2.17-2.07,.71-2.91,2.88-.84,2.17,2.07-.71,2.91-2.88,.84Zm-1.61-2.24l1.75,1.67,2.33-.68,.58-2.35-1.75-1.68-2.33,.68-.58,2.35Z"/></g><g><path d="M152.51,30.39l2.71,.13,1.47-2.28-1.24-2.41-2.71-.13-1.47,2.28,1.24,2.41Z" style="fill:#aaa;"/><path d="M155.35,30.78l-3-.14-1.37-2.67,1.62-2.52,3,.14,1.37,2.67-1.62,2.52Zm-2.68-.63l2.42,.12,1.31-2.04-1.11-2.15-2.42-.12-1.31,2.04,1.11,2.15Z"/></g><g><path d="M148.98,18.52l-.02,2.71,2.34,1.38,2.36-1.33,.02-2.71-2.34-1.38-2.36,1.33Z" style="fill:#aaa;"/><path d="M151.28,22.9l-2.58-1.52,.03-3,2.61-1.48,2.58,1.52-.03,3-2.61,1.48Zm-2.08-1.81l2.09,1.23,2.11-1.19,.02-2.42-2.09-1.23-2.11,1.19-.02,2.42Z"/></g></g><g id="wheel01"><g><path d="M22.61,35.85c7.86,0,14.24-6.37,14.24-14.24s-6.37-14.24-14.24-14.24-14.24,6.37-14.24,14.24,6.37,14.24,14.24,14.24Z" style="fill:#bfbfbf;"/><path d="M22.61,36.1c-7.99,0-14.49-6.5-14.49-14.49S14.62,7.12,22.61,7.12s14.49,6.5,14.49,14.49-6.5,14.49-14.49,14.49Zm0-28.47c-7.71,0-13.99,6.27-13.99,13.99s6.27,13.99,13.99,13.99,13.99-6.27,13.99-13.99-6.27-13.99-13.99-13.99Z"/></g><g><path d="M23.97,11.91h-2.71l-1.36,2.35,1.36,2.35h2.71l1.36-2.35-1.36-2.35Z" style="fill:#aaa;"/><path d="M24.11,16.86h-3l-1.5-2.6,1.5-2.6h3l1.5,2.6-1.5,2.6Zm-2.71-.5h2.42l1.21-2.1-1.21-2.1h-2.42l-1.21,2.1,1.21,2.1Z"/></g><g><path d="M30.91,16.97l-2.71,.05-1.31,2.37,1.4,2.32,2.71-.05,1.31-2.37-1.4-2.32Z" style="fill:#aaa;"/><path d="M28.14,21.96l-1.54-2.57,1.46-2.62,3-.05,1.54,2.57-1.46,2.62-3,.05Zm-.97-2.58l1.25,2.08,2.42-.04,1.17-2.12-1.25-2.08-2.42,.04-1.17,2.12Z"/></g><g><path d="M24.97,25.68l-.64,2.63,1.96,1.87,2.6-.76,.64-2.63-1.96-1.87-2.6,.76Z" style="fill:#aaa;"/><path d="M26.22,30.47l-2.17-2.07,.71-2.91,2.88-.84,2.17,2.07-.71,2.91-2.88,.84Zm-1.61-2.24l1.75,1.67,2.33-.68,.58-2.35-1.75-1.67-2.33,.68-.58,2.35Z"/></g><g><path d="M16.83,29.83l2.71,.13,1.47-2.28-1.24-2.41-2.71-.13-1.47,2.28,1.24,2.41Z" style="fill:#aaa;"/><path d="M19.67,30.22l-3-.14-1.37-2.67,1.62-2.52,3,.14,1.37,2.67-1.62,2.52Zm-2.68-.63l2.42,.12,1.31-2.04-1.11-2.15-2.42-.12-1.31,2.04,1.11,2.15Z"/></g><g><path d="M13.29,17.96l-.02,2.71,2.34,1.38,2.36-1.33,.02-2.71-2.34-1.38-2.36,1.33Z" style="fill:#aaa;"/><path d="M15.6,22.34l-2.58-1.52,.03-3,2.61-1.48,2.58,1.52-.03,3-2.61,1.48Zm-2.08-1.81l2.09,1.23,2.11-1.19,.02-2.42-2.09-1.23-2.11,1.19-.02,2.42Z"/></g></g></g><g id="conveyor_belt_group"><g id="conveyor_belt"><path d="M159.39,.37H21.45C15.63,.37,10.36,2.73,6.55,6.55,2.73,10.36,.37,15.63,.37,21.45c0,11.64,9.44,21.08,21.08,21.08H159.39c5.82,0,11.09-2.36,14.9-6.18,3.82-3.81,6.18-9.08,6.18-14.9,0-11.64-9.44-21.08-21.08-21.08Zm9.03,31.15c-2.57,2.57-6.13,4.17-10.07,4.17H22.49c-7.86,0-14.24-6.38-14.24-14.24,0-3.93,1.6-7.49,4.17-10.07,2.58-2.57,6.14-4.17,10.07-4.17H158.35c7.87,0,14.24,6.38,14.24,14.24,0,3.93-1.59,7.49-4.17,10.07h0Z" style="fill:#727272;"/><path d="M159.39,42.91H21.45C9.62,42.91,0,33.29,0,21.46,0,15.72,2.23,10.33,6.29,6.29,10.33,2.23,15.72,0,21.45,0H159.39c11.83,0,21.46,9.62,21.46,21.46,0,5.73-2.23,11.12-6.29,15.17-4.04,4.06-9.43,6.29-15.17,6.29ZM21.45,.75C15.92,.75,10.72,2.91,6.82,6.82,2.91,10.72,.75,15.92,.75,21.46c0,11.42,9.29,20.7,20.7,20.7H159.39c5.53,0,10.73-2.16,14.63-6.07,3.91-3.9,6.07-9.1,6.07-14.64,0-11.42-9.29-20.71-20.71-20.71H21.45ZM158.35,36.07H22.49c-8.06,0-14.61-6.56-14.61-14.61,0-3.89,1.52-7.56,4.28-10.33,2.77-2.76,6.44-4.28,10.34-4.28H158.35c8.06,0,14.61,6.56,14.61,14.62,0,3.9-1.52,7.58-4.28,10.33s-6.43,4.28-10.33,4.28ZM22.49,7.59c-3.69,0-7.18,1.44-9.81,4.06-2.62,2.63-4.06,6.11-4.06,9.8,0,7.65,6.22,13.86,13.86,13.86H158.35c3.7,0,7.19-1.44,9.8-4.06s4.06-6.1,4.06-9.8c0-7.65-6.22-13.87-13.86-13.87H22.49Z"/></g><g id="tread_group"><g id="tread"><path d="M41.46,7.47c-.06,0-.13-.02-.18-.07-.1-.1-.1-.26,0-.35L48.13,.2c.1-.1,.26-.1,.35,0s.1,.26,0,.35l-6.84,6.84s-.11,.07-.18,.07Z"/></g><g id="tread-2"><path d="M71.46,7.47c-.06,0-.13-.02-.18-.07-.1-.1-.1-.26,0-.35L78.13,.2c.1-.1,.26-.1,.35,0s.1,.26,0,.35l-6.84,6.84s-.11,.07-.18,.07Z"/></g><g id="tread-3"><path d="M101.46,7.47c-.06,0-.13-.02-.18-.07-.1-.1-.1-.26,0-.35L108.13,.2c.1-.1,.26-.1,.35,0s.1,.26,0,.35l-6.84,6.84s-.11,.07-.18,.07Z"/></g><g id="tread-4"><path d="M131.46,7.47c-.06,0-.13-.02-.18-.07-.1-.1-.1-.26,0-.35L138.13,.2c.1-.1,.26-.1,.35,0s.1,.26,0,.35l-6.84,6.84s-.11,.07-.18,.07Z"/></g><g id="tread-5"><path d="M161.46,7.47c-.06,0-.13-.02-.18-.07-.1-.1-.1-.26,0-.35l5.46-5.46c.1-.1,.26-.1,.35,0s.1,.26,0,.35l-5.46,5.46s-.11,.07-.18,.07Z"/></g><g id="tread-6"><path d="M170.02,39.91c-.06,0-.13-.02-.18-.07l-5.41-5.41c-.1-.1-.1-.26,0-.35s.26-.1,.35,0l5.41,5.41c.1,.1,.1,.26,0,.35-.05,.05-.11,.07-.18,.07Z"/></g><g id="tread-7"><path d="M140.9,42.78c-.06,0-.13-.02-.18-.07l-6.84-6.84c-.1-.1-.1-.26,0-.35s.26-.1,.35,0l6.84,6.84c.1,.1,.1,.26,0,.35-.05,.05-.11,.07-.18,.07Z"/></g><g id="tread-8"><path d="M110.9,42.78c-.06,0-.13-.02-.18-.07l-6.84-6.84c-.1-.1-.1-.26,0-.35s.26-.1,.35,0l6.84,6.84c.1,.1,.1,.26,0,.35-.05,.05-.11,.07-.18,.07Z"/></g><g id="tread-9"><path d="M80.9,42.78c-.06,0-.13-.02-.18-.07l-6.84-6.84c-.1-.1-.1-.26,0-.35s.26-.1,.35,0l6.84,6.84c.1,.1,.1,.26,0,.35-.05,.05-.11,.07-.18,.07Z"/></g><g id="tread-10"><path d="M50.9,42.78c-.06,0-.13-.02-.18-.07l-6.84-6.84c-.1-.1-.1-.26,0-.35s.26-.1,.35,0l6.84,6.84c.1,.1,.1,.26,0,.35-.05,.05-.11,.07-.18,.07Z"/></g><g id="tread-11"><path d="M20.9,42.78c-.08,0-.17-.04-.21-.12l-5.16-8.53c-.07-.12-.03-.27,.08-.34,.12-.07,.27-.03,.34,.08l5.16,8.53c.07,.12,.03,.27-.08,.34-.04,.02-.08,.04-.13,.04Z"/></g><g id="tread-12"><path d="M15.75,9.15s-.09-.01-.13-.04c-.12-.07-.16-.23-.08-.34L20.69,.24c.07-.12,.23-.16,.34-.08,.12,.07,.16,.23,.08,.34l-5.16,8.53c-.05,.08-.13,.12-.21,.12Z"/></g><g id="tread-13"><path d="M8.26,21.7H.38c-.14,0-.25-.11-.25-.25s.11-.25,.25-.25h7.88c.14,0,.25,.11,.25,.25s-.11,.25-.25,.25Z"/></g><g id="tread-14"><path d="M180.48,21.7h-7.88c-.14,0-.25-.11-.25-.25s.11-.25,.25-.25h7.88c.14,0,.25,.11,.25,.25s-.11,.25-.25,.25Z"/></g></g></g></g></svg>