<?xml version="1.0" encoding="UTF-8"?><svg xmlns="http://www.w3.org/2000/svg" xmlns:xlink="http://www.w3.org/1999/xlink" viewBox="0 0 84 172"><defs><style>.r{filter:url(#f);}.r,.s,.t,.u,.v,.w{stroke:#000;stroke-miterlimit:10;}.r,.s,.t,.v,.w{fill:none;}.s,.u{stroke-width:4px;}.x{fill:#1599af;}.t{filter:url(#l);}.y{isolation:isolate;}.u,.a`{fill:#999;}.v{stroke-width:2px;}.w{filter:url(#i);}.aa{fill:url(#o);mix-blend-mode:screen;opacity:.4;}</style><filter id="f" filterUnits="userSpaceOnUse"><feOffset dx="1" dy="1"/><feGaussianBlur result="g" stdDeviation="1"/><feFlood flood-color="#000" flood-opacity=".75"/><feComposite in2="g" operator="in"/><feComposite in="SourceGraphic"/></filter><filter id="i" filterUnits="userSpaceOnUse"><feOffset dx="0" dy="1"/><feGaussianBlur result="j" stdDeviation="1"/><feFlood flood-color="#000" flood-opacity=".75"/><feComposite in2="j" operator="in"/><feComposite in="SourceGraphic"/></filter><filter id="l" filterUnits="userSpaceOnUse"><feOffset dx="-1" dy="1"/><feGaussianBlur result="m" stdDeviation="1"/><feFlood flood-color="#000" flood-opacity=".75"/><feComposite in2="m" operator="in"/><feComposite in="SourceGraphic"/></filter><radialGradient id="o" cx="42" cy="130" fx="42" fy="130" r="25.88" gradientTransform="matrix(1, 0, 0, 1, 0, 0)" gradientUnits="userSpaceOnUse"><stop offset="0" stop-color="#fff"/><stop offset=".13" stop-color="#fafafa"/><stop offset=".26" stop-color="#eee"/><stop offset=".4" stop-color="#dad9d9"/><stop offset=".54" stop-color="#bdbcbc"/><stop offset=".67" stop-color="#989797"/><stop offset=".81" stop-color="#6b6969"/><stop offset=".95" stop-color="#373334"/><stop offset="1" stop-color="#231f20"/></radialGradient></defs><g class="y"><g id="a"><g id="b"><path class="a`" d="M82,130c0,22.09-17.91,40-40,40S2,152.09,2,130c0-13.96,7.16-26.26,18-33.41V24c0-12.15,9.85-22,22-22s22,9.85,22,22V96.59c10.84,7.15,18,19.45,18,33.41Z"/><path class="s" d="M82,130c0,22.09-17.91,40-40,40S2,152.09,2,130c0-13.96,7.16-26.26,18-33.41V24c0-12.15,9.85-22,22-22s22,9.85,22,22V96.59c10.84,7.15,18,19.45,18,33.41Z"/></g><g id="c"><g id="d"><path class="x" d="M68.88,130c0,15.41-12.98,27.78-28.59,26.82-13.13-.82-23.92-11.32-25.06-24.43-1.13-13.07,7.12-24.42,18.77-28.05V26.02c0-1.12,.9-2.02,2.02-2.02h11.97c1.11,0,2.01,.9,2.01,2.01V104.34c10.94,3.41,18.88,13.61,18.88,25.66Z"/><path class="v" d="M68.88,130c0,15.41-12.98,27.78-28.59,26.82-13.13-.82-23.92-11.32-25.06-24.43-1.13-13.07,7.12-24.42,18.77-28.05V26.02c0-1.12,.9-2.02,2.02-2.02h11.97c1.11,0,2.01,.9,2.01,2.01V104.34c10.94,3.41,18.88,13.61,18.88,25.66Z"/></g><g id="e"><path id="h" class="r" d="M34,26.02V102.32"/><path id="k" class="w" d="M50,26.02c0-1.11-.91-2.02-2.02-2.02h-11.96c-1.11,0-2.02,.91-2.02,2.02"/><path id="n" class="t" d="M50,102.32V26.02"/></g><circle id="p" class="aa" cx="42" cy="130" r="25.88"/></g><g id="q"><line class="u" x1="20" y1="86.59" x2="29.9" y2="86.59"/><line class="u" x1="20" y1="66.59" x2="29.9" y2="66.59"/><line class="u" x1="20" y1="46.59" x2="29.9" y2="46.59"/><line class="u" x1="20" y1="26.59" x2="29.9" y2="26.59"/></g></g></g></svg>