<?xml version="1.0" encoding="UTF-8"?><svg xmlns="http://www.w3.org/2000/svg" viewBox="0 0 158.77 158.78"><defs><style>.h{fill:#999;}</style></defs><g id="a"/><g id="b"><g id="c"><g id="d"><path class="h" d="M79.39,.5C35.82,.5,.5,35.82,.5,79.39s35.32,78.89,78.89,78.89,78.89-35.32,78.89-78.89S122.96,.5,79.39,.5Zm0,145.56c-36.82,0-66.67-29.85-66.67-66.67S42.56,12.71,79.39,12.71s66.67,29.85,66.67,66.67-29.85,66.67-66.67,66.67Z"/><path d="M79.39,158.78C35.61,158.78,0,123.16,0,79.39S35.61,0,79.39,0s79.39,35.61,79.39,79.39-35.61,79.39-79.39,79.39ZM79.39,1C36.16,1,1,36.16,1,79.39s35.16,78.39,78.39,78.39,78.39-35.17,78.39-78.39S122.61,1,79.39,1Zm0,145.56c-37.04,0-67.17-30.13-67.17-67.17S42.35,12.21,79.39,12.21s67.17,30.13,67.17,67.17-30.13,67.17-67.17,67.17Zm0-133.35C42.9,13.21,13.21,42.9,13.21,79.39s29.69,66.17,66.17,66.17,66.17-29.68,66.17-66.17S115.88,13.21,79.39,13.21Z"/></g><g id="e"><g id="f"><rect class="h" x="46.06" y="44.2" width="17.47" height="70.37"/><path d="M64.03,115.08h-18.47V43.7h18.47V115.08Zm-17.47-1h16.47V44.7h-16.47V114.08Z"/></g><g id="g"><rect class="h" x="95.25" y="44.2" width="17.47" height="70.37"/><path d="M113.22,115.08h-18.47V43.7h18.47V115.08Zm-17.47-1h16.47V44.7h-16.47V114.08Z"/></g></g></g></g></svg>